<svg width="27" height="20" viewBox="0 0 27 20" fill="none" xmlns="http://www.w3.org/2000/svg">
<path d="M4.37568 18.9563V17.6326C4.37568 17.125 4.06673 16.7942 3.53719 16.7942C3.27246 16.7942 2.98563 16.8824 2.78704 17.1692C2.63266 16.9265 2.41206 16.7942 2.08111 16.7942C1.8604 16.7942 1.6399 16.8603 1.46332 17.103V16.8383H1V18.9563H1.46332V17.7869C1.46332 17.412 1.66191 17.2354 1.97085 17.2354C2.2796 17.2354 2.43417 17.434 2.43417 17.7869V18.9563H2.89749V17.7869C2.89749 17.412 3.11799 17.2354 3.40482 17.2354C3.71377 17.2354 3.86814 17.434 3.86814 17.7869V18.9563H4.37568ZM11.2371 16.8383H10.487V16.1985H10.0237V16.8383H9.60452V17.2574H10.0236V18.2282C10.0236 18.7137 10.2222 19.0004 10.7518 19.0004C10.9504 19.0004 11.1709 18.9343 11.3254 18.846L11.193 18.4488C11.0606 18.5371 10.9062 18.5592 10.7959 18.5592C10.5753 18.5592 10.487 18.4268 10.487 18.2061V17.2574H11.2371V16.8383ZM15.1643 16.7941C14.8996 16.7941 14.7231 16.9265 14.6128 17.103V16.8383H14.1494V18.9563H14.6128V17.7649C14.6128 17.412 14.7671 17.2134 15.054 17.2134C15.1422 17.2134 15.2526 17.2355 15.3408 17.2575L15.4732 16.8163C15.3849 16.7942 15.2526 16.7942 15.1643 16.7942M9.22945 17.0149C9.00874 16.8604 8.6999 16.7943 8.36894 16.7943C7.8395 16.7943 7.48653 17.059 7.48653 17.4782C7.48653 17.8313 7.75126 18.0297 8.21457 18.096L8.43518 18.1181C8.67789 18.1621 8.81025 18.2283 8.81025 18.3387C8.81025 18.4931 8.63377 18.6034 8.32482 18.6034C8.01588 18.6034 7.77327 18.4931 7.61879 18.3828L7.39819 18.7358C7.6409 18.9123 7.97186 19.0005 8.30271 19.0005C8.9205 19.0005 9.27357 18.7138 9.27357 18.3166C9.27357 17.9415 8.98673 17.7429 8.54543 17.6768L8.32482 17.6547C8.12623 17.6326 7.97186 17.5885 7.97186 17.4562C7.97186 17.3017 8.12623 17.2135 8.36894 17.2135C8.63377 17.2135 8.89849 17.3237 9.03085 17.3899L9.22945 17.0149ZM21.5405 16.7943C21.2757 16.7943 21.0992 16.9266 20.9888 17.1031V16.8384H20.5255V18.9564H20.9888V17.765C20.9888 17.4121 21.1433 17.2135 21.4301 17.2135C21.5184 17.2135 21.6287 17.2356 21.717 17.2576L21.8493 16.8164C21.7611 16.7943 21.6287 16.7943 21.5405 16.7943ZM15.6276 17.8974C15.6276 18.5372 16.0688 19.0005 16.7529 19.0005C17.0617 19.0005 17.2823 18.9344 17.5029 18.7579L17.2823 18.3828C17.1058 18.5152 16.9293 18.5813 16.7308 18.5813C16.3557 18.5813 16.091 18.3166 16.091 17.8974C16.091 17.5003 16.3557 17.2355 16.7308 17.2135C16.9293 17.2135 17.1058 17.2796 17.2823 17.4121L17.5029 17.037C17.2823 16.8604 17.0617 16.7943 16.7529 16.7943C16.0688 16.7943 15.6276 17.2576 15.6276 17.8974ZM19.9078 17.8974V16.8384H19.4445V17.1031C19.2901 16.9046 19.0694 16.7943 18.7826 16.7943C18.1869 16.7943 17.7236 17.2576 17.7236 17.8974C17.7236 18.5372 18.1869 19.0005 18.7826 19.0005C19.0915 19.0005 19.3122 18.8903 19.4445 18.6917V18.9564H19.9078V17.8974ZM18.2089 17.8974C18.2089 17.5223 18.4517 17.2135 18.8487 17.2135C19.2238 17.2135 19.4886 17.5003 19.4886 17.8974C19.4886 18.2725 19.2238 18.5813 18.8487 18.5813C18.4517 18.5592 18.2089 18.2725 18.2089 17.8974ZM12.6713 16.7943C12.0535 16.7943 11.6122 17.2355 11.6122 17.8974C11.6122 18.5593 12.0534 19.0005 12.6933 19.0005C13.0021 19.0005 13.3111 18.9123 13.5538 18.7138L13.3331 18.3828C13.1566 18.5152 12.936 18.6034 12.7154 18.6034C12.4285 18.6034 12.1417 18.4711 12.0755 18.0959H13.642V17.9195C13.6641 17.2355 13.267 16.7943 12.6713 16.7943ZM12.6712 17.1914C12.9579 17.1914 13.1566 17.3679 13.2006 17.6989H12.0975C12.1416 17.4121 12.3402 17.1914 12.6712 17.1914ZM24.1658 17.8974V16H23.7025V17.1031C23.548 16.9046 23.3274 16.7943 23.0406 16.7943C22.4449 16.7943 21.9816 17.2576 21.9816 17.8974C21.9816 18.5372 22.4449 19.0005 23.0406 19.0005C23.3495 19.0005 23.5702 18.8903 23.7025 18.6917V18.9564H24.1658V17.8974ZM22.467 17.8974C22.467 17.5223 22.7096 17.2135 23.1068 17.2135C23.4819 17.2135 23.7466 17.5003 23.7466 17.8974C23.7466 18.2725 23.4819 18.5813 23.1068 18.5813C22.7096 18.5592 22.467 18.2725 22.467 17.8974ZM6.97889 17.8974V16.8384H6.51558V17.1031C6.36111 16.9046 6.1405 16.7943 5.85367 16.7943C5.25799 16.7943 4.79467 17.2576 4.79467 17.8974C4.79467 18.5372 5.25799 19.0005 5.85367 19.0005C6.16261 19.0005 6.38322 18.8903 6.51558 18.6917V18.9564H6.97889V17.8974ZM5.25799 17.8974C5.25799 17.5223 5.5007 17.2135 5.89779 17.2135C6.27286 17.2135 6.53769 17.5003 6.53769 17.8974C6.53769 18.2725 6.27286 18.5813 5.89779 18.5813C5.5007 18.5592 5.25799 18.2725 5.25799 17.8974Z" fill="black"/>
<path d="M10 2H16.9497V14.4875H10V2Z" fill="#FF5F00"/>
<path d="M10.818 7.94261C10.818 5.40543 12.0093 3.15497 13.8405 1.69879C12.4948 0.639799 10.796 0 8.94271 0C4.55206 0 1 3.55206 1 7.94261C1 12.3332 4.55206 15.8852 8.94261 15.8852C10.7959 15.8852 12.4947 15.2454 13.8405 14.1863C12.0093 12.7523 10.818 10.4798 10.818 7.94261Z" fill="#EB001B"/>
<path d="M25.8405 7.94261C25.8405 12.3331 22.2884 15.8852 17.8979 15.8852C16.0446 15.8852 14.3458 15.2454 13 14.1863C14.8533 12.7303 16.0226 10.4798 16.0226 7.94261C16.0226 5.40543 14.8312 3.15497 13 1.69879C14.3457 0.639799 16.0446 0 17.8979 0C22.2884 0 25.8405 3.57417 25.8405 7.94261Z" fill="#F79E1B"/>
</svg>
