<?xml version="1.0" encoding="UTF-8"?>
<svg version="1.1" xmlns="http://www.w3.org/2000/svg" width="225" height="225">
<path d="M0 0 C74.25 0 148.5 0 225 0 C225 74.25 225 148.5 225 225 C150.75 225 76.5 225 0 225 C0 150.75 0 76.5 0 0 Z " fill="#FF7900" transform="translate(0,0)"/>
<path d="M0 0 C3.7647859 2.45148849 5.2764566 4.51686981 6.6875 8.75 C6.77504798 10.42220971 6.80515995 12.09772199 6.80102539 13.7722168 C6.80094986 14.79304855 6.80087433 15.81388031 6.80079651 16.86564636 C6.79563522 17.96572525 6.79047394 19.06580414 6.78515625 20.19921875 C6.7837413 21.3269722 6.78232635 22.45472565 6.78086853 23.61665344 C6.7752647 27.22362912 6.76271153 30.83054304 6.75 34.4375 C6.74498549 36.88085848 6.7404225 39.32421793 6.73632812 41.76757812 C6.72529403 47.76173987 6.70855215 53.75586552 6.6875 59.75 C7.565271 60.02545654 8.44304199 60.30091309 9.34741211 60.5847168 C14.57198877 62.40745668 19.34940523 65.01197019 24.25 67.5625 C25.27802734 68.08392578 26.30605469 68.60535156 27.36523438 69.14257812 C34.00123338 72.58744864 38.50499684 75.47624526 42.6875 81.75 C43.18104177 86.98154276 42.53789842 90.32696797 39.6875 94.75 C37.50795461 97.25977954 35.92149238 98.54276795 32.60424805 99.09985352 C25.06744793 99.3867584 20.03101787 96.96976379 13.5625 93.3125 C12.56492676 92.76770996 11.56735352 92.22291992 10.53955078 91.66162109 C8.527898 90.55933232 6.52111003 89.44811422 4.51953125 88.32763672 C1.96643022 86.90538337 -0.60296299 85.52415752 -3.1875 84.16015625 C-4.60478193 83.3995829 -6.02149326 82.63794483 -7.4375 81.875 C-8.06930176 81.54314697 -8.70110352 81.21129395 -9.35205078 80.86938477 C-14.25753588 78.15166262 -17.78367254 74.80765491 -20.3125 69.75 C-20.42422327 67.81123921 -20.47178326 65.86865419 -20.48950195 63.92675781 C-20.50233719 62.7049884 -20.51517242 61.48321899 -20.52839661 60.22442627 C-20.53656524 58.88399664 -20.54400874 57.54356241 -20.55078125 56.203125 C-20.55485678 55.52842918 -20.5589323 54.85373337 -20.56313133 54.15859222 C-20.5839944 50.58554897 -20.59829346 47.01254412 -20.60766602 43.43945312 C-20.61871432 39.75621261 -20.65309415 36.07357894 -20.69283772 32.39055252 C-20.71904157 29.55258089 -20.72736126 26.7147528 -20.73094749 23.87667084 C-20.73816184 21.86147956 -20.76458771 19.84638653 -20.79133606 17.83135986 C-20.76438871 6.46152652 -20.76438871 6.46152652 -16.3125 1.75 C-11.28210534 -2.44199555 -5.83568079 -2.2021437 0 0 Z " fill="#FFFCFB" transform="translate(119.3125,57.25)"/>
<path d="M0 0 C0.33 0 0.66 0 1 0 C1 33.66 1 67.32 1 102 C-32.66 102 -66.32 102 -101 102 C-101 101.67 -101 101.34 -101 101 C-99.92105469 100.86464844 -98.84210938 100.72929687 -97.73046875 100.58984375 C-75.05585806 97.45437424 -53.96313595 88.58707034 -37 73 C-36.51047852 72.55285645 -36.02095703 72.10571289 -35.51660156 71.64501953 C-14.7275173 52.44444805 -3.86607806 27.72260853 0 0 Z " fill="#FFFDFC" transform="translate(224,123)"/>
<path d="M0 0 C33.66 0 67.32 0 102 0 C102 33.66 102 67.32 102 102 C101.67 102 101.34 102 101 102 C100.86537354 101.17145508 100.86537354 101.17145508 100.72802734 100.32617188 C96.78315185 76.60779221 89.20124431 53.37318071 71.2421875 36.33203125 C70 35 70 35 70 33 C69.41992188 32.74347656 68.83984375 32.48695312 68.2421875 32.22265625 C65.79277972 30.88700357 64.13246274 29.37075692 62.125 27.4375 C51.72712209 18.0743212 39.89800191 12.12559034 27 7 C26.21496094 6.67257813 25.42992187 6.34515625 24.62109375 6.0078125 C20.98706011 4.62815981 17.28092157 3.81759704 13.45703125 3.16015625 C12.63444824 3.01868164 11.81186523 2.87720703 10.96435547 2.73144531 C7.31359417 2.12615967 3.65851942 1.55647383 0 1 C0 0.67 0 0.34 0 0 Z " fill="#FFFDFD" transform="translate(123,0)"/>
<path d="M0 0 C0.33 0 0.66 0 1 0 C1.13535156 1.07894531 1.27070313 2.15789062 1.41015625 3.26953125 C4.49727127 25.59445928 13.16117962 45.93217227 28 63 C28.47695313 63.6084375 28.95390625 64.216875 29.4453125 64.84375 C40.90818393 79.25421694 58.21413205 88.33662943 75 95 C75.79664062 95.32742187 76.59328125 95.65484375 77.4140625 95.9921875 C84.93082945 98.80734732 93.10999988 99.72274395 101 101 C101 101.33 101 101.66 101 102 C67.67 102 34.34 102 0 102 C0 68.34 0 34.68 0 0 Z " fill="#FFFDFD" transform="translate(0,123)"/>
<path d="M0 0 C33.33 0 66.66 0 101 0 C101 0.33 101 0.66 101 1 C99.741875 1.21914063 98.48375 1.43828125 97.1875 1.6640625 C74.87914958 5.72032543 54.9272673 13.4458886 38 29 C37.51047852 29.44714355 37.02095703 29.89428711 36.51660156 30.35498047 C16.05193262 49.2559255 5.06264291 73.71753623 1 101 C0.67 101 0.34 101 0 101 C0 67.67 0 34.34 0 0 Z " fill="#FFFDFD" transform="translate(0,0)"/>
</svg>
