<svg width="94" height="46" viewBox="0 0 94 46" fill="none" xmlns="http://www.w3.org/2000/svg">
<path d="M33.9105 33.3816C32.4605 33.3816 31.1631 33.0509 30.0184 32.3895C28.899 31.728 28.0214 30.7614 27.3854 29.4894C26.7494 28.192 26.4314 26.6148 26.4314 24.7577V14.1115C26.4314 13.8316 26.5205 13.6027 26.6986 13.4246C26.8766 13.2465 27.1056 13.1575 27.3854 13.1575H32.1552C32.4351 13.1575 32.664 13.2465 32.8421 13.4246C33.0202 13.6027 33.1092 13.8316 33.1092 14.1115V24.5288C33.1092 27.0218 34.2285 28.2683 36.4672 28.2683C37.5102 28.2683 38.337 27.9503 38.9475 27.3144C39.5835 26.6529 39.9015 25.7244 39.9015 24.5288V14.1115C39.9015 13.8316 39.9905 13.6027 40.1686 13.4246C40.3466 13.2465 40.5756 13.1575 40.8554 13.1575H45.6253C45.9051 13.1575 46.134 13.2465 46.3121 13.4246C46.4902 13.6027 46.5792 13.8316 46.5792 14.1115V32.046C46.5792 32.3259 46.4902 32.5548 46.3121 32.7329C46.134 32.911 45.9051 33 45.6253 33H41.1989C40.9445 33 40.7155 32.911 40.512 32.7329C40.3339 32.5548 40.2449 32.3259 40.2449 32.046V30.596C39.5835 31.5118 38.7185 32.2114 37.6501 32.6947C36.6071 33.1526 35.3606 33.3816 33.9105 33.3816ZM63.2021 33.3816C61.7775 33.3816 60.5819 33.1399 59.6152 32.6566C58.6739 32.1732 57.898 31.5627 57.2875 30.825V32.046C57.2875 32.3259 57.1857 32.5548 56.9822 32.7329C56.8042 32.911 56.5879 33 56.3335 33H52.0216C51.7418 33 51.5128 32.911 51.3347 32.7329C51.1567 32.5548 51.0676 32.3259 51.0676 32.046V6.8613C51.0676 6.58147 51.1567 6.35252 51.3347 6.17445C51.5128 5.99637 51.7418 5.90734 52.0216 5.90734H56.677C56.9568 5.90734 57.1857 5.99637 57.3638 6.17445C57.5419 6.35252 57.6309 6.58147 57.6309 6.8613V15.0273C58.2415 14.3658 59.0046 13.8316 59.9205 13.4246C60.8617 12.9921 61.9556 12.7759 63.2021 12.7759C64.4741 12.7759 65.5934 12.9921 66.5601 13.4246C67.5522 13.8316 68.3917 14.4294 69.0785 15.2181C69.7654 16.0067 70.2996 16.9479 70.6812 18.0418C71.0628 19.1357 71.279 20.3695 71.3299 21.7432C71.3553 22.2265 71.3681 22.6717 71.3681 23.0787C71.3681 23.4603 71.3553 23.9055 71.3299 24.4143C71.279 25.8389 71.0501 27.1108 70.643 28.2302C70.2615 29.324 69.7272 30.2653 69.0404 31.0539C68.3535 31.8171 67.5268 32.4022 66.5601 32.8092C65.5934 33.1908 64.4741 33.3816 63.2021 33.3816ZM61.1415 28.2683C62.0065 28.2683 62.6806 28.0902 63.1639 27.7341C63.6473 27.378 63.9907 26.8946 64.1942 26.2841C64.4232 25.6735 64.5631 24.9994 64.614 24.2617C64.6648 23.473 64.6648 22.6844 64.614 21.8958C64.5631 21.1581 64.4232 20.484 64.1942 19.8734C63.9907 19.2629 63.6473 18.7795 63.1639 18.4234C62.6806 18.0672 62.0065 17.8892 61.1415 17.8892C60.3529 17.8892 59.7042 18.0672 59.1954 18.4234C58.6867 18.7541 58.3051 19.1993 58.0507 19.7589C57.7963 20.2932 57.6564 20.8783 57.6309 21.5142C57.6055 21.9976 57.5928 22.4682 57.5928 22.9261C57.5928 23.384 57.6055 23.8674 57.6309 24.3761C57.6564 25.063 57.7836 25.699 58.0125 26.2841C58.2415 26.8692 58.6103 27.3525 59.1191 27.7341C59.6279 28.0902 60.302 28.2683 61.1415 28.2683ZM81.0932 33.3816C79.7194 33.3816 78.4856 33.1272 77.3918 32.6184C76.3233 32.0842 75.4711 31.3719 74.8351 30.4815C74.1992 29.5912 73.8812 28.5863 73.8812 27.467C73.8812 25.6608 74.6189 24.2362 76.0944 23.1932C77.5698 22.1248 79.5286 21.3998 81.9708 21.0182L86.7406 20.2932V19.7589C86.7406 18.8431 86.5498 18.1436 86.1683 17.6602C85.7867 17.1769 85.0871 16.9352 84.0695 16.9352C83.3572 16.9352 82.7721 17.0751 82.3142 17.3549C81.8818 17.6348 81.5383 18.0164 81.2839 18.4997C81.055 18.8304 80.737 18.9958 80.33 18.9958H76.0562C75.7764 18.9958 75.5601 18.9194 75.4075 18.7668C75.2549 18.5887 75.1913 18.3852 75.2167 18.1563C75.2167 17.6984 75.3821 17.1769 75.7128 16.5918C76.0689 15.9812 76.6031 15.3834 77.3154 14.7983C78.0277 14.2132 78.9435 13.7299 80.0629 13.3483C81.1822 12.9667 82.5305 12.7759 84.1077 12.7759C85.7612 12.7759 87.1731 12.9667 88.3433 13.3483C89.5135 13.7299 90.4548 14.2641 91.167 14.9509C91.9048 15.6378 92.4517 16.4519 92.8079 17.3931C93.164 18.3089 93.3421 19.3265 93.3421 20.4458V32.046C93.3421 32.3259 93.2403 32.5548 93.0368 32.7329C92.8587 32.911 92.6425 33 92.3881 33H87.9617C87.6819 33 87.4529 32.911 87.2749 32.7329C87.0968 32.5548 87.0077 32.3259 87.0077 32.046V30.7105C86.677 31.1938 86.2319 31.639 85.6722 32.046C85.1125 32.4531 84.4511 32.771 83.6879 33C82.9502 33.2544 82.0853 33.3816 81.0932 33.3816ZM82.8866 29.0315C83.6243 29.0315 84.2858 28.8789 84.8709 28.5736C85.4814 28.2429 85.952 27.7468 86.2827 27.0854C86.6389 26.3985 86.817 25.5463 86.817 24.5288V23.9946L83.5735 24.5669C82.3778 24.7704 81.5002 25.0884 80.9405 25.5209C80.4063 25.9279 80.1392 26.4113 80.1392 26.9709C80.1392 27.4034 80.2664 27.7723 80.5208 28.0775C80.7752 28.3828 81.1059 28.6245 81.5129 28.8025C81.9199 28.9552 82.3778 29.0315 82.8866 29.0315Z" fill="white"/>
<rect x="6.17908" y="8.20895" width="5.49254" height="26.0896" fill="white"/>
<path d="M23.3433 8.20892H28.9045V34.2985H23.3433V8.20892Z" fill="white"/>
<path d="M15.1045 22.9701L20.597 21.597L28.8358 34.2985H21.9702L15.1045 22.9701Z" fill="white"/>
<path d="M6.17908 8.20895H12.7015L16.1343 14.0448L11.9462 17.2716L6.17908 8.20895Z" fill="white"/>
</svg>
