<svg width="29" height="29" viewBox="0 0 29 29" fill="none" xmlns="http://www.w3.org/2000/svg">
<g clip-path="url(#clip0_1783_838)">
<path d="M20.2778 20.6171L18.5561 22.4297C18.4419 22.5499 18.2847 22.6198 18.119 22.6241C17.9533 22.6283 17.7927 22.5666 17.6725 22.4524C17.6425 22.4241 17.6156 22.3928 17.5921 22.3589L14.1745 17.5137L12.8978 18.8578L12.9485 20.8078C12.9526 20.9725 12.8916 21.1321 12.7786 21.252L11.4873 22.6115C11.4169 22.6859 11.3293 22.7418 11.2322 22.7744C11.1351 22.807 11.0314 22.8152 10.9304 22.7983C10.8294 22.7814 10.734 22.74 10.6528 22.6776C10.5715 22.6152 10.5069 22.5338 10.4645 22.4405L9.16546 19.6109L6.27277 18.459C6.17746 18.4215 6.09285 18.3611 6.02637 18.2831C5.95988 18.2052 5.91358 18.1121 5.89152 18.0121C5.86946 17.9121 5.87233 17.8082 5.89986 17.7095C5.9274 17.6108 5.97877 17.5205 6.04944 17.4463L7.34074 16.0868C7.39724 16.0273 7.46492 15.9794 7.53991 15.946C7.61491 15.9126 7.69575 15.8943 7.77782 15.8921L9.72781 15.8425L11.0024 14.5006L5.98792 11.3366C5.95287 11.3149 5.92018 11.2896 5.89038 11.2612C5.77019 11.147 5.70028 10.9898 5.69602 10.8241C5.69175 10.6584 5.75349 10.4978 5.86765 10.3776L7.58939 8.56494C7.66929 8.4807 7.77109 8.42038 7.88336 8.39075C7.99562 8.36111 8.11393 8.36334 8.225 8.39718L14.8731 10.4256L17.2975 7.87319C17.6971 7.45254 18.2474 7.20784 18.8273 7.19293C19.4073 7.17801 19.9695 7.3941 20.3901 7.79365C20.8107 8.19321 21.0554 8.7435 21.0704 9.32347C21.0853 9.90343 20.8692 10.4656 20.4696 10.8862L18.0452 13.4386L20.4127 19.9737C20.4522 20.0829 20.4605 20.2009 20.4367 20.3146C20.4128 20.4282 20.3578 20.533 20.2778 20.6171Z" fill="white"/>
</g>
<defs>
<clipPath id="clip0_1783_838">
<rect width="20" height="20" fill="white" transform="translate(14) rotate(43.5268)"/>
</clipPath>
</defs>
</svg>
