<svg width="112" height="8" viewBox="0 0 112 8" fill="none" xmlns="http://www.w3.org/2000/svg">
<g clip-path="url(#clip0_1801_1308)">
<path d="M109.665 3.20247H107.952C107.571 3.20247 107.33 2.96701 107.33 2.64325C107.33 2.3195 107.616 2.12818 107.952 2.12818H111.048L111.765 0.587891H107.952C106.378 0.587891 105.472 1.51992 105.472 2.73646C105.472 4.04129 106.328 4.79182 107.711 4.79182H109.425C109.805 4.79182 110.046 5.02727 110.046 5.35103C110.046 5.67969 109.805 5.91025 109.425 5.91025H105.707V7.45054H109.425C110.998 7.45054 111.905 6.56266 111.905 5.25783C111.905 3.94809 111.093 3.20247 109.665 3.20247ZM102.851 3.20247H101.138C100.757 3.20247 100.516 2.96701 100.516 2.64325C100.516 2.3195 100.802 2.12818 101.138 2.12818H104.234L104.951 0.587891H101.138C99.5645 0.587891 98.6576 1.51992 98.6576 2.73646C98.6576 4.04129 99.5144 4.79182 100.897 4.79182H102.611C102.992 4.79182 103.232 5.02727 103.232 5.35103C103.232 5.67969 102.992 5.91025 102.611 5.91025H98.8931V7.45054H102.611C104.184 7.45054 105.091 6.56266 105.091 5.25783C105.091 3.94809 104.279 3.20247 102.851 3.20247ZM91.9839 7.40149H97.8459V5.86119H93.8427V4.74276H97.7507V3.20247H93.8427V2.12818H97.8459V0.592796H91.9839V7.40149ZM88.3114 3.48207H86.3573V2.12818H88.3114C88.8825 2.12818 89.1681 2.45685 89.1681 2.82966C89.123 3.20247 88.8374 3.48207 88.3114 3.48207ZM91.0319 2.78551C91.0319 1.48067 90.08 0.592796 88.5518 0.592796H84.5486V7.40639H86.4074V5.02727H87.0738L89.1731 7.40639H91.4628L89.1731 4.93407C90.3155 4.69861 91.0319 3.85489 91.0319 2.78551ZM81.0214 3.62433H79.0173V2.13309H81.0214C81.5926 2.13309 81.8781 2.46175 81.8781 2.87871C81.833 3.29567 81.5475 3.62433 81.0214 3.62433ZM81.2118 0.592796H77.1584V7.40639H79.0223V5.16463H81.1667C82.7399 5.16463 83.6919 4.18355 83.6919 2.87871C83.6919 1.52482 82.7399 0.592796 81.2118 0.592796ZM76.8278 0.592796H74.4429L72.6342 2.64816L70.8204 0.592796H68.3904L71.4417 3.95299L68.3454 7.40639H70.7302L72.5891 5.25783L74.498 7.40639H76.928L73.7815 3.90884L76.8278 0.592796ZM62.1977 7.40149H68.0598V5.86119H64.0565V4.74276H67.9646V3.20247H64.0565V2.12818H68.0598V0.592796H62.1977V7.40149ZM55.6643 4.74276L52.8034 0.587891H50.4686V7.40149H52.3275V3.06021L55.2334 7.40149H57.473V0.592796H55.6643V4.74276ZM44.8471 4.51221L45.799 2.22629L46.751 4.51221H44.8471ZM44.6567 0.592796L41.6054 7.40639H43.6546L44.2258 6.00836H47.4675L48.0887 7.40639H50.1881L47.0416 0.592796H44.6567ZM38.5542 4.0462V3.90394C38.5542 2.87871 39.1253 2.17724 40.3178 2.17724H42.4171V0.592796H40.1775C37.8878 0.592796 36.7004 2.03989 36.7004 3.90394V4.0462C36.7004 6.1457 38.0331 7.35734 40.0823 7.35734H40.7036L41.4651 5.81704H40.3679C39.2706 5.8661 38.5542 5.25783 38.5542 4.0462ZM33.8846 0.592796V7.40639H35.7434V0.592796H33.8846ZM30.1669 3.48207H28.2129V2.12818H30.1669C30.7381 2.12818 31.0237 2.45685 31.0237 2.82966C31.0237 3.20247 30.7381 3.48207 30.1669 3.48207ZM32.8825 2.78551C32.8825 1.48067 31.9306 0.592796 30.4024 0.592796H26.3992V7.40639H28.258V5.02727H28.9244L31.0237 7.40639H33.3585L31.0688 4.93407C32.2162 4.69861 32.8825 3.85489 32.8825 2.78551ZM19.2996 7.40149H25.1617V5.86119H21.1584V4.74276H25.0665V3.20247H21.1584V2.12818H25.1617V0.592796H19.2996V7.40149ZM13.3925 4.88502L11.8193 0.592796H8.9133V7.40639H10.722V2.5059L12.5307 7.40639H14.1992L16.058 2.5059V7.40639H17.8667V0.592796H14.9607L13.3925 4.88502ZM3.28675 4.51221L4.2387 2.22629L5.19066 4.51221C5.19567 4.51221 3.28675 4.51221 3.28675 4.51221ZM3.05126 0.592796L0 7.40639H2.0492L2.62038 6.00836H5.86204L6.48331 7.40639H8.58262L5.48627 0.592796H3.05126Z" fill="white"/>
</g>
<defs>
<clipPath id="clip0_1801_1308">
<rect width="112" height="7" fill="white" transform="translate(0 0.5)"/>
</clipPath>
</defs>
</svg>
