<svg width="152" height="144" viewBox="0 0 152 144" fill="none" xmlns="http://www.w3.org/2000/svg">
<rect width="152" height="144" rx="8" fill="white" fill-opacity="0.07"/>
<g clip-path="url(#clip0_1783_995)">
<path d="M48.4359 81.7935H47.8714V77.4117L46.0652 79.6565H46.0031L44.1885 77.4117V81.7935H43.624V76.5303H44.1885L46.0568 78.8402L47.8912 76.5303H48.4556L48.4359 81.7935Z" fill="white"/>
<path d="M52.7135 81.5471C52.2846 81.8561 52.1237 81.8646 52.0306 81.8646C51.7483 81.8646 51.6834 81.6321 51.6552 81.4706C51.3778 81.7198 51.0199 81.8598 50.6477 81.8646C50.5314 81.8668 50.4158 81.8458 50.3077 81.8026C50.1996 81.7595 50.1011 81.6951 50.0181 81.6133C49.935 81.5315 49.8691 81.4339 49.824 81.3261C49.779 81.2184 49.7558 81.1028 49.7559 80.9859C49.7559 80.4191 50.2159 79.9656 51.6467 79.7105V79.4016C51.6467 79.1777 51.6072 78.7299 50.9638 78.7299C50.5514 78.75 50.1637 78.9335 49.8857 79.24V78.6732C50.199 78.4001 50.5997 78.2492 51.0146 78.248C51.9967 78.248 52.183 78.9424 52.183 79.3364V81.2354C52.183 81.3827 52.1971 81.4196 52.2733 81.4196C52.4411 81.3788 52.5951 81.2937 52.7192 81.173L52.7135 81.5471ZM51.6467 80.0563C50.7634 80.2179 50.2864 80.5098 50.2864 80.9434C50.2889 81.0172 50.3061 81.0896 50.3371 81.1565C50.3681 81.2234 50.4121 81.2834 50.4666 81.3329C50.5211 81.3823 50.585 81.4202 50.6544 81.4444C50.7238 81.4685 50.7973 81.4784 50.8706 81.4734C51.1671 81.4538 51.4448 81.3209 51.6467 81.1021V80.0563Z" fill="white"/>
<path d="M55.6349 79.0868C55.3512 78.8783 55.0147 78.7545 54.664 78.7297C54.3113 78.7297 54.0798 78.9394 54.0798 79.1775C54.0798 79.4155 54.3197 79.5714 55.141 80.0051C55.3195 80.0803 55.4729 80.205 55.5834 80.3646C55.6938 80.5242 55.7567 80.7122 55.7647 80.9064C55.7647 81.2521 55.4825 81.8785 54.6358 81.8785C54.2467 81.8643 53.8678 81.7501 53.5352 81.5469V80.9999C53.8679 81.2335 54.2587 81.3699 54.664 81.3939C54.9321 81.3939 55.2482 81.2238 55.2482 80.929C55.2482 80.6343 54.9321 80.4359 54.4806 80.2205C54.029 80.0051 53.5352 79.7727 53.5352 79.2058C53.5352 78.7807 53.8823 78.2705 54.6415 78.2705C54.9895 78.2723 55.3303 78.3704 55.6264 78.5539L55.6349 79.0868Z" fill="white"/>
<path d="M56.5264 78.7156L57.6552 77.5195V78.3301H58.6938V78.8006H57.6552V80.623C57.6552 81.0709 57.6863 81.3798 58.1717 81.3798C58.4187 81.369 58.6592 81.297 58.8716 81.1701V81.6717C58.6216 81.8003 58.3453 81.8691 58.0645 81.873C57.373 81.873 57.1247 81.394 57.1247 80.8384V78.8006H56.5264V78.7156Z" fill="white"/>
<path d="M62.665 80.0964H60.1081C60.0962 80.2651 60.1196 80.4344 60.1768 80.5935C60.2339 80.7526 60.3236 80.898 60.44 81.0202C60.5564 81.1424 60.697 81.2389 60.8527 81.3033C61.0084 81.3678 61.1758 81.3988 61.3442 81.3945C61.8112 81.3906 62.2612 81.2174 62.6113 80.907V81.4483C62.2272 81.7328 61.7591 81.8795 61.2821 81.8649C60.1306 81.8649 59.5605 80.9863 59.5605 80.051C59.5605 78.8465 60.3592 78.2598 61.1438 78.2598C61.9905 78.2598 62.665 78.9627 62.665 79.9603V80.0964ZM62.1203 79.7109C62.0441 78.9627 61.5361 78.7303 61.1607 78.7303C60.7289 78.7303 60.2689 79.0137 60.1363 79.7109H62.1203Z" fill="white"/>
<path d="M64.347 78.3306V79.093C64.4964 78.8437 64.693 78.6261 64.9255 78.4525C65.0786 78.3413 65.2593 78.2746 65.4476 78.2598C65.7568 78.3093 66.0434 78.4527 66.2689 78.6707L65.9867 79.1327C65.8083 78.9497 65.5716 78.8354 65.3178 78.8096C65.1313 78.8326 64.9543 78.9055 64.8053 79.0207C64.6564 79.1359 64.541 79.2891 64.4712 79.4643C64.3763 79.7313 64.3341 80.0144 64.347 80.2976V81.7941H63.8164V78.3306H64.347Z" fill="white"/>
<path d="M68.2106 78.3301C69.4185 78.3301 70.1184 78.9479 70.1184 80.059C70.1184 81.0311 69.5088 81.8644 68.4025 81.8644C68.0993 81.8586 67.8008 81.787 67.5276 81.6547V83.4998H66.9971V78.3301H68.2106ZM67.5276 81.1643C67.7668 81.3077 68.0394 81.385 68.3179 81.3882C69.1645 81.3882 69.5709 80.7619 69.5709 80.0675C69.5709 79.2342 69.0065 78.7949 68.2022 78.7949H67.5276V81.1643Z" fill="white"/>
<path d="M71.9331 77.2645C71.9374 77.3127 71.9317 77.3613 71.9163 77.4072C71.9009 77.4531 71.8762 77.4953 71.8436 77.531C71.8111 77.5668 71.7715 77.5953 71.7274 77.6149C71.6833 77.6344 71.6356 77.6445 71.5874 77.6445C71.5391 77.6445 71.4914 77.6344 71.4473 77.6149C71.4032 77.5953 71.3636 77.5668 71.3311 77.531C71.2986 77.4953 71.2738 77.4531 71.2584 77.4072C71.243 77.3613 71.2373 77.3127 71.2416 77.2645C71.2495 77.1778 71.2893 77.0972 71.3532 77.0385C71.4172 76.9798 71.5007 76.9473 71.5874 76.9473C71.674 76.9473 71.7575 76.9798 71.8215 77.0385C71.8855 77.0972 71.9253 77.1778 71.9331 77.2645ZM71.8484 81.7993H71.315V78.3302H71.8456L71.8484 81.7993Z" fill="white"/>
<path d="M76.1585 80.0964H73.6015C73.5897 80.2651 73.6131 80.4344 73.6702 80.5935C73.7274 80.7526 73.8171 80.898 73.9335 81.0202C74.0499 81.1424 74.1905 81.2389 74.3462 81.3033C74.5019 81.3678 74.6693 81.3988 74.8377 81.3945C75.3078 81.3934 75.7614 81.22 76.1133 80.907V81.4483C75.7292 81.7328 75.2611 81.8795 74.784 81.8649C73.6326 81.8649 73.0625 80.9863 73.0625 80.051C73.0625 78.8465 73.8612 78.2598 74.6458 78.2598C75.4924 78.2598 76.1669 78.9627 76.1669 79.9603L76.1585 80.0964ZM75.6138 79.7109C75.5376 78.9627 75.0296 78.7303 74.6542 78.7303C74.2224 78.7303 73.7624 79.0137 73.6298 79.7109H75.6138Z" fill="white"/>
<path d="M79.7821 79.0392C79.4986 78.8599 79.1716 78.7619 78.8367 78.7558C77.9223 78.7558 77.6824 79.6259 77.6824 80.0737C77.6824 80.6405 77.9985 81.3718 78.927 81.3718C79.2469 81.3637 79.5615 81.2874 79.8498 81.1479V81.6722C79.539 81.7964 79.2079 81.8617 78.8733 81.8649C77.7445 81.8649 77.1377 81.094 77.1377 80.0907C77.1377 78.957 77.8743 78.2598 78.831 78.2598C79.1572 78.263 79.4792 78.3344 79.7765 78.4695L79.7821 79.0392Z" fill="white"/>
<path d="M83.8349 80.0964H81.2752C81.2637 80.2652 81.2875 80.4346 81.345 80.5937C81.4025 80.7528 81.4924 80.8981 81.609 81.0203C81.7257 81.1425 81.8664 81.2389 82.0222 81.3033C82.1781 81.3678 82.3456 81.3988 82.5141 81.3945C82.9812 81.3906 83.4311 81.2174 83.7813 80.907V81.4483C83.3971 81.7328 82.9291 81.8795 82.452 81.8649C81.3006 81.8649 80.7305 80.9863 80.7305 80.051C80.7305 78.8465 81.5292 78.2598 82.3137 78.2598C83.1604 78.2598 83.8349 78.9627 83.8349 79.9603V80.0964ZM83.2902 79.7109C83.214 78.9627 82.706 78.7303 82.3307 78.7303C81.8989 78.7303 81.4388 79.0137 81.3062 79.7109H83.2902Z" fill="white"/>
<path d="M91.7792 81.7935H91.2148V79.3872H87.9834V81.7935H87.4189V76.5303H87.9834V78.877H91.2035V76.5303H91.768L91.7792 81.7935Z" fill="white"/>
<path d="M96.6894 80.0566C96.69 80.4131 96.5853 80.7618 96.3885 81.0585C96.1917 81.3553 95.9118 81.5868 95.584 81.7237C95.2563 81.8607 94.8954 81.8969 94.5471 81.8279C94.1988 81.7589 93.8787 81.5877 93.6273 81.336C93.3759 81.0843 93.2045 80.7634 93.1347 80.4139C93.0648 80.0643 93.0998 79.7018 93.2352 79.3722C93.3705 79.0426 93.6001 78.7607 93.895 78.5622C94.1898 78.3637 94.5367 78.2574 94.8917 78.2568C95.3673 78.2576 95.8233 78.4473 96.1601 78.7845C96.4969 79.1216 96.6872 79.579 96.6894 80.0566ZM93.6471 80.0566C93.6471 80.39 93.779 80.7097 94.0137 80.9454C94.2484 81.1811 94.5668 81.3136 94.8988 81.3136C95.2307 81.3136 95.5491 81.1811 95.7838 80.9454C96.0185 80.7097 96.1504 80.39 96.1504 80.0566C96.1584 79.8869 96.1321 79.7173 96.073 79.5581C96.0138 79.3989 95.9231 79.2534 95.8064 79.1305C95.6896 79.0075 95.5492 78.9096 95.3937 78.8427C95.2382 78.7759 95.0708 78.7414 94.9016 78.7414C94.7324 78.7414 94.565 78.7759 94.4094 78.8427C94.2539 78.9096 94.1135 79.0075 93.9968 79.1305C93.88 79.2534 93.7893 79.3989 93.7302 79.5581C93.6711 79.7173 93.6447 79.8869 93.6528 80.0566H93.6471Z" fill="white"/>
<path d="M97.4287 78.7156L98.5576 77.5195V78.3301H99.5962V78.8006H98.5491V80.623C98.5491 81.0709 98.5802 81.3798 99.0628 81.3798C99.3099 81.3699 99.5505 81.2977 99.7627 81.1701V81.6717C99.5129 81.801 99.2365 81.8699 98.9555 81.873C98.2641 81.873 98.0185 81.394 98.0185 80.8384V78.8006H97.4287V78.7156Z" fill="white"/>
<path d="M103.567 80.0964H101.008C100.996 80.2652 101.02 80.4346 101.077 80.5937C101.135 80.7528 101.225 80.8981 101.341 81.0203C101.458 81.1425 101.599 81.2389 101.755 81.3033C101.911 81.3678 102.078 81.3988 102.247 81.3945C102.714 81.3906 103.164 81.2174 103.514 80.907V81.4483C103.13 81.7328 102.661 81.8795 102.184 81.8649C101.03 81.8649 100.463 80.9863 100.463 80.051C100.463 78.8465 101.262 78.2598 102.046 78.2598C102.893 78.2598 103.567 78.9627 103.567 79.9603V80.0964ZM103.023 79.7109C102.946 78.9627 102.438 78.7303 102.06 78.7303C101.631 78.7303 101.168 79.0137 101.039 79.7109H103.023Z" fill="white"/>
<path d="M105.249 81.7935H104.719V76.5303H105.249V81.7935Z" fill="white"/>
<path d="M108.585 79.0868C108.3 78.8773 107.961 78.7534 107.608 78.7297C107.256 78.7297 107.024 78.9394 107.024 79.1775C107.024 79.4155 107.261 79.5714 108.085 80.0051C108.265 80.0794 108.419 80.2038 108.531 80.3635C108.642 80.5232 108.706 80.7115 108.715 80.9064C108.715 81.2521 108.432 81.8785 107.586 81.8785C107.196 81.8695 106.815 81.7602 106.479 81.5611V80.9999C106.808 81.2319 107.194 81.3682 107.594 81.3939C107.876 81.3939 108.178 81.2238 108.178 80.929C108.178 80.6343 107.862 80.4359 107.408 80.2205C106.954 80.0051 106.494 79.7727 106.494 79.2058C106.494 78.7807 106.841 78.2705 107.6 78.2705C107.948 78.2723 108.289 78.3704 108.585 78.5539V79.0868Z" fill="white"/>
<path d="M16 65.1142C16 62.5463 17.778 60.5 20.4478 60.5C23.1176 60.5 24.842 62.4103 24.842 64.7656C24.842 67.5998 23.0781 69.5299 20.3603 69.5299C17.8147 69.5299 16 67.6083 16 65.1142ZM23.8316 65.202C23.8316 62.98 22.793 61.047 20.3236 61.047C17.8034 61.047 17.0132 63.2917 17.0132 64.8534C17.0132 67.1747 18.2352 68.9829 20.4224 68.9829C23.1007 68.9829 23.8316 66.7354 23.8316 65.202Z" fill="white"/>
<path d="M30.8446 69.357H26.3291V69.2862C26.6113 69.1388 26.6113 68.7902 26.6113 68.5067V61.4806C26.6113 61.1207 26.5492 60.8486 26.3291 60.7494V60.6729H30.5624L30.6358 61.3814L30.5991 61.4183C29.964 61.246 29.306 61.1743 28.649 61.2057H27.4862V64.4934H28.9566C29.3997 64.4934 29.8032 64.4566 30.2153 64.4197L30.1419 65.1396C29.3622 65.0528 28.5783 65.0112 27.7938 65.0149H27.4862V68.6371C27.4862 68.7987 27.5596 68.8355 27.7092 68.8355H29.1203C29.7412 68.8556 30.3614 68.7762 30.9575 68.6003L31.0055 68.6258L30.8446 69.357Z" fill="white"/>
<path d="M44.0361 69.357L40.3672 64.6805L43.3334 61.047C43.3684 61.0001 43.389 60.9439 43.3926 60.8854C43.3949 60.858 43.3891 60.8306 43.3761 60.8065C43.363 60.7823 43.3433 60.7625 43.3193 60.7494V60.6729H44.5046V60.7494C44.3641 60.8187 44.2385 60.915 44.1349 61.0328L41.2929 64.4339L44.6796 68.7505C44.8323 68.947 45.0054 69.1265 45.196 69.2862V69.3627L44.0361 69.357ZM40.2064 68.4756C40.2064 68.8355 40.2064 69.1076 40.4886 69.2833V69.357H39.0465V69.2862C39.292 69.1841 39.3287 68.7873 39.3287 68.5039V61.5288C39.3323 61.4167 39.3238 61.3046 39.3033 61.1944H35.4397V68.4756C35.4397 68.8355 35.4397 69.0594 35.7219 69.2833V69.357H34.2798V69.2862C34.562 69.1359 34.562 68.7647 34.562 68.4784V61.1944H33.402C32.7809 61.1744 32.1604 61.25 31.562 61.4183L31.5225 61.3814L31.6212 60.6729H40.4801V60.7494C40.2205 60.9223 40.1979 61.1688 40.1979 61.5288L40.2064 68.4756Z" fill="white"/>
<path d="M50.7558 69.357H46.2402V69.2862C46.5225 69.1388 46.5225 68.7902 46.5225 68.5067V61.4806C46.5225 61.1207 46.4604 60.8486 46.2402 60.7494V60.6729H50.4876L50.5638 61.3814L50.5272 61.4183C49.891 61.2464 49.2322 61.1747 48.5742 61.2057H47.4002V64.4934H48.8705C49.3164 64.4934 49.7172 64.4566 50.1292 64.4197L50.0558 65.1396C49.2771 65.0527 48.4941 65.0111 47.7106 65.0149H47.4002V68.6371C47.4002 68.7987 47.4764 68.8355 47.6231 68.8355H49.0342C49.6524 68.8549 50.2697 68.7755 50.863 68.6003L50.9138 68.6258L50.7558 69.357Z" fill="white"/>
<path d="M52.3721 69.2862C52.5075 69.2266 52.6543 69.1019 52.6543 68.4812V61.5798C52.6543 60.9478 52.5188 60.8231 52.3721 60.7494V60.6729H54.6073C56.0184 60.6729 57.4295 61.2397 57.4295 62.9176C57.4295 63.7679 56.9469 64.6918 55.7615 65.1396L58.1209 68.2573C58.3883 68.6131 58.6817 68.9485 58.9986 69.2607V69.3485H57.8359L54.8782 65.3494H53.5348V68.4671C53.5348 69.0991 53.6844 69.1501 53.817 69.272V69.3485H52.3834L52.3721 69.2862ZM55.31 64.8335C55.9422 64.6351 56.4727 63.8557 56.4727 63.0225C56.4727 61.8321 55.6825 61.2114 54.5706 61.2114H53.5348V64.8279L55.31 64.8335Z" fill="white"/>
<path d="M62.6113 65.0349C62.6113 62.2432 64.7223 60.5001 67.3159 60.5001C68.2567 60.4847 69.1931 60.6313 70.0845 60.9338V61.6905H70.045C69.1729 61.2417 68.2024 61.0205 67.2228 61.0471C64.9368 61.0471 63.616 62.6343 63.616 64.9669C63.616 67.5178 65.2586 68.9349 67.4937 68.9349C68.4252 68.9455 69.3408 68.692 70.1353 68.2036H70.1748L70.1325 69.0029C69.2456 69.3978 68.2794 69.5803 67.3103 69.5357C64.6236 69.5301 62.6113 67.9542 62.6113 65.0349Z" fill="white"/>
<path d="M70.875 65.1142C70.875 62.5463 72.653 60.5 75.32 60.5C77.9869 60.5 79.717 62.4103 79.717 64.7656C79.717 67.5998 77.9503 69.5299 75.2353 69.5299C72.6897 69.5299 70.875 67.6083 70.875 65.1142ZM78.7038 65.202C78.7038 62.98 77.668 61.047 75.1958 61.047C72.6784 61.047 71.8797 63.2917 71.8797 64.8534C71.8797 67.1747 73.1017 68.9829 75.2861 68.9829C77.9757 68.9829 78.7038 66.7354 78.7038 65.202Z" fill="white"/>
<path d="M85.7079 69.357H81.1924V69.2862C81.4746 69.1388 81.4746 68.7675 81.4746 68.4812V61.5656C81.4746 61.2057 81.4492 60.8599 81.1924 60.7494V60.6729H82.6261V60.7494C82.3438 60.8968 82.3438 61.268 82.3438 61.5543V68.6116C82.3438 68.81 82.4172 68.8355 82.564 68.8355H83.9751C84.6008 68.8582 85.226 68.7787 85.8264 68.6003L85.8772 68.6258L85.7079 69.357Z" fill="white"/>
<path d="M91.7704 69.357H87.2549V69.2862C87.5371 69.1388 87.5371 68.7675 87.5371 68.4812V61.5656C87.5371 61.2057 87.5117 60.8599 87.2549 60.7494V60.6729H88.6857V60.7494C88.4035 60.8968 88.4035 61.268 88.4035 61.5543V68.6116C88.4035 68.81 88.4769 68.8355 88.6265 68.8355H90.0206C90.6473 68.8581 91.2735 68.7787 91.8748 68.6003L91.9228 68.6258L91.7704 69.357Z" fill="white"/>
<path d="M97.8241 69.357H93.3086V69.2862C93.5908 69.1388 93.5908 68.7902 93.5908 68.5067V61.4806C93.5908 61.1207 93.5287 60.8486 93.3086 60.7494V60.6729H97.5419L97.6181 61.3814L97.5814 61.4183C96.9453 61.2464 96.2865 61.1747 95.6284 61.2057H94.4572V64.4934H95.9276C96.3735 64.4934 96.7743 64.4566 97.1891 64.4197L97.1129 65.1396C96.3342 65.0527 95.5512 65.0111 94.7677 65.0149H94.4572V68.6371C94.4572 68.7987 94.5334 68.8355 94.6802 68.8355H96.0913C96.7094 68.8549 97.3267 68.7755 97.9201 68.6003L97.9709 68.6258L97.8241 69.357Z" fill="white"/>
<path d="M98.7383 65.035C98.7383 62.2433 100.849 60.5002 103.443 60.5002C104.383 60.4842 105.318 60.6309 106.209 60.9339V61.6906H106.172C105.3 61.2424 104.329 61.0212 103.35 61.0472C101.067 61.0472 99.743 62.6344 99.743 64.967C99.743 67.5178 101.388 68.935 103.624 68.935C104.555 68.9455 105.471 68.6921 106.265 68.2037H106.302L106.259 69.003C105.372 69.3976 104.406 69.58 103.437 69.5358C100.751 69.5302 98.7383 67.9543 98.7383 65.035Z" fill="white"/>
<path d="M113.989 61.3814L113.953 61.4183C113.359 61.2477 112.742 61.1721 112.124 61.1944H110.964V68.4756C110.964 68.8355 110.964 69.0594 111.246 69.2805V69.357H109.815V69.2862C110.098 69.1388 110.098 68.7675 110.098 68.4812V61.1944H108.949C108.328 61.1747 107.707 61.2502 107.109 61.4183L107.072 61.3814L107.157 60.6729H113.899L113.989 61.3814Z" fill="white"/>
<path d="M115.251 69.2862C115.497 69.187 115.533 68.7902 115.533 68.5067V61.5288C115.533 61.2454 115.508 60.8486 115.251 60.7494V60.6729H116.682V60.7494C116.422 60.9223 116.4 61.1688 116.4 61.5288V68.4756C116.4 68.8355 116.4 69.1076 116.682 69.2805V69.357H115.251V69.2862Z" fill="white"/>
<path d="M118.164 65.1142C118.164 62.5463 119.945 60.5 122.612 60.5C125.279 60.5 127.009 62.4103 127.009 64.7656C127.009 67.5998 125.242 69.5299 122.524 69.5299C119.982 69.5299 118.164 67.6083 118.164 65.1142ZM125.996 65.202C125.996 62.98 124.957 61.047 122.488 61.047C119.967 61.047 119.177 63.2917 119.177 64.8534C119.177 67.1747 120.402 68.9829 122.586 68.9829C125.268 68.9829 125.996 66.7354 125.996 65.202Z" fill="white"/>
<path d="M135.727 61.5543V69.3797H135.21L129.391 61.6337H129.368V68.4756C129.352 68.6206 129.366 68.7675 129.411 68.9064C129.456 69.0453 129.53 69.1729 129.628 69.2805V69.357H128.499V69.2862C128.759 69.1501 128.781 68.7675 128.781 68.4812V61.5543C128.781 61.2199 128.745 60.8486 128.397 60.7494V60.6729H129.831L135.095 67.6933H135.143V61.5543C135.164 61.4072 135.149 61.2572 135.1 61.117C135.051 60.9769 134.969 60.8507 134.86 60.7494V60.6729H136.034V60.7494C135.727 60.8968 135.727 61.268 135.727 61.5543Z" fill="white"/>
</g>
<defs>
<clipPath id="clip0_1783_995">
<rect width="120" height="23" fill="white" transform="translate(16 60.5)"/>
</clipPath>
</defs>
</svg>
