<svg width="152" height="144" viewBox="0 0 152 144" fill="none" xmlns="http://www.w3.org/2000/svg">
<rect width="152" height="144" rx="8" fill="white" fill-opacity="0.07"/>
<g clip-path="url(#clip0_1783_992)">
<path d="M134.688 93.0201L130.807 88.502H128.183V88.8326C129.003 88.8326 129.057 88.9428 129.057 89.6039V93.4058C129.057 94.7833 128.784 94.8935 128.128 94.8935V95.2241H130.533V94.8935C129.768 94.8935 129.495 94.7282 129.495 93.9568V89.5488L134.743 95.4996H135.126V89.8243C135.126 88.9979 135.563 88.8877 136 88.8877V88.5571H133.595V88.8877C134.196 88.8877 134.688 88.9979 134.688 89.7692V93.0201Z" fill="white"/>
<path d="M123.153 88.3369C121.349 88.3369 119.49 89.494 119.49 91.8633C119.49 94.2326 121.349 95.3897 123.153 95.3897C124.957 95.3897 126.816 94.2326 126.816 91.8633C126.816 89.494 124.957 88.3369 123.153 88.3369ZM123.153 95.1693C121.896 95.1693 121.349 94.0122 121.349 91.9184C121.349 89.8246 121.95 88.6675 123.153 88.6675C124.411 88.6675 124.957 89.8246 124.957 91.9184C124.957 94.0122 124.411 95.1693 123.153 95.1693Z" fill="white"/>
<path d="M114.296 94.3432C114.296 94.8391 114.132 94.8942 113.421 94.8942V95.2248H116.756V94.8942C116.045 94.8942 115.881 94.8391 115.881 94.3432V89.1638C115.881 88.8883 115.991 88.8332 116.209 88.8332C116.811 88.8332 117.74 89.3842 118.287 90.376L118.56 90.2658L118.177 88.2822H117.904C117.74 88.3924 117.467 88.4475 117.248 88.4475H112.82C112.711 88.4475 112.601 88.4475 112.492 88.3924C112.382 88.3373 112.273 88.3373 112.218 88.2822H111.945L111.562 90.2658L111.836 90.376C112.382 89.3291 113.367 88.8332 113.913 88.8332C114.132 88.8332 114.241 88.9434 114.241 89.1638L114.296 94.3432ZM106.259 94.3432C106.259 94.8391 106.095 94.8942 105.385 94.8942V95.2248H111.726L112.218 93.2412H111.945C111.016 94.6187 110.414 94.8391 108.829 94.8391C108.064 94.8391 107.954 94.7289 107.954 94.3432V89.3291C107.954 88.8332 108.118 88.7781 108.829 88.7781V88.4475H105.494V88.7781C106.205 88.7781 106.369 88.8332 106.369 89.3291L106.259 94.3432Z" fill="white"/>
<path d="M103.362 94.2333L102.269 92.4701C101.995 92.0293 101.722 91.864 101.394 91.864C102.487 91.8089 103.143 91.2579 103.143 90.3763C103.143 89.4947 102.378 88.5029 100.191 88.5029H96.8564V88.8335C97.5672 88.8335 97.7312 88.8886 97.7312 89.3845V94.3435C97.7312 94.8394 97.5672 94.8945 96.8564 94.8945V95.2251H100.191V94.8945C99.4806 94.8945 99.3166 94.8394 99.3166 94.3435V92.0293C100.027 92.0293 100.246 92.1395 100.465 92.4701L101.995 95.2802H104.292V94.9496C103.964 94.8945 103.745 94.8945 103.362 94.2333ZM99.918 91.6987H99.3166V88.8886H99.6993C101.066 88.8886 101.449 89.7151 101.449 90.3212C101.449 91.3681 100.738 91.6987 99.918 91.6987Z" fill="white"/>
<path d="M94.998 94.178L92.1552 88.7232C92.0459 88.5028 91.9912 88.4477 91.9365 88.4477C91.8272 88.4477 91.6632 88.9987 90.7885 89.5497C90.8978 89.6048 91.0071 89.715 91.0071 89.8252C91.0071 89.8803 91.0071 89.9905 90.8978 90.1558L89.203 93.6821C88.7657 94.5637 88.4923 94.8943 87.891 94.8943V95.2249H90.2964V94.8943C89.6404 94.8943 89.4217 94.729 89.4217 94.4535C89.4217 94.2882 89.4764 94.0127 89.8044 93.5168H92.8659C93.3033 94.1229 93.3579 94.5086 93.3579 94.6188C93.3579 94.8392 93.1393 94.8943 92.4832 94.8943V95.2249H96.0914V94.8943C95.4901 94.8943 95.3261 94.7841 94.998 94.178ZM89.9684 93.1311L91.2805 90.3211L92.6472 93.1311H89.9684ZM86.5242 92.9658C85.9229 94.178 85.0482 95.1147 83.9548 95.1147C82.916 95.1147 81.8226 94.3433 81.8226 91.919C81.8226 89.715 82.6974 88.7232 84.0094 88.7232C85.2122 88.7232 85.9775 89.5497 86.5242 90.5415H86.7976V88.4477H86.5242C86.4149 88.613 86.1962 88.7232 86.0322 88.7232C85.6495 88.7232 84.8295 88.3926 83.8454 88.3926C81.4946 88.3926 79.9639 89.9905 79.9639 92.0843C79.9639 93.9576 81.4946 95.5004 83.6267 95.5004C84.8295 95.5004 85.7042 95.0596 86.0322 95.0596C86.2509 95.0596 86.4149 95.2249 86.5242 95.5004H86.7429V93.0209L86.5242 92.9658Z" fill="white"/>
<path d="M65.8584 95.2795H71.708L72.4187 93.2408H72.1454C71.1613 94.5632 70.56 94.9489 69.6306 94.9489H67.9905L72.2001 88.7226V88.5573H66.4597L65.8584 90.4307H66.0771C66.8424 89.3838 67.6625 88.8879 68.5372 88.8879H70.0679L65.8584 95.0591V95.2795ZM60.7194 94.3428C60.7194 94.8387 60.5554 94.8938 59.8447 94.8938V95.2244H63.1796V94.8938C62.4689 94.8938 62.3048 94.8387 62.3048 94.3428V89.1634C62.3048 88.8879 62.4142 88.8328 62.6329 88.8328C63.2342 88.8328 64.1636 89.3838 64.7103 90.3756L64.9837 90.2654L64.6556 88.3369H64.3823C64.2183 88.4471 63.9449 88.5022 63.7263 88.5022H59.298C59.1887 88.5022 59.0793 88.5022 58.97 88.4471C58.8606 88.392 58.7513 88.392 58.6966 88.3369H58.4233L58.0406 90.3205L58.314 90.4307C58.8607 89.3838 59.8447 88.8879 60.3914 88.8879C60.6101 88.8879 60.7194 88.9981 60.7194 89.2185V94.3428ZM54.6511 94.3428C54.6511 94.8387 54.4871 94.8938 53.7764 94.8938V95.2244H57.1112V94.8938C56.4005 94.8938 56.2365 94.8387 56.2365 94.3428V89.3838C56.2365 88.8879 56.4005 88.8328 57.1112 88.8328V88.5022H53.7764V88.8328C54.4871 88.8328 54.6511 88.8879 54.6511 89.3838V94.3428Z" fill="white"/>
<path d="M51.918 94.233L50.8246 92.4698C50.5513 92.029 50.2779 91.8637 49.9499 91.8637C51.0433 91.8086 51.6993 91.2576 51.6993 90.376C51.6993 89.4944 50.9339 88.5026 48.7472 88.5026H45.4123V88.8332C46.123 88.8332 46.287 88.8883 46.287 89.3842V94.3432C46.287 94.8391 46.123 94.8942 45.4123 94.8942V95.2248H48.7472V94.8942C48.0364 94.8942 47.8724 94.8391 47.8724 94.3432V92.029C48.5831 92.029 48.8018 92.1392 49.0205 92.4698L50.5513 95.2799H52.8474V94.9493C52.5194 94.8942 52.3554 94.8942 51.918 94.233ZM48.5285 91.6984H47.9271V88.8883H48.3098C49.6765 88.8883 50.0592 89.7148 50.0592 90.3209C50.0046 91.3678 49.2938 91.6984 48.5285 91.6984ZM34.7517 94.3432C34.7517 94.8391 34.5877 94.8942 33.877 94.8942V95.2248H40.0547L40.6014 93.2412H40.328C39.5626 94.5085 38.8519 94.8391 37.4852 94.8391C36.6105 94.8391 36.4465 94.7289 36.4465 94.4534V91.9188H36.8838C38.0866 91.9188 38.6333 92.2494 38.8519 93.1861H39.1253V90.2107H38.8519C38.5786 91.2025 38.1412 91.5882 36.8838 91.5882H36.4465V89.274C36.4465 88.8883 36.5558 88.8332 37.0478 88.8332C38.5239 88.8332 39.2893 89.274 40.2187 90.3209H40.492L39.836 88.5026H33.9317V88.8332C34.6424 88.8332 34.8064 88.8883 34.8064 89.3842V94.3432M30.0501 94.3432C30.0501 94.8391 29.8861 94.8942 29.1754 94.8942V95.2248H32.5103V94.8942C31.7995 94.8942 31.6355 94.8391 31.6355 94.3432V89.3842C31.6355 88.8883 31.7995 88.8332 32.5103 88.8332V88.5026H29.1754V88.8332C29.8861 88.8332 30.0501 88.8883 30.0501 89.3842V91.478H26.6059V89.3842C26.6059 88.8883 26.7699 88.8332 27.4806 88.8332V88.5026H24.1458V88.8332C24.8565 88.8332 25.0205 88.8883 25.0205 89.3842V94.3432C25.0205 94.8391 24.8565 94.8942 24.1458 94.8942V95.2248H27.4806V94.8942C26.7699 94.8942 26.6059 94.8391 26.6059 94.3432V91.9188H29.9954L30.0501 94.3432ZM18.7335 94.3432C18.7335 94.8391 18.5695 94.8942 17.8588 94.8942V95.2248H21.1936V94.8942C20.4829 94.8942 20.3189 94.8391 20.3189 94.3432V89.1638C20.3189 88.8883 20.4282 88.8332 20.6469 88.8332C21.2483 88.8332 22.1777 89.3842 22.7244 90.376L22.9977 90.2658L22.615 88.2822H22.3417C22.1777 88.3924 21.9043 88.4475 21.6856 88.4475H17.3121C17.2027 88.4475 17.0934 88.4475 16.9841 88.3924C16.8747 88.3373 16.7654 88.3373 16.7107 88.2822H16.3827L16 90.3209L16.2733 90.4311C16.82 89.3842 17.8041 88.8883 18.3508 88.8883C18.5695 88.8883 18.6788 88.9985 18.6788 89.2189L18.7335 94.3432ZM74.5513 92.3596H76.7927L77.7221 90.9821H75.4806L74.5513 92.3596Z" fill="white"/>
<path d="M72.0363 75.5543C72.0363 75.389 72.4189 75.0033 72.5283 75.0033C72.583 75.0033 72.9656 75.389 72.9656 75.5543C72.9656 75.6094 72.583 76.0502 72.5283 76.0502C72.4189 75.9951 72.0363 75.6094 72.0363 75.5543ZM79.362 75.5543C79.362 75.389 79.7447 75.0033 79.854 75.0033C79.9087 75.0033 80.2914 75.389 80.2914 75.5543C80.2914 75.6094 79.9087 76.0502 79.854 76.0502C79.7447 75.9951 79.362 75.6094 79.362 75.5543ZM75.6991 75.5543C75.6991 75.389 76.0818 75.0033 76.1912 75.0033C76.2458 75.0033 76.6285 75.389 76.6285 75.5543C76.6285 75.6094 76.2458 76.0502 76.1912 76.0502C76.0818 75.9951 75.6991 75.6094 75.6991 75.5543ZM71.5989 76.2706H73.4577C73.6217 76.2706 73.6763 76.1604 73.6763 76.0502V75.0033C73.6763 74.838 73.567 74.7829 73.4577 74.7829C73.075 74.7829 72.2003 74.838 71.5989 74.8931C71.4896 74.8931 71.3802 74.9482 71.3802 75.1135V76.1604C71.3802 76.2706 71.4896 76.2706 71.5989 76.2706ZM70.3415 75.6645C70.3415 75.5543 70.6148 75.2788 70.6695 75.2788C70.7242 75.2788 70.9975 75.5543 70.9975 75.6645C70.9975 75.7196 70.7242 76.0502 70.6695 76.0502C70.6148 75.9951 70.3415 75.7196 70.3415 75.6645ZM74.0044 75.5543C74.0044 75.4441 74.2777 75.1686 74.3324 75.1686C74.3871 75.1686 74.6604 75.4441 74.6604 75.5543C74.6604 75.6094 74.3871 75.94 74.3324 75.94C74.2777 75.94 74.0044 75.6094 74.0044 75.5543ZM77.0659 76.3257C77.2299 76.3257 77.2845 76.2155 77.2845 76.1053V74.9482C77.2845 74.7829 77.1752 74.7278 77.0659 74.7278H75.2618C75.0978 74.7278 75.0431 74.838 75.0431 74.9482V76.1053C75.0431 76.2706 75.1524 76.3257 75.2618 76.3257H77.0659ZM80.7834 76.2706C80.8927 76.2706 81.0021 76.2155 81.0021 76.0502V75.0033C81.0021 74.838 80.8927 74.7829 80.7834 74.7829C80.182 74.7278 79.3073 74.6727 78.9246 74.6727C78.7606 74.6727 78.706 74.7829 78.706 74.8931V75.94C78.706 76.1053 78.8153 76.1604 78.9246 76.1604L80.7834 76.2706ZM81.9861 75.6645C81.9861 75.7196 81.7128 76.0502 81.6581 76.0502C81.6035 76.0502 81.3301 75.7196 81.3301 75.6645C81.3301 75.5543 81.6035 75.2788 81.6581 75.2788C81.7128 75.2788 81.9861 75.5543 81.9861 75.6645ZM78.3233 75.5543C78.3233 75.6094 78.0499 75.94 77.9953 75.94C77.9406 75.94 77.6672 75.6094 77.6672 75.5543C77.6672 75.4441 77.9406 75.1686 77.9953 75.1686C78.0499 75.1686 78.3233 75.4441 78.3233 75.5543ZM73.5123 53.4043C73.7857 54.2859 74.8244 54.3961 75.0978 55.443L75.0431 55.4981C74.4964 54.7267 73.8404 54.6165 73.5123 54.2859C73.403 54.1206 73.403 53.8451 73.5123 53.4043ZM75.2618 65.6364C75.2618 67.1241 74.059 67.7853 72.747 67.7853C74.3871 65.967 73.1297 63.3773 74.7151 61.6141C74.6057 63.1569 75.2618 64.5895 75.2618 65.6364ZM83.1342 69.6587C84.8836 69.6587 85.7584 68.7771 85.7584 67.3445C85.7584 66.8486 85.5943 66.518 85.5943 66.518C85.1023 66.9037 84.5556 67.0139 84.2276 67.0139C83.5169 67.0139 82.5875 66.5731 82.5875 65.4711C82.5875 63.9834 84.1183 63.212 84.1183 61.559C84.1183 61.0631 83.8996 60.8978 83.8996 60.8978C84.6103 59.9611 84.829 59.0244 84.829 58.3081C84.829 56.9858 84.1183 56.1042 84.1183 56.1042L84.8836 56.4899C84.5556 55.2226 83.8449 54.341 83.8449 54.341C83.8449 54.341 84.2276 54.5614 84.4463 54.4512C84.0636 54.2308 83.5169 53.5696 83.5169 52.2472C83.5169 50.9248 83.2435 50.2636 80.7834 49.8228C80.5101 49.2167 79.854 48.6657 79.526 48.4453C78.9246 48.7208 78.1046 49.0514 77.8312 49.3269C77.8312 49.3269 77.1205 49.382 76.8472 49.382C76.4098 49.382 76.0818 49.2167 75.9178 49.2167C75.3164 49.2167 74.9884 49.8228 74.9884 49.8228C74.9884 49.8228 73.7857 49.8228 72.8563 50.0432C72.3643 50.1534 72.0909 50.5391 71.7629 51.3105L69.4121 52.5778C68.9747 52.7982 68.7014 52.9635 68.7014 53.3492C68.7014 53.5696 68.8654 53.9002 69.1388 54.2859C69.3574 55.7185 69.6308 55.9389 69.9588 55.9389C70.0681 55.9389 70.2322 55.8838 70.2322 55.8838C70.3415 55.994 70.5602 56.3797 70.6148 56.4899C70.2322 56.7103 69.7401 56.2695 69.1934 56.2695C68.8654 56.2695 68.3187 56.4899 68.3187 57.0409C68.3187 57.2613 68.4281 57.2613 68.5374 57.2613C68.7014 57.2613 68.8107 57.2062 69.1388 57.2062C69.5761 57.2062 69.9041 57.5919 70.5602 57.5919C70.7789 57.5919 70.9429 57.5368 71.0522 57.5919C70.7242 57.8123 70.5055 57.9776 70.6148 58.3081C70.7789 58.9142 71.3255 59.6305 71.5989 59.6305C71.8176 59.6305 72.2549 59.4652 72.2549 59.4652L71.9816 59.6856C70.0681 61.2835 70.5055 63.1018 70.5055 64.9201C70.5055 66.2976 70.1228 67.1792 69.0294 67.1792C68.3187 67.1792 67.3347 66.7384 66.5693 65.8017C66.4599 66.0772 66.4053 66.518 66.4053 66.9037C66.4053 68.5567 67.936 69.6587 69.4121 69.6587C70.7242 69.6587 71.7082 69.273 72.6376 68.5016C75.3164 68.4465 76.1912 66.6282 76.1912 66.6282C77.4486 68.5016 79.854 68.3363 80.2367 68.3363C81.0021 69.3281 82.2048 69.6587 83.1342 69.6587ZM83.2982 59.5754C83.2982 61.559 80.7287 61.8345 80.7287 63.763C80.7287 64.5344 80.9474 65.0303 80.8381 65.5262C80.8381 65.5262 81.3848 64.9201 81.4394 64.5344C81.4394 66.0221 82.2048 67.7302 84.1183 67.7302C84.3916 67.7302 84.829 67.6751 85.2117 67.4547C85.2117 67.4547 85.1023 68.8322 83.5716 68.8322C81.6035 68.8322 79.7994 67.1792 79.7994 64.0936C79.7994 63.4875 79.9087 62.8814 80.2367 62.3855C80.2367 62.3855 79.3073 62.9365 79.198 64.5895C79.198 64.5895 78.8153 63.9834 78.8153 63.3222C78.7606 60.8427 81.6581 61.7243 83.2982 59.5754ZM81.1114 50.5942C82.8609 50.9799 82.6422 52.137 82.9702 52.9635C82.2048 52.0268 81.2208 51.4207 81.2208 51.4207C81.2754 50.8697 81.1114 50.5942 81.1114 50.5942ZM70.5055 55.3328C70.6148 55.2777 70.9429 55.2226 70.9429 55.2226C71.0522 55.443 71.0522 55.7736 70.9975 56.0491C70.5602 56.0491 70.3962 55.6083 70.5055 55.3328ZM71.4896 56.7654C71.2709 57.0409 71.1615 57.4266 70.6148 57.4266C70.0681 57.4266 69.5761 56.9858 69.1934 56.9858C68.9748 56.9858 68.9201 57.0409 68.8107 57.0409C68.7014 57.0409 68.6467 56.9858 68.6467 56.9307C68.6467 56.7654 68.8654 56.6552 69.1388 56.6552C69.4121 56.6552 69.6855 56.8205 70.0681 56.8756C70.6695 57.096 71.0522 56.545 71.2709 56.3246C71.5442 56.1042 71.8176 56.0491 72.0363 56.0491C72.5283 56.0491 72.8563 56.2695 72.8563 56.2695C72.6376 56.2695 72.0909 56.4899 71.7082 56.7654C71.5989 56.7654 71.5442 56.7103 71.4896 56.7654ZM72.0363 57.3715C71.8176 57.5919 71.6536 57.5919 71.5442 57.5919C71.4349 57.3715 71.5442 56.9858 71.5442 56.9858C71.7629 56.9858 72.0363 57.1511 72.0363 57.3715ZM68.9748 67.8955C71.2162 67.8955 71.1615 65.3058 71.1615 64.4793C71.1615 60.6223 72.3096 59.6856 74.9338 58.4183C76.9019 57.4817 78.706 57.096 78.706 55.1675C78.706 54.5063 78.4873 53.79 77.7766 53.79C77.7766 53.79 78.0499 54.0655 78.0499 54.5614C78.0499 54.7818 77.9953 54.9471 77.8859 55.1675C77.8859 54.9471 77.8312 54.7267 77.6672 54.5614C77.4486 54.9471 77.4486 55.4981 77.3392 55.7185C77.3392 55.7185 77.2299 55.9389 76.5738 56.3246C76.5738 56.3246 76.4645 56.4348 76.7925 56.4348C76.7925 56.4348 77.6126 56.4348 77.8859 56.1042C77.6672 56.7654 77.3392 56.9858 76.9565 56.9858C76.7379 56.9858 76.3552 56.9307 76.0271 56.9307C75.4258 56.9307 74.1137 57.2062 73.6217 58.0878C73.239 58.6938 72.1456 59.2448 71.7629 59.2448C71.4349 59.2448 70.9429 58.4734 70.9429 58.1429C70.9429 57.7572 71.5989 57.9776 72.0909 57.4817C72.9656 56.6001 73.239 56.4348 74.1684 56.4348C74.1684 56.4348 74.7151 56.4348 74.223 55.9389L72.747 54.5614C72.5283 54.341 72.4189 54.2859 72.2003 54.2859C72.0909 54.2859 71.9269 54.341 71.4896 54.7267C70.6148 54.8369 70.3415 54.9471 70.0681 55.1124C69.9041 55.2226 69.8495 55.3328 69.7401 55.3328C69.5761 55.3328 69.4121 54.5614 69.4121 54.4512C69.4121 54.0655 69.8495 53.8451 69.8495 53.5696C69.8495 53.4043 69.6855 53.3492 69.6855 53.3492L69.0841 53.6247C69.0841 53.6247 68.7561 53.239 69.1388 53.0186C69.1388 53.0186 70.0681 52.4676 71.8722 51.6411C71.9816 52.1921 72.0909 52.2472 72.5283 52.2472L72.3096 52.3023V52.4676C72.4736 52.5227 72.747 52.4676 73.0203 52.3574C73.239 52.2472 73.567 52.2472 73.6217 52.1921C73.6763 52.137 73.8404 51.9717 73.8404 51.9717C73.731 51.9717 73.4577 52.0268 73.239 52.0819C73.5123 51.8615 73.6763 51.7513 73.6763 51.6411C73.6763 51.586 73.6217 51.5309 73.6217 51.5309C73.4577 51.5309 73.403 51.6411 73.239 51.586C73.1296 51.5309 73.0203 51.4207 73.0203 51.3105C73.0203 51.2003 73.1296 51.0901 73.4577 51.0901H73.6763C73.6763 50.8697 73.1843 50.8146 73.0203 50.8146C72.8016 50.8146 72.4189 50.9248 72.1456 51.035C72.1456 51.035 72.2003 50.6493 72.6376 50.4289C72.8563 50.3187 74.1137 50.2085 75.2618 50.2085C76.9565 50.2085 78.2139 51.6962 78.4873 51.6962C78.5966 51.6962 78.706 51.586 78.542 51.4758C77.9406 51.035 77.5579 50.7044 77.5579 50.3187C77.5579 50.1534 77.5579 49.2718 79.526 48.9412C80.4007 49.6575 80.6741 50.1534 80.6741 50.6493C80.6741 51.4758 79.7994 51.5309 79.69 51.8615C81.9315 52.0268 83.5716 54.9471 83.5716 56.4348C83.5716 59.0795 81.0568 60.1815 79.4713 60.5672C81.7675 58.8591 82.5875 57.1511 82.5875 55.9389C82.5875 53.9553 80.8381 52.8533 80.4007 52.6329C81.3848 53.7349 81.6035 54.892 81.6035 55.7185C81.6035 57.3715 80.5647 58.198 80.5647 58.198C80.7834 57.8123 80.7834 57.4817 80.7834 57.2062C80.7834 56.9858 80.7287 56.7654 80.7287 56.7654C79.854 58.9142 77.7766 60.4019 77.6126 62.2202C77.4486 61.7794 77.3939 61.3386 77.3939 61.008C77.3939 59.4652 78.3233 58.5285 78.3233 58.5285C76.4645 59.7958 76.0271 61.2835 76.0271 62.4406C76.0271 63.5977 76.5192 64.4242 76.5192 64.4242C76.4098 63.9834 76.4645 63.2671 76.5738 62.7161C76.7925 64.314 77.5579 66.3527 79.7994 67.62C75.9178 67.62 74.3324 62.9365 75.9178 59.9611C73.239 60.6774 72.911 63.4875 72.8563 65.0854C72.6376 64.2038 72.6376 63.5426 72.6376 63.0467C72.6376 60.1264 75.0431 59.355 76.8472 58.5836C79.4713 57.4266 80.5647 56.4348 80.5647 54.7267C80.5647 52.9084 78.4326 51.7513 76.8472 52.0819L77.4486 52.688C77.5579 52.7982 77.6672 52.9084 77.6672 52.9084C79.3073 53.79 79.5807 54.7267 79.5807 55.2777C79.5807 56.8205 77.8859 57.647 76.6285 58.1429C72.6376 59.8509 71.9269 60.6223 71.9269 63.1018C71.9269 64.9201 72.4736 67.7853 70.5602 68.0057C70.7242 68.2261 71.3802 68.3363 71.3802 68.3363C70.7789 68.8322 70.2322 68.9424 69.4668 68.9424C68.8107 68.9424 67.4987 68.722 67.116 67.3445C67.6627 67.5649 68.2094 67.8955 68.9748 67.8955ZM79.362 51.4207L79.526 51.5309C79.526 51.5309 80.4007 51.1452 80.4007 50.5391C80.4007 50.5391 80.4007 50.2085 80.182 49.9881C80.0727 49.9881 80.0727 50.2085 80.0727 50.2636C80.0727 50.484 79.9087 50.5942 79.69 50.5942C79.4713 50.5942 79.1433 50.3738 79.1433 50.0432C79.1433 49.7126 79.3073 49.5473 79.3073 49.4371C79.3073 49.4371 79.3073 49.382 79.2527 49.382C78.4873 49.6575 78.4326 49.9881 78.4326 50.2636C78.4326 50.6493 78.5966 50.9799 79.362 51.4207ZM70.2322 53.3492C70.2868 53.4594 70.4508 53.5696 70.5055 53.5696C70.7242 53.3492 70.8882 53.1288 70.8882 52.9084C70.6148 52.9084 70.2322 53.0186 70.2322 53.3492ZM85.5943 69.2179L85.4303 69.1628C85.2117 69.4383 84.5556 70.0444 83.5716 70.0444L83.5169 70.1546C83.9543 70.5954 83.8449 71.5321 83.2982 71.5321C82.9702 71.5321 82.8062 71.2566 82.7515 70.9811L82.6422 70.926C82.4782 71.0362 82.0955 71.3117 82.0408 71.4219C82.0408 71.6974 82.0955 72.0831 82.1502 72.3035H82.2595C82.3688 72.0831 82.5328 72.0831 82.6422 72.0831C82.8609 72.0831 83.0795 72.3035 83.0795 72.579C83.0795 73.0749 82.7515 73.4606 82.0955 73.4606C81.3848 73.4606 80.7834 73.13 80.7834 72.3586C80.7834 71.9729 81.0021 71.5321 81.4941 71.3117V71.2015C81.1114 70.926 80.7834 70.4301 80.6741 70.2097H80.5647C80.4007 70.4301 79.9634 70.8158 79.526 70.926V71.0913C79.9087 71.477 79.9634 71.8627 79.9634 72.0831C79.9634 72.6892 79.4167 73.0749 78.3779 73.0749C77.5579 73.0749 76.7925 72.8545 76.7925 72.028C76.7925 71.5872 77.0659 71.3668 77.3939 71.3668C77.6126 71.3668 77.9406 71.477 78.1046 71.7525H78.2139C78.4326 71.5321 78.4873 71.3668 78.8153 71.0913V70.9811C78.6513 70.8709 78.4326 70.5954 78.2139 70.2648H78.1046C77.7766 70.6505 77.5032 70.7056 77.2299 70.7056C77.0112 70.7056 76.7378 70.5954 76.7378 70.2648C76.7378 69.824 77.2845 69.6587 77.6672 69.4934V69.4383C76.9565 69.1628 76.3005 68.3914 76.1365 67.8955H76.0271C75.8631 68.3914 75.2071 69.1077 74.4964 69.4383V69.5485C74.9337 69.7138 75.4258 69.8791 75.4258 70.3199C75.4258 70.6505 75.1524 70.7607 74.9338 70.7607C74.6604 70.7607 74.3871 70.7056 74.059 70.3199H73.9497C73.731 70.6505 73.4577 70.926 73.3483 71.0362V71.0913C73.6763 71.3668 73.7857 71.5321 73.9497 71.7525H74.059C74.2777 71.477 74.5511 71.3668 74.7697 71.3668C75.0978 71.3668 75.3711 71.5872 75.3711 72.028C75.3711 72.8545 74.5511 73.0749 73.7857 73.0749C72.6923 73.0749 72.2003 72.6892 72.2003 72.0831C72.2003 71.8627 72.2549 71.477 72.6376 71.0913V71.0362C72.2003 70.926 71.7629 70.4852 71.5989 70.3199H71.4896C71.3802 70.5403 71.0522 71.0362 70.6695 71.3117V71.4219C71.2162 71.6423 71.3802 72.0831 71.3802 72.4688C71.3802 73.2402 70.7789 73.5708 70.0681 73.5708C69.4121 73.5708 69.0841 73.13 69.0841 72.6892C69.0841 72.4137 69.3028 72.1933 69.5214 72.1933C69.6308 72.1933 69.7948 72.2484 69.9041 72.4137H70.0135C70.0681 72.1933 70.1228 71.8076 70.1228 71.5321C70.0135 71.4219 69.6308 71.1464 69.5214 71.0362L69.4121 71.0913C69.3574 71.3117 69.1934 71.6423 68.8654 71.6423C68.3187 71.6423 68.264 70.7056 68.6467 70.2648L68.5921 70.1546C67.608 70.1546 66.952 69.5485 66.7333 69.273L68.7014 73.8462C68.7014 73.8462 68.264 74.0666 68.3734 74.3972C68.5921 75.0584 69.1388 75.94 69.1388 76.9869C69.1388 77.4277 69.0841 77.4828 69.0841 77.6481C69.0841 77.8685 69.2481 77.9236 69.4121 77.9236H82.8609C83.0795 77.9236 83.1889 77.8134 83.1889 77.6481C83.1889 77.4277 83.1342 77.4277 83.1342 76.9869C83.1342 75.94 83.7356 75.0584 83.8996 74.3972C84.0089 74.0666 83.5716 73.8462 83.5716 73.8462L85.5943 69.2179ZM76.1365 76.7665C72.4189 76.7665 69.9588 76.7114 69.9588 76.7114L69.4121 74.7278C69.4121 74.7278 72.747 74.2319 76.0818 74.2319C79.362 74.2319 82.7515 74.7278 82.7515 74.7278L82.2048 76.7114C82.3142 76.7114 79.854 76.7665 76.1365 76.7665Z" fill="white"/>
</g>
<defs>
<clipPath id="clip0_1783_992">
<rect width="120" height="47" fill="white" transform="translate(16 48.5)"/>
</clipPath>
</defs>
</svg>
