<svg width="152" height="144" viewBox="0 0 152 144" fill="none" xmlns="http://www.w3.org/2000/svg">
<rect width="152" height="144" rx="8" fill="white" fill-opacity="0.07"/>
<g clip-path="url(#clip0_1820_1576)">
<path d="M22.929 72.2062C23.717 69.2164 22.8179 66.0825 20.6663 64.4218C17.7354 66.2941 16.0452 69.8152 16.6557 73.4833C16.8571 74.6959 17.2929 75.8102 17.9062 76.7869C20.1971 76.143 22.2124 74.9237 22.929 72.2062ZM26.8846 80.8363C31.7217 80.0168 34.9832 75.3945 34.1705 70.5142C33.4944 66.4526 30.2129 63.4918 26.3436 63.0828C25.5623 63.0004 24.7554 63.0226 23.9419 63.1601C22.9769 63.3233 22.0778 63.6396 21.2584 64.0786C25.5211 65.5377 27.8132 67.7563 27.9722 70.0288C28.0507 71.4327 27.4037 72.4475 26.5549 73.2745L32.5835 72.8497C32.7532 72.8378 32.8073 73.0383 32.6 73.0982L18.2222 77.2589C19.6859 79.2936 21.9592 80.6469 24.4826 80.9135C25.2639 80.996 26.0707 80.975 26.8846 80.8363ZM26.3986 62.5491C31.1347 63.0464 34.8273 67.0846 34.8293 71.9946C34.8312 77.2426 30.6173 81.498 25.4182 81.5C20.2179 81.502 16.0012 77.249 16 72.0017C15.998 66.7537 20.212 62.498 25.4111 62.4963C25.7441 62.4963 26.0738 62.515 26.3986 62.5491Z" fill="white"/>
<path d="M16.6554 73.4833C16.8568 74.6959 17.2926 75.8101 17.9059 76.7869C20.1968 76.143 22.2121 74.9237 22.9286 72.2062C23.7166 69.2164 22.8175 66.0825 20.666 64.4218C17.7351 66.2941 16.0448 69.8151 16.6554 73.4833ZM34.1702 70.5142C34.9829 75.3945 31.7214 80.0168 26.8843 80.8362C26.0704 80.9749 25.2636 80.9959 24.4822 80.9135C21.9589 80.6468 19.6856 79.2936 18.2219 77.2588L32.5997 73.0982C32.807 73.0383 32.7528 72.8378 32.5832 72.8497L26.5545 73.2745C27.4034 72.4475 28.0503 71.4327 27.9718 70.0288C27.8128 67.7563 25.5207 65.5376 21.258 64.0786C22.0775 63.6396 22.9766 63.3233 23.9416 63.1601C24.7551 63.0226 25.562 63.0004 26.3433 63.0828C30.2125 63.4918 33.4941 66.4525 34.1702 70.5142Z" fill="#CF181F"/>
<path d="M83.5918 75.7246V72.6005H80.4881V75.7246H78.7842V68.2833H80.4881V71.2485H83.5918V68.2833H85.3076V75.7246H83.5918Z" fill="white"/>
<path d="M46.875 68.2829V72.9421C46.875 73.4564 46.9504 73.9018 47.0987 74.2644C47.246 74.6242 47.4588 74.9226 47.7329 75.1524C48.0097 75.3838 48.3422 75.5554 48.723 75.6608C49.1098 75.7682 49.5468 75.8232 50.0206 75.8232C50.4957 75.8232 50.9276 75.7682 51.3064 75.6608C51.6794 75.5554 51.9974 75.385 52.2527 75.1548C52.5071 74.9253 52.7073 74.6265 52.8468 74.2663C52.9869 73.905 53.0587 73.4596 53.0587 72.9421V68.2829H51.4635V72.8925C51.4635 73.3613 51.3488 73.7409 51.1212 74.0191C50.8883 74.3024 50.5185 74.4462 50.0206 74.4462C49.533 74.4462 49.1659 74.3032 48.9291 74.0199C48.6968 73.7425 48.579 73.3629 48.579 72.8925V68.2829H46.875Z" fill="white"/>
<path d="M41.9616 75.7256V69.6732H39.958V68.2831H45.6805V68.9492C45.6805 69.3487 45.3586 69.6732 44.964 69.6732H43.6656V75.7256H41.9616Z" fill="white"/>
<path d="M69.3438 75.7246V68.2825H71.0477V75.7246H69.3438Z" fill="white"/>
<path d="M63.6689 72.255L63.7267 72.3287L65.903 75.1591C66.1798 75.5201 66.5979 75.7266 67.0494 75.7266H68.4067L65.2886 71.7232L65.2422 71.6649L65.2886 71.6055L67.8524 68.2806H66.0785L63.7278 71.4882L63.6689 71.5655L63.6678 71.4312V68.2806H61.9639V75.7226H63.6678V72.3869L63.6689 72.255Z" fill="white"/>
<path d="M56.3357 71.6894H57.3289C57.6862 71.6894 57.9591 71.5903 58.1389 71.3953C58.3164 71.2023 58.4067 70.9515 58.4067 70.6504C58.4067 70.3417 58.3183 70.0869 58.1456 69.8943C57.9701 69.6981 57.6953 69.5991 57.3289 69.5991H56.3357V71.6894ZM59.7428 75.7236C59.2382 75.7236 58.762 75.4534 58.5009 75.0179L57.1758 72.8088H56.3357V75.7236H54.6328V68.2835H57.6685C58.4491 68.2835 59.0596 68.4892 59.4845 68.8941C59.9077 69.2984 60.1224 69.8527 60.1224 70.5402C60.1224 70.8893 60.0301 71.2432 59.8488 71.5919C59.669 71.9346 59.351 72.2148 58.9026 72.4256L58.8044 72.4716L60.8723 75.7236H59.7428Z" fill="white"/>
<path d="M72.4463 75.4085V73.9816C72.9888 74.2336 73.6877 74.4856 74.4102 74.4856C75.2417 74.4856 75.6637 74.1975 75.6637 73.6459C75.6637 72.9985 75.0973 72.9271 73.9645 72.4354C73.193 72.0875 72.458 71.5482 72.458 70.3015C72.458 68.8512 73.5542 68.1677 75.0728 68.1677C75.8805 68.1677 76.5668 68.3595 76.9524 68.5034V69.8938C76.5668 69.7139 75.8805 69.4979 75.1935 69.4979C74.4467 69.4979 74.0972 69.7741 74.0972 70.2536C74.0972 70.7569 74.5193 70.9134 75.2779 71.2007C76.2535 71.692 77.3862 71.908 77.3862 73.5861C77.3862 75.0368 76.2417 75.8281 74.7117 75.8281C73.7713 75.8281 73.0242 75.6605 72.4463 75.4085Z" fill="white"/>
<path d="M125.079 75.7246V68.2825H129.697V68.9573C129.697 69.3512 129.378 69.6722 128.988 69.6722H126.783V71.2727H129.259V72.5149H126.783V74.3357H129.697V75.7246H125.079Z" fill="white"/>
<path d="M108.232 75.7236V68.2819H109.061C109.544 68.2819 109.936 68.679 109.936 69.1656V74.3835H112.655V75.7236H108.232Z" fill="white"/>
<path d="M97.6846 75.7227V68.2853H99.3885V75.7227H97.6846Z" fill="white"/>
<path d="M102.654 71.688H103.648C104.006 71.688 104.278 71.5889 104.459 71.394C104.636 71.201 104.725 70.9502 104.725 70.6486C104.725 70.3399 104.638 70.0859 104.464 69.8929C104.288 69.6967 104.014 69.5977 103.648 69.5977H102.654V71.688ZM106.062 75.7227C105.558 75.7227 105.082 75.4516 104.82 75.0165L103.495 72.8074H102.654V75.7227H100.951V68.2821H103.988C104.767 68.2821 105.379 68.4875 105.803 68.8928C106.227 69.2974 106.441 69.8513 106.441 70.5388C106.441 70.8884 106.35 71.2422 106.167 71.5909C105.988 71.9329 105.67 72.2134 105.222 72.4238L105.124 72.4698L107.192 75.7227H106.062Z" fill="white"/>
<path d="M91.8289 73.0128L92.4975 71.1318C92.6466 70.7086 92.7959 70.2625 92.894 69.9332H92.9195C93.0059 70.2739 93.1551 70.6971 93.3031 71.1318L93.9481 73.0128H91.8289ZM93.9345 68.2819H91.9772L89.1963 75.7236H90.4244C90.7354 75.7236 91.0102 75.5231 91.1084 75.2251L91.3942 74.3518H94.3848L94.8218 75.7236H96.6679L93.9345 68.2819Z" fill="white"/>
<path d="M131.064 75.4085V73.9824C131.606 74.2336 132.305 74.4856 133.028 74.4856C133.86 74.4856 134.281 74.1975 134.281 73.6463C134.281 72.9989 133.715 72.9271 132.583 72.4358C131.811 72.0883 131.077 71.5482 131.077 70.3015C131.077 68.8512 132.172 68.1681 133.691 68.1681C134.498 68.1681 135.185 68.3595 135.57 68.5034V69.8938C135.185 69.7147 134.498 69.4987 133.811 69.4987C133.065 69.4987 132.716 69.7745 132.716 70.2536C132.716 70.7573 133.136 70.9134 133.896 71.2007C134.872 71.6924 136.005 71.9084 136.005 73.5865C136.005 75.0368 134.86 75.8281 133.33 75.8281C132.389 75.8281 131.642 75.6605 131.064 75.4085Z" fill="white"/>
<path d="M117.017 68.2833H118.073C118.575 68.2833 119.04 68.5444 119.305 68.974L121.362 72.3085C121.594 72.6786 121.864 73.168 122.023 73.5143H122.059C122.035 73.1803 122.023 72.7139 122.023 72.3798V68.2833H123.516V75.7246H121.648L119.146 71.699C118.914 71.3289 118.669 70.8867 118.497 70.5523H118.474C118.485 70.8749 118.51 71.2572 118.51 71.6154V75.7246H117.017V68.2833Z" fill="white"/>
<path d="M113.752 75.7227V68.2853H115.456V75.7227H113.752Z" fill="white"/>
</g>
<defs>
<clipPath id="clip0_1820_1576">
<rect width="120" height="19" fill="white" transform="translate(16 62.5)"/>
</clipPath>
</defs>
</svg>
