<svg width="152" height="144" viewBox="0 0 152 144" fill="none" xmlns="http://www.w3.org/2000/svg">
<rect width="152" height="144" rx="8" fill="white" fill-opacity="0.07"/>
<path d="M64.267 67.3337L61.3337 70.2671C63.3337 72.2671 64.0003 73.2004 64.1337 74.1337C64.267 74.0004 66.9337 71.7337 66.9337 70.9337C66.9337 69.7337 66.1337 69.3337 64.267 67.3337ZM34.667 85.3337H24.667C24.667 85.3337 26.4003 86.8004 26.4003 89.8671V101.867C26.4003 104.934 27.6003 104.934 27.6003 104.934H37.3337C39.6003 104.934 40.267 103.334 40.267 102.534V101.334C40.267 101.334 39.6003 102.8 36.667 102.8H32.0003C30.5337 102.8 30.667 101.6 30.5337 100.534V93.8671H33.867C34.9337 93.8671 36.0003 94.0004 37.067 94.5337C37.067 94.5337 36.0003 91.8671 32.667 91.8671H30.5337V89.7337C30.5337 89.7337 30.5337 87.8671 30.1337 87.3337H33.2003C35.867 87.3337 37.867 87.3337 40.0003 88.6671C40.1337 88.9337 39.7337 85.3337 34.667 85.3337ZM50.1337 89.2004C46.9337 89.2004 46.1337 92.2671 46.1337 92.2671C46.1337 92.2671 46.0003 89.3337 43.467 89.3337H40.9337C40.9337 89.3337 42.4003 89.8671 42.4003 92.4004V101.734C42.4003 104.8 43.6003 104.934 43.6003 104.934H47.7337C47.6003 104.934 46.1337 103.734 46.1337 101.734V93.4671C46.1337 93.0671 46.8003 91.8671 48.5337 91.8671C49.6003 91.8671 50.667 92.9337 50.667 94.1337V101.867C50.667 105.067 51.867 105.067 51.867 105.067H56.0003C56.0003 105.067 54.4003 104 54.4003 101.867V93.6004C54.5337 93.2004 55.067 92.0004 56.667 92.0004C57.867 92.0004 58.9337 93.0671 58.9337 94.2671V102C58.9337 105.067 60.1337 105.067 60.1337 105.067H64.267C64.267 105.067 62.667 104 62.667 101.867V93.4671C62.667 90.1337 60.0003 89.3337 58.0003 89.3337C55.3337 89.3337 54.5337 91.6004 54.267 92.2671C53.867 90.1337 51.867 89.2004 50.1337 89.2004ZM67.467 89.3337H64.9337C64.9337 89.3337 66.4003 90.0004 66.4003 92.4004V101.734C66.4003 104.8 67.6003 104.8 67.6003 104.8H71.7337C71.7337 104.8 70.1337 103.734 70.1337 101.6V92.6671C70.1337 89.3337 68.267 89.3337 67.467 89.3337ZM74.8003 89.3337H72.267C72.267 89.3337 73.7337 89.8671 73.7337 92.4004V101.734C73.7337 104.8 74.9337 104.934 74.9337 104.934H79.067C78.9337 104.934 77.467 103.734 77.467 101.734V94.0004C77.6003 93.3337 78.0003 92.8004 78.5337 92.4004C79.067 92.0004 79.7337 91.8671 80.4003 91.8671C81.3337 91.8671 82.267 92.2671 82.9337 93.0671V90.4004C82.9337 90.4004 82.5337 89.3337 80.8003 89.3337C78.267 89.3337 77.6003 92.4004 77.6003 92.4004C77.3337 90.0004 76.667 89.3337 74.8003 89.3337ZM101.067 85.7337C101.067 85.7337 100.134 87.3337 98.267 88.8004C97.067 89.7337 94.667 90.9337 94.667 90.9337H97.3337V101.867C97.3337 104.934 98.5337 104.934 98.5337 104.934H102.667C102.667 104.934 101.067 103.867 101.067 101.867V91.0671H102.134C103.467 91.0671 104.534 91.7337 104.534 91.7337V89.3337H101.067V85.7337ZM111.334 89.3337C107.067 89.3337 104.8 93.3337 104.8 97.6004C104.8 101.867 107.6 105.067 111.6 105.067C114.934 105.067 116 103.867 116 103.867V101.334C115.067 102.934 113.867 103.334 112.8 103.334C112.2 103.332 111.607 103.195 111.067 102.934C109.2 102.134 108.934 99.7337 108.934 99.7337C110.4 98.0004 112.267 98.4004 114.534 95.8671C117.734 92.6671 115.467 89.3337 111.334 89.3337ZM108.8 98.0004C108.8 98.0004 108.267 90.8004 110.934 90.5337H111.067C113.2 90.5337 112.667 93.6004 112 94.8004C111.067 96.8004 109.734 96.9337 108.8 98.0004ZM68.267 84.2671C67.2003 84.2671 66.4003 85.0671 66.4003 86.1337C66.4003 87.2004 67.2003 88.0004 68.267 88.0004C69.3337 88.0004 70.1337 87.2004 70.1337 86.1337C70.1337 85.0671 69.3337 84.2671 68.267 84.2671ZM88.5337 89.3337C86.1337 89.3337 84.667 90.5337 84.667 90.5337V93.2004C84.667 93.2004 85.467 91.0671 87.7337 91.0671C89.867 91.0671 90.0003 92.1337 90.0003 92.6671C90.0003 92.6671 90.267 93.3337 89.7337 94.2671C88.8003 96.0004 81.3337 96.2671 82.4003 102.134C82.8003 104.4 84.4003 105.067 86.267 105.067C88.1337 105.067 89.2003 104.134 89.7337 103.2C90.0003 104.934 90.9337 105.067 90.9337 105.067H95.067C95.067 105.067 93.467 104 93.467 102V93.2004C93.3337 90.9337 91.067 89.3337 88.5337 89.3337ZM87.2003 103.2C86.267 103.2 85.6003 102.267 85.6003 101.2C85.6003 97.3337 88.8003 96.8004 89.6003 95.7337V102.267C89.2003 102.667 88.8003 103.2 87.2003 103.2ZM122.4 89.2004C119.867 89.2004 117.734 90.8004 117.734 92.9337C117.734 94.8004 118.534 96.0004 120 97.0671L122.134 98.4004C123.334 99.0671 123.734 99.8671 123.734 100.667C123.734 101.734 122.8 103.2 120.667 103.2C118.534 103.2 117.6 100.934 117.6 100.934V103.734C117.6 103.734 119.2 104.8 121.467 104.8C124.267 104.8 127.2 102.667 127.067 99.7337C127.067 98.6671 126.667 97.7337 126.134 97.0671C125.2 95.7337 123.467 94.9337 122.134 94.0004C121.334 93.4671 120.934 92.6671 120.934 92.4004C120.934 91.8671 121.2 90.8004 123.334 90.8004C125.334 90.8004 126.267 92.9337 126.267 92.9337V90.2671C126.267 90.5337 124.8 89.2004 122.4 89.2004ZM57.6003 62.1337H56.0003C56.0003 62.1337 57.6003 63.0671 57.6003 65.2004V72.4004C57.6003 77.0671 61.467 81.4671 66.1337 81.4671H70.0003C72.4003 81.4671 73.2003 80.9337 74.5337 79.6004L76.0003 78.1337C76.8003 77.2004 77.7337 76.5337 77.7337 74.0004V71.6004C77.7337 69.6004 76.5337 68.6671 76.0003 68.1337L74.667 66.8004V71.6004C74.667 71.6004 75.6003 72.6671 76.1337 72.9337C78.1337 74.5337 76.5337 77.3337 74.667 77.3337H66.1337H66.0003C62.0003 77.2004 58.8003 73.8671 58.667 69.8671V66.0004C58.667 62.1337 57.6003 62.1337 57.6003 62.1337ZM70.1337 67.3337L67.2003 70.2671C69.2003 72.2671 69.867 73.2004 70.0003 74.1337C70.1337 74.0004 72.8003 71.7337 72.8003 70.9337C72.8003 69.7337 72.0003 69.2004 70.1337 67.3337ZM76.1337 34.4004L74.1337 36.4004C73.3337 37.2004 73.6003 38.8004 75.2003 40.4004V44.4004C75.2003 44.8004 74.8003 45.2004 74.8003 45.2004C74.8003 45.2004 72.4003 43.0671 70.267 43.0671H67.067C65.067 43.0671 63.467 44.9337 63.2003 45.0671C62.1337 46.1337 62.1337 48.1337 62.9337 49.0671L65.2003 51.3337C65.2003 51.3337 64.667 47.7337 65.2003 45.3337C65.3337 44.8004 66.0003 44.1337 66.667 44.1337L71.867 48.1337L65.867 54.4004C65.6003 54.6671 64.8003 55.2004 64.0003 55.2004C63.067 55.2004 62.667 54.6671 62.267 54.1337V57.0671C62.267 58.0004 63.6003 59.0671 64.8003 59.0671H72.8003C73.3337 59.0671 74.0003 58.9337 74.5337 58.4004L77.2003 55.7337C77.6003 55.3337 77.7337 54.8004 77.7337 54.1337V51.0671C77.7337 48.1337 75.467 45.8671 75.467 45.8671C75.467 45.8671 76.0003 45.4671 76.0003 44.2671V41.2004C76.0003 41.2004 76.9337 42.1337 77.067 42.5337L78.8003 40.8004C79.6003 40.0004 78.267 38.5337 77.7337 37.8671C76.1337 36.1337 76.1337 34.4004 76.1337 34.4004ZM66.1337 55.4671C66.9337 55.0671 67.067 54.8004 67.7337 54.0004L72.8003 48.6671C72.8003 48.6671 75.6003 51.6004 76.5337 53.2004C76.9337 54.0004 77.467 55.4671 75.067 55.4671H66.1337ZM59.3337 49.3337H57.867C58.8003 49.8671 59.467 51.4671 59.467 52.4004V58.2671C59.467 59.8671 60.667 65.6004 65.867 65.6004H80.9337V75.2004C80.9337 76.8004 80.4003 77.7337 80.0003 78.1337L77.7337 80.2671H78.8003L82.9337 76.5337C83.7337 75.6004 84.667 74.6671 84.667 71.7337V65.6004L86.4003 63.8671L89.3337 61.0671C89.3337 63.4671 90.5337 64.5337 91.6003 64.5337C92.193 64.4959 92.7561 64.2612 93.2003 63.8671L95.867 61.3337C97.067 60.1337 97.7337 56.4004 94.8003 56.4004C92.9337 56.4004 90.8003 59.0671 90.667 59.3337C90.0003 58.9337 89.467 58.0004 89.467 58.0004V60.2671C89.2003 60.6671 88.0003 61.6004 87.067 61.6004H84.667V59.3337C84.667 58.2671 85.067 57.0671 85.6003 56.5337L87.867 54.4004H86.8003L82.267 58.5337C81.467 59.4671 80.9337 61.2004 80.9337 61.6004H63.867C61.7337 61.6004 60.4003 59.4671 60.4003 57.7337V53.3337C60.4003 49.7337 59.467 49.3337 59.3337 49.3337ZM93.867 62.1337C93.467 62.1337 93.067 62.0004 92.5337 61.6004C92.0003 61.2004 91.067 59.8671 91.067 59.8671C91.3337 59.6004 92.1337 59.3337 92.8003 59.3337C93.3337 59.3337 93.867 59.4671 94.0003 59.7337C94.9337 60.9337 94.8003 62.1337 93.867 62.1337ZM86.8003 34.4004L82.267 38.5337C82.0003 38.8004 80.9337 40.4004 80.9337 42.2671V54.1337C80.9337 54.9337 80.4003 56.1337 80.0003 56.5337L77.7337 58.6671H78.8003L83.067 54.8004C83.6003 54.2671 84.667 52.9337 84.667 50.6671V39.3337C84.667 37.6004 85.467 36.6671 85.867 36.2671L87.867 34.4004H86.8003ZM87.467 64.8004V69.4671L89.067 71.2004C90.4003 72.5337 90.267 75.0671 86.267 78.9337C84.8445 80.4583 82.8831 81.3673 80.8003 81.4671H73.6003L77.867 85.2004H80.8003C83.7337 85.2004 86.4003 84.0004 88.1337 82.1337C89.7337 80.4004 90.667 78.1337 90.5337 75.7337V69.6004C90.5337 67.4671 89.2003 66.2671 88.9337 66.0004C88.667 66.0004 87.467 64.8004 87.467 64.8004Z" fill="white"/>
</svg>
