<svg width="152" height="144" viewBox="0 0 152 144" fill="none" xmlns="http://www.w3.org/2000/svg">
<rect width="152" height="144" rx="8" fill="white" fill-opacity="0.07"/>
<g clip-path="url(#clip0_1820_1547)">
<path d="M19.5548 99.2034H16.0254V98.6596H17.0661V89.8222H16.1159V89.2783H22.3602C23.6724 89.2783 25.4824 89.3236 25.4824 89.3236L25.8444 92.4054H25.3919L25.3467 92.2695C24.8037 90.366 24.3964 89.8222 22.3602 89.8222H18.6951V94.1276H20.867C22.677 94.1276 23.22 93.9463 23.22 92.768V92.5867H23.6724V96.1217H23.22V95.9404C23.22 95.0793 22.7222 94.6261 20.867 94.6261H18.6951V98.6143H19.5548V99.2034Z" fill="white"/>
<path d="M31.7723 91.3624C29.3289 91.3624 27.9262 92.722 27.9262 95.1693C27.9262 97.5712 29.2836 98.9308 31.7723 98.9308C34.261 98.9308 35.6185 97.6166 35.6185 95.1693C35.6185 92.7673 34.2158 91.3624 31.7723 91.3624ZM31.7723 99.384C28.1977 99.384 26.252 97.2087 26.252 95.1693C26.252 92.4954 29.0574 90.9092 31.7723 90.9092C35.347 90.9092 37.2927 93.1299 37.2927 95.1693C37.2927 97.8885 34.442 99.384 31.7723 99.384Z" fill="white"/>
<path d="M43.0389 99.3844C41.048 99.3844 38.6045 98.6593 38.6045 95.2603V91.544H37.79V91.0908H41.048V91.544H40.143V95.2603C40.143 98.4327 41.9529 98.9312 43.0389 98.9312C44.7131 98.9312 46.5231 97.9795 46.5231 95.2603V91.544H45.7086V91.0908H47.6995V91.544H46.9303V95.2603C46.9303 98.2967 44.8489 99.3844 43.0389 99.3844Z" fill="white"/>
<path d="M50.7761 95.1243H53.7173C55.12 95.1243 55.7535 94.5805 55.7535 93.3568C55.7535 92.1332 55.12 91.5893 53.7173 91.5893H50.7761V95.1243ZM53.8078 95.5775H50.7761V98.7046H51.5454V99.1578H48.3779V98.7046H49.3282V91.544H48.3779V91.0908H53.7173C54.6223 91.0908 57.4277 91.0908 57.4277 93.3568C57.4277 94.3992 56.8395 95.079 55.7535 95.3962C55.7535 95.3962 55.1653 95.5775 53.8078 95.5775Z" fill="white"/>
<path d="M73.3554 90.2293L73.5817 92.6313H73.1292L72.9935 92.2234C72.36 90.4106 71.093 89.6401 69.102 89.6401C67.1111 89.6401 65.9346 90.184 65.9346 91.1357C65.9346 92.1781 67.5636 92.5859 69.3283 93.0391C71.455 93.583 73.8984 94.1721 73.8984 96.2116C73.8984 98.3416 72.2695 99.4293 69.0568 99.4293C69.0568 99.4293 66.7039 99.3386 64.8487 98.6588L64.3057 95.8037H64.7129L64.8939 96.2569C65.5726 97.8884 67.2016 98.9308 69.0568 98.9308C70.4595 98.9308 72.7672 98.6589 72.7672 96.982C72.7672 95.7584 71.0477 95.3505 69.1925 94.8973C67.0206 94.3534 64.8034 93.8549 64.8034 91.9061C64.8034 90.1386 66.3871 89.1416 69.102 89.1416C69.9165 89.1416 70.4143 89.2322 71.2287 89.4588C71.274 89.4588 72.6315 89.8214 73.3554 90.2293Z" fill="white"/>
<path d="M83.6272 99.2938C83.582 99.2938 82.1793 99.2485 81.41 99.2485H75.3467V98.7953H76.2517V91.6347H75.3467V91.1815H81.229C81.953 91.1815 82.7222 91.1815 82.9032 91.1361L83.3557 91.0908L83.6272 93.3568H83.2652L83.22 93.2209C82.7222 91.7253 81.9983 91.6347 81.229 91.6347H77.7449V94.8071H79.6906C81.0933 94.8071 81.5458 94.6258 81.5458 93.6288V93.4475H81.953V96.5746H81.5458V96.3933C81.5458 95.6228 81.0933 95.3056 79.6906 95.3056H77.7449V98.8406H81.4553C82.8127 98.8406 83.1295 98.4327 83.582 97.345L83.6272 97.2544H84.0797L83.6272 99.2938Z" fill="white"/>
<path d="M87.4285 96.0756H91.9986L89.6909 91.9515L87.4285 96.0756ZM92.6321 99.2027V98.7495H93.4918L92.2701 96.5288H87.157L85.9353 98.7495H86.795V99.2027H84.7588V98.7495H85.4828L89.4647 91.5889H88.7407V91.1357H90.9126L90.9579 91.2264L95.1208 98.7949H95.9353V99.2481L92.6321 99.2027Z" fill="white"/>
<path d="M111.183 90.9092C108.469 90.9092 105.663 92.4954 105.663 95.1693C105.663 97.2087 107.609 99.384 111.183 99.384C113.853 99.384 116.704 97.8885 116.704 95.1693C116.704 93.0845 114.803 90.9092 111.183 90.9092ZM111.183 98.9308C108.695 98.9308 107.337 97.6166 107.337 95.1693C107.337 92.7673 108.74 91.3624 111.183 91.3624C113.627 91.3624 115.03 92.722 115.03 95.1693C115.075 97.5712 113.717 98.9308 111.183 98.9308Z" fill="white"/>
<path d="M117.383 91.0908V91.544H118.016L118.378 91.9066V98.7499H117.428V99.2031H119.69V98.7499H118.831V92.2691L126.478 99.5204L126.568 99.611V91.544H127.292V91.0908H125.256V91.544H126.161V97.209L119.69 91.0908H117.383Z" fill="white"/>
<path d="M58.3781 98.9309C57.1564 98.8856 57.0206 98.4324 56.7039 97.7979L55.5727 95.3506H53.8984L55.9799 99.3841H58.3781V98.9309Z" fill="white"/>
<path d="M104.08 91.9066L104.261 93.9007H103.899L103.808 93.5834C103.31 92.0879 102.27 91.4534 100.641 91.4534C99.0118 91.4534 98.0616 91.9066 98.0616 92.677C98.0616 93.5381 99.419 93.8553 100.822 94.2179C102.586 94.6711 104.577 95.1696 104.577 96.8465C104.577 98.5686 103.265 99.4751 100.596 99.4751C100.596 99.4751 98.6498 99.3844 97.1566 98.8406L96.7041 96.4839H97.0208L97.1566 96.8465C97.6996 98.1608 99.057 99.0672 100.55 99.0672C101.681 99.0672 103.582 98.8406 103.582 97.481C103.582 96.4839 102.179 96.1667 100.641 95.8041C98.8761 95.3962 97.0661 94.943 97.0661 93.3568C97.0661 91.9066 98.3331 91.0908 100.596 91.0908C101.274 91.0908 101.681 91.1815 102.315 91.3627C102.36 91.2721 103.446 91.5893 104.08 91.9066Z" fill="white"/>
<path d="M135.573 91.9066L135.754 93.9007H135.392L135.301 93.5834C134.804 92.0879 133.763 91.4534 132.134 91.4534C130.505 91.4534 129.555 91.9066 129.555 92.677C129.555 93.5381 130.912 93.8553 132.315 94.2179C134.08 94.6711 136.071 95.1696 136.071 96.8465C136.071 98.5686 134.713 99.4751 132.089 99.4751C132.089 99.4751 130.143 99.3844 128.65 98.8406L128.197 96.4839H128.514L128.65 96.8465C129.193 98.1608 130.55 99.0672 132.043 99.0672C133.175 99.0672 135.075 98.8406 135.075 97.481C135.075 96.4839 133.672 96.1667 132.134 95.8041C130.369 95.3962 128.559 94.943 128.559 93.3568C128.559 91.9066 129.826 91.0908 132.089 91.0908C132.767 91.0908 133.175 91.1815 133.808 91.3627C133.808 91.2721 134.939 91.5893 135.573 91.9066Z" fill="white"/>
<path d="M88.876 67.5693C88.1973 67.8413 87.7448 68.3398 87.9258 69.2462C88.7403 68.9289 88.9665 68.2945 88.876 67.5693Z" fill="white"/>
<path d="M86.1162 68.0684C86.252 68.7935 86.6592 69.3373 87.5189 69.3373C87.4284 68.4762 86.8402 68.1137 86.1162 68.0684Z" fill="white"/>
<path d="M87.5189 71.603C87.4737 70.7419 86.8854 70.3793 86.1162 70.334C86.2067 71.0591 86.5687 71.603 87.5189 71.603Z" fill="white"/>
<path d="M84.9847 60.0469C84.2608 60.0922 83.6725 60.4548 83.582 61.3158C84.4418 61.3158 84.849 60.772 84.9847 60.0469Z" fill="white"/>
<path d="M81.5908 59.3662C81.7266 60.0913 82.1338 60.6352 82.9935 60.6352C82.903 59.8194 82.3601 59.4569 81.5908 59.3662Z" fill="white"/>
<path d="M81.4102 56.6928C82.2699 56.6928 82.6771 56.149 82.8129 55.4238C82.0889 55.4691 81.5007 55.8317 81.4102 56.6928Z" fill="white"/>
<path d="M82.0889 53.4746C81.4102 53.7919 80.9577 54.2904 81.1387 55.1514C81.9984 54.8342 82.1794 54.1997 82.0889 53.4746Z" fill="white"/>
<path d="M79.6455 54.0645C79.6908 54.7896 80.0075 55.3787 80.8672 55.5147C80.8672 54.6989 80.3695 54.2457 79.6455 54.0645Z" fill="white"/>
<path d="M79.2832 51.9799C80.1429 51.9799 80.5502 51.4361 80.6859 50.7109C79.9619 50.7563 79.4189 51.1188 79.2832 51.9799Z" fill="white"/>
<path d="M80.053 48.9434C79.4195 49.3059 79.0122 49.8498 79.2837 50.7108C80.053 50.303 80.234 49.6685 80.053 48.9434Z" fill="white"/>
<path d="M79.0567 51.2998C79.1019 50.4388 78.5589 49.9856 77.835 49.8496C77.8802 50.5747 78.197 51.1639 79.0567 51.2998Z" fill="white"/>
<path d="M78.559 52.5688C78.4685 51.7077 77.8802 51.3451 77.1562 51.2998C77.292 52.0249 77.6992 52.5688 78.559 52.5688Z" fill="white"/>
<path d="M76.2513 54.2905C76.5228 54.1092 79.1925 52.5683 79.1925 52.5683C79.1925 52.5683 79.1925 52.5683 79.1925 52.523L79.0567 51.5713C79.0567 51.5713 79.102 51.9792 79.102 52.1151C79.102 52.2964 79.0567 52.3417 78.921 52.4324L75.9346 53.9733C75.9346 54.1999 75.9346 54.4265 75.9346 54.6984C75.9798 54.5624 76.0703 54.4265 76.2513 54.2905Z" fill="white"/>
<path d="M75.5726 45.725C75.4821 44.8639 74.8939 44.5014 74.1699 44.4561C74.3057 45.1812 74.7129 45.725 75.5726 45.725Z" fill="white"/>
<path d="M75.5726 47.1752C75.4821 46.3141 74.8939 45.9516 74.1699 45.9062C74.3057 46.5861 74.7129 47.1299 75.5726 47.1752Z" fill="white"/>
<path d="M75.5277 48.5805C75.4372 47.7194 74.849 47.3568 74.125 47.3115C74.2607 48.0366 74.668 48.5352 75.5277 48.5805Z" fill="white"/>
<path d="M75.5277 49.9858C75.4372 49.1247 74.849 48.7621 74.125 48.7168C74.2607 49.4419 74.668 49.9858 75.5277 49.9858Z" fill="white"/>
<path d="M75.4828 51.3901C75.3923 50.529 74.8041 50.1664 74.0801 50.1211C74.2158 50.8462 74.6231 51.3901 75.4828 51.3901Z" fill="white"/>
<path d="M75.4828 52.8403C75.3923 51.9792 74.8041 51.6166 74.0801 51.5713C74.2158 52.2964 74.6231 52.7949 75.4828 52.8403Z" fill="white"/>
<path d="M73.5818 49.5771C72.8578 49.8037 72.4054 50.257 72.4958 51.1634C73.3556 50.9368 73.6271 50.3476 73.5818 49.5771Z" fill="white"/>
<path d="M72.541 52.2065C73.4007 52.2065 73.808 51.6626 73.9437 50.9375C73.2197 50.9828 72.6315 51.3454 72.541 52.2065Z" fill="white"/>
<path d="M72.1793 51.345C72.315 50.4839 71.8173 49.9854 71.1386 49.7588C71.0933 50.4839 71.3648 51.0731 72.1793 51.345Z" fill="white"/>
<path d="M71.9984 52.2963C71.9079 51.4352 71.3197 51.0727 70.5957 51.0273C70.7314 51.7525 71.1387 52.2963 71.9984 52.2963Z" fill="white"/>
<path d="M74.0795 56.2852C73.3555 56.3305 72.7673 56.693 72.6768 57.5541C73.5365 57.5541 73.9437 57.0103 74.0795 56.2852Z" fill="white"/>
<path d="M71.6367 57.0551C72.4964 57.0551 72.9037 56.5113 73.0394 55.7861C72.3154 55.8315 71.7272 56.194 71.6367 57.0551Z" fill="white"/>
<path d="M75.1205 56.8291C74.3965 56.8744 73.8083 57.237 73.7178 58.0981C74.5775 58.0981 74.9847 57.5542 75.1205 56.8291Z" fill="white"/>
<path d="M73.2656 55.3783C74.1254 55.3783 74.5326 54.8345 74.6683 54.1094C73.9444 54.1547 73.3561 54.5173 73.2656 55.3783Z" fill="white"/>
<path d="M72.2695 54.7895C73.1293 54.7895 73.5365 54.2456 73.6722 53.5205C72.9483 53.5658 72.36 53.9284 72.2695 54.7895Z" fill="white"/>
<path d="M71.2744 54.1996C72.1341 54.1996 72.5414 53.6558 72.6771 52.9307C71.9531 52.976 71.3649 53.3386 71.2744 54.1996Z" fill="white"/>
<path d="M71.9984 55.1973C71.2744 55.2426 70.6862 55.6052 70.5957 56.4662C71.5007 56.4662 71.8627 55.9224 71.9984 55.1973Z" fill="white"/>
<path d="M70.3243 55.1067C70.4147 54.2456 69.9623 53.7471 69.2383 53.5205C69.2383 54.291 69.5098 54.8801 70.3243 55.1067Z" fill="white"/>
<path d="M70.098 56.4203C70.0075 55.5593 69.4193 55.1967 68.6953 55.1514C68.7858 55.8765 69.193 56.4203 70.098 56.4203Z" fill="white"/>
<path d="M70.8217 60.8623C70.0977 60.9076 69.5094 61.2702 69.4189 62.1313C70.2787 62.1313 70.6859 61.6327 70.8217 60.8623Z" fill="white"/>
<path d="M68.4238 61.5873C69.2836 61.5873 69.6908 61.0435 69.8265 60.3184C69.0573 60.3637 68.5143 60.7262 68.4238 61.5873Z" fill="white"/>
<path d="M71.8627 61.4062C71.1387 61.4516 70.5505 61.8141 70.46 62.6752C71.3197 62.6752 71.7269 62.1767 71.8627 61.4062Z" fill="white"/>
<path d="M72.9037 61.9502C72.1797 61.9955 71.5915 62.3581 71.501 63.2192C72.3607 63.2192 72.7679 62.6753 72.9037 61.9502Z" fill="white"/>
<path d="M73.9437 62.4941C73.2197 62.5395 72.6315 62.902 72.541 63.7631C73.4007 63.7631 73.808 63.2193 73.9437 62.4941Z" fill="white"/>
<path d="M74.9398 63.0371C74.2158 63.0824 73.6276 63.445 73.5371 64.3061C74.4421 64.3061 74.8493 63.7622 74.9398 63.0371Z" fill="white"/>
<path d="M73.4912 60.9076C74.3509 60.9076 74.7582 60.3638 74.8939 59.6387C74.1247 59.684 73.5817 60.0465 73.4912 60.9076Z" fill="white"/>
<path d="M72.4961 60.3188C73.3558 60.3188 73.7631 59.7749 73.8988 59.0498C73.1296 59.0951 72.5866 59.4577 72.4961 60.3188Z" fill="white"/>
<path d="M71.501 59.7289C72.3607 59.7289 72.7679 59.1851 72.9037 58.46C72.1345 58.5053 71.5915 58.8678 71.501 59.7289Z" fill="white"/>
<path d="M70.5049 59.1401C71.3646 59.1401 71.7718 58.5962 71.9076 57.8711C71.1384 57.9164 70.5954 58.279 70.5049 59.1401Z" fill="white"/>
<path d="M69.5098 58.5512C70.3695 58.5512 70.7767 58.0073 70.9125 57.2822C70.1433 57.3275 69.6003 57.6901 69.5098 58.5512Z" fill="white"/>
<path d="M69.7806 59.0039C69.0567 59.0492 68.4684 59.4118 68.3779 60.2729C69.2377 60.2729 69.6449 59.729 69.7806 59.0039Z" fill="white"/>
<path d="M68.1975 59.5483C68.4238 58.6873 68.0165 58.1887 67.3378 57.8262C67.2021 58.5966 67.3831 59.2311 68.1975 59.5483Z" fill="white"/>
<path d="M67.9711 60.6811C67.8806 59.82 67.2923 59.4574 66.5684 59.4121C66.7041 60.1372 67.1113 60.6811 67.9711 60.6811Z" fill="white"/>
<path d="M67.7904 61.9955C67.6999 61.1344 67.1117 60.7719 66.3877 60.7266C66.4782 61.4064 66.8854 61.9502 67.7904 61.9955Z" fill="white"/>
<path d="M70.1885 65.5756C71.0482 65.5756 71.4554 65.0318 71.5912 64.3066C70.8672 64.352 70.3242 64.7145 70.1885 65.5756Z" fill="white"/>
<path d="M70.1885 67.5698C71.0482 67.5698 71.4554 67.0259 71.5912 66.3008C70.8672 66.3461 70.3242 66.7087 70.1885 67.5698Z" fill="white"/>
<path d="M69.2383 64.9867C70.098 64.9867 70.5052 64.4429 70.641 63.7178C69.8718 63.7631 69.3288 64.1256 69.2383 64.9867Z" fill="white"/>
<path d="M68.2422 64.3969C69.1019 64.3969 69.5092 63.8531 69.6449 63.1279C68.9209 63.1732 68.3327 63.5358 68.2422 64.3969Z" fill="white"/>
<path d="M67.2471 63.808C68.1068 63.808 68.514 63.2642 68.6498 62.5391C67.9258 62.5844 67.3376 62.9469 67.2471 63.808Z" fill="white"/>
<path d="M87.6997 69.3371C87.6997 69.3371 87.8354 70.7873 87.7902 71.3765C87.7449 72.0563 87.6544 72.2829 87.1567 72.6001L76.3422 78.1292C76.3422 77.0868 76.297 75.8632 76.297 74.5036V74.141C76.297 73.4159 76.478 73.008 77.3377 72.4642C78.0617 72.011 86.0707 67.2977 86.0707 67.2977C86.0707 67.2977 86.116 67.2523 86.116 67.207L85.754 64.3518H85.6182C85.6182 64.3518 85.7087 65.5302 85.7087 66.0287C85.6635 66.5725 85.6182 66.7538 85.1658 67.0257L76.2065 71.6484C76.1612 70.2888 76.1612 68.8385 76.116 67.343V66.9351C76.116 66.4819 76.297 66.21 76.8852 65.8474C77.4282 65.4848 83.4011 61.9952 83.4011 61.9952C83.4011 61.9952 83.4463 61.9499 83.4463 61.9046L83.1748 59.7745H83.0843C83.0843 59.7745 83.1748 60.6809 83.1296 61.0435C83.0843 61.4513 83.0391 61.5873 82.7223 61.8139L76.0707 65.2582C76.0255 63.5814 76.0255 61.9046 75.9802 60.273C76.0255 60.0464 76.1612 59.7292 76.5232 59.5026C76.9305 59.2307 81.1839 56.738 81.1839 56.738C81.1839 56.738 81.2291 56.7381 81.2291 56.6927L81.0481 55.1972H81.0029C81.0029 55.1972 81.0481 55.8316 81.0481 56.1036C81.0481 56.3755 81.0029 56.5115 80.7766 56.6474L76.0255 59.0947C75.9802 57.5538 75.9802 56.0583 75.935 54.6533C75.935 54.4267 75.935 54.2001 75.935 53.9282C75.8445 48.4445 75.754 44.3656 75.754 44.3656C75.754 44.3203 75.754 44.3203 75.7087 44.3203C75.6635 44.3203 75.6635 44.3203 75.6635 44.3656C75.6635 44.3656 75.573 48.4445 75.4825 53.9282L72.4961 52.3873C72.3603 52.2967 72.3151 52.2513 72.3151 52.0701C72.3151 51.8888 72.3603 51.5262 72.3603 51.5262H72.3151L72.1793 52.4779V52.5233C72.1793 52.5233 74.8943 54.1095 75.1205 54.2454C75.3015 54.3361 75.392 54.472 75.4372 54.608C75.392 56.0129 75.392 57.5085 75.3468 59.0494L70.5956 56.6021C70.3694 56.4661 70.3241 56.3755 70.3241 56.0582C70.3241 55.7863 70.3694 55.1518 70.3694 55.1518H70.3241L70.1431 56.6474C70.1431 56.6927 70.1431 56.6927 70.1884 56.6927C70.1884 56.6927 74.4418 59.1853 74.849 59.4573C75.1658 59.6839 75.3467 59.9558 75.392 60.1824C75.3467 61.8592 75.3468 63.5361 75.3015 65.2129L68.6499 61.7686C68.3332 61.5873 68.2879 61.406 68.2427 60.9982C68.1974 60.6356 68.2879 59.7292 68.2879 59.7292H68.1974L67.9259 61.8592C67.9259 61.9046 67.9259 61.9045 67.9712 61.9499C67.9712 61.9499 73.944 65.4395 74.487 65.8021C75.0753 66.1646 75.2563 66.4819 75.2563 66.9351V67.343C75.211 68.7932 75.211 70.1981 75.1658 71.5578L66.2065 66.9351C65.7992 66.6632 65.7087 66.4819 65.6635 65.9381C65.6182 65.4395 65.754 64.2612 65.754 64.2612H65.6182L65.2563 67.1164C65.2563 67.1617 65.3015 67.207 65.3015 67.207C65.3015 67.207 73.3105 71.875 74.0345 72.3735C74.8943 72.9174 75.0753 73.3252 75.0753 74.0504C75.03 75.5006 75.03 76.8602 74.9848 77.9932L64.1703 72.4188C63.6725 72.1016 63.582 71.875 63.5368 71.1952C63.4915 70.606 63.6273 69.1558 63.6273 69.1558H63.4916L63.0391 72.6001C63.0391 72.6908 63.0843 72.6908 63.0843 72.7361C63.0843 72.7361 72.7676 78.4011 73.6725 78.9903C74.7133 79.6701 74.9395 79.7154 74.9395 80.939C74.9395 80.9844 74.9395 82.3893 74.9395 82.4799C74.9395 83.5676 74.0798 83.5676 74.0798 83.5676V83.7942H77.202V83.5676C77.202 83.5676 76.3422 83.5223 76.3422 82.4799C76.3422 82.4346 76.3422 81.075 76.3422 80.939C76.3422 79.7154 76.5685 79.6701 77.6092 78.9903C78.5142 78.4011 88.1974 72.7361 88.1974 72.7361C88.1974 72.7361 88.2427 72.6908 88.2427 72.6001L87.7902 69.1558L87.6997 69.3371Z" fill="white"/>
<path d="M72.2695 66.7992C73.1293 66.7992 73.5365 66.2554 73.6722 65.5303C72.903 65.5756 72.36 65.8928 72.2695 66.7992Z" fill="white"/>
<path d="M74.6683 66.1191C73.9444 66.1645 73.3561 66.527 73.2656 67.3881C74.1254 67.4334 74.5326 66.8896 74.6683 66.1191Z" fill="white"/>
<path d="M79.9166 63.2189C80.5954 62.675 80.5954 61.9952 80.2334 61.3154C79.6904 61.8593 79.4642 62.4938 79.9166 63.2189Z" fill="white"/>
<path d="M78.5137 62.2676C77.9707 62.7661 77.7444 63.4006 78.1969 64.171C78.8304 63.6272 78.8304 62.9474 78.5137 62.2676Z" fill="white"/>
<path d="M76.6592 59.6836C76.7949 60.4087 77.2022 60.9526 78.0619 60.9526C77.9714 60.0915 77.3832 59.7289 76.6592 59.6836Z" fill="white"/>
<path d="M81.681 65.4399C81.5905 64.5788 81.0023 64.2162 80.2783 64.1709C80.3688 64.896 80.7761 65.4399 81.681 65.4399Z" fill="white"/>
<path d="M79.9164 66.391C79.8259 65.53 79.2377 65.1674 78.5137 65.1221C78.6042 65.8472 79.0114 66.391 79.9164 66.391Z" fill="white"/>
<path d="M84.849 73.5067C84.7585 72.6456 84.1703 72.283 83.4463 72.1924C83.582 72.9628 83.9893 73.4613 84.849 73.5067Z" fill="white"/>
<path d="M82.8129 74.4125C82.7224 73.5514 82.1341 73.1889 81.4102 73.1436C81.5459 73.8687 81.9531 74.4125 82.8129 74.4125Z" fill="white"/>
<path d="M80.46 70.9688C80.5957 71.6939 81.0029 72.2377 81.8627 72.2377C81.7722 71.3766 81.2292 71.0141 80.46 70.9688Z" fill="white"/>
<path d="M79.1478 76.3162C79.0573 75.4552 78.4691 75.0926 77.7451 75.002C77.8809 75.7724 78.2429 76.3162 79.1478 76.3162Z" fill="white"/>
<path d="M86.9305 74.1406C86.7947 75.0017 87.2925 75.4549 88.0617 75.6815C88.107 74.9111 87.8355 74.3219 86.9305 74.1406Z" fill="white"/>
<path d="M84.9844 75.5459C85.0296 76.407 85.6179 76.7696 86.3871 76.8602C86.3418 76.0898 85.9346 75.5459 84.9844 75.5459Z" fill="white"/>
<path d="M82.0433 78.4009C82.8578 78.0836 83.0388 77.4038 82.903 76.6787C82.2243 76.996 81.8171 77.5398 82.0433 78.4009Z" fill="white"/>
<path d="M85.5277 65.1225C85.4372 64.2614 84.849 63.8988 84.125 63.8535C84.2155 64.5786 84.6227 65.1225 85.5277 65.1225Z" fill="white"/>
<path d="M85.4369 66.4369C85.3464 65.5759 84.7582 65.2133 84.0342 65.168C84.1699 65.8478 84.5772 66.3916 85.4369 66.4369Z" fill="white"/>
<path d="M86.2061 67.2973C87.0658 67.2973 87.473 66.7534 87.6088 66.0283C86.8848 66.0736 86.2966 66.3909 86.2061 67.2973Z" fill="white"/>
<path d="M87.4281 63.8535C86.7041 63.8988 86.1159 64.2614 86.0254 65.1225C86.8851 65.1225 87.2924 64.5786 87.4281 63.8535Z" fill="white"/>
</g>
<defs>
<clipPath id="clip0_1820_1547">
<rect width="120" height="55.2" fill="white" transform="translate(16 44.4004)"/>
</clipPath>
</defs>
</svg>
