<svg width="152" height="144" viewBox="0 0 152 144" fill="none" xmlns="http://www.w3.org/2000/svg">
<rect width="152" height="144" rx="8" fill="white" fill-opacity="0.07"/>
<g clip-path="url(#clip0_1820_1489)">
<path d="M130.489 70.2598H126.744L121.418 77.6932L116.092 70.2598H112.321L119.599 80.4676V88.7909H123.027V80.6247H123.106L130.489 70.2598Z" fill="white"/>
<path d="M29.2103 79.0804L28.9466 78.8972L29.1575 78.6878C30.0541 77.7455 30.5287 76.5677 30.5287 75.3899C30.5287 72.5631 27.8919 70.2598 24.675 70.2598H16V88.6339H25.2024C28.6038 88.6339 31.3724 86.1997 31.3724 83.2159C31.3724 81.6454 30.5814 80.1274 29.2103 79.0804ZM19.2432 72.9295H24.7014C26.2044 72.9295 27.4436 74.0026 27.4436 75.3637C27.4436 76.6986 26.2307 77.7979 24.7014 77.7979H19.2432V72.9295ZM25.2024 85.938H19.2432V80.4938H25.2024C26.8899 80.4938 28.3138 81.6978 28.3138 83.2159C28.2874 84.7078 26.8899 85.938 25.2024 85.938Z" fill="white"/>
<path d="M85.4533 82.483L80.0743 70.2598H76.5146L84.6887 88.6077H86.1653L94.3657 70.2598H90.7796L85.4533 82.483Z" fill="white"/>
<path d="M44.2659 69.8926C38.9396 69.8926 34.6416 74.1589 34.6416 79.4461C34.6416 84.7332 38.9659 88.9996 44.2659 88.9996C49.5922 88.9996 53.8901 84.7332 53.8901 79.4461C53.8901 74.1589 49.6185 69.8926 44.2659 69.8926ZM44.2659 85.8587C40.7062 85.8587 37.8057 83.0057 37.8057 79.4461C37.8057 75.8864 40.6798 73.0335 44.2659 73.0335C47.8519 73.0335 50.726 75.8864 50.726 79.4461C50.7523 82.9534 47.8519 85.8587 44.2659 85.8587Z" fill="white"/>
<path d="M69.9222 82.0904L59.375 70.2598H57.793V88.6077H61.0098V76.7771L71.5306 88.6077H73.1654V70.2598H69.9222V82.0904Z" fill="white"/>
<path d="M111.794 85.9375H95.5254V88.6334H111.794V85.9375Z" fill="#FF9662"/>
<path d="M103.488 70.1807C99.9288 70.1807 97.0283 73.0336 97.0283 76.5933C97.0283 80.153 99.9024 83.0059 103.488 83.0059C107.074 83.0059 109.949 80.153 109.949 76.5933C109.949 73.0336 107.074 70.1807 103.488 70.1807ZM103.488 80.2838C101.432 80.2838 99.7706 78.6349 99.7706 76.5933C99.7706 74.5517 101.432 72.9028 103.488 72.9028C105.545 72.9028 107.206 74.5517 107.206 76.5933C107.259 78.6349 105.545 80.2838 103.488 80.2838Z" fill="white"/>
<path d="M33.5342 58.3502V64.5796H31.7939V55.3926H33.7452L36.5929 60.4703L39.4406 55.3926H41.3918V64.5796H39.6516V58.3502L37.1994 62.7998H35.9864L33.5342 58.3502Z" fill="white"/>
<path d="M107.153 55.4707V57.0411H109.896V64.6578H111.636V57.0411H114.378V55.4707H107.153Z" fill="white"/>
<path d="M97.1602 55.4707V57.0411H99.9024V64.6578H101.616V57.0411H104.332V55.4707H97.1602Z" fill="white"/>
<path d="M81.8409 55.4189H80.1006V64.606H81.8409V55.4189Z" fill="white"/>
<path d="M58.584 60.8629H59.9815L62.5656 64.5796H64.5432L61.9064 60.8106C63.383 60.6012 64.5432 59.4757 64.5432 58.1147C64.5432 56.6228 63.1457 55.3926 61.4318 55.3926H56.8174V64.5796H58.5577C58.584 64.632 58.584 60.8629 58.584 60.8629ZM58.584 56.8583H61.4581C62.2492 56.8583 62.9083 57.4341 62.9083 58.1408C62.9083 58.8475 62.2492 59.4234 61.4581 59.4234H58.584V56.8583Z" fill="white"/>
<path d="M49.3819 58.4549L50.7267 61.3602H48.0108L49.3819 58.4549ZM48.9864 55.3926L44.6885 64.5796H46.5342L47.3516 62.826H51.4386L52.256 64.5796H54.1018L49.8302 55.3926H48.9864Z" fill="white"/>
<path d="M73.1652 55.3926H68.5508V64.5796H70.2911V60.8629H71.6886L74.2726 64.5796H76.2502L73.6134 60.8106C75.09 60.6012 76.2502 59.4757 76.2502 58.1147C76.3029 56.5966 74.8791 55.3926 73.1652 55.3926ZM74.6417 58.1147C74.6417 58.8214 73.9826 59.3972 73.1915 59.3972H70.3174V56.8583H73.1915C73.9826 56.8583 74.6417 57.4341 74.6417 58.1147Z" fill="white"/>
<path d="M90.2521 55C87.5889 55 85.4268 57.1463 85.4268 59.7637C85.4268 62.4072 87.5889 64.5273 90.2521 64.5273C92.9152 64.5273 95.0774 62.3811 95.0774 59.7637C95.0774 57.1463 92.9152 55 90.2521 55ZM90.2521 62.8522C88.5645 62.8522 87.1407 61.4911 87.1407 59.7637C87.1407 58.0885 88.5118 56.6751 90.2521 56.6751C91.9396 56.6751 93.3635 58.0362 93.3635 59.7637C93.3635 61.4911 91.9396 62.8522 90.2521 62.8522Z" fill="white"/>
<path d="M132.44 70.4949H131.676V70.207H133.495V70.4949H132.757V72.5365H132.44V70.4949Z" fill="white"/>
<path d="M134.049 72.5365H133.759V70.207H134.233L134.814 71.9607C134.84 72.0392 134.84 72.0916 134.893 72.1439C134.893 72.0654 134.919 72.013 134.919 71.9607L135.525 70.207H136V72.5365H135.684V70.5735C135.684 70.652 135.657 70.7043 135.605 70.7829L134.998 72.5365H134.708L134.128 70.7829C134.102 70.7043 134.102 70.652 134.102 70.5735V72.5365H134.049Z" fill="white"/>
</g>
<defs>
<clipPath id="clip0_1820_1489">
<rect width="120" height="34" fill="white" transform="translate(16 55)"/>
</clipPath>
</defs>
</svg>
