<svg width="152" height="144" viewBox="0 0 152 144" fill="none" xmlns="http://www.w3.org/2000/svg">
<rect width="152" height="144" rx="8" fill="white" fill-opacity="0.07"/>
<g clip-path="url(#clip0_1820_1678)">
<path d="M125.991 79.326C127.038 81 128.691 81 129.15 81H134.549L128.158 73.458C125.201 73.584 123.677 75.402 124.007 76.176L125.991 79.326Z" fill="url(#paint0_linear_1820_1678)"/>
<path d="M124.081 76.1578C124.081 76.1578 123.879 75.7618 123.879 75.3118C123.879 73.5658 125.458 72.5938 127.24 72.2158L128.232 73.4398C125.275 73.5118 123.75 75.3838 124.081 76.1578Z" fill="url(#paint1_linear_1820_1678)"/>
<path d="M126.523 70.542C123.823 70.542 121.858 70.992 121.858 72.018C121.858 72.414 121.987 72.72 122.318 73.314L124.099 76.212C124.099 76.212 123.897 75.816 123.897 75.366C123.897 73.62 125.476 72.648 127.258 72.27C127.79 72.144 128.305 72.144 128.837 72.144C129.296 72.144 129.7 72.144 130.031 72.27C129.756 71.514 129.278 70.542 126.523 70.542Z" fill="url(#paint2_linear_1820_1678)"/>
<path d="M119.471 68.742C120.188 69.912 120.463 70.218 122.244 70.218C123.567 70.218 125.605 70.218 125.605 70.218L120.996 64.476C119.949 63.252 119.416 63 118.424 63H115.927L119.471 68.742Z" fill="url(#paint3_linear_1820_1678)"/>
<path d="M68.1396 77.382V73.062C68.1396 72.216 67.7355 71.712 67.0193 71.712C66.101 71.712 65.4399 72.684 65.4399 74.034V77.328H63.8604C63.8604 77.328 63.8604 72.558 63.8604 72.432C63.8604 71.91 63.787 71.082 63.787 70.632C63.787 70.632 64.5032 70.632 65.0358 70.632C65.1644 70.632 65.2378 70.704 65.2378 70.83C65.2378 70.956 65.2378 71.676 65.2378 71.676H65.3113C65.5133 71.352 65.9725 70.506 67.4233 70.506C68.8742 70.506 69.719 71.46 69.719 72.54V77.256H68.1396V77.382ZM56.0184 75.96C56.0918 75.96 56.1469 75.96 56.1469 76.086C56.1469 76.41 56.2204 76.932 56.2204 77.112C55.8898 77.238 55.2286 77.562 54.4389 77.562C52.4004 77.562 51.0781 76.392 51.0781 74.07C51.0781 71.946 52.1983 70.578 54.4389 70.578C55.1552 70.578 55.8163 70.83 56.2204 71.028C56.2204 71.28 56.2204 71.802 56.1469 72.054C56.1469 72.126 56.0735 72.18 56.0184 72.18C55.9449 72.18 55.9449 72.18 55.8898 72.18C55.3572 71.928 54.8981 71.784 54.5124 71.784C53.1901 71.784 52.6758 72.63 52.6758 74.034C52.6758 75.33 53.135 76.284 54.5124 76.284C55.045 76.284 55.5592 76.086 55.8347 75.96C55.9633 75.96 56.0184 75.96 56.0184 75.96ZM61.4178 77.382C61.2893 77.382 61.2158 77.31 61.1607 77.184C61.1607 76.986 61.0872 76.536 61.0872 76.536C61.0138 76.662 60.4261 77.508 59.0487 77.508C57.6713 77.508 56.9366 76.482 56.9366 75.384C56.9366 73.836 58.4426 73.062 60.7567 73.062H61.0872V72.81C61.0872 72.108 60.5546 71.712 59.6364 71.712C58.7732 71.712 58.0569 72.036 57.7998 72.162C57.7998 72.162 57.7264 72.234 57.6713 72.234C57.5978 72.234 57.5427 72.162 57.5427 72.108C57.5427 71.856 57.4692 71.406 57.4692 71.082C57.7264 70.956 58.663 70.632 59.7098 70.632C61.7484 70.632 62.6116 71.532 62.6116 73.026V75.6C62.6116 76.572 62.685 77.148 62.7401 77.4C62.7401 77.382 61.4913 77.382 61.4178 77.382ZM61.0321 74.034H60.775C58.7915 74.034 58.4793 74.682 58.4793 75.384C58.4793 75.96 58.8834 76.482 59.5996 76.482C60.5914 76.482 61.1056 75.582 61.1056 74.61V74.034H61.0321ZM41.6015 75.96C41.6749 75.96 41.73 76.032 41.73 76.086C41.73 76.338 41.8035 76.986 41.8035 77.184C41.6015 77.256 40.8118 77.508 39.6915 77.508C37.5243 77.508 36.202 76.41 36.202 74.016C36.202 72.018 37.3223 70.524 39.2874 70.524C41.2709 70.524 42.1892 71.82 42.1892 73.422C42.1892 73.62 42.1892 73.944 42.1157 74.322H37.7631C37.7631 75.492 38.4793 76.266 39.8751 76.266C40.5914 76.266 41.2525 76.014 41.4545 75.87C41.5464 75.96 41.5464 75.96 41.6015 75.96ZM37.7815 73.386H40.6832C40.7567 72.288 40.1506 71.712 39.3058 71.712C38.3875 71.712 37.8549 72.36 37.7815 73.386ZM33.5023 77.382V73.134C33.5023 72.36 33.1717 71.784 32.382 71.784C31.4637 71.784 30.9311 72.756 30.9311 74.106V77.4H29.3517V73.08C29.3517 72.378 29.0211 71.73 28.2314 71.73C27.3131 71.73 26.7805 72.702 26.7805 74.124V77.418H25.2011C25.2011 77.418 25.2011 73.224 25.2011 72.576C25.2011 71.928 25.1276 71.028 25.1276 70.776C25.1276 70.776 25.9174 70.776 26.3765 70.776C26.5051 70.776 26.5785 70.848 26.5785 70.974C26.5785 71.172 26.5785 71.82 26.5785 71.82H26.652C26.7254 71.622 27.2397 70.65 28.6905 70.65C30.0129 70.65 30.5271 71.55 30.674 71.874C30.8026 71.622 31.3903 70.65 32.7126 70.65C34.09 70.65 35.0083 71.352 35.0083 72.846V77.49H33.5023V77.382ZM44.9623 74.16V77.454H43.3829C43.3829 77.454 43.3829 72.936 43.3829 72.486C43.3829 72.036 43.3095 71.064 43.3095 70.74C43.3095 70.74 43.9706 70.74 44.5583 70.74C44.6869 70.74 44.7603 70.812 44.7603 70.938C44.7603 71.136 44.7603 71.784 44.7603 71.784H44.8338C44.9624 71.532 45.4215 70.614 46.6703 70.614C47.1295 70.614 47.3866 70.74 47.4601 70.74C47.4601 70.992 47.4601 71.64 47.3866 71.838C47.3866 71.964 47.3131 71.964 47.258 71.964C47.2029 71.964 47.1846 71.964 47.1295 71.964C47.056 71.892 46.7989 71.838 46.4683 71.838C45.6786 71.838 44.9623 72.414 44.9623 74.16ZM48.2498 77.382V70.74H49.8292V77.454H48.2498V77.382ZM48.2498 69.768V68.292H49.8292V69.768H48.2498ZM22.9054 77.382L22.1892 75.384H18.3691L17.6529 77.382H16L19.4894 68.616H21.2709L24.6318 77.382H22.9054ZM20.3526 70.218L18.9017 74.214H21.8035L20.3526 70.218ZM111.647 77.508C113.686 77.508 114.604 76.662 114.604 75.51C114.604 74.358 113.741 73.836 112.823 73.512C112.566 73.44 112.29 73.314 112.107 73.26C111.519 73.062 111.188 72.81 111.188 72.414C111.188 72.018 111.592 71.712 112.382 71.712C113.098 71.712 113.704 71.964 113.888 72.108C113.961 72.108 113.961 72.18 114.017 72.18C114.09 72.18 114.145 72.18 114.145 72.054C114.145 71.856 114.219 71.406 114.219 71.028C114.017 70.956 113.355 70.578 112.235 70.578C110.582 70.578 109.535 71.424 109.535 72.576C109.535 73.674 110.325 74.196 111.115 74.448C111.317 74.52 111.647 74.646 111.831 74.7C112.694 74.952 112.951 75.222 112.951 75.672C112.951 76.194 112.364 76.446 111.445 76.446C110.656 76.446 110.123 76.194 109.866 76.05C109.792 76.05 109.792 75.978 109.737 75.978C109.609 75.978 109.609 76.104 109.609 76.176C109.609 76.248 109.535 76.95 109.535 77.148C109.737 77.202 110.601 77.508 111.647 77.508ZM108.029 75.96C108.103 75.96 108.158 76.032 108.158 76.086C108.158 76.338 108.231 76.986 108.231 77.184C108.029 77.256 107.24 77.508 106.119 77.508C103.952 77.508 102.63 76.41 102.63 74.016C102.63 71.946 103.75 70.524 105.715 70.524C107.68 70.524 108.617 71.82 108.617 73.422C108.617 73.62 108.617 73.944 108.544 74.322H104.191C104.191 75.492 104.907 76.266 106.303 76.266C107.019 76.266 107.68 76.014 107.882 75.87C107.901 75.96 107.956 75.96 108.029 75.96ZM104.209 73.386H107.111C107.185 72.288 106.579 71.712 105.734 71.712C104.742 71.712 104.209 72.36 104.209 73.386ZM99.8568 77.382V73.062C99.8568 72.216 99.4527 71.712 98.7365 71.712C97.8182 71.712 97.157 72.684 97.157 74.034V77.328H95.5776C95.5776 77.328 95.5776 72.558 95.5776 72.432C95.5776 71.91 95.5041 71.082 95.5041 70.686C95.5041 70.686 96.2204 70.686 96.753 70.686C96.8815 70.686 96.955 70.758 96.955 70.884C96.955 71.01 96.955 71.73 96.955 71.73H97.0285C97.2305 71.406 97.6896 70.56 99.1405 70.56C100.591 70.56 101.436 71.532 101.436 72.63V77.346H99.8568V77.382ZM85.7704 74.16V77.454H84.191C84.191 77.454 84.191 72.936 84.191 72.486C84.191 72.036 84.1175 71.136 84.1175 70.74C84.1175 70.74 84.7787 70.74 85.3664 70.74C85.4949 70.74 85.5684 70.812 85.5684 70.938C85.5684 71.136 85.5684 71.784 85.5684 71.784H85.6419C85.7704 71.532 86.2296 70.614 87.4784 70.614C87.9376 70.614 88.1947 70.74 88.2681 70.74C88.2681 70.992 88.2681 71.64 88.1947 71.838C88.1947 71.964 88.1212 71.964 88.0661 71.964C87.9927 71.964 87.9927 71.964 87.9376 71.964C87.8641 71.892 87.607 71.838 87.2764 71.838C86.5602 71.838 85.7704 72.414 85.7704 74.16ZM90.7107 77.382V68.292H89.1313V77.382H90.7107ZM81.0321 77.382V70.74H82.6116V77.454H81.0321V77.382ZM80.977 69.768V68.292H82.5565V69.768H80.977ZM92.4187 77.382V70.74H93.9982V77.454H92.4187V77.382ZM92.4187 69.768V68.292H93.9982V69.768H92.4187ZM78.663 77.382L77.9467 75.384H74.1267L73.4105 77.382H71.7576L75.1736 68.616H76.955L80.3159 77.382H78.663ZM76.0367 70.218L74.5859 74.232H77.5427L76.0367 70.218Z" fill="white"/>
<path d="M136 80.6042C136 80.8022 135.798 81.0002 135.596 81.0002C135.394 81.0002 135.192 80.8022 135.192 80.6042C135.192 80.4062 135.394 80.2082 135.596 80.2082C135.872 80.1542 136 80.3522 136 80.6042ZM135.284 80.6042C135.284 80.8022 135.413 80.9282 135.615 80.9282C135.817 80.9282 135.945 80.8022 135.945 80.6042C135.945 80.4062 135.817 80.2802 135.615 80.2802C135.413 80.2802 135.284 80.4242 135.284 80.6042ZM135.615 80.6042L135.541 80.8022H135.468V80.4062C135.468 80.4062 135.541 80.4062 135.596 80.4062C135.67 80.4062 135.725 80.4782 135.725 80.5322C135.725 80.6042 135.652 80.6582 135.652 80.6582L135.78 80.8562H135.743L135.615 80.6042ZM135.615 80.5502C135.688 80.5502 135.688 80.5502 135.688 80.4782C135.688 80.4062 135.688 80.4062 135.615 80.4062V80.5502Z" fill="white"/>
</g>
<defs>
<linearGradient id="paint0_linear_1820_1678" x1="129.265" y1="73.2239" x2="129.265" y2="84.8939" gradientUnits="userSpaceOnUse">
<stop stop-color="#ED1C24"/>
<stop offset="0.1263" stop-color="#E81B23"/>
<stop offset="0.2703" stop-color="#DB1A21"/>
<stop offset="0.4229" stop-color="#C4171D"/>
<stop offset="0.5816" stop-color="#A41317"/>
<stop offset="0.7436" stop-color="#7B0E10"/>
<stop offset="0.7546" stop-color="#780E0F"/>
</linearGradient>
<linearGradient id="paint1_linear_1820_1678" x1="123.884" y1="74.1934" x2="128.228" y2="74.1934" gradientUnits="userSpaceOnUse">
<stop stop-color="#69231D"/>
<stop offset="0.2647" stop-color="#8D2922"/>
<stop offset="0.5812" stop-color="#B22F26"/>
<stop offset="0.8377" stop-color="#C93329"/>
<stop offset="1" stop-color="#D1342A"/>
</linearGradient>
<linearGradient id="paint2_linear_1820_1678" x1="123.431" y1="73.6139" x2="128.221" y2="70.6772" gradientUnits="userSpaceOnUse">
<stop offset="0.1" stop-color="#E7EBEE"/>
<stop offset="0.3511" stop-color="#D5DCE0"/>
<stop offset="0.8549" stop-color="#A5B4BB"/>
<stop offset="1" stop-color="#96A7B0"/>
</linearGradient>
<linearGradient id="paint3_linear_1820_1678" x1="120.762" y1="71.1713" x2="120.762" y2="63.1088" gradientUnits="userSpaceOnUse">
<stop stop-color="#1C2F72"/>
<stop offset="0.1275" stop-color="#174687"/>
<stop offset="0.4038" stop-color="#0D72AF"/>
<stop offset="0.6512" stop-color="#0692CC"/>
<stop offset="0.8584" stop-color="#02A6DE"/>
<stop offset="1" stop-color="#00ADE4"/>
</linearGradient>
<clipPath id="clip0_1820_1678">
<rect width="120" height="18" fill="white" transform="translate(16 63)"/>
</clipPath>
</defs>
</svg>
