<svg width="152" height="144" viewBox="0 0 152 144" fill="none" xmlns="http://www.w3.org/2000/svg">
<rect width="152" height="144" rx="8" fill="white" fill-opacity="0.07"/>
<g clip-path="url(#clip0_1783_971)">
<path d="M13.2021 81.6876C13.4781 81.5444 13.6015 81.2044 13.6015 80.9137V73.7808C13.6015 73.4789 13.4781 73.149 13.2021 72.9973H16.5506C18.0439 72.9973 19.5007 73.6179 19.5007 75.3392C19.5007 76.2522 18.7171 76.9722 17.8721 77.1339C19.0894 77.1228 20.2656 77.8777 20.2656 79.2416C20.2656 81.1907 18.2521 81.6881 16.8359 81.6881L13.2021 81.6876ZM15.9128 73.7459C15.7576 73.7459 15.6498 73.7459 15.364 73.7808V76.8226H15.7029C16.7292 76.8226 17.7211 76.5006 17.7211 75.2932C17.7211 74.0953 16.9281 73.7459 15.9128 73.7459ZM16.1262 77.6055C15.8815 77.6055 15.6618 77.6055 15.364 77.6282V80.8402C15.7352 80.9142 16.1367 80.9385 16.5069 80.9385C17.366 80.9385 18.2396 80.5495 18.2396 79.2168C18.2396 77.9015 17.2066 77.6055 16.1262 77.6055ZM23.5771 73.7459C23.424 73.7459 23.2891 73.7712 23.1381 73.7929V76.7982C23.2782 76.8083 23.4052 76.8231 23.5437 76.8231C24.507 76.8231 25.2198 76.2833 25.2198 75.2197C25.2198 74.1328 24.519 73.7459 23.5771 73.7459ZM27.8929 81.7389C27.5649 81.7389 27.203 81.7511 26.8896 81.657C26.3069 81.4825 25.5025 80.1493 25.1828 79.6265C24.6856 78.7764 24.2534 77.6055 23.1387 77.5928V80.9137C23.1387 81.2044 23.2683 81.5565 23.5443 81.6876H20.9737C21.2439 81.5444 21.3725 81.2177 21.3725 80.9137V73.7808C21.3725 73.4789 21.2434 73.149 20.9737 72.9973H24.0686C25.415 72.9973 27.0999 73.5223 27.0999 75.1647C27.0999 76.5429 25.9768 77.2492 24.7246 77.2492C26.5064 77.2597 27.5529 81.5031 29.52 81.5153C28.9926 81.6739 28.4427 81.7389 27.8929 81.7389ZM29.6491 81.6876C29.8616 81.5888 30.0839 81.3038 30.0839 80.9137V73.7808C30.0839 73.3848 29.8616 73.1046 29.6491 72.9973H32.2832C32.0572 73.1046 31.8511 73.3848 31.8511 73.7808V80.9137C31.8511 81.3038 32.0572 81.5888 32.2832 81.6876H29.6491ZM35.3651 81.6876C35.6473 81.5565 35.7853 81.2177 35.7853 80.9137V73.9938H33.8937C33.4573 73.9938 32.9372 74.0483 32.5623 74.274L33.1501 72.9968H39.4242C39.9324 72.9968 40.452 72.9857 40.9456 72.8789C40.7066 73.5328 39.9954 74.0176 39.5856 74.0176C39.0874 74.006 38.2631 73.9721 37.5529 73.9721V80.9132C37.5529 81.2171 37.7013 81.556 37.9783 81.6871L35.3651 81.6876ZM41.2591 81.6876C41.4694 81.5888 41.6902 81.3038 41.6902 80.9137V73.7808C41.6902 73.3848 41.4694 73.1046 41.2591 72.9973H43.8932C43.6693 73.1046 43.4548 73.3848 43.4548 73.7808V80.9137C43.4548 81.3038 43.6693 81.5888 43.8932 81.6876H41.2591ZM49.0218 79.7216C49.0218 78.0664 45.1818 77.6927 45.1818 75.0506C45.1818 73.4149 46.7142 72.8794 48.0617 72.8794C48.663 72.8794 49.5331 72.964 50.0829 73.2209L50.1787 74.8454C49.8408 74.1281 48.9947 73.6084 48.209 73.6084C47.5878 73.6084 46.937 73.9203 46.937 74.6414C46.937 76.3579 50.842 76.7771 50.842 79.2797C50.842 81.0961 49.279 81.8483 47.7014 81.8483C46.8761 81.8483 45.7535 81.6871 45.0574 81.2039C45.0152 80.9132 44.9959 80.6092 44.9959 80.3116C44.9959 79.9569 45.0267 79.6011 45.0782 79.2511C45.5124 80.2561 46.4111 81.0421 47.5337 81.0421C48.3866 81.0427 49.0218 80.6652 49.0218 79.7216ZM57.2484 81.6876C57.4343 81.6025 57.6332 81.3038 57.6332 80.9137V77.68C57.175 77.6277 56.5351 77.6049 55.8171 77.6049C55.0881 77.6049 54.443 77.6277 53.9734 77.68V80.9137C53.9734 81.3038 54.1671 81.5888 54.3555 81.6876H51.8193C52.0073 81.6025 52.2078 81.3038 52.2078 80.9137V73.7808C52.2078 73.3848 52.0073 73.093 51.8193 72.9973H54.3555C54.1671 73.0935 53.9734 73.3848 53.9734 73.7808V76.7026C54.443 76.7528 55.0767 76.7771 55.8171 76.7771C56.5351 76.7771 57.175 76.7454 57.6332 76.7026V73.7808C57.6332 73.3848 57.4348 73.093 57.2484 72.9973H59.7809C59.5914 73.0935 59.4035 73.3848 59.4035 73.7808V80.9137C59.4035 81.3038 59.5914 81.5888 59.7809 81.6876H57.2484Z" fill="white"/>
<path d="M69.182 81.6881C69.2638 81.603 69.3377 81.5395 69.3377 81.3857C69.3377 81.3339 69.3184 81.2472 69.256 81.0854C69.256 81.0854 68.553 79.1432 68.4708 78.9169C67.9428 78.8509 67.3925 78.8509 66.8536 78.8509C66.3423 78.8509 65.8232 78.863 65.3165 78.9169C65.2447 79.1115 64.4913 81.0431 64.4913 81.0431C64.3898 81.3043 64.3549 81.3936 64.3549 81.4507C64.3549 81.5797 64.4642 81.6426 64.5569 81.6881H62.834C63.0881 81.557 63.3083 81.2874 63.4171 81.0188L66.2486 73.5988C66.2616 73.5682 66.2663 73.5338 66.2663 73.492C66.2663 73.2875 66.1324 73.0935 65.9523 72.9972H68.1735L71.0533 81.0114C71.171 81.3334 71.4219 81.5681 71.6328 81.6875L69.182 81.6881ZM66.9457 74.6519L65.6477 78.0352C66.0346 78.0785 66.436 78.0886 66.8275 78.0886C67.2764 78.0886 67.72 78.0886 68.1563 78.0352L66.9457 74.6519ZM72.0712 81.6881C72.2837 81.5892 72.5034 81.3043 72.5034 80.9141V73.7812C72.5034 73.3853 72.2837 73.1051 72.0712 72.9978H74.7037C74.4799 73.1051 74.2711 73.3853 74.2711 73.7812V80.9141C74.2711 81.3043 74.4793 81.5892 74.7037 81.6881H72.0712ZM78.7056 73.7463C78.5635 73.7463 78.4271 73.7717 78.2792 73.7934V76.7987C78.4167 76.8087 78.5421 76.8235 78.676 76.8235C79.6413 76.8235 80.3525 76.2838 80.3525 75.2202C80.352 74.1333 79.6486 73.7463 78.7056 73.7463ZM83.2365 81.7393C82.9085 81.7393 82.5544 81.7515 82.2337 81.6574C81.65 81.483 80.8477 80.1497 80.5275 79.6269C80.0323 78.7769 79.3877 77.5932 78.2792 77.5932V80.9141C78.2792 81.2049 78.4031 81.557 78.676 81.6881H76.1075C76.3834 81.5448 76.512 81.2181 76.512 80.9141V73.7812C76.512 73.4794 76.3834 73.1495 76.1075 72.9978H79.2091C80.5519 72.9978 82.2342 73.5227 82.2342 75.1652C82.2342 76.5434 81.007 77.2496 80.0781 77.2496C81.9249 77.3575 83.0387 81.5157 84.8709 81.5157C84.3398 81.6743 83.79 81.7393 83.2365 81.7393ZM93.9155 73.8462L91.3142 81.6881C91.0997 81.6881 90.8894 81.613 90.7701 81.5279C90.5129 81.2763 90.1083 80.2259 89.9626 79.8384L88.7869 76.823L87.0937 81.6881H86.2877L83.3766 73.8267C83.2516 73.492 83.0381 73.1712 82.7205 72.9978H85.2505C85.1437 73.0818 85.0703 73.1775 85.0703 73.3604C85.0703 73.4482 85.113 73.5692 85.1437 73.6628L87.0395 78.8635L89.0582 72.9978L91.2814 78.6526L92.9653 73.5338C93.0069 73.3948 93.0314 73.3435 93.0314 73.2557C93.0314 73.1495 92.9861 73.0818 92.8804 72.9978H94.5559C94.2461 73.1627 94.0222 73.5227 93.9155 73.8462ZM97.025 74.6519L95.7274 78.0352C96.119 78.0785 96.5194 78.0886 96.9099 78.0886C97.354 78.0886 97.8028 78.0886 98.2366 78.0352L97.025 74.6519ZM99.2586 81.6881C99.3472 81.603 99.4143 81.5395 99.4143 81.3857C99.4143 81.3339 99.3883 81.2472 99.3367 81.0854C99.3367 81.0854 98.6385 79.1432 98.5536 78.9169C98.021 78.8509 97.4717 78.8509 96.9328 78.8509C96.4262 78.8509 95.9066 78.863 95.3973 78.9169C95.3239 79.1115 94.5757 81.0431 94.5757 81.0431C94.4679 81.3043 94.4383 81.3936 94.4383 81.4507C94.4383 81.5797 94.5429 81.6426 94.6345 81.6881H92.9111C93.1657 81.557 93.3855 81.2874 93.4922 81.0188L96.3335 73.5988C96.3418 73.5682 96.3496 73.5338 96.3496 73.492C96.3496 73.2875 96.2153 73.0935 96.0305 72.9972H98.2537L101.133 81.0114C101.252 81.3334 101.506 81.5681 101.715 81.6875L99.2586 81.6881ZM106.993 73.9102L104.966 77.5197V80.9141C104.966 81.1901 105.077 81.557 105.348 81.6881H102.825C103.083 81.5448 103.202 81.1811 103.202 80.9141V77.5086L101.439 74.6418C101.281 74.3738 100.546 73.1246 99.6502 73.1246C99.8939 73.0305 100.635 72.8873 101.132 72.8873C101.961 72.8873 102.372 72.9645 102.88 73.7717L104.511 76.3959C104.648 76.1384 105.939 73.8589 105.939 73.8589C106.095 73.5814 106.201 73.3853 106.201 73.288C106.201 73.1632 106.148 73.0818 106.023 72.9978H107.84C107.484 73.1712 107.187 73.5687 106.993 73.9102ZM111.739 79.7221C111.739 78.0669 107.899 77.6931 107.899 75.051C107.899 73.4154 109.427 72.8799 110.775 72.8799C111.378 72.8799 112.243 72.9645 112.796 73.2214L112.891 74.8459C112.55 74.1285 111.707 73.6089 110.921 73.6089C110.299 73.6089 109.652 73.9208 109.652 74.6418C109.652 76.3583 113.557 76.7775 113.557 79.2801C113.557 81.0965 112.005 81.8488 110.416 81.8488C109.591 81.8488 108.466 81.6875 107.769 81.2044C107.724 80.9136 107.702 80.6096 107.702 80.312C107.702 79.9573 107.735 79.6015 107.788 79.2516C108.222 80.2565 109.124 81.0426 110.246 81.0426C111.103 81.0431 111.739 80.6657 111.739 79.7221Z" fill="white"/>
<path d="M135.365 66.9138C133.926 68.3659 130.808 69.6125 129.274 70.1961C127.178 70.9954 126.248 71.2782 125.076 71.6657C123.749 72.1029 121.094 72.9186 121.094 72.9186C126.594 74.5859 130.469 75.0887 130.469 75.0887C130.469 75.0887 132.275 74.5219 135.136 72.9688C136.685 72.1695 137.447 71.6314 137.992 71.117C138.193 70.9325 138.712 70.3838 138.841 69.6817C138.85 69.6305 138.875 69.4962 138.875 69.364C138.875 69.364 138.875 69.271 138.866 69.1901C138.863 69.0971 138.847 69.0347 138.847 69.0347C138.847 69.0347 138.816 68.8682 138.776 68.7513C138.734 68.6345 138.557 68.274 138.27 68.0398C138.078 67.8817 137.747 67.4879 136.547 67.0597C136.14 66.9159 135.479 66.7832 135.479 66.7832L135.365 66.9138Z" fill="url(#paint0_linear_1783_971)"/>
<path d="M138.875 69.3271C138.875 69.3271 138.866 69.1717 138.829 69.0401C138.8 68.9227 138.748 68.8107 138.671 68.6928C138.577 68.5527 138.45 68.3883 138.263 68.2064C138.122 68.0711 137.968 67.9516 137.781 67.8248C137.031 67.3257 136.063 67.0445 135.206 66.9255C133.877 66.7463 132.354 66.7781 132.21 66.7728C131.72 66.7659 128.554 66.7923 127.74 66.8071C124.126 66.8827 119.702 66.8928 118.543 66.8928C106.578 66.9483 101.371 66.6866 95.5746 65.5067C90.6438 64.5123 87.9082 63.5676 87.9082 63.5676C92.2574 63.4149 117.634 62.3459 122.263 62.2212C125.294 62.1345 127.446 62.116 129.168 62.217C130.051 62.2672 130.872 62.3433 131.904 62.5215C132.83 62.6822 133.67 62.9549 134.159 63.1394C135.19 63.5269 136.059 64.0873 136.489 64.6614C136.489 64.6614 136.616 64.7935 136.788 65.0283C136.982 65.301 137.206 65.6367 137.282 65.762C137.909 66.7273 138.207 67.3337 138.311 67.5451C138.423 67.7671 138.522 67.9976 138.618 68.2234C138.712 68.4475 138.751 68.5834 138.781 68.678C138.847 68.9153 138.863 69.1316 138.866 69.1802L138.875 69.3271Z" fill="#CE210F"/>
</g>
<defs>
<linearGradient id="paint0_linear_1783_971" x1="133.531" y1="65.1502" x2="126.961" y2="76.3589" gradientUnits="userSpaceOnUse">
<stop stop-color="#E6EBEF"/>
<stop offset="0.0764" stop-color="#BBCEE5"/>
<stop offset="0.1854" stop-color="#85A9D8"/>
<stop offset="0.2796" stop-color="#5D8FCF"/>
<stop offset="0.3543" stop-color="#457EC9"/>
<stop offset="0.4" stop-color="#3C78C7"/>
<stop offset="0.9" stop-color="#2E5C99"/>
</linearGradient>
<clipPath id="clip0_1783_971">
<rect width="126" height="20" fill="white" transform="translate(13 62)"/>
</clipPath>
</defs>
</svg>
