<svg width="152" height="144" viewBox="0 0 152 144" fill="none" xmlns="http://www.w3.org/2000/svg">
<rect width="152" height="144" rx="8" fill="white" fill-opacity="0.07"/>
<g clip-path="url(#clip0_1820_1368)">
<path d="M131.806 66.4443L126.179 74.7097C125.439 75.7963 124.237 76.8443 122.786 76.9557V77.2097H129.044C130.705 77.2097 131.917 76.1117 132.737 74.9023L138.515 66.4443H131.807H131.806Z" fill="#FF0000"/>
<path d="M28.186 77.2093V67.352H31.0186V77.2093H28.186ZM93.5173 77.2093L86.7106 71.356V77.2093H84.3186V67.352H86.3506L93.0666 73.1133V67.352H95.4586V77.2093H93.5173ZM108.32 70.532C107.04 69.892 105.598 69.374 103.687 69.374C101.404 69.374 99.7019 70.5726 99.7019 72.2393C99.7019 73.9466 101.435 75.1566 103.666 75.1566C105.509 75.1566 106.969 74.6786 108.41 73.8346V76.274C107.139 76.914 105.448 77.3913 103.546 77.3913C99.6626 77.3913 96.6086 75.38 96.6086 72.2393C96.6086 69.15 99.7219 67.168 103.535 67.168C105.337 67.168 106.969 67.5133 108.32 68.0733V70.532ZM46.7833 77.2093V67.352H56.2519V69.4653H49.616V71.9146H56.1026V74.0286H49.616V77.21H46.7833V77.2093ZM110.033 77.2093V67.352H119.861V69.4653H112.865V71.1733H119.751V73.2866H112.865V75.096H119.831V77.2093H110.033ZM66.0913 73.51L70.0046 77.21H66.9819C66.3113 77.21 65.8713 76.9966 65.5206 76.65L62.858 74.028C62.8269 74.0001 62.7907 73.9786 62.7513 73.9648C62.712 73.9509 62.6703 73.945 62.6286 73.9473H60.8166V77.2093H57.984V67.352H64.12C67.3026 67.352 68.644 68.8053 68.644 70.4106C68.644 72.2806 67.002 73.1733 66.0913 73.51ZM63.83 71.884C64.95 71.884 65.4906 71.3053 65.4906 70.6546C65.4906 70.004 65.0106 69.4653 63.83 69.4653H60.8166V71.884H63.83ZM41.778 73.5106L45.6913 77.2093H42.6693C41.9986 77.2093 41.558 76.996 41.208 76.65L38.5453 74.028C38.5142 74 38.4778 73.9785 38.4383 73.9647C38.3989 73.9508 38.357 73.9449 38.3153 73.9473H36.504V77.2093H33.6706V67.352H39.8066C42.9893 67.352 44.3313 68.8053 44.3313 70.4106C44.3313 72.2806 42.6893 73.174 41.778 73.5106ZM39.5166 71.884C40.638 71.884 41.1786 71.3053 41.1786 70.6546C41.1786 70.004 40.698 69.4653 39.5166 69.4653H36.504V71.884H39.5166ZM23.7513 77.2093L22.5106 75.0446H17.086L15.9546 77.2093H13.252L18.6573 67.362H21.12L27.246 77.2093H23.7513ZM18.1666 72.9913H21.33L19.688 69.9833L18.1666 72.9913ZM80.3146 77.2093L79.1033 75.0446H73.82L72.7286 77.2093H70.0953L75.36 67.362H77.7519L83.7079 77.2093H80.3146ZM74.88 72.9913H77.9626L76.3613 69.9833L74.88 72.9913Z" fill="white"/>
</g>
<defs>
<clipPath id="clip0_1820_1368">
<rect width="126" height="12" fill="white" transform="translate(13 66)"/>
</clipPath>
</defs>
</svg>
