<svg width="152" height="144" viewBox="0 0 152 144" fill="none" xmlns="http://www.w3.org/2000/svg">
<rect width="152" height="144" rx="8" fill="white" fill-opacity="0.07"/>
<path d="M17.0635 77.1122H20.5731C20.5731 77.1122 20.5731 73.9524 20.5731 73.7749C20.7503 73.7749 24.1536 73.7749 24.1536 73.7749V70.9347C24.1536 70.9347 20.7503 70.9347 20.5731 70.9347C20.5731 70.7927 20.5731 69.9406 20.5731 69.7631C20.7503 69.7631 24.1536 69.7631 24.1536 69.7631V66.9229H17.0635V77.1122Z" fill="white"/>
<path d="M28.8683 66.959H25.3232V77.1128H33.1224V74.2016C33.1224 74.2016 29.0101 74.2016 28.8683 74.2016C28.8683 74.0241 28.8683 66.959 28.8683 66.959Z" fill="white"/>
<path d="M37.8728 66.959H34.2568V77.1128H37.8728V66.959Z" fill="white"/>
<path d="M45.0338 69.6215C46.1682 69.6215 47.409 69.9055 48.5434 70.4381L48.827 70.5801V67.6688L48.7561 67.6333C48.1535 67.3848 47.9053 67.2783 47.409 67.1363C46.6291 66.9233 45.7074 66.7812 44.8211 66.7812C41.1697 66.8168 38.7236 68.9114 38.7236 72.0357C38.7236 75.0889 41.2052 77.2546 44.7502 77.2546C46.3809 77.2546 48.0471 76.7576 49.2524 75.9055L49.2879 75.87V71.4321H44.9629V73.6333C44.9629 73.6333 45.8846 73.6333 46.0264 73.6333C46.0264 73.7398 46.0264 74.0594 46.0264 74.1304C45.991 74.1304 45.9555 74.1659 45.9555 74.1659C45.4592 74.3789 45.2465 74.4499 44.7148 74.4499C42.8004 74.4499 42.056 73.7753 42.056 72.1067C42.0205 70.2605 42.8004 69.6215 45.0338 69.6215Z" fill="white"/>
<path d="M60.2072 77.1128V66.959H56.8394C56.8394 66.959 56.8394 70.2608 56.8394 70.4383C56.6622 70.4383 53.6489 70.4383 53.4716 70.4383C53.4716 70.2608 53.4716 66.959 53.4716 66.959H50.0684V77.1128H53.4716C53.4716 77.1128 53.4716 73.7756 53.4716 73.598C53.6489 73.598 56.6622 73.598 56.8394 73.598C56.8394 73.7756 56.8394 77.1128 56.8394 77.1128H60.2072Z" fill="white"/>
<path d="M61.0225 69.9057C61.0225 69.9057 63.9294 69.9057 64.1067 69.9057C64.1067 70.0832 64.1067 77.1483 64.1067 77.1483H67.8644C67.8644 77.1483 67.8644 70.0832 67.8644 69.9057C68.0417 69.9057 70.9486 69.9057 70.9486 69.9057V66.959H61.0225V69.9057Z" fill="white"/>
<path d="M110.546 77.1128C110.546 77.1128 110.546 70.0477 110.546 69.8702C110.723 69.8702 113.63 69.8702 113.63 69.8702V66.959H103.704V69.9057C103.704 69.9057 106.611 69.9057 106.788 69.9057C106.788 70.0832 106.788 77.1483 106.788 77.1483L110.546 77.1128Z" fill="white"/>
<path d="M80.3072 74.3792C78.9601 74.4502 78.1093 73.8466 77.7193 73.4561C77.2584 73.0301 76.9748 72.462 76.9748 72.0005C76.9748 71.0419 77.9674 69.6573 80.1299 69.6573C81.5479 69.6573 82.4697 69.9768 83.1432 70.7224L83.285 70.8999V67.7756L83.2496 67.7401C82.9305 67.5271 82.7887 67.4916 82.3988 67.3496C81.4416 66.9946 80.6971 66.8525 79.6336 66.8525C78.3929 66.8525 77.2939 67.1011 76.3722 67.5626C74.5996 68.4857 73.5361 70.1543 73.5361 72.0715C73.5361 75.1247 75.9468 77.2194 79.3855 77.2194C80.8389 77.2194 82.0088 76.9354 83.3205 76.2253L83.3559 76.1898V73.8466V72.959L83.2141 73.1011C83.2141 73.1366 82.0443 74.3082 80.3072 74.3792Z" fill="white"/>
<path d="M91.6865 69.5507V66.959H84.2773V77.0773H91.7929V74.5566C91.7929 74.5566 87.8578 74.5566 87.6806 74.5566C87.6806 74.4146 87.6806 73.5625 87.6806 73.4205C87.8578 73.4205 91.4738 73.4205 91.4738 73.4205V70.8643C91.4738 70.8643 87.8578 70.8643 87.6806 70.8643C87.6806 70.7223 87.6806 69.6927 87.6806 69.5507C87.8224 69.5507 91.6865 69.5507 91.6865 69.5507Z" fill="white"/>
<path d="M132.313 74.5566C132.313 74.5566 128.378 74.5566 128.201 74.5566C128.201 74.4146 128.201 73.5625 128.201 73.4205C128.378 73.4205 131.994 73.4205 131.994 73.4205V70.8643C131.994 70.8643 128.378 70.8643 128.201 70.8643C128.201 70.7223 128.201 69.6927 128.201 69.5507C128.378 69.5507 132.207 69.5507 132.207 69.5507V66.959H124.798V77.0773H132.313V74.5566Z" fill="white"/>
<path d="M99.8048 71.9649C99.5212 71.6099 95.6926 66.959 95.6926 66.959H92.6084V77.0773H95.9407C95.9407 77.0773 95.9407 72.604 95.9407 72.1779C96.2243 72.4974 100.23 77.0773 100.23 77.0773H103.137V66.959H99.8048C99.8048 66.959 99.8048 71.5034 99.8048 71.9649Z" fill="white"/>
<path d="M134.263 68.3081C134.405 68.2371 134.546 68.1305 134.546 67.953C134.546 67.811 134.511 67.7045 134.405 67.669C134.334 67.598 134.192 67.5625 133.944 67.5625C133.766 67.5625 133.66 67.5625 133.554 67.598V69.0181H133.766V68.3791H133.944C134.121 68.3791 134.227 68.4501 134.263 68.6276C134.298 68.8051 134.334 68.9471 134.369 68.9826H134.617C134.582 68.9471 134.546 68.8406 134.511 68.6276C134.475 68.4146 134.369 68.3081 134.263 68.3081ZM133.944 68.2016H133.766V67.74C133.802 67.74 133.873 67.74 133.944 67.74C134.192 67.74 134.298 67.882 134.298 67.9885C134.298 68.1305 134.121 68.2016 133.944 68.2016Z" fill="white"/>
<path d="M134.015 66.959C133.305 66.959 132.738 67.527 132.738 68.2371C132.738 68.9472 133.305 69.5152 134.015 69.5152C134.724 69.5152 135.291 68.9472 135.291 68.2371C135.291 67.527 134.724 66.959 134.015 66.959ZM134.015 69.3377C133.447 69.3377 132.986 68.8761 132.986 68.2371C132.986 67.6335 133.447 67.172 134.015 67.172C134.582 67.172 135.043 67.669 135.043 68.2726C135.043 68.8406 134.582 69.3377 134.015 69.3377Z" fill="white"/>
<path d="M122.316 71.8939C122.883 71.3969 123.202 70.6868 123.202 69.9057C123.202 68.9472 122.671 67.9886 121.855 67.456C121.182 67.0655 120.65 66.959 119.196 66.959H114.233V77.0773H117.459C117.459 77.0773 117.459 73.385 117.459 73.2075C117.566 73.2075 117.743 73.2075 117.743 73.2075C118.168 73.2075 118.239 73.2075 118.417 73.2785C118.807 73.385 118.948 73.669 119.232 74.3791L119.338 74.5921L119.728 75.4442L120.012 76.0832L120.189 76.5448L120.437 77.1128H124.23L124.124 76.8288L123.876 76.2608L123.557 75.5862L123.309 75.0182L122.919 74.1661C122.493 73.2075 122.068 72.7815 121.572 72.4974C121.784 72.3554 121.962 72.2134 122.103 72.0714L122.316 71.8939ZM118.877 71.0418H118.558H118.381C118.381 71.0418 117.601 71.0418 117.459 71.0418C117.459 70.8998 117.459 69.4442 117.459 69.3022C117.601 69.3022 118.629 69.3022 118.629 69.3022C119.586 69.3022 119.87 69.5152 119.87 70.1543C119.835 70.7223 119.551 71.0063 118.877 71.0418Z" fill="white"/>
</svg>
