<svg width="152" height="144" viewBox="0 0 152 144" fill="none" xmlns="http://www.w3.org/2000/svg">
<rect width="152" height="144" rx="8" fill="white" fill-opacity="0.07"/>
<g clip-path="url(#clip0_1820_1450)">
<path d="M26.6584 47.8299H121.325V80.7706H26.6584V47.8299ZM25 82.4375H123.013V46.1777H25V82.4375Z" fill="white"/>
<path d="M51.2299 55.6559V72.9228L52.5921 73.0999V74.1104H45.8698V73.0999L47.3209 72.9228V65.0602H38.7108V72.9228L40.036 73.0999V74.1104H33.4248V73.0999L34.75 72.9228V55.6559L33.4248 55.4789V54.4906H40.036V55.4789L38.7108 55.6559V63.0318H47.3135V55.6559L45.8624 55.4789V54.4906H52.5847V55.4789L51.2299 55.6559Z" fill="white"/>
<path d="M60.4031 73.0482L61.6691 73.2252V74.1104H55.4873V73.2252L56.7533 73.0482V61.2173L55.4873 61.0403V60.1552H60.4031V73.0482Z" fill="white"/>
<path d="M64.3564 73.2546L65.5928 73.085V55.5378L64.3564 55.3608V54.4978H69.2723V73.085L70.5382 73.2546V74.125H64.3564V73.2546Z" fill="white"/>
<path d="M78.0597 60.1481H81.3764V61.4536H78.0597V69.7589C78.0597 71.9052 78.5039 72.5912 80.4658 72.5912C81.1913 72.5912 81.828 72.5912 82.4277 72.4363V73.3952C80.6435 74.0221 79.1406 74.2803 77.8746 74.2803C75.0317 74.2803 74.3802 73.0042 74.3802 70.5628V61.4536H71.7891V60.1481H74.4765V57.2346L78.0671 56.1651V60.1481" fill="white"/>
<path d="M98.0047 67.266C98.0047 71.6178 95.0508 74.5312 90.4015 74.5312C85.9077 74.5312 83.0352 72.6283 83.0352 67.266C83.0352 62.7741 85.9891 59.7648 90.6384 59.7648C95.2359 59.7574 98.0047 62.4791 98.0047 67.266ZM93.9699 67.1775C93.9699 62.7667 92.6447 60.8416 90.5051 60.8416C88.4174 60.8416 87.0922 62.6856 87.0922 67.1775C87.0922 71.6178 88.4174 73.4617 90.5051 73.4617C92.7335 73.4617 93.9699 71.6989 93.9699 67.1775Z" fill="white"/>
<path d="M114.795 73.2252V74.1104H108.613V73.2252L109.85 73.0482V65.097C109.85 62.8916 109.028 61.9033 107.347 61.9033C106.57 61.9033 105.326 62.4417 104.423 63.0687V73.0409L105.689 73.2179V74.103H99.4775V73.2179L100.744 73.0409V61.3058L99.4775 61.1288V60.1405H104.423V62.0803C105.955 60.8633 107.444 59.8749 109.516 59.8749C112.285 59.8749 113.529 61.4829 113.529 64.6471V73.0556L114.795 73.2252Z" fill="white"/>
<path d="M60.5875 56.4603C60.5875 57.5446 59.6991 58.4297 58.596 58.4297C57.4929 58.4297 56.6045 57.5593 56.6045 56.4603C56.6045 55.3761 57.4929 54.491 58.596 54.491C59.6991 54.491 60.5875 55.3761 60.5875 56.4603Z" fill="white"/>
<path d="M125.486 47.2474H125.775C125.967 47.2474 126.041 47.1884 126.041 47.0556C126.041 46.9229 125.974 46.8639 125.775 46.8639H125.486V47.2474ZM126.3 47.0409C126.3 47.2327 126.219 47.3433 126.048 47.4023L126.352 47.8449H126.071L125.789 47.4392H125.486V47.8449H125.249V46.65H125.775C126.145 46.65 126.3 46.7754 126.3 47.0409ZM124.768 47.2622C124.768 47.8006 125.212 48.2579 125.767 48.2579C126.308 48.2579 126.767 47.8154 126.767 47.2622C126.767 46.7237 126.322 46.2664 125.767 46.2664C125.212 46.2664 124.768 46.709 124.768 47.2622ZM127.018 47.2622C127.018 47.9555 126.448 48.5234 125.752 48.5234C125.056 48.5234 124.486 47.9555 124.486 47.2622C124.486 46.5688 125.056 46.0009 125.752 46.0009C126.463 46.0009 127.018 46.5541 127.018 47.2622Z" fill="white"/>
<path d="M28.5757 97.8311H27.0877C26.9174 97.8311 26.8359 97.7499 26.8359 97.5803V89.5111C26.8359 89.3414 26.9174 89.2603 27.0877 89.2603H32.4625C32.6328 89.2603 32.7142 89.3414 32.7142 89.5111V90.8166C32.7142 90.9863 32.6328 91.0674 32.4625 91.0674H28.8274V93.1326H31.5667C31.737 93.1326 31.8184 93.2138 31.8184 93.3834V94.5931C31.8184 94.7627 31.737 94.8438 31.5667 94.8438H28.8274V97.6319C28.8274 97.7647 28.746 97.8311 28.5757 97.8311Z" fill="white"/>
<path d="M39.8288 95.7661C40.2063 95.5448 40.4951 95.2424 40.7172 94.8515C40.9393 94.4606 41.0503 94.0328 41.0503 93.5607C41.0503 93.0887 40.9393 92.6609 40.7172 92.2699C40.4951 91.879 40.1915 91.5766 39.814 91.3553C39.4364 91.134 39.0366 91.0234 38.5998 91.0234C38.1704 91.0234 37.7484 91.134 37.3857 91.3553C37.0081 91.5766 36.7194 91.879 36.4973 92.2699C36.2752 92.6609 36.1641 93.0887 36.1641 93.5607C36.1641 94.0328 36.2752 94.4606 36.4973 94.8515C36.7194 95.2424 37.0229 95.5448 37.4005 95.7661C37.778 95.9874 38.1778 96.098 38.6146 96.098C39.044 96.098 39.4512 95.9874 39.8288 95.7661ZM36.3492 97.4035C35.6681 96.9979 35.1276 96.4742 34.7353 95.7956C34.3429 95.117 34.1504 94.3647 34.1504 93.546C34.1504 92.7272 34.3429 91.9896 34.7353 91.3111C35.1276 90.6325 35.6681 90.1014 36.3492 89.7031C37.0303 89.3122 37.7854 89.1204 38.622 89.1204C39.4438 89.1204 40.1915 89.3122 40.88 89.7031C41.5612 90.094 42.1016 90.6325 42.494 91.3111C42.8864 91.9896 43.0788 92.742 43.0788 93.546C43.0788 94.3647 42.8864 95.1023 42.494 95.7956C42.1016 96.4742 41.5612 97.0126 40.88 97.4035C40.1989 97.8092 39.4438 98.001 38.622 98.001C37.778 97.9862 37.0303 97.7945 36.3492 97.4035Z" fill="white"/>
<path d="M49.1572 93.1843C49.3349 93.0736 49.4756 92.9335 49.5718 92.7565C49.668 92.5794 49.7273 92.3803 49.7273 92.159C49.7273 91.923 49.668 91.7165 49.5718 91.5321C49.4756 91.3624 49.3349 91.2297 49.1572 91.1411C48.9869 91.06 48.7945 91.0158 48.5724 91.0158H47.0695V93.3318H48.5427C48.7648 93.3392 48.9721 93.2949 49.1572 93.1843ZM45.0928 97.595V89.5258C45.0928 89.3562 45.1742 89.275 45.3445 89.275H48.7426C49.3275 89.275 49.8531 89.4004 50.3047 89.6365C50.7637 89.8872 51.1117 90.2192 51.3634 90.647C51.6151 91.0748 51.741 91.5763 51.741 92.1443C51.741 92.6975 51.6299 93.1695 51.393 93.5604C51.1561 93.9514 50.8378 94.2685 50.401 94.5193L51.9039 97.5434C51.9335 97.6024 51.9483 97.6393 51.9483 97.6688C51.9483 97.7278 51.9335 97.7499 51.8891 97.7794C51.8446 97.8089 51.7928 97.8237 51.7336 97.8237H50.0234C49.8827 97.8237 49.7865 97.7647 49.7347 97.6467L48.5131 95.0282H47.0769V97.5803C47.0769 97.7499 46.9954 97.8311 46.8252 97.8311H45.3371C45.1594 97.8311 45.0928 97.7647 45.0928 97.595Z" fill="white"/>
<path d="M61.9207 97.8311H60.4326C60.2624 97.8311 60.1809 97.7499 60.1809 97.5803V91.1043H58.0339C57.8637 91.1043 57.7822 91.0231 57.7822 90.8535V89.4963C57.7822 89.3267 57.8637 89.2456 58.0339 89.2456H64.312C64.4823 89.2456 64.5637 89.3267 64.5637 89.4963V90.8535C64.5637 91.0231 64.4823 91.1043 64.312 91.1043H62.1576V97.5803C62.1724 97.7647 62.091 97.8311 61.9207 97.8311Z" fill="white"/>
<path d="M68.606 97.8311H67.1179C66.9476 97.8311 66.8662 97.7499 66.8662 97.5803V89.5111C66.8662 89.3414 66.9476 89.2603 67.1179 89.2603H68.606C68.7763 89.2603 68.8577 89.3414 68.8577 89.5111V92.4245H72.3521V89.5111C72.3521 89.3414 72.4335 89.2603 72.6038 89.2603H74.1067C74.277 89.2603 74.3584 89.3414 74.3584 89.5111V97.5803C74.3584 97.7499 74.277 97.8311 74.1067 97.8311H72.6038C72.4335 97.8311 72.3521 97.7499 72.3521 97.5803V94.3054H68.8577V97.5803C68.8429 97.7647 68.7689 97.8311 68.606 97.8311Z" fill="white"/>
<path d="M83.3606 97.8311H77.5564C77.3861 97.8311 77.3047 97.7499 77.3047 97.5803V89.5111C77.3047 89.3414 77.3861 89.2603 77.5564 89.2603H83.2792C83.4495 89.2603 83.5309 89.3414 83.5309 89.5111V90.8314C83.5309 91.001 83.4495 91.0821 83.2792 91.0821H79.2962V92.6163H82.3612C82.5315 92.6163 82.6129 92.6975 82.6129 92.8671V94.0767C82.6129 94.2464 82.5315 94.3275 82.3612 94.3275H79.2962V96.0608H83.3606C83.5309 96.0608 83.6123 96.142 83.6123 96.3116V97.6319C83.5975 97.7647 83.5161 97.8311 83.3606 97.8311Z" fill="white"/>
<path d="M91.3488 97.61C90.7788 97.3592 90.2753 96.9978 89.8459 96.5257C89.7867 96.4667 89.7793 96.4151 89.7793 96.3561C89.7793 96.297 89.8089 96.2307 89.8755 96.179L90.8232 95.2792C90.8824 95.2202 90.9342 95.198 90.9934 95.198C91.0601 95.198 91.1193 95.2276 91.1711 95.2939C91.4525 95.5742 91.756 95.7955 92.104 95.9356C92.4519 96.0758 92.8147 96.1569 93.1774 96.1569C93.5698 96.1569 93.8734 96.0905 94.0806 95.9356C94.2879 95.7955 94.399 95.589 94.399 95.3382C94.399 95.1685 94.3546 95.021 94.2583 94.9104C94.1621 94.785 93.9918 94.6744 93.7549 94.5785C93.518 94.4678 93.1848 94.3572 92.7554 94.2318C92.0447 94.0253 91.4302 93.7155 90.9046 93.3025C90.3864 92.8894 90.1273 92.3141 90.1273 91.5691C90.1273 91.1266 90.2383 90.7209 90.4752 90.3521C90.6973 89.9759 91.0453 89.6883 91.5043 89.467C91.9633 89.2457 92.5185 89.1351 93.1774 89.1351C93.7327 89.1351 94.2657 89.231 94.7766 89.4227C95.28 89.6145 95.739 89.88 96.1388 90.2267C96.198 90.2857 96.235 90.3374 96.235 90.3964C96.235 90.4554 96.2054 90.507 96.1684 90.566L95.3022 91.5396C95.243 91.606 95.1912 91.6355 95.1245 91.6355C95.0653 91.6355 95.0135 91.606 94.9542 91.5691C94.7173 91.3921 94.4508 91.2372 94.1473 91.1118C93.8437 90.9864 93.5476 90.9348 93.2589 90.9348C92.9257 90.9348 92.6592 90.9938 92.4815 91.1044C92.289 91.2151 92.2002 91.3847 92.2002 91.5912C92.2002 91.7609 92.2594 91.8937 92.3705 92.019C92.4815 92.1297 92.6222 92.2256 92.7999 92.3067C92.9775 92.3878 93.2589 92.4837 93.6216 92.5944C93.6364 92.5944 93.6883 92.6091 93.7771 92.6534C94.362 92.8451 94.8506 93.059 95.2356 93.2803C95.6205 93.5016 95.9167 93.7819 96.1388 94.1138C96.3609 94.4457 96.4571 94.8514 96.4571 95.3234C96.4571 95.8619 96.3165 96.3339 96.0499 96.7396C95.7834 97.1453 95.4058 97.4624 94.9394 97.6837C94.4508 97.905 93.9104 98.0156 93.2663 98.0156C92.5482 97.9861 91.9263 97.8607 91.3488 97.61Z" fill="white"/>
<path d="M102.084 97.8311H100.596C100.425 97.8311 100.344 97.7499 100.344 97.5803V91.1043H98.197C98.0268 91.1043 97.9453 91.0231 97.9453 90.8535V89.4963C97.9453 89.3267 98.0268 89.2456 98.197 89.2456H104.475C104.645 89.2456 104.727 89.3267 104.727 89.4963V90.8535C104.727 91.0231 104.645 91.1043 104.475 91.1043H102.321V97.5803C102.336 97.7647 102.254 97.8311 102.084 97.8311Z" fill="white"/>
<path d="M110.465 94.7115L109.487 91.9677L109.391 91.621L109.31 91.9677L108.333 94.7115H110.465ZM113.5 97.6692C113.5 97.7282 113.485 97.7651 113.441 97.7946C113.396 97.8241 113.359 97.8389 113.285 97.8389H111.753C111.612 97.8389 111.516 97.7725 111.472 97.6323L111.013 96.3711H107.74L107.296 97.6323C107.252 97.7725 107.155 97.8389 107.015 97.8389H105.482C105.416 97.8389 105.371 97.8241 105.327 97.7946C105.282 97.7651 105.268 97.7282 105.268 97.6692C105.268 97.6397 105.268 97.6028 105.282 97.5733L108.444 89.4746C108.503 89.3492 108.584 89.2829 108.725 89.2829H110.05C110.191 89.2829 110.287 89.3492 110.339 89.4746L113.471 97.5733C113.5 97.5955 113.5 97.625 113.5 97.6692Z" fill="white"/>
<path d="M118.363 97.8311H116.861C116.69 97.8311 116.609 97.7499 116.609 97.5803V94.4898L113.781 89.5553C113.751 89.4963 113.736 89.4594 113.736 89.4152C113.736 89.3562 113.751 89.3341 113.796 89.3046C113.84 89.2751 113.877 89.2603 113.951 89.2603H115.72C115.861 89.2603 115.957 89.3193 116.009 89.4373L117.623 92.6385L119.193 89.4373C119.252 89.3119 119.348 89.2603 119.481 89.2603H121.251C121.317 89.2603 121.362 89.2751 121.406 89.3046C121.451 89.3341 121.465 89.3709 121.465 89.4152C121.465 89.4594 121.451 89.4963 121.421 89.5553L118.608 94.4824V97.5877C118.615 97.7647 118.526 97.8311 118.363 97.8311Z" fill="white"/>
<path d="M122.443 89.356C122.443 89.3413 122.451 89.3339 122.458 89.3191C122.466 89.3118 122.48 89.3044 122.495 89.3044H123.635C123.65 89.3044 123.658 89.3118 123.672 89.3191C123.68 89.3265 123.687 89.3413 123.687 89.356V89.6215C123.687 89.6363 123.68 89.6437 123.672 89.6584C123.665 89.6732 123.65 89.6732 123.635 89.6732H123.273V90.8312C123.273 90.8459 123.265 90.8533 123.258 90.8681C123.25 90.8828 123.236 90.8828 123.221 90.8828H122.91C122.895 90.8828 122.888 90.8754 122.873 90.8681C122.865 90.8607 122.858 90.8459 122.858 90.8312V89.6732H122.495C122.48 89.6732 122.466 89.6658 122.458 89.6584C122.451 89.651 122.443 89.6363 122.443 89.6215V89.356Z" fill="black"/>
<path d="M123.932 89.356C123.932 89.3413 123.939 89.3339 123.947 89.3265C123.954 89.3191 123.969 89.3117 123.984 89.3117H124.354C124.383 89.3117 124.398 89.3265 124.406 89.3486L124.694 90.3075L124.983 89.3486C124.991 89.3191 125.013 89.3117 125.035 89.3117H125.398C125.413 89.3117 125.42 89.3191 125.435 89.3265C125.442 89.3339 125.45 89.3486 125.45 89.356C125.472 89.6068 125.501 89.8502 125.524 90.0936C125.553 90.337 125.575 90.5804 125.598 90.8312V90.8386C125.598 90.8681 125.583 90.8828 125.553 90.8828H125.25C125.22 90.8828 125.198 90.8681 125.198 90.8386L125.109 90.0198L124.872 90.8386C124.872 90.8459 124.865 90.8533 124.857 90.8607C124.85 90.8681 124.842 90.8754 124.828 90.8754H124.546C124.539 90.8754 124.532 90.8681 124.517 90.8607C124.509 90.8533 124.502 90.8459 124.502 90.8312L124.265 90.0125L124.176 90.8238C124.176 90.8533 124.161 90.8681 124.124 90.8681H123.821C123.791 90.8681 123.776 90.8533 123.776 90.8238L123.932 89.356Z" fill="black"/>
</g>
<defs>
<clipPath id="clip0_1820_1450">
<rect width="102" height="52" fill="white" transform="translate(25 46)"/>
</clipPath>
</defs>
</svg>
