<svg width="152" height="144" viewBox="0 0 152 144" fill="none" xmlns="http://www.w3.org/2000/svg">
<rect width="152" height="144" rx="8" fill="white" fill-opacity="0.07"/>
<g clip-path="url(#clip0_1820_1708)">
<path fill-rule="evenodd" clip-rule="evenodd" d="M38.0179 85.3024C37.7634 85.3188 37.5135 85.3334 37.2591 85.3334C36.9695 85.3334 36.6888 85.3097 36.3947 85.3024L37.2401 83.2371L38.0179 85.3024ZM38.9535 87.6454C39.1042 87.6381 39.3352 87.5979 39.5661 87.5979C39.7971 87.5979 40.0895 87.6381 40.214 87.6454C39.8395 86.8342 39.2955 85.5664 38.977 84.8319C38.6801 84.1286 38.183 82.9502 37.7851 81.8057C37.6997 81.8325 37.611 81.8469 37.5216 81.8486C37.4283 81.8478 37.3356 81.8334 37.2464 81.8057C36.8061 83.0581 36.301 84.2863 35.7334 85.4851L34.7725 87.6481C34.8951 87.6237 35.0193 87.6078 35.1442 87.6006C35.2786 87.6079 35.4124 87.6237 35.5448 87.6481C35.7325 87.0296 35.9527 86.4216 36.2043 85.8267C36.5337 85.8103 36.8684 85.7929 37.2031 85.7929C37.5568 85.7929 37.9024 85.8093 38.2606 85.8267L38.6089 86.7182L38.9535 87.6454Z" fill="white"/>
<path d="M40.9428 83.8255C40.9428 85.2633 40.9428 86.649 40.8525 87.6456C41.033 87.6383 41.2694 87.5981 41.448 87.5981C41.6267 87.5981 41.8369 87.6383 42.0255 87.6456C41.9641 86.9706 41.9434 86.0626 41.9434 84.8075C41.9225 83.8352 41.9526 82.8626 42.0336 81.8936C41.8381 81.9187 41.6414 81.934 41.4444 81.9392C41.3244 81.9392 41.0131 81.9109 40.8552 81.8936C40.9181 82.5355 40.9456 83.1805 40.9374 83.8255" fill="white"/>
<path fill-rule="evenodd" clip-rule="evenodd" d="M45.8713 84.7911C46.2599 84.7613 46.6235 84.5855 46.8906 84.2982C47.1577 84.0108 47.309 83.6328 47.3149 83.2383C47.3164 83.0644 47.2837 82.892 47.2186 82.731C47.1536 82.5701 47.0575 82.4239 46.9359 82.3011C46.7588 82.1449 46.5515 82.0277 46.3272 81.9571C46.1029 81.8865 45.8665 81.864 45.6331 81.8909C45.44 81.8909 44.4791 81.9293 44.2671 81.9293C43.9893 81.9308 43.7117 81.918 43.4352 81.8909C43.4965 82.9734 43.4965 83.0876 43.4965 84.1901C43.4965 85.8042 43.4875 85.9878 43.4189 87.643C43.6093 87.6149 43.8013 87.5991 43.9937 87.5955C44.2012 87.5955 44.3826 87.6293 44.5495 87.643C44.5495 87.4237 44.5161 86.3431 44.5161 86.1001V84.9081H44.7119C45.163 85.5475 45.6755 86.2892 46.0968 86.9497C46.2214 87.1451 46.4081 87.4548 46.5299 87.6457C46.7518 87.6094 46.9765 87.5935 47.2012 87.5982C47.4476 87.5999 47.6937 87.6158 47.9383 87.6457C47.4177 86.9853 47.1913 86.6893 46.5371 85.7622C46.4099 85.5795 46.2313 85.3054 46.1041 85.1328L45.8713 84.7921M44.5179 82.3431C44.6406 82.3312 44.9465 82.3047 45.1017 82.3047C45.3741 82.2854 45.6452 82.3583 45.8722 82.5121C45.999 82.615 46.0977 82.7489 46.1592 82.9013C46.2206 83.0536 46.2426 83.2193 46.2232 83.3826C46.2341 83.5369 46.2124 83.6918 46.1594 83.8369C46.1064 83.982 46.0233 84.1139 45.9159 84.2239C45.8084 84.3338 45.6789 84.4192 45.5361 84.4744C45.3934 84.5295 45.2406 84.5531 45.0881 84.5436C44.8734 84.5436 44.6758 84.5272 44.5179 84.5171V82.3431Z" fill="white"/>
<path d="M50.19 85.6807C49.8011 84.517 49.2597 82.881 49.0026 81.8936C48.8114 81.9225 48.6185 81.9377 48.4252 81.9392C48.2249 81.9392 47.9425 81.9109 47.7773 81.8936C48.1139 82.7997 48.4089 83.599 48.63 84.2402C49.0143 85.33 49.2616 86.0882 49.5629 87.0089L49.7677 87.6483C49.8792 87.6226 49.9927 87.6067 50.107 87.6008C50.2138 87.6027 50.32 87.6186 50.4228 87.6483C50.5527 87.2117 50.7106 86.6801 50.8279 86.3275C51.1509 85.3738 51.1888 85.245 51.6173 84.053L51.8646 83.3514C51.9548 83.6209 52.1145 84.053 52.2038 84.3151C52.2931 84.5773 52.7199 85.8607 52.8164 86.1494C52.9554 86.5284 52.9788 86.6307 53.2874 87.6492C53.4067 87.6266 53.5272 87.6108 53.6483 87.6018C53.7594 87.6064 53.8697 87.6223 53.9776 87.6492C54.2934 86.6527 54.3241 86.5531 54.7897 85.2048C55.2489 83.8977 55.5313 83.1541 56.0267 81.8972C55.9055 81.9269 55.7814 81.9422 55.6567 81.9429C55.5273 81.9422 55.3984 81.9269 55.2724 81.8972C54.9728 82.9824 54.8213 83.5113 54.5894 84.2338C54.2005 85.4049 54.1464 85.5456 53.9109 86.1822C53.6402 85.4624 53.3858 84.728 53.1476 83.9899C53.0086 83.5871 52.507 81.9127 52.5025 81.8963C52.3811 81.9247 52.2571 81.94 52.1325 81.942C52.0111 81.9376 51.8904 81.9223 51.7716 81.8963C51.5217 82.9148 50.6456 85.3848 50.559 85.6113L50.3542 86.1594L50.1963 85.6853" fill="white"/>
<path fill-rule="evenodd" clip-rule="evenodd" d="M58.5521 85.3021C58.2931 85.3186 58.0504 85.3332 57.7915 85.3332C57.4991 85.3332 57.2167 85.3094 56.9271 85.3021L57.7752 83.2368L58.5521 85.3021ZM59.4895 87.6415C59.6375 87.6342 59.8739 87.594 60.0994 87.594C60.325 87.594 60.6272 87.6342 60.7472 87.6415C60.3773 86.8303 59.826 85.5625 59.5103 84.828C59.2107 84.1247 58.7163 82.9463 58.3157 81.8018C58.2319 81.8288 58.1446 81.8432 58.0567 81.8447C57.9634 81.8443 57.8706 81.8298 57.7815 81.8018C57.5785 82.4905 57.0985 83.5803 56.2648 85.4784L55.3066 87.6415C55.4287 87.6171 55.5523 87.6013 55.6766 87.594C55.8109 87.6014 55.9447 87.6172 56.0772 87.6415C56.2659 87.0229 56.487 86.4149 56.7394 85.8201C57.0669 85.8036 57.399 85.7863 57.7319 85.7863C58.0874 85.7863 58.4311 85.8027 58.7875 85.8201L59.1412 86.7116L59.4895 87.6415Z" fill="white"/>
<path d="M62.9687 85.3966C62.9832 85.3015 63.0187 85.211 63.0725 85.1317C63.4262 84.5261 63.7483 83.894 64.1155 83.2856C64.2427 83.0901 64.8481 82.1145 64.9754 81.8926C64.8631 81.9267 64.7461 81.9421 64.6289 81.9383C64.4655 81.9363 64.3026 81.921 64.1417 81.8926C63.7276 82.8676 63.2499 83.8136 62.7116 84.7243C62.0024 83.4774 61.6893 82.8143 61.2635 81.8926C61.0382 81.9252 60.8108 81.9404 60.5832 81.9383C60.4027 81.9383 60.2114 81.9218 59.8975 81.8926C60.3305 82.6179 61.037 83.7789 61.4638 84.516L61.951 85.3701C61.951 85.8926 61.9248 86.9915 61.9014 87.6446C62.0566 87.63 62.2857 87.5971 62.4499 87.5971C62.6403 87.5971 62.8343 87.6309 63.0247 87.6446C62.994 86.8673 62.9678 86.4115 62.9678 85.7035V85.3957" fill="white"/>
<path d="M65.4536 86.3888C65.4369 86.7125 65.3709 87.0318 65.2578 87.3351C65.7353 87.6033 66.2693 87.7514 66.8151 87.7672C67.0753 87.8021 67.3398 87.7807 67.5912 87.7045C67.8426 87.6282 68.0751 87.4988 68.2735 87.3249C68.4718 87.1509 68.6314 86.9363 68.7418 86.6953C68.8522 86.4542 68.9108 86.1922 68.9138 85.9266C68.9172 85.52 68.7748 85.126 68.5132 84.8176C68.1899 84.5236 67.801 84.3133 67.3799 84.2047C66.6581 83.9206 66.2332 83.748 66.2332 83.1414C66.2295 83.0146 66.2528 82.8885 66.3015 82.7716C66.3502 82.6547 66.4231 82.5497 66.5153 82.4638C66.6076 82.3779 66.7169 82.313 66.836 82.2736C66.9552 82.2342 67.0812 82.2211 67.2058 82.2353C67.4417 82.2124 67.6783 82.2726 67.8755 82.4057C68.0727 82.5388 68.2186 82.7367 68.2885 82.966H68.4076C68.4685 82.6936 68.5552 82.4278 68.6665 82.1722C68.2424 81.9453 67.7703 81.8259 67.2906 81.8242C65.7874 81.8242 65.3571 82.7687 65.3571 83.505C65.3369 83.8367 65.4297 84.1654 65.62 84.4362C65.8103 84.707 66.0866 84.9035 66.4028 84.993C66.631 85.0843 67.0244 85.246 67.2581 85.341C67.4895 85.4261 67.6829 85.5925 67.8032 85.8099C67.9236 86.0273 67.9628 86.2812 67.9137 86.5254C67.8646 86.7696 67.7305 86.9878 67.5358 87.1403C67.3411 87.2928 67.0988 87.3693 66.853 87.3561C66.3658 87.3561 65.9507 87.2273 65.5619 86.3924H65.4509" fill="white"/>
<path fill-rule="evenodd" clip-rule="evenodd" d="M19.4082 70.884C19.4082 64.541 22.7646 62.8337 25.3035 62.8337C29.3781 62.8337 31.1447 66.2556 31.1447 69.9039C31.2692 71.8681 30.8285 73.8268 29.8761 75.5427C29.388 76.3163 28.7163 76.9538 27.9223 77.397C27.1283 77.8403 26.2373 78.0752 25.3306 78.0803C20.7291 78.0803 19.4091 73.65 19.4091 70.8786M31.7934 83.8497C32.6679 83.2476 33.5923 82.7235 34.5561 82.2831L28.9333 78.7562C32.3889 77.5258 34.5534 74.4045 34.5534 70.1551C34.5534 64.1126 30.0025 61.5439 25.3504 61.5439C20.3267 61.5439 15.9976 64.3629 15.9976 70.7507C15.9715 73.0154 16.831 75.1986 18.3886 76.8243C19.2985 77.7098 20.3812 78.393 21.5672 78.83C22.7532 79.267 24.0163 79.4481 25.2755 79.3618C25.5462 79.3618 25.8223 79.3618 26.0948 79.3381L31.7934 83.8497Z" fill="white"/>
<path fill-rule="evenodd" clip-rule="evenodd" d="M46.1537 71.9887C45.3769 72.0408 44.6343 72.0892 43.8647 72.0892C42.9931 72.0892 42.1504 72.018 41.2833 71.9887L43.8096 65.7982L46.151 71.9887M48.9588 79.0141C49.4018 78.9876 50.1038 78.8616 50.794 78.8616C51.4842 78.8616 52.3675 78.9876 52.7348 79.0141C51.6205 76.5697 49.9793 72.7716 49.0355 70.5774C48.1378 68.4646 46.6445 64.9405 45.4554 61.4922C44.9301 61.6639 44.3647 61.6639 43.8394 61.4922C43.2412 63.5593 41.7949 66.8286 39.2866 72.5185L36.3994 79.0141C36.7698 78.9329 37.1461 78.8816 37.5245 78.8607C37.9264 78.8822 38.3263 78.9332 38.7209 79.0132C39.2851 77.1573 39.9477 75.3335 40.7059 73.5498C41.6984 73.4978 42.699 73.4493 43.6833 73.4493C44.7525 73.4493 45.7982 73.4968 46.8656 73.5498L47.9113 76.218L48.9588 79.0141Z" fill="white"/>
<path d="M59.9935 66.2505C59.9935 65.2941 60.0215 64.3377 60.0476 63.4297C61.7619 63.4297 63.5195 63.4535 64.9893 63.6124C64.9184 63.3153 64.8767 63.0117 64.8648 62.7063C64.8813 62.384 64.9229 62.0636 64.9893 61.748C62.601 61.8741 60.4148 61.9006 58.3469 61.9006C56.4386 61.9006 53.6813 61.8741 51.709 61.748C51.7903 62.0507 51.8339 62.3625 51.8389 62.6761C51.8356 62.991 51.7938 63.3043 51.7144 63.6088C52.9839 63.4827 55.3748 63.4261 55.6004 63.4261H56.8374C56.8681 64.4108 56.8915 65.2904 56.8915 66.2212L56.915 73.2439C56.915 75.1567 56.7643 77.0996 56.6633 79.0097C57.2233 78.9293 57.7871 78.8784 58.3523 78.8571C58.6518 78.8571 59.4548 78.9311 60.1776 79.0097C60.0412 77.8656 59.9809 76.7136 59.9971 75.5614V66.2441" fill="white"/>
<path fill-rule="evenodd" clip-rule="evenodd" d="M73.8322 71.9887C73.0617 72.0408 72.3174 72.0892 71.5477 72.0892C70.6744 72.0892 69.8335 72.018 68.9592 71.9887L71.4909 65.7982L73.8322 71.9887ZM76.6401 79.0141C77.0912 78.9876 77.7868 78.8616 78.487 78.8616C79.1871 78.8616 80.0506 78.9876 80.4205 79.0141C79.3062 76.5697 77.6596 72.7716 76.7213 70.5774C75.8262 68.4646 74.3303 64.9405 73.1438 61.4922C72.8851 61.5733 72.6162 61.6166 72.3453 61.621C72.0652 61.6179 71.7869 61.5746 71.5189 61.4922C70.9297 63.5593 69.4834 66.8286 66.9751 72.5185L64.0879 79.0141C64.4548 78.934 64.8274 78.8829 65.2022 78.8616C65.6035 78.8828 66.0028 78.9337 66.3968 79.0141C66.967 77.1596 67.6314 75.336 68.3871 73.5507C69.3796 73.4987 70.3775 73.4503 71.3736 73.4503C72.4428 73.4503 73.4885 73.4978 74.5577 73.5507L75.6007 76.2189L76.6401 79.0141Z" fill="white"/>
<path fill-rule="evenodd" clip-rule="evenodd" d="M90.4324 70.4528C92.698 70.028 94.7569 68.5903 94.7569 65.7942C94.7634 65.2709 94.6658 64.7518 94.47 64.2675C94.2743 63.7832 93.9843 63.3437 93.6174 62.9752C92.55 61.9403 91.3302 61.7402 89.7196 61.7402C89.1404 61.7402 86.2622 61.8663 85.6099 61.8663C84.78 61.8688 83.9505 61.8267 83.125 61.7402C83.2992 64.9885 83.2992 65.3411 83.2992 68.6387C83.2992 73.4937 83.273 74.0472 83.0781 79.0091C83.6454 78.918 84.2182 78.867 84.7924 78.8566C85.3499 78.8768 85.9059 78.9277 86.458 79.0091C86.458 78.356 86.3569 75.1078 86.3569 74.3761V70.8026H86.9551C88.2977 72.7209 89.8423 74.9379 91.11 76.9228C91.4817 77.5019 92.0312 78.4373 92.4011 79.0165C93.0668 78.9072 93.7406 78.8562 94.415 78.8639C95.1554 78.8686 95.8949 78.9196 96.6291 79.0165C95.0583 77.0251 94.3888 76.1482 92.4246 73.353C92.0547 72.826 91.5034 71.9938 91.1362 71.4667L90.4342 70.4619M86.3569 63.1122C86.7341 63.0912 87.6544 62.988 88.1262 62.988C88.9427 62.9377 89.7531 63.1587 90.4342 63.6174C90.814 63.9275 91.1095 64.3304 91.2929 64.7881C91.4763 65.2458 91.5416 65.7432 91.4826 66.2335C91.5142 66.6963 91.4477 67.1605 91.2875 67.5951C91.1274 68.0297 90.8773 68.4245 90.5541 68.7533C90.2308 69.082 89.8419 69.3369 89.4134 69.501C88.9848 69.6651 88.5266 69.7346 88.0694 69.7047C87.4261 69.7047 86.8279 69.6544 86.3551 69.6334L86.3569 63.1122Z" fill="white"/>
<path d="M72.5601 86.7395H71.5469C71.5469 86.7395 71.4034 86.1001 71.7733 85.8571C72.0263 85.6963 72.2891 85.552 72.5601 85.425V86.7386M77.417 84.3517C77.0577 84.5628 76.7158 84.8029 76.3947 85.0697C76.0103 85.4223 76.4849 85.5538 76.4849 85.5538V86.7368H73.5183V82.597C73.5183 82.597 72.4356 83.6018 72.3309 83.7388C72.2263 83.8758 72.5899 84.0083 72.5899 84.0083L72.5285 84.3974C72.2011 84.5787 71.8831 84.7768 71.5758 84.9912C71.0597 85.3392 70.6735 85.7923 70.6735 86.1047C70.6735 86.4171 70.5391 87.6475 70.5391 87.6475H77.417V84.3517ZM71.2816 82.84C71.6182 82.84 71.8564 82.6993 71.8564 82.4298C71.8564 82.1603 71.6985 81.9731 71.2816 81.9731C70.9045 81.9731 70.8007 82.1302 70.8007 82.4298C70.8007 82.7294 70.9324 82.8427 71.2789 82.8427L71.2816 82.84ZM72.5394 82.84C72.8858 82.84 73.1141 82.6993 73.1141 82.4298C73.1141 82.1603 72.9544 81.9731 72.5394 81.9731C72.1694 81.9731 72.0684 82.1302 72.0684 82.4298C72.0684 82.7294 72.1974 82.8427 72.5367 82.8427L72.5394 82.84ZM74.4567 87.9983C74.0894 87.9983 73.9857 88.1581 73.9857 88.4605C73.9857 88.7628 74.1129 88.8706 74.4567 88.8706C74.8004 88.8706 75.0386 88.7345 75.0386 88.4605C75.0386 88.1864 74.8798 88.001 74.4539 88.001L74.4567 87.9983ZM75.7712 87.9983C75.3995 87.9983 75.2976 88.1581 75.2976 88.4605C75.2976 88.7628 75.432 88.8706 75.7712 88.8706C76.1105 88.8706 76.3532 88.7345 76.3532 88.4605C76.3532 88.1864 76.1899 88.001 75.7676 88.001L75.7712 87.9983ZM90.5863 82.7568C90.9228 82.7568 91.1682 82.6207 91.1682 82.3513C91.1682 82.0818 91.0103 81.8945 90.5863 81.8945C90.2191 81.8945 90.1153 82.0516 90.1153 82.3513C90.1153 82.6509 90.2443 82.7596 90.5836 82.7596L90.5863 82.7568ZM91.8982 82.7568C92.2374 82.7568 92.4729 82.6207 92.4729 82.3513C92.4729 82.0818 92.315 81.8945 91.8982 81.8945C91.5282 81.8945 91.4272 82.0516 91.4272 82.3513C91.4272 82.6509 91.5517 82.7596 91.8955 82.7596L91.8982 82.7568ZM95.5207 82.8692C95.3403 83.0318 95.389 83.2273 95.6245 83.1962V87.6484H96.5998V82.1128C96.5998 82.1128 95.7012 82.7075 95.518 82.871L95.5207 82.8692ZM91.6058 85.3702H90.9743C90.9743 85.0149 91.6058 84.8222 91.6058 84.8222V85.3702ZM87.4555 86.101C87.4555 86.2609 87.4482 86.523 87.4392 86.7404H81.9355V85.763C82.0771 85.3867 82.3216 85.3383 82.6988 85.3383H86.7219C87.5872 85.3374 87.4555 85.7996 87.4555 86.1028V86.101ZM93.8931 83.1962V86.7377H92.5785V83.5223C92.5785 83.5223 92.3123 83.6274 91.9523 83.7918C91.5923 83.9562 90.2615 84.4997 90.2615 85.2341V86.0782H91.6058V86.7386H88.4236C88.4236 86.5833 88.4308 86.3568 88.4308 86.0188C88.4285 85.7994 88.3829 85.5827 88.2966 85.3814C88.2104 85.1802 88.0852 84.9984 87.9284 84.8469C87.7717 84.6954 87.5866 84.5771 87.3841 84.4992C87.1815 84.4212 86.9656 84.385 86.749 84.3928H83.0678C82.8671 84.37 82.6639 84.3876 82.4699 84.4445C82.2758 84.5014 82.0949 84.5965 81.9373 84.7244V82.006C81.9373 82.006 81.3652 82.4115 80.9448 82.7367C80.5243 83.0619 80.9448 83.2784 80.9448 83.2784V86.7413H79.7367L79.7105 83.7726L78.6278 84.5764C78.3896 84.7674 78.524 84.9345 78.783 84.9345C78.783 84.9345 78.7361 87.1268 78.7361 87.6484C78.7385 87.8073 78.7006 87.9641 78.6258 88.1039C78.5511 88.2436 78.4421 88.3616 78.3093 88.4463C78.1766 88.5311 78.0245 88.5799 77.8678 88.588C77.711 88.596 77.5548 88.5631 77.4143 88.4924C77.4143 88.4924 77.1318 88.55 77.3673 88.7665C77.5914 88.9894 77.8874 89.123 78.201 89.1428C78.3958 89.145 78.5891 89.1078 78.7695 89.0333C78.9499 88.9589 79.1138 88.8487 79.2515 88.7092C79.3893 88.5698 79.4981 88.4038 79.5717 88.2212C79.6452 88.0386 79.682 87.8429 79.6798 87.6457H94.8539V82.1055C94.8539 82.1055 93.9661 82.702 93.7776 82.8665C93.589 83.0309 93.6549 83.2245 93.8931 83.198V83.1962Z" fill="white"/>
<path d="M114.015 78.2793C113.314 78.5318 112.582 78.6855 111.839 78.736C111.047 78.7749 110.281 79.0313 109.622 79.4778C111.297 79.444 113.066 79.4111 114.818 79.3709C114.691 79.1882 114.321 78.6401 114.321 78.6401C114.239 78.5094 114.144 78.387 114.039 78.2748L114.015 78.2821M103.939 65.722C106.122 65.722 110.134 65.67 114.093 65.5786C114.552 65.2132 115.014 64.8478 115.501 64.477C111.108 64.3601 106.377 64.2943 103.939 64.2943C102.917 64.2943 102.085 64.6186 102.085 65.0095C102.085 65.4005 102.917 65.7248 103.939 65.7248M104.571 62.2673C104.571 62.577 105.223 62.8328 106.024 62.8328C108.516 62.8328 114.042 62.7414 118.076 62.6016C118.382 62.3897 118.679 62.1723 118.971 61.9677C114.906 61.8079 108.705 61.7028 106.024 61.7028C105.223 61.7028 104.571 61.9549 104.571 62.2673ZM122.486 70.0756C123.011 70.3855 123.563 70.6481 124.134 70.8602C125.303 70.8851 126.471 70.7648 127.611 70.5021C127.611 70.3496 125.51 70.1989 122.486 70.0756ZM102.69 68.5592C104.532 68.5592 107.55 68.5236 110.833 68.4679C111.307 68.0111 111.816 67.5471 112.353 67.0749C108.492 66.9936 104.815 66.9461 102.691 66.9461C101.527 66.9461 100.595 67.3114 100.595 67.7572C100.595 68.203 101.528 68.5629 102.691 68.5629M123.68 64.7976C123.357 64.962 123.059 65.1292 122.752 65.2909C123.609 65.3151 124.465 65.223 125.298 65.0168C124.774 64.8585 124.228 64.7851 123.68 64.7994M109.333 60.476C111.698 60.476 118.888 60.2933 118.888 60.0778C118.888 59.8622 111.69 59.6768 109.333 59.6768C108.873 59.6768 108.496 59.8594 108.496 60.0778C108.496 60.2961 108.873 60.476 109.333 60.476ZM124.815 67.6796C124.781 67.7962 124.733 67.9082 124.672 68.013C125.386 68.0335 126.099 67.9442 126.787 67.7481C126.164 67.5602 125.516 67.4742 124.867 67.4932L124.815 67.6796ZM115.879 80.9503C111.382 80.8306 106.445 80.7676 103.939 80.7676C102.917 80.7676 102.085 81.0845 102.085 81.4828C102.085 81.8811 102.917 82.1962 103.939 82.1962C106.579 82.1962 111.907 82.1177 116.594 81.9843C116.35 81.6509 116.116 81.3001 115.878 80.9539M118.001 83.8907C113.976 83.75 108.496 83.6614 106.021 83.6614C105.22 83.6614 104.568 83.9117 104.568 84.2214C104.568 84.531 105.22 84.7841 106.021 84.7841C108.617 84.7841 114.51 84.6927 118.575 84.5365C118.385 84.3291 118.196 84.1099 118.001 83.8907ZM108.496 86.4082C108.496 86.6274 108.873 86.811 109.333 86.811C111.69 86.811 118.888 86.6283 118.888 86.4082C118.888 86.188 111.698 86.0072 109.333 86.0072C108.873 86.0072 108.496 86.1899 108.496 86.4082ZM104.244 76.8315C104.293 76.5889 104.397 76.3612 104.548 76.1665C104.527 76.2021 104.51 76.2286 104.539 76.1784C104.7 75.9043 104.918 75.549 105.177 75.1462C103.935 75.1343 102.852 75.1224 101.993 75.1224C100.768 75.1224 99.7697 75.5115 99.7697 75.9829C99.7697 76.4542 100.768 76.8461 101.993 76.8461C102.631 76.8461 103.385 76.8415 104.248 76.8315M106.069 79.5216C105.763 79.2284 104.757 78.0528 104.633 77.9359C103.893 77.9313 103.233 77.9313 102.689 77.9313C101.525 77.9313 100.593 78.2894 100.593 78.7397C100.593 79.19 101.526 79.5454 102.689 79.5454C103.577 79.5454 104.734 79.5362 106.069 79.5216ZM105.914 74.0847C106.275 73.5768 106.7 73.0205 107.188 72.4158C105.009 72.382 103.106 72.3683 101.775 72.3683C100.526 72.3683 99.5107 72.762 99.5107 73.2434C99.5107 73.7248 100.526 74.1185 101.775 74.1185C102.844 74.1185 104.274 74.1066 105.918 74.0847M102.001 71.3617C103.48 71.3617 105.657 71.3407 108.136 71.2996C108.575 70.7944 109.055 70.272 109.573 69.7211C106.518 69.6709 103.767 69.6398 102.003 69.6398C100.778 69.6398 99.7796 70.0235 99.7796 70.4985C99.7796 70.9735 100.778 71.3617 102.003 71.3617" fill="white"/>
<path d="M127.842 72.5938C127.858 73.0323 127.858 73.4662 127.834 73.8864C123.644 74.0554 119.675 74.313 119.675 74.5943C119.675 74.8757 123.555 75.1333 127.693 75.3022C127.62 75.7791 127.526 76.2559 127.417 76.7208C123.338 76.8953 119.551 77.1429 119.551 77.4196C119.551 77.6964 123.088 77.9303 126.993 78.0993C126.821 78.6008 126.619 79.0913 126.388 79.5681C123.023 79.7353 120.247 79.9499 120.247 80.1883C120.247 80.4121 122.678 80.6177 125.736 80.7775C125.562 81.0561 125.382 81.3356 125.194 81.5996C124.997 81.881 124.785 82.1651 124.549 82.4418C122.639 82.5916 121.325 82.757 121.325 82.9305C121.325 83.1041 122.269 83.2338 123.716 83.3626C122.869 84.2094 121.919 84.942 120.887 85.5421C120.037 84.7864 119.246 83.9661 118.519 83.0886C117.57 81.9102 115.542 78.8081 115.069 78.112C114.596 77.416 114.275 77.215 113.716 77.4178C113.11 77.6339 112.479 77.7693 111.838 77.8206C111.568 77.8206 111.419 77.7138 111.869 77.5347C113.175 76.9895 114.261 76.0131 114.95 74.7642C115.925 72.8021 115.068 70.0974 115.068 70.0974C114.944 70.8624 114.564 71.5611 113.992 72.0768C114.124 71.4917 114.132 70.8848 114.016 70.2962C113.899 69.7076 113.661 69.1507 113.316 68.6623L112.955 70.365C112.955 70.365 112.717 70.3531 112.152 70.8373C111.801 71.1511 111.551 71.565 111.436 72.0248C111.879 72.2075 112.411 71.7553 112.411 71.7553C111.901 73.8006 111.1 75.7598 110.032 77.5713C109.585 78.3973 108.87 79.0423 108.009 79.3982C107.404 79.6439 107.208 79.358 107.208 79.358C106.724 78.9354 106.277 78.4712 105.873 77.9705C105.873 77.9705 105.839 77.9111 105.95 77.9156C106.25 77.9202 106.768 77.4105 106.888 77.1958C107.01 76.9547 107.003 76.7638 106.933 76.7519C106.862 76.74 106.752 76.9401 106.196 77.3C105.621 77.6654 105.362 77.4123 105.18 77.2086C105.033 77.0488 105.173 76.8506 105.271 76.7245C105.356 76.6121 108.345 70.9697 116.251 65.045C126.62 57.2715 133.236 55.1751 133.612 55.0226C133.867 54.9221 134.275 54.7915 134.368 54.8865C134.417 54.9242 134.455 54.9737 134.48 55.0304C134.505 55.087 134.515 55.149 134.51 55.2108C134.494 55.335 134.433 55.4035 133.952 55.6136C130.047 57.4911 126.281 59.6506 122.682 62.0754C120.442 63.2328 118.285 64.55 116.229 66.017C115.979 66.1722 116.158 66.3988 116.319 66.3074C121.79 62.6116 128.218 60.0959 135.318 58.0379C135.661 57.9402 135.845 57.9402 135.907 58.0169C135.96 58.1029 135.991 58.2013 135.997 58.3028C136.006 58.4362 135.907 58.5083 135.613 58.6225C127.981 61.4914 122.357 64.1565 118.74 66.618C118.74 66.618 118.363 66.8491 118.356 67.1113C118.356 67.209 118.561 67.2255 118.561 67.2255C120.374 67.2538 122.796 67.3634 123.946 67.4356C123.946 67.4356 123.779 68.0247 122.682 68.4988C121.906 68.7755 121.081 68.8835 120.261 68.8158C120.217 68.8112 120.173 68.8202 120.135 68.8416C120.096 68.8629 120.065 68.8956 120.046 68.9353C120.026 68.975 120.019 69.0198 120.025 69.0637C120.031 69.1076 120.051 69.1486 120.08 69.1812C120.151 69.2725 121.812 71.9782 127.84 72.5957" fill="white"/>
</g>
<defs>
<clipPath id="clip0_1820_1708">
<rect width="120" height="34.2857" fill="white" transform="translate(16 54.8574)"/>
</clipPath>
</defs>
</svg>
