<svg width="152" height="144" viewBox="0 0 152 144" fill="none" xmlns="http://www.w3.org/2000/svg">
<rect width="152" height="144" rx="8" fill="white" fill-opacity="0.07"/>
<g clip-path="url(#clip0_1820_1382)">
<path d="M21.6897 75.4646C21.6897 74.9133 21.9266 74.8346 22.4796 75.1496C23.4276 75.7008 24.3755 76.1733 24.3755 76.1733C24.3755 75.8583 24.6915 75.6221 25.2445 75.7796C25.7975 75.9371 26.3505 76.0158 26.3505 76.0158C26.3505 76.0158 26.0345 75.3071 25.8765 74.9921C25.6395 74.4408 25.8765 74.1258 26.1135 74.0471C26.1135 74.0471 25.7975 73.8108 25.5605 73.6533C25.0865 73.3383 25.1655 72.9446 25.6395 72.7871C26.2715 72.4721 27.1404 72.1571 27.1404 72.1571C26.9034 71.9996 26.5875 71.6058 26.9034 71.0546C27.2194 70.5821 27.7724 69.8733 27.7724 69.8733C27.7724 69.8733 26.9034 69.8733 26.2715 69.8733C25.7185 69.8733 25.5605 69.4008 25.5605 69.0858C25.5605 69.0858 24.6915 69.7158 24.0596 70.1096C23.5066 70.5033 23.0326 70.1096 23.1116 69.4796C23.2696 68.5346 23.3486 67.4321 23.3486 67.4321C23.0326 67.7471 22.4796 67.6683 22.1636 67.1958C21.7687 66.4083 21.3737 65.4633 21.3737 65.4633C21.3737 65.4633 20.9787 66.4083 20.5837 67.1958C20.3467 67.6683 19.7937 67.7471 19.4777 67.5108C19.4777 67.5108 19.5567 68.6133 19.7147 69.5583C19.7937 70.1096 19.3197 70.5033 18.7668 70.1096C18.1348 69.7158 17.1868 69.0858 17.1868 69.0858C17.1868 69.4008 17.0288 69.7946 16.4759 69.8733C15.8439 69.8733 14.9749 69.8733 14.9749 69.8733C14.9749 69.8733 15.5279 70.5821 15.8439 71.0546C16.1599 71.5271 15.8439 71.9996 15.6069 72.1571C15.6069 72.1571 16.3969 72.5508 17.1078 72.7871C17.5818 73.0233 17.7398 73.3383 17.1868 73.6533C17.0288 73.8108 16.6339 74.0471 16.6339 74.0471C16.9498 74.1258 17.1868 74.4408 16.9498 74.9921C16.7918 75.3071 16.4759 76.0158 16.4759 76.0158C16.4759 76.0158 17.0288 75.8583 17.5818 75.7796C18.1348 75.6221 18.3718 75.9371 18.4508 76.1733C18.4508 76.1733 19.3987 75.6221 20.3467 75.1496C20.8207 74.8346 21.1367 74.9921 21.1367 75.4646V76.8033C21.1367 77.5908 20.9787 78.3783 20.7417 78.8508C17.1868 78.4571 14.185 75.6221 14.185 71.8421C14.185 67.9833 17.4238 64.8333 21.4527 64.8333C25.4815 64.8333 28.7204 67.9833 28.7204 71.8421C28.7204 75.4646 25.8765 78.4571 22.2426 78.8508V79.7958C26.5085 79.4021 29.8263 76.0158 29.8263 71.8421C29.8263 67.3533 26.0345 63.8096 21.3737 63.8096C16.7918 63.8096 13 67.3533 13 71.7633C13 75.6221 15.9229 78.8508 19.7937 79.5596C20.4257 79.7171 20.8207 79.7958 21.2157 80.1896C21.6107 79.4021 21.6897 77.8271 21.6897 76.9608V75.4646Z" fill="#F01428"/>
<path d="M55.5791 76.0157V67.5107H59.7659C61.9778 67.5107 63.0048 68.4557 63.0838 69.637C63.0838 70.1882 63.0048 70.7395 62.6098 71.1332C62.2148 71.527 62.0568 71.6845 61.3459 72.0782L64.5057 76.0945H62.2148L59.371 72.472H57.475V76.0157H55.5791ZM57.475 71.3695H58.344C60.6349 71.3695 61.1089 70.9757 61.1089 69.8732C61.1089 68.7707 60.0819 68.6132 58.581 68.6132H57.475V71.3695Z" fill="white"/>
<path d="M36.8574 76.0157L40.5703 67.5107H42.8612L46.574 76.0157H44.2831L43.2562 73.732H39.3063L38.2794 76.0157H36.8574ZM39.7803 72.6295H42.7032L41.2022 69.2432L39.7803 72.6295Z" fill="white"/>
<path d="M51.1556 67.5107H49.1807V76.0157H51.1556V67.5107Z" fill="white"/>
<path d="M78.7255 75.7007C77.7775 76.0944 76.5926 76.2519 75.1706 76.2519C73.5117 76.2519 72.1687 75.8582 71.2208 75.0707C70.2728 74.2832 69.7988 73.1807 69.7988 71.7632C69.7988 70.3457 70.2728 69.1644 71.2208 68.4557C72.1687 67.6682 73.5117 67.2744 75.3286 67.2744C76.4346 67.2744 77.5405 67.3532 78.7255 67.5894V69.0069C77.4615 68.6132 76.2766 68.4557 75.4076 68.4557C74.3016 68.4557 73.5117 68.7707 72.8797 69.3219C72.3267 69.8732 72.0107 70.7394 72.0107 71.7632C72.0107 72.7869 72.3267 73.5744 72.9587 74.2044C73.5907 74.7557 74.4596 75.0707 75.5656 75.0707C76.5926 75.0707 77.6985 74.8344 78.7255 74.4407V75.7007Z" fill="white"/>
<path d="M81.1738 76.0157L84.8867 67.5107H87.1776L90.8904 76.0157H88.5995L87.5726 73.732H83.6227L82.5958 76.0157H81.1738ZM84.1757 72.6295H87.0986L85.6766 69.2432L84.1757 72.6295Z" fill="white"/>
<path d="M105.9 76.0157L109.613 67.5107H111.904L115.617 76.0157H113.326L112.299 73.732H108.349L107.322 76.0157H105.9ZM108.823 72.6295H111.746L110.245 69.2432L108.823 72.6295Z" fill="white"/>
<path d="M133.707 69.2432L135.208 72.6295H132.285L133.707 69.2432ZM133.075 67.5107L129.362 76.0157H130.784L131.811 73.732H135.761L136.788 76.0157H139.079L135.366 67.5107H133.075Z" fill="white"/>
<path d="M93.7344 76.0157V67.5107H96.0253L101.397 73.5745V67.5107H103.056V76.0157H100.923L95.3933 69.637V76.0157H93.7344Z" fill="white"/>
<path d="M118.382 76.0157V67.5107H122.49C123.991 67.5107 125.097 67.9045 125.887 68.5345C126.677 69.2432 127.071 70.267 127.071 71.527C127.071 72.9445 126.677 74.047 125.808 74.7557C124.939 75.5432 123.833 75.937 122.332 75.937H118.382V76.0157ZM120.357 74.8345H121.858C122.885 74.8345 123.675 74.5982 124.228 74.047C124.781 73.4957 125.018 72.787 125.018 71.6845C125.018 70.897 124.781 70.1882 124.386 69.637C124.07 69.2432 123.754 69.007 123.359 68.8495C122.964 68.692 122.411 68.6132 121.621 68.6132H120.436V74.8345H120.357Z" fill="white"/>
</g>
<defs>
<clipPath id="clip0_1820_1382">
<rect width="126" height="16.38" fill="white" transform="translate(13 63.8096)"/>
</clipPath>
</defs>
</svg>
