<svg width="65" height="12" viewBox="0 0 65 12" fill="none" xmlns="http://www.w3.org/2000/svg">
<path d="M3.22221 0.744141H0.333008V11.1352H3.18244C4.70517 11.1352 5.79892 10.7704 6.77619 9.92307C7.90971 8.95222 8.61142 7.4577 8.61142 5.91905C8.61142 2.88589 6.38699 0.744141 3.22221 0.744141ZM5.48926 8.54917C4.86426 9.11403 4.08301 9.35821 2.79608 9.35821H2.28755V2.48284H2.79608C4.04608 2.48284 4.82733 2.72408 5.48926 3.33307C6.19096 3.9803 6.58301 4.95115 6.58301 5.922C6.58017 6.93109 6.19096 7.94018 5.48926 8.54917Z" fill="white"/>
<path d="M11.4605 0.744141H9.50879V11.1352H11.4605V0.744141Z" fill="white"/>
<path d="M16.2646 4.70781C15.0942 4.26358 14.7419 3.98115 14.7419 3.41335C14.7419 2.76612 15.3669 2.28069 16.1879 2.28069C16.7732 2.28069 17.2419 2.52193 17.7902 3.13092L18.8044 1.71584C17.9465 0.947983 16.9692 0.541992 15.8357 0.541992C14.0402 0.541992 12.7107 1.83646 12.7107 3.53397C12.7107 4.99024 13.3357 5.71691 15.1709 6.40532C15.9521 6.68775 16.3414 6.89075 16.5374 7.01137C16.9266 7.25261 17.1226 7.6586 17.1226 8.10284C17.1226 8.95306 16.4578 9.55911 15.5999 9.55911C14.6624 9.55911 13.9209 9.07368 13.4521 8.18521L12.2021 9.3973C13.0999 10.7712 14.1936 11.3772 15.6766 11.3772C17.7078 11.3772 19.151 9.96216 19.151 7.94103C19.1539 6.32589 18.4919 5.55804 16.2646 4.70781Z" fill="white"/>
<path d="M19.7793 5.96027C19.7793 9.03463 22.0833 11.3794 25.089 11.3794C25.9469 11.3794 26.6515 11.2176 27.5492 10.7733V8.38739C26.7679 9.19643 26.0662 9.52005 25.1685 9.52005C23.177 9.52005 21.8105 8.02259 21.8105 5.92203C21.8105 3.94209 23.2566 2.36225 25.0918 2.36225C26.0293 2.36225 26.731 2.68587 27.552 3.5361V1.15016C26.6941 0.705928 25.9895 0.502932 25.1316 0.502932C22.1628 0.49999 19.7793 2.92711 19.7793 5.96027Z" fill="white"/>
<path d="M43.4036 7.74013L40.7473 0.744141H38.5996L42.8553 11.4205H43.9121L48.2445 0.744141H46.1365L43.4036 7.74013Z" fill="white"/>
<path d="M49.1426 11.1352H54.688V9.39646H51.0971V6.56629H54.5716V4.7864H51.0971V2.48284H54.688V0.744141H49.1426V11.1352Z" fill="white"/>
<path d="M62.4577 3.81556C62.4577 1.87387 61.1679 0.741211 58.9037 0.741211H55.9775V11.1322H57.9292V6.97229H58.202L60.8952 11.1381H63.3156L60.1537 6.76929C61.6395 6.44568 62.4577 5.3954 62.4577 3.81556ZM58.5145 5.51602H57.9292V2.36223H58.5145C59.7247 2.36223 60.3895 2.88884 60.3895 3.89794C60.4292 4.94822 59.7645 5.51602 58.5145 5.51602Z" fill="white"/>
<path d="M33.7188 11.498C36.6513 11.498 39.0285 9.03626 39.0285 5.99951C39.0285 2.96275 36.6513 0.500977 33.7188 0.500977C30.7864 0.500977 28.4092 2.96275 28.4092 5.99951C28.4092 9.03626 30.7864 11.498 33.7188 11.498Z" fill="url(#paint0_linear_1801_1285)"/>
<path opacity="0.65" d="M33.7188 11.501C36.6507 11.501 39.0285 9.03855 39.0285 6.00245C39.0285 2.96634 36.6535 0.500977 33.7188 0.500977C30.7842 0.500977 28.4092 2.9634 28.4092 5.99951C28.4092 9.03561 30.787 11.501 33.7188 11.501Z" fill="url(#paint1_radial_1801_1285)"/>
<path d="M63.8259 1.18966C63.8259 0.98666 63.7094 0.907227 63.4736 0.907227H63.1611V1.87807H63.3941V1.47208L63.6668 1.83689H63.9395L63.627 1.43384C63.7492 1.4309 63.8259 1.31028 63.8259 1.18966ZM63.4367 1.31028L63.3969 1.06903H63.4367C63.5532 1.06903 63.5929 1.11022 63.5929 1.18966C63.5929 1.26909 63.5134 1.31028 63.4367 1.31028Z" fill="white"/>
<path d="M63.5134 0.500977C63.0447 0.500977 62.6924 0.86578 62.6924 1.3512C62.6924 1.83663 63.0447 2.20143 63.5134 2.20143C63.9424 2.20143 64.3344 1.83663 64.3344 1.3512C64.2947 0.904026 63.9424 0.500977 63.5134 0.500977ZM63.5134 2.03668C63.1611 2.03668 62.8486 1.71307 62.8486 1.34826C62.8486 0.945213 63.1214 0.659843 63.5134 0.659843C63.8657 0.659843 64.1384 0.983459 64.1384 1.34826C64.1384 1.75425 63.8657 2.03668 63.5134 2.03668Z" fill="white"/>
<defs>
<linearGradient id="paint0_linear_1801_1285" x1="36.4377" y1="10.4078" x2="32.5758" y2="4.56904" gradientUnits="userSpaceOnUse">
<stop stop-color="#F9A020"/>
<stop offset="0.2041" stop-color="#F99D20"/>
<stop offset="0.4348" stop-color="#F79320"/>
<stop offset="0.6196" stop-color="#F68820"/>
<stop offset="0.7969" stop-color="#F57E20"/>
<stop offset="1" stop-color="#F47521"/>
</linearGradient>
<radialGradient id="paint1_radial_1801_1285" cx="0" cy="0" r="1" gradientUnits="userSpaceOnUse" gradientTransform="translate(35.8346 9.98985) rotate(-116.99) scale(9.61179 7.30646)">
<stop stop-color="#FF932C"/>
<stop offset="0.5677" stop-color="#E86D20"/>
<stop offset="0.8604" stop-color="#E85718" stop-opacity="0.8653"/>
<stop offset="1" stop-color="#640000"/>
</radialGradient>
</defs>
</svg>
