<svg width="120" height="56" viewBox="0 0 120 56" fill="none" xmlns="http://www.w3.org/2000/svg">
<g clip-path="url(#clip0_1820_1985)">
<path d="M3.5548 55.2034H0.0253906V54.6596H1.06612V45.8222H0.11589V45.2783H6.36023C7.67245 45.2783 9.4824 45.3236 9.4824 45.3236L9.8444 48.4054H9.39191L9.34666 48.2695C8.80367 46.366 8.39643 45.8222 6.36023 45.8222H2.69507V50.1276H4.86702C6.67698 50.1276 7.21996 49.9463 7.21996 48.768V48.5867H7.67245V52.1217H7.21996V51.9404C7.21996 51.0793 6.72222 50.6261 4.86702 50.6261H2.69507V54.6143H3.5548V55.2034Z" fill="white"/>
<path d="M15.7723 47.3624C13.3289 47.3624 11.9262 48.722 11.9262 51.1693C11.9262 53.5712 13.2836 54.9308 15.7723 54.9308C18.261 54.9308 19.6185 53.6166 19.6185 51.1693C19.6185 48.7673 18.2158 47.3624 15.7723 47.3624ZM15.7723 55.384C12.1977 55.384 10.252 53.2087 10.252 51.1693C10.252 48.4954 13.0574 46.9092 15.7723 46.9092C19.347 46.9092 21.2927 49.1299 21.2927 51.1693C21.2927 53.8885 18.442 55.384 15.7723 55.384Z" fill="white"/>
<path d="M27.0389 55.3844C25.048 55.3844 22.6045 54.6593 22.6045 51.2603V47.544H21.79V47.0908H25.048V47.544H24.143V51.2603C24.143 54.4327 25.9529 54.9312 27.0389 54.9312C28.7131 54.9312 30.5231 53.9795 30.5231 51.2603V47.544H29.7086V47.0908H31.6995V47.544H30.9303V51.2603C30.9303 54.2967 28.8489 55.3844 27.0389 55.3844Z" fill="white"/>
<path d="M34.7761 51.1243H37.7173C39.12 51.1243 39.7535 50.5805 39.7535 49.3568C39.7535 48.1332 39.12 47.5893 37.7173 47.5893H34.7761V51.1243ZM37.8078 51.5775H34.7761V54.7046H35.5454V55.1578H32.3779V54.7046H33.3282V47.544H32.3779V47.0908H37.7173C38.6223 47.0908 41.4277 47.0908 41.4277 49.3568C41.4277 50.3992 40.8395 51.079 39.7535 51.3962C39.7535 51.3962 39.1653 51.5775 37.8078 51.5775Z" fill="white"/>
<path d="M57.3554 46.2293L57.5817 48.6313H57.1292L56.9935 48.2234C56.36 46.4106 55.093 45.6401 53.102 45.6401C51.1111 45.6401 49.9346 46.184 49.9346 47.1357C49.9346 48.1781 51.5636 48.5859 53.3283 49.0391C55.455 49.583 57.8984 50.1721 57.8984 52.2116C57.8984 54.3416 56.2695 55.4293 53.0568 55.4293C53.0568 55.4293 50.7039 55.3386 48.8487 54.6588L48.3057 51.8037H48.7129L48.8939 52.2569C49.5726 53.8884 51.2016 54.9308 53.0568 54.9308C54.4595 54.9308 56.7672 54.6589 56.7672 52.982C56.7672 51.7584 55.0477 51.3505 53.1925 50.8973C51.0206 50.3534 48.8034 49.8549 48.8034 47.9061C48.8034 46.1386 50.3871 45.1416 53.102 45.1416C53.9165 45.1416 54.4143 45.2322 55.2287 45.4588C55.274 45.4588 56.6315 45.8214 57.3554 46.2293Z" fill="white"/>
<path d="M67.6272 55.2938C67.582 55.2938 66.1793 55.2485 65.41 55.2485H59.3467V54.7953H60.2517V47.6347H59.3467V47.1815H65.229C65.953 47.1815 66.7222 47.1815 66.9032 47.1361L67.3557 47.0908L67.6272 49.3568H67.2652L67.22 49.2209C66.7222 47.7253 65.9983 47.6347 65.229 47.6347H61.7449V50.8071H63.6906C65.0933 50.8071 65.5458 50.6258 65.5458 49.6288V49.4475H65.953V52.5746H65.5458V52.3933C65.5458 51.6228 65.0933 51.3056 63.6906 51.3056H61.7449V54.8406H65.4553C66.8127 54.8406 67.1295 54.4327 67.582 53.345L67.6272 53.2544H68.0797L67.6272 55.2938Z" fill="white"/>
<path d="M71.4285 52.0756H75.9986L73.6909 47.9515L71.4285 52.0756ZM76.6321 55.2027V54.7495H77.4918L76.2701 52.5288H71.157L69.9353 54.7495H70.795V55.2027H68.7588V54.7495H69.4828L73.4647 47.5889H72.7407V47.1357H74.9126L74.9579 47.2264L79.1208 54.7949H79.9353V55.2481L76.6321 55.2027Z" fill="white"/>
<path d="M95.1835 46.9092C92.4685 46.9092 89.6631 48.4954 89.6631 51.1693C89.6631 53.2087 91.6088 55.384 95.1835 55.384C97.8531 55.384 100.704 53.8885 100.704 51.1693C100.704 49.0845 98.8034 46.9092 95.1835 46.9092ZM95.1835 54.9308C92.6948 54.9308 91.3373 53.6166 91.3373 51.1693C91.3373 48.7673 92.74 47.3624 95.1835 47.3624C97.6269 47.3624 99.0296 48.722 99.0296 51.1693C99.0749 53.5712 97.7174 54.9308 95.1835 54.9308Z" fill="white"/>
<path d="M101.383 47.0908V47.544H102.016L102.378 47.9066V54.7499H101.428V55.2031H103.69V54.7499H102.831V48.2691L110.478 55.5204L110.568 55.611V47.544H111.292V47.0908H109.256V47.544H110.161V53.209L103.69 47.0908H101.383Z" fill="white"/>
<path d="M42.3781 54.9309C41.1564 54.8856 41.0206 54.4324 40.7039 53.7979L39.5727 51.3506H37.8984L39.9799 55.3841H42.3781V54.9309Z" fill="white"/>
<path d="M88.0797 47.9066L88.2607 49.9007H87.8987L87.8082 49.5834C87.3104 48.0879 86.2697 47.4534 84.6408 47.4534C83.0118 47.4534 82.0616 47.9066 82.0616 48.677C82.0616 49.5381 83.419 49.8553 84.8218 50.2179C86.5865 50.6711 88.5774 51.1696 88.5774 52.8465C88.5774 54.5686 87.2652 55.4751 84.5955 55.4751C84.5955 55.4751 82.6498 55.3844 81.1566 54.8406L80.7041 52.4839H81.0208L81.1566 52.8465C81.6996 54.1608 83.057 55.0672 84.5503 55.0672C85.6815 55.0672 87.5819 54.8406 87.5819 53.481C87.5819 52.4839 86.1792 52.1667 84.6408 51.8041C82.8761 51.3962 81.0661 50.943 81.0661 49.3568C81.0661 47.9066 82.3331 47.0908 84.5955 47.0908C85.2742 47.0908 85.6815 47.1815 86.315 47.3627C86.3602 47.2721 87.4462 47.5893 88.0797 47.9066Z" fill="white"/>
<path d="M119.573 47.9066L119.754 49.9007H119.392L119.301 49.5834C118.804 48.0879 117.763 47.4534 116.134 47.4534C114.505 47.4534 113.555 47.9066 113.555 48.677C113.555 49.5381 114.912 49.8553 116.315 50.2179C118.08 50.6711 120.071 51.1696 120.071 52.8465C120.071 54.5686 118.713 55.4751 116.089 55.4751C116.089 55.4751 114.143 55.3844 112.65 54.8406L112.197 52.4839H112.514L112.65 52.8465C113.193 54.1608 114.55 55.0672 116.043 55.0672C117.175 55.0672 119.075 54.8406 119.075 53.481C119.075 52.4839 117.672 52.1667 116.134 51.8041C114.369 51.3962 112.559 50.943 112.559 49.3568C112.559 47.9066 113.826 47.0908 116.089 47.0908C116.767 47.0908 117.175 47.1815 117.808 47.3627C117.808 47.2721 118.939 47.5893 119.573 47.9066Z" fill="white"/>
<path d="M72.876 23.5693C72.1973 23.8413 71.7448 24.3398 71.9258 25.2462C72.7403 24.9289 72.9665 24.2945 72.876 23.5693Z" fill="white"/>
<path d="M70.1162 24.0684C70.252 24.7935 70.6592 25.3373 71.5189 25.3373C71.4284 24.4762 70.8402 24.1137 70.1162 24.0684Z" fill="white"/>
<path d="M71.5189 27.603C71.4737 26.7419 70.8854 26.3793 70.1162 26.334C70.2067 27.0591 70.5687 27.603 71.5189 27.603Z" fill="white"/>
<path d="M68.9847 16.0469C68.2608 16.0922 67.6725 16.4548 67.582 17.3158C68.4418 17.3158 68.849 16.772 68.9847 16.0469Z" fill="white"/>
<path d="M65.5908 15.3662C65.7266 16.0913 66.1338 16.6352 66.9935 16.6352C66.903 15.8194 66.3601 15.4569 65.5908 15.3662Z" fill="white"/>
<path d="M65.4102 12.6928C66.2699 12.6928 66.6771 12.149 66.8129 11.4238C66.0889 11.4691 65.5007 11.8317 65.4102 12.6928Z" fill="white"/>
<path d="M66.0889 9.47461C65.4102 9.79185 64.9577 10.2904 65.1387 11.1514C65.9984 10.8342 66.1794 10.1997 66.0889 9.47461Z" fill="white"/>
<path d="M63.6455 10.0645C63.6908 10.7896 64.0075 11.3787 64.8672 11.5147C64.8672 10.6989 64.3695 10.2457 63.6455 10.0645Z" fill="white"/>
<path d="M63.2832 7.9799C64.1429 7.9799 64.5502 7.43606 64.6859 6.71094C63.9619 6.75626 63.4189 7.11881 63.2832 7.9799Z" fill="white"/>
<path d="M64.053 4.94336C63.4195 5.30592 63.0122 5.84976 63.2837 6.71084C64.053 6.30296 64.234 5.66848 64.053 4.94336Z" fill="white"/>
<path d="M63.0567 7.29985C63.1019 6.43876 62.5589 5.98557 61.835 5.84961C61.8802 6.57473 62.197 7.16389 63.0567 7.29985Z" fill="white"/>
<path d="M62.559 8.56878C62.4685 7.70769 61.8802 7.34512 61.1562 7.2998C61.292 8.02493 61.6992 8.56878 62.559 8.56878Z" fill="white"/>
<path d="M60.2513 10.2905C60.5228 10.1092 63.1925 8.56834 63.1925 8.56834C63.1925 8.56834 63.1925 8.56834 63.1925 8.52302L63.0567 7.57129C63.0567 7.57129 63.102 7.97918 63.102 8.11514C63.102 8.29642 63.0567 8.34173 62.921 8.43237L59.9346 9.97327C59.9346 10.1999 59.9346 10.4265 59.9346 10.6984C59.9798 10.5624 60.0703 10.4265 60.2513 10.2905Z" fill="white"/>
<path d="M59.5726 1.72501C59.4821 0.863931 58.8939 0.501375 58.1699 0.456055C58.3057 1.18118 58.7129 1.72501 59.5726 1.72501Z" fill="white"/>
<path d="M59.5726 3.17522C59.4821 2.31414 58.8939 1.95157 58.1699 1.90625C58.3057 2.58605 58.7129 3.1299 59.5726 3.17522Z" fill="white"/>
<path d="M59.5277 4.58048C59.4372 3.7194 58.849 3.35684 58.125 3.31152C58.2607 4.03665 58.668 4.53516 59.5277 4.58048Z" fill="white"/>
<path d="M59.5277 5.98576C59.4372 5.12467 58.849 4.76212 58.125 4.7168C58.2607 5.44192 58.668 5.98576 59.5277 5.98576Z" fill="white"/>
<path d="M59.4828 7.39005C59.3923 6.52897 58.8041 6.16641 58.0801 6.12109C58.2158 6.84622 58.6231 7.39005 59.4828 7.39005Z" fill="white"/>
<path d="M59.4828 8.84026C59.3923 7.97918 58.8041 7.61661 58.0801 7.57129C58.2158 8.29641 58.6231 8.79494 59.4828 8.84026Z" fill="white"/>
<path d="M57.5818 5.57715C56.8578 5.80375 56.4054 6.25695 56.4958 7.16336C57.3556 6.93675 57.6271 6.34759 57.5818 5.57715Z" fill="white"/>
<path d="M56.541 8.20646C57.4007 8.20646 57.808 7.66262 57.9437 6.9375C57.2197 6.98282 56.6315 7.34538 56.541 8.20646Z" fill="white"/>
<path d="M56.1793 7.345C56.315 6.48391 55.8173 5.98539 55.1386 5.75879C55.0933 6.48391 55.3648 7.07307 56.1793 7.345Z" fill="white"/>
<path d="M55.9984 8.2963C55.9079 7.43522 55.3197 7.07266 54.5957 7.02734C54.7314 7.75247 55.1387 8.2963 55.9984 8.2963Z" fill="white"/>
<path d="M58.0795 12.2852C57.3555 12.3305 56.7673 12.693 56.6768 13.5541C57.5365 13.5541 57.9437 13.0103 58.0795 12.2852Z" fill="white"/>
<path d="M55.6367 13.0551C56.4964 13.0551 56.9037 12.5113 57.0394 11.7861C56.3154 11.8315 55.7272 12.194 55.6367 13.0551Z" fill="white"/>
<path d="M59.1205 12.8291C58.3965 12.8744 57.8083 13.237 57.7178 14.0981C58.5775 14.0981 58.9847 13.5542 59.1205 12.8291Z" fill="white"/>
<path d="M57.2656 11.3783C58.1254 11.3783 58.5326 10.8345 58.6683 10.1094C57.9444 10.1547 57.3561 10.5173 57.2656 11.3783Z" fill="white"/>
<path d="M56.2695 10.7895C57.1293 10.7895 57.5365 10.2456 57.6722 9.52051C56.9483 9.56583 56.36 9.92838 56.2695 10.7895Z" fill="white"/>
<path d="M55.2744 10.1996C56.1341 10.1996 56.5414 9.65579 56.6771 8.93066C55.9531 8.97598 55.3649 9.33855 55.2744 10.1996Z" fill="white"/>
<path d="M55.9984 11.1973C55.2744 11.2426 54.6862 11.6052 54.5957 12.4662C55.5007 12.4662 55.8627 11.9224 55.9984 11.1973Z" fill="white"/>
<path d="M54.3243 11.1067C54.4147 10.2456 53.9623 9.74711 53.2383 9.52051C53.2383 10.291 53.5098 10.8801 54.3243 11.1067Z" fill="white"/>
<path d="M54.098 12.4203C54.0075 11.5593 53.4193 11.1967 52.6953 11.1514C52.7858 11.8765 53.193 12.4203 54.098 12.4203Z" fill="white"/>
<path d="M54.8217 16.8623C54.0977 16.9076 53.5094 17.2702 53.4189 18.1313C54.2787 18.1313 54.6859 17.6327 54.8217 16.8623Z" fill="white"/>
<path d="M52.4238 17.5873C53.2836 17.5873 53.6908 17.0435 53.8265 16.3184C53.0573 16.3637 52.5143 16.7262 52.4238 17.5873Z" fill="white"/>
<path d="M55.8627 17.4062C55.1387 17.4516 54.5505 17.8141 54.46 18.6752C55.3197 18.6752 55.7269 18.1767 55.8627 17.4062Z" fill="white"/>
<path d="M56.9037 17.9502C56.1797 17.9955 55.5915 18.3581 55.501 19.2192C56.3607 19.2192 56.7679 18.6753 56.9037 17.9502Z" fill="white"/>
<path d="M57.9437 18.4941C57.2197 18.5395 56.6315 18.902 56.541 19.7631C57.4007 19.7631 57.808 19.2193 57.9437 18.4941Z" fill="white"/>
<path d="M58.9398 19.0371C58.2158 19.0824 57.6276 19.445 57.5371 20.3061C58.4421 20.3061 58.8493 19.7622 58.9398 19.0371Z" fill="white"/>
<path d="M57.4912 16.9076C58.3509 16.9076 58.7582 16.3638 58.8939 15.6387C58.1247 15.684 57.5817 16.0465 57.4912 16.9076Z" fill="white"/>
<path d="M56.4961 16.3188C57.3558 16.3188 57.7631 15.7749 57.8988 15.0498C57.1296 15.0951 56.5866 15.4577 56.4961 16.3188Z" fill="white"/>
<path d="M55.501 15.7289C56.3607 15.7289 56.7679 15.1851 56.9037 14.46C56.1345 14.5053 55.5915 14.8678 55.501 15.7289Z" fill="white"/>
<path d="M54.5049 15.1401C55.3646 15.1401 55.7718 14.5962 55.9076 13.8711C55.1384 13.9164 54.5954 14.279 54.5049 15.1401Z" fill="white"/>
<path d="M53.5098 14.5512C54.3695 14.5512 54.7767 14.0073 54.9125 13.2822C54.1433 13.3275 53.6003 13.6901 53.5098 14.5512Z" fill="white"/>
<path d="M53.7806 15.0039C53.0567 15.0492 52.4684 15.4118 52.3779 16.2729C53.2377 16.2729 53.6449 15.729 53.7806 15.0039Z" fill="white"/>
<path d="M52.1975 15.5483C52.4238 14.6873 52.0165 14.1887 51.3378 13.8262C51.2021 14.5966 51.3831 15.2311 52.1975 15.5483Z" fill="white"/>
<path d="M51.9711 16.6811C51.8806 15.82 51.2923 15.4574 50.5684 15.4121C50.7041 16.1372 51.1113 16.6811 51.9711 16.6811Z" fill="white"/>
<path d="M51.7904 17.9955C51.6999 17.1344 51.1117 16.7719 50.3877 16.7266C50.4782 17.4064 50.8854 17.9502 51.7904 17.9955Z" fill="white"/>
<path d="M54.1885 21.5756C55.0482 21.5756 55.4554 21.0318 55.5912 20.3066C54.8672 20.352 54.3242 20.7145 54.1885 21.5756Z" fill="white"/>
<path d="M54.1885 23.5698C55.0482 23.5698 55.4554 23.0259 55.5912 22.3008C54.8672 22.3461 54.3242 22.7087 54.1885 23.5698Z" fill="white"/>
<path d="M53.2383 20.9867C54.098 20.9867 54.5052 20.4429 54.641 19.7178C53.8718 19.7631 53.3288 20.1256 53.2383 20.9867Z" fill="white"/>
<path d="M52.2422 20.3969C53.1019 20.3969 53.5092 19.8531 53.6449 19.1279C52.9209 19.1732 52.3327 19.5358 52.2422 20.3969Z" fill="white"/>
<path d="M51.2471 19.808C52.1068 19.808 52.514 19.2642 52.6498 18.5391C51.9258 18.5844 51.3376 18.9469 51.2471 19.808Z" fill="white"/>
<path d="M71.6997 25.3371C71.6997 25.3371 71.8354 26.7873 71.7902 27.3765C71.7449 28.0563 71.6544 28.2829 71.1567 28.6001L60.3422 34.1292C60.3422 33.0868 60.297 31.8632 60.297 30.5036V30.141C60.297 29.4159 60.478 29.008 61.3377 28.4642C62.0617 28.011 70.0707 23.2977 70.0707 23.2977C70.0707 23.2977 70.116 23.2523 70.116 23.207L69.754 20.3518H69.6182C69.6182 20.3518 69.7087 21.5302 69.7087 22.0287C69.6635 22.5725 69.6182 22.7538 69.1658 23.0257L60.2065 27.6484C60.1612 26.2888 60.1612 24.8385 60.116 23.343V22.9351C60.116 22.4819 60.297 22.21 60.8852 21.8474C61.4282 21.4848 67.4011 17.9952 67.4011 17.9952C67.4011 17.9952 67.4463 17.9499 67.4463 17.9046L67.1748 15.7745H67.0843C67.0843 15.7745 67.1748 16.6809 67.1296 17.0435C67.0843 17.4513 67.0391 17.5873 66.7223 17.8139L60.0707 21.2582C60.0255 19.5814 60.0255 17.9046 59.9802 16.273C60.0255 16.0464 60.1612 15.7292 60.5232 15.5026C60.9305 15.2307 65.1839 12.738 65.1839 12.738C65.1839 12.738 65.2291 12.7381 65.2291 12.6927L65.0481 11.1972H65.0029C65.0029 11.1972 65.0481 11.8316 65.0481 12.1036C65.0481 12.3755 65.0029 12.5115 64.7766 12.6474L60.0255 15.0947C59.9802 13.5538 59.9802 12.0583 59.935 10.6533C59.935 10.4267 59.935 10.2001 59.935 9.9282C59.8445 4.44446 59.754 0.365635 59.754 0.365635C59.754 0.320315 59.754 0.320312 59.7087 0.320312C59.6635 0.320312 59.6635 0.320315 59.6635 0.365635C59.6635 0.365635 59.573 4.44446 59.4825 9.9282L56.4961 8.38732C56.3603 8.29668 56.3151 8.25135 56.3151 8.07007C56.3151 7.88879 56.3603 7.52622 56.3603 7.52622H56.3151L56.1793 8.47795V8.52327C56.1793 8.52327 58.8943 10.1095 59.1205 10.2454C59.3015 10.3361 59.392 10.472 59.4372 10.608C59.392 12.0129 59.392 13.5085 59.3468 15.0494L54.5956 12.6021C54.3694 12.4661 54.3241 12.3755 54.3241 12.0582C54.3241 11.7863 54.3694 11.1518 54.3694 11.1518H54.3241L54.1431 12.6474C54.1431 12.6927 54.1431 12.6927 54.1884 12.6927C54.1884 12.6927 58.4418 15.1853 58.849 15.4573C59.1658 15.6839 59.3467 15.9558 59.392 16.1824C59.3467 17.8592 59.3468 19.5361 59.3015 21.2129L52.6499 17.7686C52.3332 17.5873 52.2879 17.406 52.2427 16.9982C52.1974 16.6356 52.2879 15.7292 52.2879 15.7292H52.1974L51.9259 17.8592C51.9259 17.9046 51.9259 17.9045 51.9712 17.9499C51.9712 17.9499 57.944 21.4395 58.487 21.8021C59.0753 22.1646 59.2563 22.4819 59.2563 22.9351V23.343C59.211 24.7932 59.211 26.1981 59.1658 27.5578L50.2065 22.9351C49.7992 22.6632 49.7087 22.4819 49.6635 21.9381C49.6182 21.4395 49.754 20.2612 49.754 20.2612H49.6182L49.2563 23.1164C49.2563 23.1617 49.3015 23.207 49.3015 23.207C49.3015 23.207 57.3105 27.875 58.0345 28.3735C58.8943 28.9174 59.0753 29.3252 59.0753 30.0504C59.03 31.5006 59.03 32.8602 58.9848 33.9932L48.1703 28.4188C47.6725 28.1016 47.582 27.875 47.5368 27.1952C47.4915 26.606 47.6273 25.1558 47.6273 25.1558H47.4916L47.0391 28.6001C47.0391 28.6908 47.0843 28.6908 47.0843 28.7361C47.0843 28.7361 56.7676 34.4011 57.6725 34.9903C58.7133 35.6701 58.9395 35.7154 58.9395 36.939C58.9395 36.9844 58.9395 38.3893 58.9395 38.4799C58.9395 39.5676 58.0798 39.5676 58.0798 39.5676V39.7942H61.202V39.5676C61.202 39.5676 60.3422 39.5223 60.3422 38.4799C60.3422 38.4346 60.3422 37.075 60.3422 36.939C60.3422 35.7154 60.5685 35.6701 61.6092 34.9903C62.5142 34.4011 72.1974 28.7361 72.1974 28.7361C72.1974 28.7361 72.2427 28.6908 72.2427 28.6001L71.7902 25.1558L71.6997 25.3371Z" fill="white"/>
<path d="M56.2695 22.7992C57.1293 22.7992 57.5365 22.2554 57.6722 21.5303C56.903 21.5756 56.36 21.8928 56.2695 22.7992Z" fill="white"/>
<path d="M58.6683 22.1191C57.9444 22.1645 57.3561 22.527 57.2656 23.3881C58.1254 23.4334 58.5326 22.8896 58.6683 22.1191Z" fill="white"/>
<path d="M63.9166 19.2189C64.5954 18.675 64.5954 17.9952 64.2334 17.3154C63.6904 17.8593 63.4642 18.4938 63.9166 19.2189Z" fill="white"/>
<path d="M62.5137 18.2676C61.9707 18.7661 61.7444 19.4006 62.1969 20.171C62.8304 19.6272 62.8304 18.9474 62.5137 18.2676Z" fill="white"/>
<path d="M60.6592 15.6836C60.7949 16.4087 61.2022 16.9526 62.0619 16.9526C61.9714 16.0915 61.3832 15.7289 60.6592 15.6836Z" fill="white"/>
<path d="M65.681 21.4399C65.5905 20.5788 65.0023 20.2162 64.2783 20.1709C64.3688 20.896 64.7761 21.4399 65.681 21.4399Z" fill="white"/>
<path d="M63.9164 22.391C63.8259 21.53 63.2377 21.1674 62.5137 21.1221C62.6042 21.8472 63.0114 22.391 63.9164 22.391Z" fill="white"/>
<path d="M68.849 29.5067C68.7585 28.6456 68.1703 28.283 67.4463 28.1924C67.582 28.9628 67.9893 29.4613 68.849 29.5067Z" fill="white"/>
<path d="M66.8129 30.4125C66.7224 29.5514 66.1341 29.1889 65.4102 29.1436C65.5459 29.8687 65.9531 30.4125 66.8129 30.4125Z" fill="white"/>
<path d="M64.46 26.9688C64.5957 27.6939 65.0029 28.2377 65.8627 28.2377C65.7722 27.3766 65.2292 27.0141 64.46 26.9688Z" fill="white"/>
<path d="M63.1478 32.3162C63.0573 31.4552 62.4691 31.0926 61.7451 31.002C61.8809 31.7724 62.2429 32.3162 63.1478 32.3162Z" fill="white"/>
<path d="M70.9305 30.1406C70.7947 31.0017 71.2925 31.4549 72.0617 31.6815C72.107 30.9111 71.8355 30.3219 70.9305 30.1406Z" fill="white"/>
<path d="M68.9844 31.5459C69.0296 32.407 69.6179 32.7696 70.3871 32.8602C70.3418 32.0898 69.9346 31.5459 68.9844 31.5459Z" fill="white"/>
<path d="M66.0433 34.4009C66.8578 34.0836 67.0388 33.4038 66.903 32.6787C66.2243 32.996 65.8171 33.5398 66.0433 34.4009Z" fill="white"/>
<path d="M69.5277 21.1225C69.4372 20.2614 68.849 19.8988 68.125 19.8535C68.2155 20.5786 68.6227 21.1225 69.5277 21.1225Z" fill="white"/>
<path d="M69.4369 22.4369C69.3464 21.5759 68.7582 21.2133 68.0342 21.168C68.1699 21.8478 68.5772 22.3916 69.4369 22.4369Z" fill="white"/>
<path d="M70.2061 23.2973C71.0658 23.2973 71.473 22.7534 71.6088 22.0283C70.8848 22.0736 70.2966 22.3909 70.2061 23.2973Z" fill="white"/>
<path d="M71.4281 19.8535C70.7041 19.8988 70.1159 20.2614 70.0254 21.1225C70.8851 21.1225 71.2924 20.5786 71.4281 19.8535Z" fill="white"/>
</g>
<defs>
<clipPath id="clip0_1820_1985">
<rect width="120" height="55.2" fill="white" transform="translate(0 0.400391)"/>
</clipPath>
</defs>
</svg>
