<svg width="120" height="34" viewBox="0 0 120 34" fill="none" xmlns="http://www.w3.org/2000/svg">
<path d="M114.489 15.2598H110.744L105.418 22.6932L100.092 15.2598H96.3213L103.599 25.4676V33.7909H107.027V25.6247H107.106L114.489 15.2598Z" fill="white"/>
<path d="M13.2103 24.0804L12.9466 23.8972L13.1575 23.6878C14.0541 22.7455 14.5287 21.5677 14.5287 20.3899C14.5287 17.5631 11.8919 15.2598 8.67502 15.2598H0V33.6339H9.20237C12.6038 33.6339 15.3724 31.1997 15.3724 28.2159C15.3724 26.6454 14.5814 25.1274 13.2103 24.0804ZM3.24324 17.9295H8.70138C10.2044 17.9295 11.4436 19.0026 11.4436 20.3637C11.4436 21.6986 10.2307 22.7979 8.70138 22.7979H3.24324V17.9295ZM9.20237 30.938H3.24324V25.4938H9.20237C10.8899 25.4938 12.3138 26.6978 12.3138 28.2159C12.2874 29.7078 10.8899 30.938 9.20237 30.938Z" fill="white"/>
<path d="M69.4533 27.483L64.0743 15.2598H60.5146L68.6887 33.6077H70.1653L78.3657 15.2598H74.7796L69.4533 27.483Z" fill="white"/>
<path d="M28.2659 14.8926C22.9396 14.8926 18.6416 19.1589 18.6416 24.4461C18.6416 29.7332 22.9659 33.9996 28.2659 33.9996C33.5922 33.9996 37.8901 29.7332 37.8901 24.4461C37.8901 19.1589 33.6185 14.8926 28.2659 14.8926ZM28.2659 30.8587C24.7062 30.8587 21.8057 28.0057 21.8057 24.4461C21.8057 20.8864 24.6798 18.0335 28.2659 18.0335C31.8519 18.0335 34.726 20.8864 34.726 24.4461C34.7523 27.9534 31.8519 30.8587 28.2659 30.8587Z" fill="white"/>
<path d="M53.9222 27.0904L43.375 15.2598H41.793V33.6077H45.0098V21.7771L55.5306 33.6077H57.1654V15.2598H53.9222V27.0904Z" fill="white"/>
<path d="M95.7943 30.9375H79.5254V33.6334H95.7943V30.9375Z" fill="#FF9662"/>
<path d="M87.4884 15.1807C83.9288 15.1807 81.0283 18.0336 81.0283 21.5933C81.0283 25.153 83.9024 28.0059 87.4884 28.0059C91.0745 28.0059 93.9486 25.153 93.9486 21.5933C93.9486 18.0336 91.0745 15.1807 87.4884 15.1807ZM87.4884 25.2838C85.4317 25.2838 83.7706 23.6349 83.7706 21.5933C83.7706 19.5517 85.4317 17.9028 87.4884 17.9028C89.5451 17.9028 91.2063 19.5517 91.2063 21.5933C91.259 23.6349 89.5451 25.2838 87.4884 25.2838Z" fill="white"/>
<path d="M17.5342 3.35024V9.57965H15.7939V0.392578H17.7452L20.5929 5.47033L23.4406 0.392578H25.3918V9.57965H23.6516V3.35024L21.1994 7.79981H19.9864L17.5342 3.35024Z" fill="white"/>
<path d="M91.1533 0.470703V2.04114H93.8956V9.65777H95.6359V2.04114H98.3781V0.470703H91.1533Z" fill="white"/>
<path d="M81.1602 0.470703V2.04114H83.9024V9.65777H85.6163V2.04114H88.3322V0.470703H81.1602Z" fill="white"/>
<path d="M65.8409 0.418945H64.1006V9.60601H65.8409V0.418945Z" fill="white"/>
<path d="M42.584 5.86294H43.9815L46.5656 9.57964H48.5432L45.9064 5.81059C47.383 5.6012 48.5432 4.47572 48.5432 3.11467C48.5432 1.62276 47.1457 0.392578 45.4318 0.392578H40.8174V9.57964H42.5577C42.584 9.63199 42.584 5.86294 42.584 5.86294ZM42.584 1.85832H45.4581C46.2492 1.85832 46.9083 2.43415 46.9083 3.14085C46.9083 3.84754 46.2492 4.42337 45.4581 4.42337H42.584V1.85832Z" fill="white"/>
<path d="M33.3819 3.45493L34.7267 6.36025H32.0108L33.3819 3.45493ZM32.9864 0.392578L28.6885 9.57965H30.5342L31.3516 7.82599H35.4386L36.256 9.57965H38.1018L33.8302 0.392578H32.9864Z" fill="white"/>
<path d="M57.1652 0.392578H52.5508V9.57965H54.2911V5.86294H55.6886L58.2726 9.57965H60.2502L57.6134 5.81059C59.09 5.6012 60.2502 4.47572 60.2502 3.11467C60.3029 1.59658 58.8791 0.392578 57.1652 0.392578ZM58.6417 3.11467C58.6417 3.82137 57.9826 4.3972 57.1915 4.3972H54.3174V1.85832H57.1915C57.9826 1.85832 58.6417 2.43415 58.6417 3.11467Z" fill="white"/>
<path d="M74.2521 0C71.5889 0 69.4268 2.14627 69.4268 4.76366C69.4268 7.40724 71.5889 9.52733 74.2521 9.52733C76.9152 9.52733 79.0774 7.38106 79.0774 4.76366C79.0774 2.14627 76.9152 0 74.2521 0ZM74.2521 7.85219C72.5645 7.85219 71.1407 6.49115 71.1407 4.76366C71.1407 3.08853 72.5118 1.67513 74.2521 1.67513C75.9396 1.67513 77.3635 3.03618 77.3635 4.76366C77.3635 6.49115 75.9396 7.85219 74.2521 7.85219Z" fill="white"/>
<path d="M116.44 15.4949H115.676V15.207H117.495V15.4949H116.757V17.5365H116.44V15.4949Z" fill="white"/>
<path d="M118.049 17.5365H117.759V15.207H118.233L118.814 16.9607C118.84 17.0392 118.84 17.0916 118.893 17.1439C118.893 17.0654 118.919 17.013 118.919 16.9607L119.525 15.207H120V17.5365H119.684V15.5735C119.684 15.652 119.657 15.7043 119.605 15.7829L118.998 17.5365H118.708L118.128 15.7829C118.102 15.7043 118.102 15.652 118.102 15.5735V17.5365H118.049Z" fill="white"/>
</svg>
