<svg width="102" height="52" viewBox="0 0 102 52" fill="none" xmlns="http://www.w3.org/2000/svg">
<path d="M1.65835 1.82993H96.3251V34.7706H1.65835V1.82993ZM0 36.4375H98.013V0.177727H0V36.4375Z" fill="white"/>
<path d="M26.2299 9.65592V26.9228L27.5921 27.0999V28.1104H20.8698V27.0999L22.3209 26.9228V19.0602H13.7108V26.9228L15.036 27.0999V28.1104H8.4248V27.0999L9.75001 26.9228V9.65592L8.4248 9.47891V8.49055H15.036V9.47891L13.7108 9.65592V17.0318H22.3135V9.65592L20.8624 9.47891V8.49055H27.5847V9.47891L26.2299 9.65592Z" fill="white"/>
<path d="M35.4031 27.0482L36.6691 27.2252V28.1104H30.4873V27.2252L31.7533 27.0482V15.2173L30.4873 15.0403V14.1552H35.4031V27.0482Z" fill="white"/>
<path d="M39.3564 27.2546L40.5928 27.085V9.53782L39.3564 9.36078V8.49781H44.2723V27.085L45.5382 27.2546V28.125H39.3564V27.2546Z" fill="white"/>
<path d="M53.0597 14.1481H56.3764V15.4536H53.0597V23.7589C53.0597 25.9052 53.5039 26.5912 55.4658 26.5912C56.1913 26.5912 56.828 26.5912 57.4277 26.4363V27.3952C55.6435 28.0221 54.1406 28.2803 52.8746 28.2803C50.0317 28.2803 49.3802 27.0042 49.3802 24.5628V15.4536H46.7891V14.1481H49.4765V11.2346L53.0671 10.1651V14.1481" fill="white"/>
<path d="M73.0047 21.266C73.0047 25.6178 70.0508 28.5312 65.4015 28.5312C60.9077 28.5312 58.0352 26.6283 58.0352 21.266C58.0352 16.7741 60.9891 13.7648 65.6384 13.7648C70.2359 13.7574 73.0047 16.4791 73.0047 21.266ZM68.9699 21.1775C68.9699 16.7667 67.6447 14.8416 65.5051 14.8416C63.4174 14.8416 62.0922 16.6856 62.0922 21.1775C62.0922 25.6178 63.4174 27.4617 65.5051 27.4617C67.7335 27.4617 68.9699 25.6989 68.9699 21.1775Z" fill="white"/>
<path d="M89.7951 27.2252V28.1104H83.6133V27.2252L84.8496 27.0482V19.097C84.8496 16.8916 84.0279 15.9033 82.3473 15.9033C81.57 15.9033 80.3262 16.4417 79.423 17.0687V27.0409L80.689 27.2179V28.103H74.4775V27.2179L75.7435 27.0409V15.3058L74.4775 15.1288V14.1405H79.423V16.0803C80.9555 14.8633 82.4435 13.8749 84.5165 13.8749C87.2853 13.8749 88.5291 15.4829 88.5291 18.6471V27.0556L89.7951 27.2252Z" fill="white"/>
<path d="M35.5875 10.4603C35.5875 11.5446 34.6991 12.4297 33.596 12.4297C32.4929 12.4297 31.6045 11.5593 31.6045 10.4603C31.6045 9.37608 32.4929 8.49098 33.596 8.49098C34.6991 8.49098 35.5875 9.37608 35.5875 10.4603Z" fill="white"/>
<path d="M100.486 1.24741H100.775C100.967 1.24741 101.041 1.18841 101.041 1.05565C101.041 0.922882 100.974 0.863867 100.775 0.863867H100.486V1.24741ZM101.3 1.0409C101.3 1.23267 101.219 1.3433 101.048 1.40231L101.352 1.84486H101.071L100.789 1.43919H100.486V1.84486H100.249V0.649974H100.775C101.145 0.649974 101.3 0.775368 101.3 1.0409ZM99.7677 1.26218C99.7677 1.80061 100.212 2.25792 100.767 2.25792C101.308 2.25792 101.767 1.81537 101.767 1.26218C101.767 0.723737 101.322 0.266433 100.767 0.266433C100.212 0.266433 99.7677 0.708985 99.7677 1.26218ZM102.018 1.26218C102.018 1.95551 101.448 2.52344 100.752 2.52344C100.056 2.52344 99.4863 1.95551 99.4863 1.26218C99.4863 0.568844 100.056 0.000894547 100.752 0.000894547C101.463 0.000894547 102.018 0.554092 102.018 1.26218Z" fill="white"/>
<path d="M3.57573 51.8311H2.08765C1.91737 51.8311 1.83594 51.7499 1.83594 51.5803V43.5111C1.83594 43.3414 1.91737 43.2603 2.08765 43.2603H7.46249C7.63277 43.2603 7.7142 43.3414 7.7142 43.5111V44.8166C7.7142 44.9863 7.63277 45.0674 7.46249 45.0674H3.82744V47.1326H6.56668C6.73696 47.1326 6.8184 47.2138 6.8184 47.3834V48.5931C6.8184 48.7627 6.73696 48.8438 6.56668 48.8438H3.82744V51.6319C3.82744 51.7647 3.746 51.8311 3.57573 51.8311Z" fill="white"/>
<path d="M14.8288 49.7661C15.2063 49.5448 15.4951 49.2424 15.7172 48.8515C15.9393 48.4606 16.0503 48.0328 16.0503 47.5607C16.0503 47.0887 15.9393 46.6609 15.7172 46.2699C15.4951 45.879 15.1915 45.5766 14.814 45.3553C14.4364 45.134 14.0366 45.0234 13.5998 45.0234C13.1704 45.0234 12.7484 45.134 12.3857 45.3553C12.0081 45.5766 11.7194 45.879 11.4973 46.2699C11.2752 46.6609 11.1641 47.0887 11.1641 47.5607C11.1641 48.0328 11.2752 48.4606 11.4973 48.8515C11.7194 49.2424 12.0229 49.5448 12.4005 49.7661C12.778 49.9874 13.1778 50.098 13.6146 50.098C14.044 50.098 14.4512 49.9874 14.8288 49.7661ZM11.3492 51.4035C10.6681 50.9979 10.1276 50.4742 9.73526 49.7956C9.34288 49.117 9.15039 48.3647 9.15039 47.546C9.15039 46.7272 9.34288 45.9896 9.73526 45.3111C10.1276 44.6325 10.6681 44.1014 11.3492 43.7031C12.0303 43.3122 12.7854 43.1204 13.622 43.1204C14.4438 43.1204 15.1915 43.3122 15.88 43.7031C16.5612 44.094 17.1016 44.6325 17.494 45.3111C17.8864 45.9896 18.0788 46.742 18.0788 47.546C18.0788 48.3647 17.8864 49.1023 17.494 49.7956C17.1016 50.4742 16.5612 51.0126 15.88 51.4035C15.1989 51.8092 14.4438 52.001 13.622 52.001C12.778 51.9862 12.0303 51.7945 11.3492 51.4035Z" fill="white"/>
<path d="M24.1572 47.1843C24.3349 47.0736 24.4756 46.9335 24.5718 46.7565C24.668 46.5794 24.7273 46.3803 24.7273 46.159C24.7273 45.923 24.668 45.7165 24.5718 45.5321C24.4756 45.3624 24.3349 45.2297 24.1572 45.1411C23.9869 45.06 23.7945 45.0158 23.5724 45.0158H22.0695V47.3318H23.5427C23.7648 47.3392 23.9721 47.2949 24.1572 47.1843ZM20.0928 51.595V43.5258C20.0928 43.3562 20.1742 43.275 20.3445 43.275H23.7426C24.3275 43.275 24.8531 43.4004 25.3047 43.6365C25.7637 43.8872 26.1117 44.2192 26.3634 44.647C26.6151 45.0748 26.741 45.5763 26.741 46.1443C26.741 46.6975 26.6299 47.1695 26.393 47.5604C26.1561 47.9514 25.8378 48.2685 25.401 48.5193L26.9039 51.5434C26.9335 51.6024 26.9483 51.6393 26.9483 51.6688C26.9483 51.7278 26.9335 51.7499 26.8891 51.7794C26.8446 51.8089 26.7928 51.8237 26.7336 51.8237H25.0234C24.8827 51.8237 24.7865 51.7647 24.7347 51.6467L23.5131 49.0282H22.0769V51.5803C22.0769 51.7499 21.9954 51.8311 21.8252 51.8311H20.3371C20.1594 51.8311 20.0928 51.7647 20.0928 51.595Z" fill="white"/>
<path d="M36.9207 51.8311H35.4326C35.2624 51.8311 35.1809 51.7499 35.1809 51.5803V45.1043H33.0339C32.8637 45.1043 32.7822 45.0231 32.7822 44.8535V43.4963C32.7822 43.3267 32.8637 43.2456 33.0339 43.2456H39.312C39.4823 43.2456 39.5637 43.3267 39.5637 43.4963V44.8535C39.5637 45.0231 39.4823 45.1043 39.312 45.1043H37.1576V51.5803C37.1724 51.7647 37.091 51.8311 36.9207 51.8311Z" fill="white"/>
<path d="M43.606 51.8311H42.1179C41.9476 51.8311 41.8662 51.7499 41.8662 51.5803V43.5111C41.8662 43.3414 41.9476 43.2603 42.1179 43.2603H43.606C43.7763 43.2603 43.8577 43.3414 43.8577 43.5111V46.4245H47.3521V43.5111C47.3521 43.3414 47.4335 43.2603 47.6038 43.2603H49.1067C49.277 43.2603 49.3584 43.3414 49.3584 43.5111V51.5803C49.3584 51.7499 49.277 51.8311 49.1067 51.8311H47.6038C47.4335 51.8311 47.3521 51.7499 47.3521 51.5803V48.3054H43.8577V51.5803C43.8429 51.7647 43.7689 51.8311 43.606 51.8311Z" fill="white"/>
<path d="M58.3606 51.8311H52.5564C52.3861 51.8311 52.3047 51.7499 52.3047 51.5803V43.5111C52.3047 43.3414 52.3861 43.2603 52.5564 43.2603H58.2792C58.4495 43.2603 58.5309 43.3414 58.5309 43.5111V44.8314C58.5309 45.001 58.4495 45.0821 58.2792 45.0821H54.2962V46.6163H57.3612C57.5315 46.6163 57.6129 46.6975 57.6129 46.8671V48.0767C57.6129 48.2464 57.5315 48.3275 57.3612 48.3275H54.2962V50.0608H58.3606C58.5309 50.0608 58.6123 50.142 58.6123 50.3116V51.6319C58.5975 51.7647 58.5161 51.8311 58.3606 51.8311Z" fill="white"/>
<path d="M66.3488 51.61C65.7788 51.3592 65.2753 50.9978 64.8459 50.5257C64.7867 50.4667 64.7793 50.4151 64.7793 50.3561C64.7793 50.297 64.8089 50.2307 64.8755 50.179L65.8232 49.2792C65.8824 49.2202 65.9342 49.198 65.9934 49.198C66.0601 49.198 66.1193 49.2276 66.1711 49.2939C66.4525 49.5742 66.756 49.7955 67.104 49.9356C67.4519 50.0758 67.8147 50.1569 68.1774 50.1569C68.5698 50.1569 68.8734 50.0905 69.0806 49.9356C69.2879 49.7955 69.399 49.589 69.399 49.3382C69.399 49.1685 69.3546 49.021 69.2583 48.9104C69.1621 48.785 68.9918 48.6744 68.7549 48.5785C68.518 48.4678 68.1848 48.3572 67.7554 48.2318C67.0447 48.0253 66.4302 47.7155 65.9046 47.3025C65.3864 46.8894 65.1273 46.3141 65.1273 45.5691C65.1273 45.1266 65.2383 44.7209 65.4752 44.3521C65.6973 43.9759 66.0453 43.6883 66.5043 43.467C66.9633 43.2457 67.5185 43.1351 68.1774 43.1351C68.7327 43.1351 69.2657 43.231 69.7766 43.4227C70.28 43.6145 70.739 43.88 71.1388 44.2267C71.198 44.2857 71.235 44.3374 71.235 44.3964C71.235 44.4554 71.2054 44.507 71.1684 44.566L70.3022 45.5396C70.243 45.606 70.1912 45.6355 70.1245 45.6355C70.0653 45.6355 70.0135 45.606 69.9542 45.5691C69.7173 45.3921 69.4508 45.2372 69.1473 45.1118C68.8437 44.9864 68.5476 44.9348 68.2589 44.9348C67.9257 44.9348 67.6592 44.9938 67.4815 45.1044C67.289 45.2151 67.2002 45.3847 67.2002 45.5912C67.2002 45.7609 67.2594 45.8937 67.3705 46.019C67.4815 46.1297 67.6222 46.2256 67.7999 46.3067C67.9775 46.3878 68.2589 46.4837 68.6216 46.5944C68.6364 46.5944 68.6883 46.6091 68.7771 46.6534C69.362 46.8451 69.8506 47.059 70.2356 47.2803C70.6205 47.5016 70.9167 47.7819 71.1388 48.1138C71.3609 48.4457 71.4571 48.8514 71.4571 49.3234C71.4571 49.8619 71.3165 50.3339 71.0499 50.7396C70.7834 51.1453 70.4058 51.4624 69.9394 51.6837C69.4508 51.905 68.9104 52.0156 68.2663 52.0156C67.5482 51.9861 66.9263 51.8607 66.3488 51.61Z" fill="white"/>
<path d="M77.0838 51.8311H75.5957C75.4254 51.8311 75.344 51.7499 75.344 51.5803V45.1043H73.197C73.0268 45.1043 72.9453 45.0231 72.9453 44.8535V43.4963C72.9453 43.3267 73.0268 43.2456 73.197 43.2456H79.4751C79.6454 43.2456 79.7268 43.3267 79.7268 43.4963V44.8535C79.7268 45.0231 79.6454 45.1043 79.4751 45.1043H77.3207V51.5803C77.3355 51.7647 77.2541 51.8311 77.0838 51.8311Z" fill="white"/>
<path d="M85.4647 48.7115L84.4875 45.9677L84.3913 45.621L84.3098 45.9677L83.3326 48.7115H85.4647ZM88.5001 51.6692C88.5001 51.7282 88.4853 51.7651 88.4409 51.7946C88.3965 51.8241 88.3595 51.8389 88.2854 51.8389H86.7529C86.6123 51.8389 86.516 51.7725 86.4716 51.6323L86.0126 50.3711H82.7403L82.2961 51.6323C82.2517 51.7725 82.1554 51.8389 82.0148 51.8389H80.4823C80.4156 51.8389 80.3712 51.8241 80.3268 51.7946C80.2824 51.7651 80.2676 51.7282 80.2676 51.6692C80.2676 51.6397 80.2676 51.6028 80.2824 51.5733L83.4436 43.4746C83.5028 43.3492 83.5843 43.2829 83.725 43.2829H85.0502C85.1908 43.2829 85.2871 43.3492 85.3389 43.4746L88.4705 51.5733C88.5001 51.5955 88.5001 51.625 88.5001 51.6692Z" fill="white"/>
<path d="M93.3634 51.8311H91.8606C91.6903 51.8311 91.6088 51.7499 91.6088 51.5803V48.4898L88.7807 43.5553C88.7511 43.4963 88.7363 43.4594 88.7363 43.4152C88.7363 43.3562 88.7511 43.3341 88.7956 43.3046C88.84 43.2751 88.877 43.2603 88.951 43.2603H90.7204C90.8611 43.2603 90.9573 43.3193 91.0092 43.4373L92.6231 46.6385L94.1926 43.4373C94.2518 43.3119 94.3481 43.2603 94.4813 43.2603H96.2507C96.3174 43.2603 96.3618 43.2751 96.4062 43.3046C96.4506 43.3341 96.4654 43.3709 96.4654 43.4152C96.4654 43.4594 96.4506 43.4963 96.421 43.5553L93.6077 48.4824V51.5877C93.6151 51.7647 93.5263 51.8311 93.3634 51.8311Z" fill="white"/>
<path d="M97.4434 43.356C97.4434 43.3413 97.4508 43.3339 97.4582 43.3191C97.4656 43.3118 97.4804 43.3044 97.4952 43.3044H98.6353C98.6501 43.3044 98.6575 43.3118 98.6723 43.3191C98.6797 43.3265 98.6871 43.3413 98.6871 43.356V43.6215C98.6871 43.6363 98.6797 43.6437 98.6723 43.6584C98.6649 43.6732 98.6501 43.6732 98.6353 43.6732H98.2725V44.8312C98.2725 44.8459 98.2651 44.8533 98.2577 44.8681C98.2503 44.8828 98.2355 44.8828 98.2207 44.8828H97.9098C97.895 44.8828 97.8876 44.8754 97.8728 44.8681C97.8654 44.8607 97.858 44.8459 97.858 44.8312V43.6732H97.4952C97.4804 43.6732 97.4656 43.6658 97.4582 43.6584C97.4508 43.651 97.4434 43.6363 97.4434 43.6215V43.356Z" fill="black"/>
<path d="M98.9318 43.356C98.9318 43.3413 98.9392 43.3339 98.9466 43.3265C98.9541 43.3191 98.9689 43.3117 98.9837 43.3117H99.3538C99.3834 43.3117 99.3982 43.3265 99.4057 43.3486L99.6944 44.3075L99.9831 43.3486C99.9905 43.3191 100.013 43.3117 100.035 43.3117H100.398C100.413 43.3117 100.42 43.3191 100.435 43.3265C100.442 43.3339 100.45 43.3486 100.45 43.356C100.472 43.6068 100.501 43.8502 100.524 44.0936C100.553 44.337 100.575 44.5804 100.598 44.8312V44.8386C100.598 44.8681 100.583 44.8828 100.553 44.8828H100.25C100.22 44.8828 100.198 44.8681 100.198 44.8386L100.109 44.0198L99.8721 44.8386C99.8721 44.8459 99.8647 44.8533 99.8573 44.8607C99.8499 44.8681 99.8425 44.8754 99.8276 44.8754H99.5463C99.5389 44.8754 99.5315 44.8681 99.5167 44.8607C99.5093 44.8533 99.5019 44.8459 99.5019 44.8312L99.265 44.0125L99.1762 44.8238C99.1762 44.8533 99.1613 44.8681 99.1243 44.8681H98.8208C98.7912 44.8681 98.7764 44.8533 98.7764 44.8238L98.9318 43.356Z" fill="black"/>
</svg>
