<svg width="14" height="14" viewBox="0 0 14 14" fill="none" xmlns="http://www.w3.org/2000/svg">
<g clip-path="url(#clip0_1820_2221)">
<path d="M13.125 3.49996C13.125 3.03583 12.9406 2.59071 12.6124 2.26252C12.2842 1.93433 11.8391 1.74996 11.375 1.74996H10.9375V1.32476C10.9375 1.08934 10.7565 0.887265 10.5211 0.875507C10.4619 0.872657 10.4028 0.881846 10.3473 0.902519C10.2918 0.923191 10.2411 0.954916 10.1982 0.995771C10.1553 1.03663 10.1212 1.08576 10.0979 1.1402C10.0745 1.19463 10.0625 1.25324 10.0625 1.31246V1.74996H3.9375V1.32476C3.9375 1.08934 3.75648 0.887265 3.52105 0.875507C3.4619 0.872657 3.40278 0.881846 3.34729 0.902519C3.29179 0.923191 3.24107 0.954916 3.19819 0.995771C3.15532 1.03663 3.12118 1.08576 3.09786 1.1402C3.07453 1.19463 3.06251 1.25324 3.0625 1.31246V1.74996H2.625C2.16087 1.74996 1.71575 1.93433 1.38756 2.26252C1.05937 2.59071 0.875 3.03583 0.875 3.49996V3.82809C0.875 3.85709 0.886523 3.88491 0.907035 3.90543C0.927547 3.92594 0.955367 3.93746 0.984375 3.93746H13.0156C13.0446 3.93746 13.0725 3.92594 13.093 3.90543C13.1135 3.88491 13.125 3.85709 13.125 3.82809V3.49996ZM0.875 11.375C0.875 11.8391 1.05937 12.2842 1.38756 12.6124C1.71575 12.9406 2.16087 13.125 2.625 13.125H11.375C11.8391 13.125 12.2842 12.9406 12.6124 12.6124C12.9406 12.2842 13.125 11.8391 13.125 11.375V4.89449C13.125 4.87274 13.1164 4.85187 13.101 4.83649C13.0856 4.8211 13.0647 4.81246 13.043 4.81246H0.957031C0.935275 4.81246 0.91441 4.8211 0.899026 4.83649C0.883643 4.85187 0.875 4.87274 0.875 4.89449V11.375ZM10.2812 5.68746C10.411 5.68746 10.5379 5.72595 10.6458 5.79806C10.7538 5.87017 10.8379 5.97266 10.8875 6.09257C10.9372 6.21249 10.9502 6.34444 10.9249 6.47174C10.8996 6.59904 10.8371 6.71597 10.7453 6.80775C10.6535 6.89953 10.5366 6.96203 10.4093 6.98735C10.282 7.01267 10.15 6.99968 10.0301 6.95001C9.9102 6.90034 9.80771 6.81622 9.7356 6.7083C9.66349 6.60038 9.625 6.4735 9.625 6.34371C9.625 6.16966 9.69414 6.00274 9.81721 5.87967C9.94028 5.7566 10.1072 5.68746 10.2812 5.68746ZM10.2812 7.87496C10.411 7.87496 10.5379 7.91345 10.6458 7.98556C10.7538 8.05767 10.8379 8.16016 10.8875 8.28007C10.9372 8.39999 10.9502 8.53194 10.9249 8.65924C10.8996 8.78654 10.8371 8.90347 10.7453 8.99525C10.6535 9.08703 10.5366 9.14953 10.4093 9.17485C10.282 9.20017 10.15 9.18718 10.0301 9.13751C9.9102 9.08784 9.80771 9.00372 9.7356 8.8958C9.66349 8.78788 9.625 8.661 9.625 8.53121C9.625 8.35716 9.69414 8.19024 9.81721 8.06717C9.94028 7.9441 10.1072 7.87496 10.2812 7.87496ZM8.09375 5.68746C8.22354 5.68746 8.35042 5.72595 8.45834 5.79806C8.56626 5.87017 8.65038 5.97266 8.70005 6.09257C8.74972 6.21249 8.76271 6.34444 8.73739 6.47174C8.71207 6.59904 8.64957 6.71597 8.55779 6.80775C8.46601 6.89953 8.34908 6.96203 8.22178 6.98735C8.09448 7.01267 7.96253 6.99968 7.84261 6.95001C7.7227 6.90034 7.62021 6.81622 7.5481 6.7083C7.47599 6.60038 7.4375 6.4735 7.4375 6.34371C7.4375 6.16966 7.50664 6.00274 7.62971 5.87967C7.75278 5.7566 7.9197 5.68746 8.09375 5.68746ZM8.09375 7.87496C8.22354 7.87496 8.35042 7.91345 8.45834 7.98556C8.56626 8.05767 8.65038 8.16016 8.70005 8.28007C8.74972 8.39999 8.76271 8.53194 8.73739 8.65924C8.71207 8.78654 8.64957 8.90347 8.55779 8.99525C8.46601 9.08703 8.34908 9.14953 8.22178 9.17485C8.09448 9.20017 7.96253 9.18718 7.84261 9.13751C7.7227 9.08784 7.62021 9.00372 7.5481 8.8958C7.47599 8.78788 7.4375 8.661 7.4375 8.53121C7.4375 8.35716 7.50664 8.19024 7.62971 8.06717C7.75278 7.9441 7.9197 7.87496 8.09375 7.87496ZM8.09375 10.0625C8.22354 10.0625 8.35042 10.1009 8.45834 10.1731C8.56626 10.2452 8.65038 10.3477 8.70005 10.4676C8.74972 10.5875 8.76271 10.7194 8.73739 10.8467C8.71207 10.974 8.64957 11.091 8.55779 11.1827C8.46601 11.2745 8.34908 11.337 8.22178 11.3624C8.09448 11.3877 7.96253 11.3747 7.84261 11.325C7.7227 11.2753 7.62021 11.1912 7.5481 11.0833C7.47599 10.9754 7.4375 10.8485 7.4375 10.7187C7.4375 10.5447 7.50664 10.3777 7.62971 10.2547C7.75278 10.1316 7.9197 10.0625 8.09375 10.0625ZM5.90625 7.87496C6.03604 7.87496 6.16292 7.91345 6.27084 7.98556C6.37876 8.05767 6.46288 8.16016 6.51255 8.28007C6.56222 8.39999 6.57521 8.53194 6.54989 8.65924C6.52457 8.78654 6.46207 8.90347 6.37029 8.99525C6.27851 9.08703 6.16158 9.14953 6.03428 9.17485C5.90698 9.20017 5.77503 9.18718 5.65511 9.13751C5.5352 9.08784 5.43271 9.00372 5.3606 8.8958C5.28849 8.78788 5.25 8.661 5.25 8.53121C5.25 8.35716 5.31914 8.19024 5.44221 8.06717C5.56528 7.9441 5.7322 7.87496 5.90625 7.87496ZM5.90625 10.0625C6.03604 10.0625 6.16292 10.1009 6.27084 10.1731C6.37876 10.2452 6.46288 10.3477 6.51255 10.4676C6.56222 10.5875 6.57521 10.7194 6.54989 10.8467C6.52457 10.974 6.46207 11.091 6.37029 11.1827C6.27851 11.2745 6.16158 11.337 6.03428 11.3624C5.90698 11.3877 5.77503 11.3747 5.65511 11.325C5.5352 11.2753 5.43271 11.1912 5.3606 11.0833C5.28849 10.9754 5.25 10.8485 5.25 10.7187C5.25 10.5447 5.31914 10.3777 5.44221 10.2547C5.56528 10.1316 5.7322 10.0625 5.90625 10.0625ZM3.71875 7.87496C3.84854 7.87496 3.97542 7.91345 4.08334 7.98556C4.19126 8.05767 4.27538 8.16016 4.32505 8.28007C4.37472 8.39999 4.38771 8.53194 4.36239 8.65924C4.33707 8.78654 4.27457 8.90347 4.18279 8.99525C4.09101 9.08703 3.97408 9.14953 3.84678 9.17485C3.71948 9.20017 3.58753 9.18718 3.46761 9.13751C3.3477 9.08784 3.24521 9.00372 3.1731 8.8958C3.10099 8.78788 3.0625 8.661 3.0625 8.53121C3.0625 8.35716 3.13164 8.19024 3.25471 8.06717C3.37778 7.9441 3.5447 7.87496 3.71875 7.87496ZM3.71875 10.0625C3.84854 10.0625 3.97542 10.1009 4.08334 10.1731C4.19126 10.2452 4.27538 10.3477 4.32505 10.4676C4.37472 10.5875 4.38771 10.7194 4.36239 10.8467C4.33707 10.974 4.27457 11.091 4.18279 11.1827C4.09101 11.2745 3.97408 11.337 3.84678 11.3624C3.71948 11.3877 3.58753 11.3747 3.46761 11.325C3.3477 11.2753 3.24521 11.1912 3.1731 11.0833C3.10099 10.9754 3.0625 10.8485 3.0625 10.7187C3.0625 10.5447 3.13164 10.3777 3.25471 10.2547C3.37778 10.1316 3.5447 10.0625 3.71875 10.0625Z" fill="white"/>
</g>
<defs>
<clipPath id="clip0_1820_2221">
<rect width="14" height="14" fill="white"/>
</clipPath>
</defs>
</svg>
