<svg width="150" height="22" viewBox="0 0 150 22" fill="none" xmlns="http://www.w3.org/2000/svg">
<g clip-path="url(#clip0_1783_1052)">
<path d="M0 0.543945H10.3026V7.37689H10.3808L18.2316 0.543945H29.7861L20.2921 8.90395L31.2467 20.4216H18.2577L10.3808 12.2945H10.3026V20.4216H0V0.543945Z" fill="white"/>
<path d="M46.1916 0C57.9026 0 61.0847 2.40706 61.0847 10.5341C61.0847 18.6612 57.9026 21.0424 46.1916 21.0424C34.4806 21.0424 31.2725 18.6871 31.2725 10.5082C31.2725 2.32941 34.4806 0 46.1916 0ZM46.1916 16.9788C50.7821 16.9788 50.4691 11.9835 50.4691 10.3529C50.4691 8.72235 50.5213 4.14118 46.1916 4.14118C41.8619 4.14118 41.9141 8.69647 41.9141 10.3529C41.9141 12.0094 41.6011 16.9788 46.1916 16.9788Z" fill="white"/>
<path d="M83.281 12.967V20.5505H93.8444V0.672852H83.281V7.50579H75.7171V0.672852H65.1016V20.5505H75.6649V12.967H83.281Z" fill="white"/>
<path d="M98.8789 0.672852H109.729V15.8399H119.51C120.24 15.7881 120.919 15.4258 121.336 14.8305V20.5764H98.905V0.672852H98.8789Z" fill="white"/>
<path d="M146.557 7.27338C144.835 5.79808 142.618 4.94397 140.349 4.91808C138.289 4.86632 136.463 5.59103 136.463 6.75573C136.463 7.92044 137.845 8.10161 142.671 9.08514C146.635 9.91338 149.269 11.8804 149.269 15.5298C149.269 19.1793 142.201 22.0004 135.889 22.0004C132.159 22.0781 128.43 21.3534 125.013 19.8781V14.3393C126.917 16.2546 131.116 17.2899 134.35 17.2899C136.124 17.2899 137.037 17.0051 137.037 15.6334C137.037 14.2616 135.915 13.9769 132.524 13.3816C126.108 12.2428 123.943 10.431 123.943 7.37691C123.943 2.97691 129.551 0.388672 136.463 0.388672C140.193 0.388672 143.583 0.518084 146.583 1.88985L146.557 7.27338Z" fill="white"/>
<path d="M115.31 8.80039L116.066 7.53215C113.849 6.47097 113.171 3.72744 114.319 2.14862C115.727 0.440385 118.257 0.181562 119.979 1.55333C120.266 1.78627 120.5 2.04509 120.709 2.3298C121.804 3.77921 121.518 5.82392 120.109 6.96274C118.57 7.68744 116.953 8.30862 115.31 8.80039Z" fill="white"/>
<path d="M150 2.56219C150 3.28689 149.4 3.88219 148.67 3.88219C147.94 3.88219 147.34 3.28689 147.34 2.56219C147.34 1.83748 147.94 1.24219 148.67 1.24219C149.426 1.24219 150 1.83748 150 2.56219ZM147.548 2.56219C147.548 3.18336 148.044 3.67513 148.67 3.67513C149.296 3.67513 149.792 3.18336 149.792 2.56219C149.792 1.94101 149.296 1.44925 148.67 1.44925C148.07 1.42336 147.548 1.94101 147.548 2.56219ZM148.383 3.31278H148.174V1.8116H148.774C149.14 1.8116 149.296 1.96689 149.296 2.2516C149.322 2.45866 149.166 2.66572 148.931 2.6916C148.905 2.6916 148.905 2.6916 148.879 2.6916L149.348 3.36454H149.113L148.67 2.6916H148.357L148.383 3.31278ZM148.618 2.48454C148.853 2.48454 149.087 2.48454 149.087 2.19983C149.087 1.91513 148.931 1.91513 148.722 1.91513H148.357V2.45866L148.618 2.48454Z" fill="white"/>
</g>
<defs>
<clipPath id="clip0_1783_1052">
<rect width="150" height="22" fill="white"/>
</clipPath>
</defs>
</svg>
