<svg width="120" height="24" viewBox="0 0 120 24" fill="none" xmlns="http://www.w3.org/2000/svg">
<g clip-path="url(#clip0_1820_2176)">
<path d="M32.4359 21.7935H31.8714V17.4117L30.0652 19.6565H30.0031L28.1885 17.4117V21.7935H27.624V16.5303H28.1885L30.0568 18.8402L31.8912 16.5303H32.4556L32.4359 21.7935Z" fill="white"/>
<path d="M36.7135 21.5471C36.2846 21.8561 36.1237 21.8646 36.0306 21.8646C35.7483 21.8646 35.6834 21.6321 35.6552 21.4706C35.3778 21.7198 35.0199 21.8598 34.6477 21.8646C34.5314 21.8668 34.4158 21.8458 34.3077 21.8026C34.1996 21.7595 34.1011 21.6951 34.0181 21.6133C33.935 21.5315 33.8691 21.4339 33.824 21.3261C33.779 21.2184 33.7558 21.1028 33.7559 20.9859C33.7559 20.4191 34.2159 19.9656 35.6467 19.7105V19.4016C35.6467 19.1777 35.6072 18.7299 34.9638 18.7299C34.5514 18.75 34.1637 18.9335 33.8857 19.24V18.6732C34.199 18.4001 34.5997 18.2492 35.0146 18.248C35.9967 18.248 36.183 18.9424 36.183 19.3364V21.2354C36.183 21.3827 36.1971 21.4196 36.2733 21.4196C36.4411 21.3788 36.5951 21.2937 36.7192 21.173L36.7135 21.5471ZM35.6467 20.0563C34.7634 20.2179 34.2864 20.5098 34.2864 20.9434C34.2889 21.0172 34.3061 21.0896 34.3371 21.1565C34.3681 21.2234 34.4121 21.2834 34.4666 21.3329C34.5211 21.3823 34.585 21.4202 34.6544 21.4444C34.7238 21.4685 34.7973 21.4784 34.8706 21.4734C35.1671 21.4538 35.4448 21.3209 35.6467 21.1021V20.0563Z" fill="white"/>
<path d="M39.6349 19.0868C39.3512 18.8783 39.0147 18.7545 38.664 18.7297C38.3113 18.7297 38.0798 18.9394 38.0798 19.1775C38.0798 19.4155 38.3197 19.5714 39.141 20.0051C39.3195 20.0803 39.4729 20.205 39.5834 20.3646C39.6938 20.5242 39.7567 20.7122 39.7647 20.9064C39.7647 21.2521 39.4825 21.8785 38.6358 21.8785C38.2467 21.8643 37.8678 21.7501 37.5352 21.5469V20.9999C37.8679 21.2335 38.2587 21.3699 38.664 21.3939C38.9321 21.3939 39.2482 21.2238 39.2482 20.929C39.2482 20.6343 38.9321 20.4359 38.4806 20.2205C38.029 20.0051 37.5352 19.7727 37.5352 19.2058C37.5352 18.7807 37.8823 18.2705 38.6415 18.2705C38.9895 18.2723 39.3303 18.3704 39.6264 18.5539L39.6349 19.0868Z" fill="white"/>
<path d="M40.5264 18.7156L41.6552 17.5195V18.3301H42.6938V18.8006H41.6552V20.623C41.6552 21.0709 41.6863 21.3798 42.1717 21.3798C42.4187 21.369 42.6592 21.297 42.8716 21.1701V21.6717C42.6216 21.8003 42.3453 21.8691 42.0645 21.873C41.373 21.873 41.1247 21.394 41.1247 20.8384V18.8006H40.5264V18.7156Z" fill="white"/>
<path d="M46.665 20.0964H44.1081C44.0962 20.2651 44.1196 20.4344 44.1768 20.5935C44.2339 20.7526 44.3236 20.898 44.44 21.0202C44.5564 21.1424 44.697 21.2389 44.8527 21.3033C45.0084 21.3678 45.1758 21.3988 45.3442 21.3945C45.8112 21.3906 46.2612 21.2174 46.6113 20.907V21.4483C46.2272 21.7328 45.7591 21.8795 45.2821 21.8649C44.1306 21.8649 43.5605 20.9863 43.5605 20.051C43.5605 18.8465 44.3592 18.2598 45.1438 18.2598C45.9905 18.2598 46.665 18.9627 46.665 19.9603V20.0964ZM46.1203 19.7109C46.0441 18.9627 45.5361 18.7303 45.1607 18.7303C44.7289 18.7303 44.2689 19.0137 44.1363 19.7109H46.1203Z" fill="white"/>
<path d="M48.347 18.3306V19.093C48.4964 18.8437 48.693 18.6261 48.9255 18.4525C49.0786 18.3413 49.2593 18.2746 49.4476 18.2598C49.7568 18.3093 50.0434 18.4527 50.2689 18.6707L49.9867 19.1327C49.8083 18.9497 49.5716 18.8354 49.3178 18.8096C49.1313 18.8326 48.9543 18.9055 48.8053 19.0207C48.6564 19.1359 48.541 19.2891 48.4712 19.4643C48.3763 19.7313 48.3341 20.0144 48.347 20.2976V21.7941H47.8164V18.3306H48.347Z" fill="white"/>
<path d="M52.2106 18.3301C53.4185 18.3301 54.1184 18.9479 54.1184 20.059C54.1184 21.0311 53.5088 21.8644 52.4025 21.8644C52.0993 21.8586 51.8008 21.787 51.5276 21.6547V23.4998H50.9971V18.3301H52.2106ZM51.5276 21.1643C51.7668 21.3077 52.0394 21.385 52.3179 21.3882C53.1645 21.3882 53.5709 20.7619 53.5709 20.0675C53.5709 19.2342 53.0065 18.7949 52.2022 18.7949H51.5276V21.1643Z" fill="white"/>
<path d="M55.9331 17.2645C55.9374 17.3127 55.9317 17.3613 55.9163 17.4072C55.9009 17.4531 55.8762 17.4953 55.8436 17.531C55.8111 17.5668 55.7715 17.5953 55.7274 17.6149C55.6833 17.6344 55.6356 17.6445 55.5874 17.6445C55.5391 17.6445 55.4914 17.6344 55.4473 17.6149C55.4032 17.5953 55.3636 17.5668 55.3311 17.531C55.2986 17.4953 55.2738 17.4531 55.2584 17.4072C55.243 17.3613 55.2373 17.3127 55.2416 17.2645C55.2495 17.1778 55.2893 17.0972 55.3532 17.0385C55.4172 16.9798 55.5007 16.9473 55.5874 16.9473C55.674 16.9473 55.7575 16.9798 55.8215 17.0385C55.8855 17.0972 55.9253 17.1778 55.9331 17.2645ZM55.8484 21.7993H55.315V18.3302H55.8456L55.8484 21.7993Z" fill="white"/>
<path d="M60.1585 20.0964H57.6015C57.5897 20.2651 57.6131 20.4344 57.6702 20.5935C57.7274 20.7526 57.8171 20.898 57.9335 21.0202C58.0499 21.1424 58.1905 21.2389 58.3462 21.3033C58.5019 21.3678 58.6693 21.3988 58.8377 21.3945C59.3078 21.3934 59.7614 21.22 60.1133 20.907V21.4483C59.7292 21.7328 59.2611 21.8795 58.784 21.8649C57.6326 21.8649 57.0625 20.9863 57.0625 20.051C57.0625 18.8465 57.8612 18.2598 58.6458 18.2598C59.4924 18.2598 60.1669 18.9627 60.1669 19.9603L60.1585 20.0964ZM59.6138 19.7109C59.5376 18.9627 59.0296 18.7303 58.6542 18.7303C58.2224 18.7303 57.7624 19.0137 57.6298 19.7109H59.6138Z" fill="white"/>
<path d="M63.7821 19.0392C63.4986 18.8599 63.1716 18.7619 62.8367 18.7558C61.9223 18.7558 61.6824 19.6259 61.6824 20.0737C61.6824 20.6405 61.9985 21.3718 62.927 21.3718C63.2469 21.3637 63.5615 21.2874 63.8498 21.1479V21.6722C63.539 21.7964 63.2079 21.8617 62.8733 21.8649C61.7445 21.8649 61.1377 21.094 61.1377 20.0907C61.1377 18.957 61.8743 18.2598 62.831 18.2598C63.1572 18.263 63.4792 18.3344 63.7765 18.4695L63.7821 19.0392Z" fill="white"/>
<path d="M67.8349 20.0964H65.2752C65.2637 20.2652 65.2875 20.4346 65.345 20.5937C65.4025 20.7528 65.4924 20.8981 65.609 21.0203C65.7257 21.1425 65.8664 21.2389 66.0222 21.3033C66.1781 21.3678 66.3456 21.3988 66.5141 21.3945C66.9812 21.3906 67.4311 21.2174 67.7813 20.907V21.4483C67.3971 21.7328 66.9291 21.8795 66.452 21.8649C65.3006 21.8649 64.7305 20.9863 64.7305 20.051C64.7305 18.8465 65.5292 18.2598 66.3137 18.2598C67.1604 18.2598 67.8349 18.9627 67.8349 19.9603V20.0964ZM67.2902 19.7109C67.214 18.9627 66.706 18.7303 66.3307 18.7303C65.8989 18.7303 65.4388 19.0137 65.3062 19.7109H67.2902Z" fill="white"/>
<path d="M75.7792 21.7935H75.2148V19.3872H71.9834V21.7935H71.4189V16.5303H71.9834V18.877H75.2035V16.5303H75.768L75.7792 21.7935Z" fill="white"/>
<path d="M80.6894 20.0566C80.69 20.4131 80.5853 20.7618 80.3885 21.0585C80.1917 21.3553 79.9118 21.5868 79.584 21.7237C79.2563 21.8607 78.8954 21.8969 78.5471 21.8279C78.1988 21.7589 77.8787 21.5877 77.6273 21.336C77.3759 21.0843 77.2045 20.7634 77.1347 20.4139C77.0648 20.0643 77.0998 19.7018 77.2352 19.3722C77.3705 19.0426 77.6001 18.7607 77.895 18.5622C78.1898 18.3637 78.5367 18.2574 78.8917 18.2568C79.3673 18.2576 79.8233 18.4473 80.1601 18.7845C80.4969 19.1216 80.6872 19.579 80.6894 20.0566ZM77.6471 20.0566C77.6471 20.39 77.779 20.7097 78.0137 20.9454C78.2484 21.1811 78.5668 21.3136 78.8988 21.3136C79.2307 21.3136 79.5491 21.1811 79.7838 20.9454C80.0185 20.7097 80.1504 20.39 80.1504 20.0566C80.1584 19.8869 80.1321 19.7173 80.073 19.5581C80.0138 19.3989 79.9231 19.2534 79.8064 19.1305C79.6896 19.0075 79.5492 18.9096 79.3937 18.8427C79.2382 18.7759 79.0708 18.7414 78.9016 18.7414C78.7324 18.7414 78.565 18.7759 78.4094 18.8427C78.2539 18.9096 78.1135 19.0075 77.9968 19.1305C77.88 19.2534 77.7893 19.3989 77.7302 19.5581C77.6711 19.7173 77.6447 19.8869 77.6528 20.0566H77.6471Z" fill="white"/>
<path d="M81.4287 18.7156L82.5576 17.5195V18.3301H83.5962V18.8006H82.5491V20.623C82.5491 21.0709 82.5802 21.3798 83.0628 21.3798C83.3099 21.3699 83.5505 21.2977 83.7627 21.1701V21.6717C83.5129 21.801 83.2365 21.8699 82.9555 21.873C82.2641 21.873 82.0185 21.394 82.0185 20.8384V18.8006H81.4287V18.7156Z" fill="white"/>
<path d="M87.5673 20.0964H85.0076C84.9961 20.2652 85.0199 20.4346 85.0774 20.5937C85.1349 20.7528 85.2248 20.8981 85.3415 21.0203C85.4581 21.1425 85.5988 21.2389 85.7547 21.3033C85.9105 21.3678 86.078 21.3988 86.2465 21.3945C86.7136 21.3906 87.1636 21.2174 87.5137 20.907V21.4483C87.1296 21.7328 86.6615 21.8795 86.1844 21.8649C85.0302 21.8649 84.4629 20.9863 84.4629 20.051C84.4629 18.8465 85.2616 18.2598 86.0462 18.2598C86.8928 18.2598 87.5673 18.9627 87.5673 19.9603V20.0964ZM87.0226 19.7109C86.9464 18.9627 86.4384 18.7303 86.0603 18.7303C85.6313 18.7303 85.1684 19.0137 85.0386 19.7109H87.0226Z" fill="white"/>
<path d="M89.2493 21.7935H88.7188V16.5303H89.2493V21.7935Z" fill="white"/>
<path d="M92.5849 19.0868C92.2996 18.8773 91.961 18.7534 91.6084 18.7297C91.2556 18.7297 91.0242 18.9394 91.0242 19.1775C91.0242 19.4155 91.2612 19.5714 92.0853 20.0051C92.2649 20.0794 92.4195 20.2038 92.531 20.3635C92.6425 20.5232 92.7062 20.7115 92.7147 20.9064C92.7147 21.2521 92.4325 21.8785 91.5858 21.8785C91.196 21.8695 90.8151 21.7602 90.4795 21.5611V20.9999C90.8078 21.2319 91.1936 21.3682 91.5943 21.3939C91.8765 21.3939 92.1785 21.2238 92.1785 20.929C92.1785 20.6343 91.8624 20.4359 91.408 20.2205C90.9536 20.0051 90.4936 19.7727 90.4936 19.2058C90.4936 18.7807 90.8407 18.2705 91.5999 18.2705C91.9479 18.2723 92.2887 18.3704 92.5849 18.5539V19.0868Z" fill="white"/>
<path d="M0 5.11417C0 2.54633 1.77799 0.5 4.44779 0.5C7.11759 0.5 8.84196 2.41029 8.84196 4.76556C8.84196 7.59981 7.07808 9.52994 4.3603 9.52994C1.81468 9.52994 0 7.60832 0 5.11417ZM7.83161 5.20203C7.83161 2.97998 6.79304 1.04701 4.32361 1.04701C1.80339 1.04701 1.01317 3.29174 1.01317 4.85342C1.01317 7.17468 2.23518 8.98293 4.42239 8.98293C7.10066 8.98293 7.83161 6.73537 7.83161 5.20203Z" fill="white"/>
<path d="M14.8446 9.35702H10.3291V9.28616C10.6113 9.13878 10.6113 8.79016 10.6113 8.50674V1.48061C10.6113 1.12066 10.5492 0.848576 10.3291 0.749377V0.672852H14.5624L14.6358 1.38142L14.5991 1.41826C13.964 1.24603 13.306 1.17431 12.649 1.20569H11.4862V4.49343H12.9566C13.3997 4.49343 13.8032 4.45659 14.2153 4.41974L14.1419 5.13964C13.3622 5.05279 12.5783 5.01115 11.7938 5.01493H11.4862V8.63711C11.4862 8.79867 11.5596 8.83551 11.7092 8.83551H13.1203C13.7412 8.85557 14.3614 8.77616 14.9575 8.60027L15.0055 8.62578L14.8446 9.35702Z" fill="white"/>
<path d="M28.0361 9.35702L24.3672 4.68049L27.3334 1.04697C27.3684 1.00008 27.389 0.943925 27.3926 0.885421C27.3949 0.858042 27.3891 0.830608 27.3761 0.806455C27.363 0.782302 27.3433 0.762471 27.3193 0.749377V0.672852H28.5046V0.749377C28.3641 0.818658 28.2385 0.914952 28.1349 1.0328L25.2929 4.43391L28.6796 8.75049C28.8323 8.94696 29.0054 9.12653 29.196 9.28616V9.36269L28.0361 9.35702ZM24.2064 8.47556C24.2064 8.83551 24.2064 9.1076 24.4886 9.28333V9.35702H23.0465V9.28616C23.292 9.18413 23.3287 8.78733 23.3287 8.5039V1.5288C23.3323 1.41672 23.3238 1.30458 23.3033 1.19435H19.4397V8.47556C19.4397 8.83551 19.4397 9.05942 19.7219 9.28333V9.35702H18.2798V9.28616C18.562 9.13594 18.562 8.76466 18.562 8.4784V1.19435H17.402C16.7809 1.17445 16.1604 1.24995 15.562 1.41826L15.5225 1.38142L15.6212 0.672852H24.4801V0.749377C24.2205 0.922266 24.1979 1.16885 24.1979 1.5288L24.2064 8.47556Z" fill="white"/>
<path d="M34.7558 9.35702H30.2402V9.28616C30.5225 9.13878 30.5225 8.79016 30.5225 8.50674V1.48061C30.5225 1.12066 30.4604 0.848576 30.2402 0.749377V0.672852H34.4876L34.5638 1.38142L34.5272 1.41826C33.891 1.24641 33.2322 1.17471 32.5742 1.20569H31.4002V4.49343H32.8705C33.3164 4.49343 33.7172 4.45659 34.1292 4.41974L34.0558 5.13964C33.2771 5.0527 32.4941 5.01106 31.7106 5.01493H31.4002V8.63711C31.4002 8.79867 31.4764 8.83551 31.6231 8.83551H33.0342C33.6524 8.8549 34.2697 8.7755 34.863 8.60027L34.9138 8.62578L34.7558 9.35702Z" fill="white"/>
<path d="M36.3721 9.28616C36.5075 9.22664 36.6543 9.10193 36.6543 8.48123V1.57981C36.6543 0.947774 36.5188 0.823067 36.3721 0.749377V0.672852H38.6073C40.0184 0.672852 41.4295 1.2397 41.4295 2.91758C41.4295 3.76786 40.9469 4.69183 39.7615 5.13964L42.1209 8.25732C42.3883 8.61313 42.6817 8.94849 42.9986 9.26065V9.34851H41.8359L38.8782 5.34938H37.5348V8.46706C37.5348 9.0991 37.6844 9.15012 37.817 9.27199V9.34851H36.3834L36.3721 9.28616ZM39.31 4.83354C39.9422 4.63514 40.4727 3.85572 40.4727 3.02245C40.4727 1.83206 39.6825 1.21136 38.5706 1.21136H37.5348V4.82787L39.31 4.83354Z" fill="white"/>
<path d="M46.6113 5.03494C46.6113 2.2432 48.7223 0.500129 51.3159 0.500129C52.2567 0.484672 53.1931 0.631344 54.0845 0.933771V1.69052H54.045C53.1729 1.24174 52.2024 1.0205 51.2228 1.04714C48.9368 1.04714 47.616 2.63433 47.616 4.96692C47.616 7.51775 49.2586 8.93488 51.4937 8.93488C52.4252 8.94545 53.3408 8.69201 54.1353 8.20364H54.1748L54.1325 9.0029C53.2456 9.39785 52.2794 9.58027 51.3103 9.53574C48.6236 9.53007 46.6113 7.95423 46.6113 5.03494Z" fill="white"/>
<path d="M54.875 5.11417C54.875 2.54633 56.653 0.5 59.32 0.5C61.9869 0.5 63.717 2.41029 63.717 4.76556C63.717 7.59981 61.9503 9.52994 59.2353 9.52994C56.6897 9.52994 54.875 7.60832 54.875 5.11417ZM62.7038 5.20203C62.7038 2.97998 61.668 1.04701 59.1958 1.04701C56.6784 1.04701 55.8797 3.29174 55.8797 4.85342C55.8797 7.17468 57.1017 8.98293 59.2861 8.98293C61.9757 8.98293 62.7038 6.73537 62.7038 5.20203Z" fill="white"/>
<path d="M69.7079 9.35702H65.1924V9.28616C65.4746 9.13878 65.4746 8.76749 65.4746 8.48123V1.56564C65.4746 1.20569 65.4492 0.859913 65.1924 0.749377V0.672852H66.6261V0.749377C66.3438 0.896758 66.3438 1.26805 66.3438 1.55431V8.61161C66.3438 8.81001 66.4172 8.83551 66.564 8.83551H67.9751C68.6008 8.85818 69.226 8.77873 69.8264 8.60027L69.8772 8.62578L69.7079 9.35702Z" fill="white"/>
<path d="M75.7704 9.35702H71.2549V9.28616C71.5371 9.13878 71.5371 8.76749 71.5371 8.48123V1.56564C71.5371 1.20569 71.5117 0.859913 71.2549 0.749377V0.672852H72.6857V0.749377C72.4035 0.896758 72.4035 1.26805 72.4035 1.55431V8.61161C72.4035 8.81001 72.4769 8.83551 72.6265 8.83551H74.0206C74.6473 8.85813 75.2735 8.77869 75.8748 8.60027L75.9228 8.62578L75.7704 9.35702Z" fill="white"/>
<path d="M81.8241 9.35702H77.3086V9.28616C77.5908 9.13878 77.5908 8.79016 77.5908 8.50674V1.48061C77.5908 1.12066 77.5287 0.848576 77.3086 0.749377V0.672852H81.5419L81.6181 1.38142L81.5814 1.41826C80.9453 1.24641 80.2865 1.17471 79.6284 1.20569H78.4572V4.49343H79.9276C80.3735 4.49343 80.7743 4.45659 81.1891 4.41974L81.1129 5.13964C80.3342 5.0527 79.5512 5.01106 78.7677 5.01493H78.4572V8.63711C78.4572 8.79867 78.5334 8.83551 78.6802 8.83551H80.0913C80.7094 8.8549 81.3267 8.7755 81.9201 8.60027L81.9709 8.62578L81.8241 9.35702Z" fill="white"/>
<path d="M82.7383 5.03502C82.7383 2.24328 84.8493 0.500209 87.4429 0.500209C88.3828 0.484176 89.3184 0.630868 90.2086 0.93385V1.6906H90.172C89.2996 1.2424 88.3293 1.02118 87.3498 1.04722C85.0666 1.04722 83.743 2.63441 83.743 4.967C83.743 7.51783 85.3883 8.93496 87.6235 8.93496C88.555 8.94554 89.4706 8.69209 90.2651 8.20372H90.3018L90.2594 9.00298C89.3725 9.39763 88.4064 9.58003 87.4372 9.53582C84.7505 9.53015 82.7383 7.95431 82.7383 5.03502Z" fill="white"/>
<path d="M97.9895 1.38142L97.9528 1.41826C97.3587 1.24766 96.7415 1.1721 96.124 1.19435H94.9641V8.47556C94.9641 8.83551 94.9641 9.05942 95.2463 9.28049V9.35702H93.8154V9.28616C94.0977 9.13878 94.0977 8.76749 94.0977 8.48123V1.19435H92.949C92.3279 1.17471 91.7074 1.25022 91.1089 1.41826L91.0723 1.38142L91.1569 0.672852H97.8992L97.9895 1.38142Z" fill="white"/>
<path d="M99.251 9.28616C99.4965 9.18696 99.5332 8.79016 99.5332 8.50674V1.5288C99.5332 1.24537 99.5078 0.848576 99.251 0.749377V0.672852H100.682V0.749377C100.422 0.922266 100.4 1.16885 100.4 1.5288V8.47556C100.4 8.83551 100.4 9.1076 100.682 9.28049V9.35702H99.251V9.28616Z" fill="white"/>
<path d="M102.164 5.11417C102.164 2.54633 103.945 0.5 106.612 0.5C109.279 0.5 111.009 2.41029 111.009 4.76556C111.009 7.59981 109.242 9.52994 106.524 9.52994C103.982 9.52994 102.164 7.60832 102.164 5.11417ZM109.996 5.20203C109.996 2.97998 108.957 1.04701 106.488 1.04701C103.967 1.04701 103.177 3.29174 103.177 4.85342C103.177 7.17468 104.402 8.98293 106.586 8.98293C109.268 8.98293 109.996 6.73537 109.996 5.20203Z" fill="white"/>
<path d="M119.727 1.55431V9.37969H119.21L113.391 1.63366H113.368V8.47556C113.352 8.62058 113.366 8.76753 113.411 8.90642C113.456 9.0453 113.53 9.17288 113.628 9.28049V9.35702H112.499V9.28616C112.759 9.15012 112.781 8.76749 112.781 8.48123V1.55431C112.781 1.21986 112.745 0.848576 112.397 0.749377V0.672852H113.831L119.095 7.69331H119.143V1.55431C119.164 1.40723 119.149 1.2572 119.1 1.11704C119.051 0.976877 118.969 0.850734 118.86 0.749377V0.672852H120.034V0.749377C119.727 0.896758 119.727 1.26805 119.727 1.55431Z" fill="white"/>
</g>
<defs>
<clipPath id="clip0_1820_2176">
<rect width="120" height="23" fill="white" transform="translate(0 0.5)"/>
</clipPath>
</defs>
</svg>
