<svg width="41" height="26" viewBox="0 0 41 26" fill="none" xmlns="http://www.w3.org/2000/svg">
<g clip-path="url(#clip0_1801_1301)">
<path d="M26.0742 3.17383H15.2588V22.8266H26.0742V3.17383Z" fill="#FF5F00"/>
<path d="M15.9459 13C15.9459 9.18052 17.697 5.53468 20.6498 3.17357C15.2935 -1.09726 7.53387 -0.159762 3.3107 5.29163C-0.912479 10.7083 0.01456 18.5555 5.40512 22.8264C9.90297 26.4027 16.1862 26.4027 20.6841 22.8264C17.697 20.4652 15.9459 16.8194 15.9459 13Z" fill="#EB001B"/>
<path d="M40.6674 13C40.6674 19.9097 35.1395 25.5 28.3069 25.5C25.5258 25.5 22.8477 24.5625 20.6846 22.8263C26.0408 18.5555 26.9678 10.7083 22.7447 5.2569C22.1266 4.49302 21.4399 3.76385 20.6846 3.17357C26.0408 -1.09726 33.8348 -0.159762 38.0236 5.29163C39.7404 7.47913 40.6674 10.1875 40.6674 13Z" fill="#F79E1B"/>
<path d="M39.4991 20.7429V20.3263H39.6708V20.2568H39.2588V20.3263H39.4305V20.7429H39.4991ZM40.2888 20.7429V20.2568H40.1515L40.0142 20.6041L39.8768 20.2568H39.7395V20.7429H39.8425V20.361L39.9798 20.6735H40.0828L40.2202 20.361V20.7429H40.2888Z" fill="#F79E1B"/>
</g>
<defs>
<clipPath id="clip0_1801_1301">
<rect width="40" height="25" fill="white" transform="translate(0.666992 0.5)"/>
</clipPath>
</defs>
</svg>
