<svg width="14" height="14" viewBox="0 0 14 14" fill="none" xmlns="http://www.w3.org/2000/svg">
<path fill-rule="evenodd" clip-rule="evenodd" d="M7.58366 2.33301C7.72654 2.33303 7.86444 2.38548 7.97121 2.48042C8.07798 2.57537 8.14619 2.70619 8.16291 2.84809L8.16699 2.91634C8.16716 3.06502 8.22409 3.20803 8.32615 3.31614C8.42822 3.42425 8.56772 3.48931 8.71614 3.49802C8.86456 3.50674 9.01071 3.45845 9.12473 3.36302C9.23874 3.26759 9.31202 3.13223 9.32958 2.98459L9.33366 2.91634C9.33366 2.76163 9.39512 2.61326 9.50451 2.50386C9.61391 2.39447 9.76228 2.33301 9.91699 2.33301H11.0837C11.5478 2.33301 11.9929 2.51738 12.3211 2.84557C12.6493 3.17376 12.8337 3.61888 12.8337 4.08301V9.91634C12.8337 10.3805 12.6493 10.8256 12.3211 11.1538C11.9929 11.482 11.5478 11.6663 11.0837 11.6663H9.91699C9.77411 11.6663 9.63621 11.6139 9.52944 11.5189C9.42267 11.424 9.35446 11.2932 9.33774 11.1513L9.33366 11.083C9.33349 10.9343 9.27656 10.7913 9.1745 10.6832C9.07243 10.5751 8.93294 10.51 8.78451 10.5013C8.63609 10.4926 8.48994 10.5409 8.37592 10.6363C8.26191 10.7318 8.18864 10.8671 8.17108 11.0148L8.16699 11.083C8.16699 11.2377 8.10553 11.3861 7.99614 11.4955C7.88674 11.6049 7.73837 11.6663 7.58366 11.6663H2.91699C2.45286 11.6663 2.00774 11.482 1.67956 11.1538C1.35137 10.8256 1.16699 10.3805 1.16699 9.91634V4.08301C1.16699 3.61888 1.35137 3.17376 1.67956 2.84557C2.00774 2.51738 2.45286 2.33301 2.91699 2.33301H7.58366ZM8.75033 7.58301C8.59562 7.58301 8.44724 7.64447 8.33785 7.75386C8.22845 7.86326 8.16699 8.01163 8.16699 8.16634V8.74967C8.16699 8.90438 8.22845 9.05276 8.33785 9.16215C8.44724 9.27155 8.59562 9.33301 8.75033 9.33301C8.90504 9.33301 9.05341 9.27155 9.16281 9.16215C9.2722 9.05276 9.33366 8.90438 9.33366 8.74967V8.16634C9.33366 8.01163 9.2722 7.86326 9.16281 7.75386C9.05341 7.64447 8.90504 7.58301 8.75033 7.58301ZM8.75033 4.66634C8.60745 4.66636 8.46955 4.71882 8.36278 4.81376C8.256 4.9087 8.18779 5.03953 8.17108 5.18142L8.16699 5.24967V5.83301C8.16716 5.98169 8.22409 6.12469 8.32615 6.23281C8.42822 6.34092 8.56772 6.40598 8.71614 6.41469C8.86456 6.4234 9.01071 6.37511 9.12473 6.27969C9.23874 6.18426 9.31202 6.0489 9.32958 5.90126L9.33366 5.83301V5.24967C9.33366 5.09496 9.2722 4.94659 9.16281 4.8372C9.05341 4.7278 8.90504 4.66634 8.75033 4.66634Z" fill="white"/>
</svg>
