<svg width="24" height="24" viewBox="0 0 24 24" fill="none" xmlns="http://www.w3.org/2000/svg">
<path d="M12.784 2.43566C12.5409 2.31295 12.2723 2.24902 12 2.24902C11.7277 2.24902 11.4591 2.31295 11.216 2.43566L3.452 6.34366C1.812 7.16866 2.378 9.67066 4.236 9.67066H6.25V17.2497H4.5C3.90326 17.2497 3.33097 17.4867 2.90901 17.9087C2.48705 18.3306 2.25 18.9029 2.25 19.4997C2.25 20.0964 2.48705 20.6687 2.90901 21.0906C3.33097 21.5126 3.90326 21.7497 4.5 21.7497H19.5C20.0967 21.7497 20.669 21.5126 21.091 21.0906C21.5129 20.6687 21.75 20.0964 21.75 19.4997C21.75 18.9029 21.5129 18.3306 21.091 17.9087C20.669 17.4867 20.0967 17.2497 19.5 17.2497H17.75V9.66966H19.764C21.622 9.66966 22.187 7.16866 20.548 6.34366L12.784 2.43566ZM7.75 17.2497V9.66966H11.25V17.2497H7.75ZM12.75 17.2497V9.66966H16.25V17.2497H12.75Z" fill="white"/>
</svg>
