<svg width="50" height="20" viewBox="0 0 50 20" fill="none" xmlns="http://www.w3.org/2000/svg">
<g clip-path="url(#clip0_1783_1033)">
<path d="M-88.7699 2.05042C-88.7699 0.403361 -90.3269 0 -91.5526 0V0.235294C-90.8238 0.235294 -90.2606 0.470588 -90.2606 1.07563C-90.2606 1.41176 -90.4925 1.91597 -91.2544 1.91597C-91.8176 1.91597 -93.0433 1.57983 -93.9377 1.2437C-94.9978 0.840336 -95.9585 0.504202 -96.7867 0.504202C-98.4099 0.504202 -99.5693 1.7479 -99.5693 3.15966C-99.5693 4.40336 -98.6749 4.80672 -98.3436 4.97479L-98.2774 4.80672C-98.443 4.63866 -98.6749 4.47059 -98.6749 3.96639C-98.6749 3.63025 -98.3436 3.05882 -97.5486 3.05882C-96.8198 3.05882 -95.826 3.39496 -94.534 3.79832C-93.4077 4.13445 -92.182 4.36975 -91.5194 4.47059V7.02521L-92.7451 8.10084V8.16807L-91.5194 9.2437V12.8067C-92.182 13.2101 -92.9108 13.3109 -93.5402 13.3109C-94.7659 13.3109 -95.826 12.9748 -96.7204 12L-93.3746 10.3529V4.63866L-97.383 6.45378C-97.0517 5.37815 -96.1572 4.63866 -95.2628 4.13445L-95.3622 3.89916C-97.8136 4.57143 -100 6.89076 -100 9.68067C-100 12.9748 -97.3167 15.4622 -94.3021 15.4622C-91.0557 15.4622 -88.9355 12.8067 -88.9355 10.084H-89.068C-89.5649 11.1597 -90.2937 12.1345 -91.1882 12.6387V9.2437L-89.8962 8.16807V8.10084L-91.1882 7.02521V4.47059C-89.9625 4.47059 -88.7699 3.63025 -88.7699 2.05042ZM-95.8591 11.1597L-96.8529 11.6639C-97.4161 10.9244 -97.7473 9.91597 -97.7473 8.53782C-97.7473 7.96639 -97.7473 7.29412 -97.5817 6.78992L-95.8591 6.05042V11.1597ZM-87.2129 13.0756L-88.273 13.916L-88.1073 14.084L-87.6104 13.6807L-85.8216 15.3277L-83.3701 13.6807L-83.4364 13.5126L-84.0989 13.916L-84.9271 13.0756V7.42857L-84.2646 6.92437L-82.8732 8.06723V13.1092C-82.8732 16.2353 -83.5358 16.7395 -84.894 17.2437V17.479C-82.6082 17.5462 -80.4881 16.8067 -80.4881 12.7731V7.36134L-79.7593 6.78992L-79.9249 6.62185L-80.5875 7.12605L-82.6413 5.37815L-84.9271 7.12605V0.336134H-85.0928L-87.9417 2.31933V2.4874C-87.6104 2.65546 -87.1135 2.82353 -87.1135 3.73109L-87.2129 13.0756ZM-72.3057 12.1681L-74.3264 13.7479L-76.3472 12.1008V11.0924L-72.5044 8.43698V8.36975L-74.492 5.37815L-78.7323 7.69748V13.1429L-79.5605 13.8151L-79.3949 13.9832L-78.6661 13.4118L-75.8834 15.4622L-72.2063 12.4706L-72.3057 12.1681ZM-76.3803 10.7563V6.68908L-76.2147 6.62185L-74.4258 9.5126L-76.3803 10.7563ZM-56.7359 1.31092C-56.7359 1.07563 -56.8021 0.806723 -56.9015 0.571429H-57.0671C-57.299 1.2437 -57.6303 1.57983 -58.4585 1.57983C-59.1873 1.57983 -59.6842 1.17647 -60.0155 0.840336L-62.3675 3.56303L-62.2019 3.73109L-61.3737 2.9916C-60.8768 3.39496 -60.4792 3.73109 -59.3529 3.83193V10.6891L-64.1564 2.31933C-64.5539 1.64706 -65.1502 0.739496 -66.2765 0.739496C-67.5685 0.739496 -68.7279 1.88235 -68.5623 3.73109H-68.3304C-68.2641 3.22689 -67.9991 2.65546 -67.436 2.65546C-67.0384 2.65546 -66.6078 3.05882 -66.3759 3.4958V6.21849C-67.8335 6.21849 -68.8273 6.89076 -68.8273 8.13445C-68.8273 8.80672 -68.496 9.78151 -67.5353 10.0504V9.88235C-67.701 9.71429 -67.7672 9.54622 -67.7672 9.31092C-67.7672 8.90756 -67.436 8.57143 -66.8728 8.57143H-66.4753V12.0336C-68.1979 12.0336 -69.5561 13.042 -69.5561 14.6891C-69.5561 16.2689 -68.2641 17.0084 -66.7734 16.9076V16.7395C-67.6678 16.6723 -68.0654 16.2353 -68.0654 15.6639C-68.0654 14.9244 -67.5685 14.5882 -66.939 14.5882C-66.2765 14.5882 -65.7133 14.9916 -65.3158 15.4958L-62.9638 12.8403L-63.1294 12.6723L-63.6926 13.3445C-64.587 12.5042 -65.0839 12.2689 -66.144 12.1008V3.79832L-59.5848 15.3613H-59.0879V3.79832C-57.8953 3.73109 -56.7359 2.72269 -56.7359 1.31092ZM-50.8061 12.1681L-52.8269 13.7479L-54.8476 12.1008V11.0924L-51.0049 8.43698V8.36975L-52.9594 5.37815L-57.1996 7.69748V13.1429L-58.0278 13.8151L-57.8622 13.9832L-57.1334 13.4118L-54.3507 15.4622L-50.6736 12.4706C-50.7067 12.4706 -50.8061 12.1681 -50.8061 12.1681ZM-54.8807 10.7563V6.68908L-54.7151 6.62185L-52.9262 9.5126C-52.8931 9.5126 -54.8807 10.7563 -54.8807 10.7563ZM-37.5221 6.28571L-38.0852 6.68908L-39.6422 5.37815L-41.4311 7.02521L-40.7023 7.76471V13.9496L-42.6568 12.7059V7.59664L-41.9943 7.19328L-43.8825 5.37815L-45.6714 7.02521L-44.9426 7.76471V13.7143L-45.1745 13.8824L-46.8971 12.6387V7.69748C-46.8971 6.55462 -47.4602 6.21849 -48.1228 5.78151C-48.686 5.37815 -49.0172 5.10924 -49.0172 4.53782C-49.0172 4.03361 -48.5203 3.79832 -48.2884 3.63025V3.46219C-48.951 3.46219 -50.6405 4.13445 -50.6405 5.68067C-50.6405 6.52101 -50.2429 6.82353 -49.8123 7.2605C-49.4147 7.66387 -48.9841 8 -48.9841 8.7395V13.5462L-49.8785 14.2185L-49.7129 14.3866L-48.8847 13.7143L-46.9965 15.3613L-44.9757 13.9496L-42.6899 15.3613L-38.3834 12.8067V7.2605L-37.3233 6.42017L-37.5221 6.28571ZM-22.3498 1.7479L-23.178 2.4874L-24.9669 0.840336L-27.6502 2.82353V1.0084H-27.8821L-27.8158 14.3866C-28.0477 14.3866 -28.8096 14.2185 -29.3728 14.0504L-29.5384 2.89076C-29.5384 2.05042 -30.1016 0.907563 -31.5592 0.907563C-33.0168 0.907563 -34.0106 2.05042 -34.0106 3.22689H-33.7787C-33.7125 2.72269 -33.4474 2.31933 -32.9505 2.31933C-32.4536 2.31933 -32.0561 2.65546 -32.0561 3.73109V6.95798C-33.5137 7.02521 -34.4081 7.86555 -34.4081 8.94118C-34.4081 9.61345 -34.0769 10.5882 -33.1162 10.5882V10.4202C-33.4474 10.2521 -33.5137 10.0168 -33.5137 9.84874C-33.5137 9.34454 -33.1162 9.17647 -32.4536 9.17647H-32.1224V14.2857C-33.3481 14.6891 -33.845 15.5966 -33.845 16.605C-33.845 18.0168 -32.7849 18.9916 -31.1617 18.9916C-30.0353 18.9916 -29.0415 18.8235 -28.0808 18.5882C-27.2526 18.4202 -26.1926 18.1849 -25.7288 18.1849C-25.0663 18.1849 -24.8344 18.521 -24.8344 18.9244C-24.8344 19.4958 -25.0663 19.7647 -25.3975 19.8319V20C-24.1056 19.7647 -23.2774 18.9244 -23.2774 17.6807C-23.2774 16.437 -24.5031 15.6975 -25.7951 15.6975C-26.4576 15.6975 -27.8158 15.9328 -28.8096 16.1008C-29.936 16.3361 -31.0954 16.5042 -31.4267 16.5042C-31.9898 16.5042 -32.6524 16.2689 -32.6524 15.4286C-32.6524 14.7563 -32.0892 14.1849 -30.6979 14.1849C-29.9691 14.1849 -29.0746 14.2521 -28.1802 14.521C-27.1864 14.7563 -26.292 15.0252 -25.4969 15.0252C-24.2712 15.0252 -23.2111 14.6218 -23.2111 12.874V2.72269L-22.2173 1.88235L-22.3498 1.7479ZM-25.6957 6.78992C-25.9276 7.02521 -26.2588 7.29412 -26.6895 7.29412C-27.1201 7.29412 -27.5177 7.05882 -27.6833 6.78992V3.12605L-26.8551 2.55462L-25.7288 3.63025C-25.6957 3.63025 -25.6957 6.78992 -25.6957 6.78992ZM-25.6957 9.2437C-25.8613 9.07563 -26.2588 8.84034 -26.6895 8.84034C-27.1201 8.84034 -27.5177 9.07563 -27.6833 9.2437V7.09244C-27.5177 7.2605 -27.1201 7.4958 -26.6895 7.4958C-26.2588 7.4958 -25.8613 7.2605 -25.6957 7.09244V9.2437ZM-25.6957 13.1429C-25.6957 13.8151 -26.0932 14.4538 -26.9876 14.4538H-27.6502V9.57983C-27.4845 9.41177 -27.087 9.17647 -26.6564 9.17647C-26.2257 9.17647 -25.9276 9.41177 -25.6625 9.57983C-25.6957 9.57983 -25.6957 13.1429 -25.6957 13.1429ZM-14.5318 7.2605L-17.1488 5.34454L-21.1572 7.66387V13.042L-21.9854 13.7143L-21.9192 13.8824L-21.2566 13.3782L-18.6396 15.3613L-14.5649 12.874C-14.5318 12.9076 -14.5318 7.2605 -14.5318 7.2605ZM-18.9377 12.4706V6.52101L-16.917 8V13.8824C-16.8838 13.8824 -18.9377 12.4706 -18.9377 12.4706ZM-6.78004 5.54622H-6.94567C-7.17756 5.71429 -7.44257 5.88235 -7.67446 5.88235C-8.00574 5.88235 -8.40327 5.71429 -8.5689 5.47899H-8.73454L-10.1259 7.05882L-11.5172 5.47899L-13.9686 7.12605L-13.9024 7.29412L-13.2398 6.89076L-12.4117 7.79832V13.0084L-13.4717 13.8487L-13.3061 14.0168L-12.8092 13.6134L-10.8547 15.2605L-8.33701 13.5126L-8.40327 13.3445L-9.13206 13.7479L-10.1259 12.9076V7.12605C-9.72836 7.52941 -9.23145 7.96639 -8.66828 7.96639C-7.54195 8.03361 -6.87942 6.85714 -6.78004 5.54622ZM2.99249 13.479L0.209808 15.395L-3.53356 9.61345L-0.850266 5.41177H-0.684631C-0.353355 5.7479 0.143555 6.08403 0.706718 6.08403C1.26988 6.08403 1.70054 5.7479 1.93243 5.41177H2.09806C2.03181 7.05882 0.872353 8.06723 0.077301 8.06723C-0.750877 8.06723 -1.14841 7.66387 -1.64532 7.39496L-1.8772 7.79832L2.19744 13.916L3.02562 13.4118V13.479H2.99249ZM-5.98499 13.0756L-7.04505 13.916L-6.87941 14.084L-6.38251 13.6807L-4.59364 15.3277L-2.14223 13.6807L-2.30786 13.5126L-2.97041 13.916L-3.79858 13.0756V0.336134H-3.86484L-6.81316 2.31933V2.4874C-6.48189 2.65546 -5.98499 2.72269 -5.98499 3.73109V13.0756ZM16.5084 2.05042C16.5084 0.403361 14.9514 0 13.7257 0V0.235294C14.4545 0.235294 15.0177 0.470588 15.0177 1.07563C15.0177 1.41176 14.7858 1.91597 14.0239 1.91597C13.4607 1.91597 12.235 1.57983 11.3406 1.2437C10.2805 0.907563 9.31979 0.571429 8.49161 0.571429C6.86838 0.571429 5.70893 1.81513 5.70893 3.22689C5.70893 4.47059 6.60336 4.87395 6.93463 5.04202L7.00089 4.87395C6.769 4.70588 6.50397 4.53782 6.50397 4.03361C6.50397 3.69748 6.83525 3.12605 7.6303 3.12605C8.3591 3.12605 9.35292 3.46218 10.6449 3.86555C11.7712 4.20168 12.9969 4.43698 13.6595 4.53782V7.09244L12.4337 8.16807V8.23529L13.6595 9.31092V12.874C12.9969 13.2773 12.2681 13.3782 11.6387 13.3782C10.413 13.3782 9.35291 13.042 8.45848 12.0672L11.8043 10.4202V4.63866L7.72969 6.45378C8.12721 5.37815 9.02165 4.63866 9.84983 4.06723L9.78357 3.89916C7.33215 4.57143 5.14576 6.78992 5.14576 9.61345C5.14576 12.9076 7.82907 15.395 10.8436 15.395C14.0901 15.395 16.2102 12.7395 16.2102 10.0168H16.0446C15.5477 11.0924 14.8189 12.0672 13.9245 12.5714V9.17647L15.2164 8.10084V8.03361L13.9907 6.95798V4.47059C15.2827 4.47059 16.5084 3.63025 16.5084 2.05042ZM9.41917 11.1597L8.42535 11.6639C7.86219 10.9244 7.53092 9.91597 7.53092 8.53782C7.53092 7.96639 7.59718 7.29412 7.76281 6.78992L9.48543 6.05042L9.41917 11.1597ZM19.3573 1.2437H19.258L17.6347 2.65546V2.72269L19.0261 4.30252H19.1917L20.8149 2.89076V2.82353L19.3573 1.2437ZM21.8088 13.479L21.1462 13.8824L20.318 13.042V7.32773L21.1462 6.7563L20.9806 6.58824L20.4174 7.09244L18.9598 5.34454L16.6078 6.9916L16.7734 7.22689L17.3366 6.82353L18.0654 7.73109V13.1092L17.0053 13.9496L17.0716 14.1176L17.6347 13.7143L19.4236 15.3613L21.875 13.7143L21.8088 13.479ZM35.3909 13.3782L34.8277 13.7815L33.9333 12.9412V7.36134L34.7615 6.68908L34.5959 6.52101L33.9333 7.09244L32.0451 5.34454L29.5936 7.09244L27.7054 5.34454L25.4196 7.09244L23.962 5.34454L21.61 6.9916L21.6762 7.22689L22.2394 6.82353L23.0676 7.73109V13.1092L22.405 13.7815L24.2933 15.3613L26.0822 13.7143L25.3534 12.9748V7.36134L26.0822 6.85714L27.3079 8V12.9748L26.6453 13.6471L28.5336 15.2269L30.3224 13.5798L29.5936 12.8403V7.36134L30.2562 6.95798L31.5482 8.10084V13.0756L30.985 13.6471L32.8732 15.395L35.3909 13.6471V13.3782ZM42.4801 12.1681L40.4594 13.7479L38.4386 12.1008V11.0924L42.2814 8.43698V8.36975L40.3269 5.37815L36.0866 7.69748V13.3109L38.9355 15.3613L42.6126 12.3697C42.5795 12.4034 42.4801 12.1681 42.4801 12.1681ZM38.4055 10.7563V6.68908L38.5711 6.62185L40.36 9.5126L38.4055 10.7563ZM49.9006 10.0168L48.3436 8.77311C49.4037 7.86555 49.8012 6.62185 49.8012 5.78151V5.27731H49.6356C49.47 5.68067 49.1387 6.11765 48.5093 6.11765C47.8467 6.11765 47.4492 5.78151 47.0517 5.27731L43.3746 7.32773V10.3193L44.7659 11.395C43.3746 12.6387 43.1427 13.4454 43.1427 14.1176C43.1427 14.958 43.5402 15.5294 44.2027 15.7647L44.269 15.5966C44.1034 15.4286 43.9377 15.3613 43.9377 14.9244C43.9377 14.6891 44.269 14.2521 44.9315 14.2521C45.7597 14.2521 46.2235 14.8235 46.4885 15.0924L50 12.9412V9.94958C50 10.0168 49.9006 10.0168 49.9006 10.0168ZM49.0062 7.52941C48.443 8.53782 47.2173 9.5126 46.4885 10.0168L45.5941 9.27731V6.38655C45.9254 7.22689 46.8198 7.86555 47.7142 7.86555C48.2774 7.86555 48.6087 7.76471 49.0062 7.52941ZM47.6149 14.1513C47.2173 13.2437 46.2235 12.5714 45.2628 12.5714C45.0309 12.5714 44.3684 12.5714 43.7058 12.9748C44.1034 12.3025 45.1634 11.1597 46.5548 10.3193L47.5486 11.1597L47.6149 14.1513Z" fill="white"/>
</g>
<defs>
<clipPath id="clip0_1783_1033">
<rect width="150" height="20" fill="white" transform="translate(-100)"/>
</clipPath>
</defs>
</svg>
