<svg width="1349" height="378" viewBox="0 0 1349 378" fill="none" xmlns="http://www.w3.org/2000/svg">
<mask id="path-1-outside-1_1783_1105" maskUnits="userSpaceOnUse" x="0" y="0" width="1349" height="378" fill="black">
<rect fill="white" width="1349" height="378"/>
<path d="M305.895 1.41016V371H245.867L71.9863 119.232H68.7617V371H1.78906V1.41016H61.8164L235.697 253.178H238.922V1.41016H305.895ZM592.637 1.41016H659.361V242.76C659.361 269.218 653.16 292.535 640.758 312.709C628.355 332.718 610.91 348.428 588.42 359.838C565.93 371.083 539.637 376.705 509.541 376.705C479.445 376.705 453.152 371.083 430.662 359.838C408.173 348.428 390.644 332.718 378.076 312.709C365.674 292.535 359.473 269.218 359.473 242.76V1.41016H426.445V237.303C426.445 252.847 429.835 266.572 436.615 278.479C443.395 290.385 452.986 299.811 465.389 306.756C477.956 313.536 492.674 316.926 509.541 316.926C526.408 316.926 541.043 313.536 553.445 306.756C565.848 299.811 575.439 290.385 582.219 278.479C589.164 266.572 592.637 252.847 592.637 237.303V1.41016ZM713.188 371V1.41016H855.07C881.694 1.41016 903.853 5.62695 921.547 14.0605C939.241 22.3288 952.47 33.7389 961.234 48.291C969.999 62.6777 974.381 78.9661 974.381 97.1562C974.381 112.204 971.487 125.103 965.699 135.852C960.077 146.435 952.387 155.034 942.631 161.648C932.874 168.263 921.96 173.059 909.889 176.035V179.756C923.118 180.252 935.686 184.221 947.592 191.662C959.663 198.938 969.503 209.191 977.109 222.42C984.882 235.649 988.768 251.607 988.768 270.293C988.768 289.475 984.137 306.673 974.877 321.887C965.782 336.935 951.891 348.924 933.205 357.854C914.684 366.618 891.285 371 863.008 371H713.188ZM780.16 315.189H852.094C876.402 315.189 893.931 310.477 904.68 301.051C915.594 291.625 921.051 279.636 921.051 265.084C921.051 254.005 918.322 244.083 912.865 235.318C907.408 226.554 899.636 219.609 889.549 214.482C879.627 209.356 867.886 206.793 854.326 206.793H780.16V315.189ZM780.16 158.672H846.637C858.047 158.672 868.382 156.522 877.643 152.223C886.903 147.923 894.179 141.887 899.471 134.115C904.928 126.178 907.656 116.835 907.656 106.086C907.656 91.8646 902.613 80.1237 892.525 70.8633C882.438 61.4375 867.638 56.7246 848.125 56.7246H780.16V158.672ZM1075.83 371H1004.15L1134.62 1.41016H1216.97L1347.2 371H1275.76L1177.04 77.3125H1174.06L1075.83 371ZM1078.31 226.141H1273.03V279.719H1078.31V226.141Z"/>
</mask>
<path d="M305.895 1.41016V371H245.867L71.9863 119.232H68.7617V371H1.78906V1.41016H61.8164L235.697 253.178H238.922V1.41016H305.895ZM592.637 1.41016H659.361V242.76C659.361 269.218 653.16 292.535 640.758 312.709C628.355 332.718 610.91 348.428 588.42 359.838C565.93 371.083 539.637 376.705 509.541 376.705C479.445 376.705 453.152 371.083 430.662 359.838C408.173 348.428 390.644 332.718 378.076 312.709C365.674 292.535 359.473 269.218 359.473 242.76V1.41016H426.445V237.303C426.445 252.847 429.835 266.572 436.615 278.479C443.395 290.385 452.986 299.811 465.389 306.756C477.956 313.536 492.674 316.926 509.541 316.926C526.408 316.926 541.043 313.536 553.445 306.756C565.848 299.811 575.439 290.385 582.219 278.479C589.164 266.572 592.637 252.847 592.637 237.303V1.41016ZM713.188 371V1.41016H855.07C881.694 1.41016 903.853 5.62695 921.547 14.0605C939.241 22.3288 952.47 33.7389 961.234 48.291C969.999 62.6777 974.381 78.9661 974.381 97.1562C974.381 112.204 971.487 125.103 965.699 135.852C960.077 146.435 952.387 155.034 942.631 161.648C932.874 168.263 921.96 173.059 909.889 176.035V179.756C923.118 180.252 935.686 184.221 947.592 191.662C959.663 198.938 969.503 209.191 977.109 222.42C984.882 235.649 988.768 251.607 988.768 270.293C988.768 289.475 984.137 306.673 974.877 321.887C965.782 336.935 951.891 348.924 933.205 357.854C914.684 366.618 891.285 371 863.008 371H713.188ZM780.16 315.189H852.094C876.402 315.189 893.931 310.477 904.68 301.051C915.594 291.625 921.051 279.636 921.051 265.084C921.051 254.005 918.322 244.083 912.865 235.318C907.408 226.554 899.636 219.609 889.549 214.482C879.627 209.356 867.886 206.793 854.326 206.793H780.16V315.189ZM780.16 158.672H846.637C858.047 158.672 868.382 156.522 877.643 152.223C886.903 147.923 894.179 141.887 899.471 134.115C904.928 126.178 907.656 116.835 907.656 106.086C907.656 91.8646 902.613 80.1237 892.525 70.8633C882.438 61.4375 867.638 56.7246 848.125 56.7246H780.16V158.672ZM1075.83 371H1004.15L1134.62 1.41016H1216.97L1347.2 371H1275.76L1177.04 77.3125H1174.06L1075.83 371ZM1078.31 226.141H1273.03V279.719H1078.31V226.141Z" fill="white" fill-opacity="0.03"/>
<path d="M305.895 1.41016H306.895V0.410156H305.895V1.41016ZM305.895 371V372H306.895V371H305.895ZM245.867 371L245.044 371.568L245.343 372H245.867V371ZM71.9863 119.232L72.8092 118.664L72.511 118.232H71.9863V119.232ZM68.7617 119.232V118.232H67.7617V119.232H68.7617ZM68.7617 371V372H69.7617V371H68.7617ZM1.78906 371H0.789062V372H1.78906V371ZM1.78906 1.41016V0.410156H0.789062V1.41016H1.78906ZM61.8164 1.41016L62.6392 0.841873L62.3411 0.410156H61.8164V1.41016ZM235.697 253.178L234.874 253.746L235.173 254.178H235.697V253.178ZM238.922 253.178V254.178H239.922V253.178H238.922ZM238.922 1.41016V0.410156H237.922V1.41016H238.922ZM305.895 1.41016H304.895V371H305.895H306.895V1.41016H305.895ZM305.895 371V370H245.867V371V372H305.895V371ZM245.867 371L246.69 370.432L72.8092 118.664L71.9863 119.232L71.1635 119.801L245.044 371.568L245.867 371ZM71.9863 119.232V118.232H68.7617V119.232V120.232H71.9863V119.232ZM68.7617 119.232H67.7617V371H68.7617H69.7617V119.232H68.7617ZM68.7617 371V370H1.78906V371V372H68.7617V371ZM1.78906 371H2.78906V1.41016H1.78906H0.789062V371H1.78906ZM1.78906 1.41016V2.41016H61.8164V1.41016V0.410156H1.78906V1.41016ZM61.8164 1.41016L60.9936 1.97844L234.874 253.746L235.697 253.178L236.52 252.609L62.6392 0.841873L61.8164 1.41016ZM235.697 253.178V254.178H238.922V253.178V252.178H235.697V253.178ZM238.922 253.178H239.922V1.41016H238.922H237.922V253.178H238.922ZM238.922 1.41016V2.41016H305.895V1.41016V0.410156H238.922V1.41016ZM592.637 1.41016V0.410156H591.637V1.41016H592.637ZM659.361 1.41016H660.361V0.410156H659.361V1.41016ZM640.758 312.709L641.608 313.236L641.61 313.233L640.758 312.709ZM588.42 359.838L588.867 360.732L588.872 360.73L588.42 359.838ZM430.662 359.838L430.21 360.73L430.215 360.732L430.662 359.838ZM378.076 312.709L377.224 313.233L377.229 313.241L378.076 312.709ZM359.473 1.41016V0.410156H358.473V1.41016H359.473ZM426.445 1.41016H427.445V0.410156H426.445V1.41016ZM465.389 306.756L464.9 307.628L464.907 307.632L464.914 307.636L465.389 306.756ZM553.445 306.756L553.925 307.633L553.934 307.628L553.445 306.756ZM582.219 278.479L581.355 277.975L581.35 277.984L582.219 278.479ZM592.637 1.41016V2.41016H659.361V1.41016V0.410156H592.637V1.41016ZM659.361 1.41016H658.361V242.76H659.361H660.361V1.41016H659.361ZM659.361 242.76H658.361C658.361 269.055 652.2 292.186 639.906 312.185L640.758 312.709L641.61 313.233C654.12 292.883 660.361 269.381 660.361 242.76H659.361ZM640.758 312.709L639.908 312.182C627.609 332.024 610.306 347.613 587.967 358.946L588.42 359.838L588.872 360.73C611.513 349.243 629.102 333.412 641.608 313.236L640.758 312.709ZM588.42 359.838L587.973 358.943C565.647 370.106 539.512 375.705 509.541 375.705V376.705V377.705C539.762 377.705 566.214 372.059 588.867 360.732L588.42 359.838ZM509.541 376.705V375.705C479.57 375.705 453.435 370.106 431.109 358.943L430.662 359.838L430.215 360.732C452.868 372.059 479.32 377.705 509.541 377.705V376.705ZM430.662 359.838L431.115 358.946C408.775 347.612 391.388 332.022 378.923 312.177L378.076 312.709L377.229 313.241C389.9 333.414 407.57 349.243 430.21 360.73L430.662 359.838ZM378.076 312.709L378.928 312.185C366.634 292.186 360.473 269.055 360.473 242.76H359.473H358.473C358.473 269.381 364.714 292.883 377.224 313.233L378.076 312.709ZM359.473 242.76H360.473V1.41016H359.473H358.473V242.76H359.473ZM359.473 1.41016V2.41016H426.445V1.41016V0.410156H359.473V1.41016ZM426.445 1.41016H425.445V237.303H426.445H427.445V1.41016H426.445ZM426.445 237.303H425.445C425.445 252.997 428.869 266.897 435.746 278.973L436.615 278.479L437.484 277.984C430.801 266.248 427.445 252.697 427.445 237.303H426.445ZM436.615 278.479L435.746 278.973C442.62 291.044 452.345 300.598 464.9 307.628L465.389 306.756L465.877 305.883C453.628 299.023 444.171 289.726 437.484 277.984L436.615 278.479ZM465.389 306.756L464.914 307.636C477.652 314.508 492.538 317.926 509.541 317.926V316.926V315.926C492.81 315.926 478.261 312.564 465.863 305.876L465.389 306.756ZM509.541 316.926V317.926C526.544 317.926 541.35 314.508 553.925 307.633L553.445 306.756L552.966 305.878C540.736 312.564 526.273 315.926 509.541 315.926V316.926ZM553.445 306.756L553.934 307.628C566.489 300.598 576.214 291.044 583.088 278.973L582.219 278.479L581.35 277.984C574.663 289.726 565.206 299.023 552.957 305.883L553.445 306.756ZM582.219 278.479L583.083 278.982C590.128 266.904 593.637 253.001 593.637 237.303H592.637H591.637C591.637 252.693 588.2 266.24 581.355 277.975L582.219 278.479ZM592.637 237.303H593.637V1.41016H592.637H591.637V237.303H592.637ZM713.188 371H712.188V372H713.188V371ZM713.188 1.41016V0.410156H712.188V1.41016H713.188ZM921.547 14.0605L921.117 14.9633L921.124 14.9665L921.547 14.0605ZM961.234 48.291L960.378 48.8069L960.38 48.8113L961.234 48.291ZM965.699 135.852L964.819 135.377L964.816 135.382L965.699 135.852ZM942.631 161.648L943.192 162.476L942.631 161.648ZM909.889 176.035L909.649 175.064L908.889 175.252V176.035H909.889ZM909.889 179.756H908.889V180.719L909.851 180.755L909.889 179.756ZM947.592 191.662L947.062 192.51L947.069 192.514L947.076 192.519L947.592 191.662ZM977.109 222.42L976.242 222.918L976.247 222.926L977.109 222.42ZM974.877 321.887L974.023 321.367L974.021 321.369L974.877 321.887ZM933.205 357.854L933.633 358.757L933.636 358.756L933.205 357.854ZM780.16 315.189H779.16V316.189H780.16V315.189ZM904.68 301.051L904.026 300.294L904.02 300.299L904.68 301.051ZM912.865 235.318L912.016 235.847L912.865 235.318ZM889.549 214.482L889.09 215.371L889.096 215.374L889.549 214.482ZM780.16 206.793V205.793H779.16V206.793H780.16ZM780.16 158.672H779.16V159.672H780.16V158.672ZM899.471 134.115L898.647 133.549L898.644 133.552L899.471 134.115ZM892.525 70.8633L891.843 71.594L891.849 71.5999L892.525 70.8633ZM780.16 56.7246V55.7246H779.16V56.7246H780.16ZM713.188 371H714.188V1.41016H713.188H712.188V371H713.188ZM713.188 1.41016V2.41016H855.07V1.41016V0.410156H713.188V1.41016ZM855.07 1.41016V2.41016C881.596 2.41016 903.596 6.61237 921.117 14.9633L921.547 14.0605L921.977 13.1578C904.11 4.64154 881.792 0.410156 855.07 0.410156V1.41016ZM921.547 14.0605L921.124 14.9665C938.665 23.1636 951.731 34.4495 960.378 48.8069L961.234 48.291L962.091 47.7751C953.209 33.0284 939.816 21.4939 921.97 13.1546L921.547 14.0605ZM961.234 48.291L960.38 48.8113C969.042 63.0288 973.381 79.1345 973.381 97.1562H974.381H975.381C975.381 78.7978 970.956 62.3267 962.088 47.7708L961.234 48.291ZM974.381 97.1562H973.381C973.381 112.077 970.512 124.805 964.819 135.377L965.699 135.852L966.58 136.326C972.462 125.401 975.381 112.332 975.381 97.1562H974.381ZM965.699 135.852L964.816 135.382C959.269 145.824 951.689 154.299 942.07 160.821L942.631 161.648L943.192 162.476C953.086 155.768 960.885 147.046 966.582 136.321L965.699 135.852ZM942.631 161.648L942.07 160.821C932.416 167.365 921.612 172.114 909.649 175.064L909.889 176.035L910.128 177.006C922.308 174.003 933.332 169.161 943.192 162.476L942.631 161.648ZM909.889 176.035H908.889V179.756H909.889H910.889V176.035H909.889ZM909.889 179.756L909.851 180.755C922.895 181.244 935.294 185.155 947.062 192.51L947.592 191.662L948.122 190.814C936.077 183.286 923.341 179.26 909.926 178.757L909.889 179.756ZM947.592 191.662L947.076 192.519C958.99 199.7 968.713 209.824 976.242 222.918L977.109 222.42L977.976 221.921C970.292 208.558 960.337 198.176 948.108 190.806L947.592 191.662ZM977.109 222.42L976.247 222.926C983.911 235.972 987.768 251.746 987.768 270.293H988.768H989.768C989.768 251.467 985.852 235.326 977.972 221.913L977.109 222.42ZM988.768 270.293H987.768C987.768 289.307 983.18 306.322 974.023 321.367L974.877 321.887L975.731 322.407C985.094 307.024 989.768 289.644 989.768 270.293H988.768ZM974.877 321.887L974.021 321.369C965.044 336.223 951.316 348.09 932.774 356.951L933.205 357.854L933.636 358.756C952.467 349.757 966.52 337.647 975.733 322.404L974.877 321.887ZM933.205 357.854L932.777 356.95C914.431 365.631 891.19 370 863.008 370V371V372C891.38 372 914.938 367.604 933.633 358.757L933.205 357.854ZM863.008 371V370H713.188V371V372H863.008V371ZM780.16 315.189V316.189H852.094V315.189V314.189H780.16V315.189ZM852.094 315.189V316.189C876.489 316.189 894.317 311.468 905.339 301.803L904.68 301.051L904.02 300.299C893.545 309.485 876.316 314.189 852.094 314.189V315.189ZM904.68 301.051L905.333 301.808C916.47 292.19 922.051 279.924 922.051 265.084H921.051H920.051C920.051 279.348 914.718 291.06 904.026 300.294L904.68 301.051ZM921.051 265.084H922.051C922.051 253.832 919.277 243.724 913.714 234.79L912.865 235.318L912.016 235.847C917.367 244.441 920.051 254.177 920.051 265.084H921.051ZM912.865 235.318L913.714 234.79C908.152 225.856 900.236 218.792 890.002 213.591L889.549 214.482L889.096 215.374C899.037 220.426 906.665 227.252 912.016 235.847L912.865 235.318ZM889.549 214.482L890.008 213.594C879.917 208.38 868.012 205.793 854.326 205.793V206.793V207.793C867.76 207.793 879.337 210.332 889.09 215.371L889.549 214.482ZM854.326 206.793V205.793H780.16V206.793V207.793H854.326V206.793ZM780.16 206.793H779.16V315.189H780.16H781.16V206.793H780.16ZM780.16 158.672V159.672H846.637V158.672V157.672H780.16V158.672ZM846.637 158.672V159.672C858.175 159.672 868.657 157.497 878.064 153.13L877.643 152.223L877.221 151.316C868.108 155.547 857.919 157.672 846.637 157.672V158.672ZM877.643 152.223L878.064 153.13C887.473 148.761 894.895 142.612 900.297 134.678L899.471 134.115L898.644 133.552C893.463 141.163 886.333 147.085 877.221 151.316L877.643 152.223ZM899.471 134.115L900.295 134.682C905.879 126.559 908.656 117.013 908.656 106.086H907.656H906.656C906.656 116.657 903.976 125.797 898.647 133.549L899.471 134.115ZM907.656 106.086H908.656C908.656 91.5967 903.504 79.5845 893.202 70.1266L892.525 70.8633L891.849 71.5999C901.721 80.6628 906.656 92.1324 906.656 106.086H907.656ZM892.525 70.8633L893.208 70.1326C882.871 60.4734 867.787 55.7246 848.125 55.7246V56.7246V57.7246C867.489 57.7246 882.005 62.4016 891.843 71.5939L892.525 70.8633ZM848.125 56.7246V55.7246H780.16V56.7246V57.7246H848.125V56.7246ZM780.16 56.7246H779.16V158.672H780.16H781.16V56.7246H780.16ZM1075.83 371V372H1076.55L1076.78 371.317L1075.83 371ZM1004.15 371L1003.2 370.667L1002.73 372H1004.15V371ZM1134.62 1.41016V0.410156H1133.91L1133.68 1.07727L1134.62 1.41016ZM1216.97 1.41016L1217.91 1.07784L1217.68 0.410156H1216.97V1.41016ZM1347.2 371V372H1348.61L1348.14 370.668L1347.2 371ZM1275.76 371L1274.81 371.319L1275.04 372H1275.76V371ZM1177.04 77.3125L1177.98 76.9939L1177.75 76.3125H1177.04V77.3125ZM1174.06 77.3125V76.3125H1173.34L1173.11 76.9953L1174.06 77.3125ZM1078.31 226.141V225.141H1077.31V226.141H1078.31ZM1273.03 226.141H1274.03V225.141H1273.03V226.141ZM1273.03 279.719V280.719H1274.03V279.719H1273.03ZM1078.31 279.719H1077.31V280.719H1078.31V279.719ZM1075.83 371V370H1004.15V371V372H1075.83V371ZM1004.15 371L1005.09 371.333L1135.56 1.74304L1134.62 1.41016L1133.68 1.07727L1003.2 370.667L1004.15 371ZM1134.62 1.41016V2.41016H1216.97V1.41016V0.410156H1134.62V1.41016ZM1216.97 1.41016L1216.03 1.74248L1346.25 371.332L1347.2 371L1348.14 370.668L1217.91 1.07784L1216.97 1.41016ZM1347.2 371V370H1275.76V371V372H1347.2V371ZM1275.76 371L1276.71 370.681L1177.98 76.9939L1177.04 77.3125L1176.09 77.6311L1274.81 371.319L1275.76 371ZM1177.04 77.3125V76.3125H1174.06V77.3125V78.3125H1177.04V77.3125ZM1174.06 77.3125L1173.11 76.9953L1074.88 370.683L1075.83 371L1076.78 371.317L1175.01 77.6297L1174.06 77.3125ZM1078.31 226.141V227.141H1273.03V226.141V225.141H1078.31V226.141ZM1273.03 226.141H1272.03V279.719H1273.03H1274.03V226.141H1273.03ZM1273.03 279.719V278.719H1078.31V279.719V280.719H1273.03V279.719ZM1078.31 279.719H1079.31V226.141H1078.31H1077.31V279.719H1078.31Z" fill="white" fill-opacity="0.05" mask="url(#path-1-outside-1_1783_1105)"/>
</svg>
