<svg width="105" height="29" viewBox="0 0 105 29" fill="none" xmlns="http://www.w3.org/2000/svg">
<g clip-path="url(#clip0_1783_1046)">
<path d="M12.6895 0C19.2942 0 25.5349 5.18231 25.5349 12.7202C25.5349 16.9603 23.5587 20.4152 20.7504 22.7184C21.5825 24.0794 22.6226 25.0217 23.8707 25.0217C25.3269 25.0217 25.951 23.87 26.055 22.9278H27.9272C28.0312 24.1841 27.4071 29 22.2065 29C18.9822 29 17.318 27.1155 16.0698 25.0217C15.0297 25.231 13.8856 25.4404 12.7415 25.4404C6.34473 25.4404 0 20.2581 0 12.7202C0 5.18231 6.34473 0 12.6895 0ZM59.3388 5.70578C64.6434 5.70578 68.9079 9.47473 68.9599 15.0758C68.9599 20.991 64.6434 24.8646 59.3388 24.8646C54.1902 24.8646 49.7177 20.9386 49.7177 15.0758C49.7177 9.37004 54.1382 5.70578 59.3388 5.70578ZM94.3388 5.70578C99.0193 5.70578 101.932 6.96209 101.932 11.6733V19.7347C101.932 20.991 102.348 21.6191 103.388 21.6191C103.908 21.6191 104.324 21.4097 104.532 21.3051L105 22.2473C104.584 22.9801 103.232 24.3412 100.736 24.3412C98.5513 24.3412 97.1991 23.2942 96.9911 21.6191H96.8871C95.847 23.5036 93.9747 24.7599 91.2704 24.7599C88.0461 24.7599 86.0698 23.0848 86.0698 20.0487C86.0698 14.0812 94.3388 15.7563 96.7311 11.778V10.8357C96.7311 8.00903 95.5869 7.38087 94.3388 7.38087C90.5944 7.38087 92.2586 11.778 88.9302 11.778C87.266 11.778 86.6419 10.8357 86.6419 9.68412C86.6419 7.48556 89.3462 5.70578 94.3388 5.70578ZM35.156 6.12455V18.3736C35.156 20.6769 36.3002 21.7238 37.9643 21.7238C39.3165 21.7238 40.7727 21.0957 41.5007 19.63V9.47473C41.5007 8.4278 41.1887 8.00903 40.0446 8.00903H38.7964V6.12455H46.7013V19.5776C46.7013 20.8339 47.1174 21.4621 48.5736 21.4621H48.7816V23.4513L41.7088 24.6029V21.9332H41.6048C40.2526 23.6607 38.2764 24.7076 35.6761 24.7076C32.4517 24.7076 30.0594 23.0325 30.0594 18.5307V9.47473C30.0594 8.4278 29.6434 8.00903 28.4993 8.00903H27.3551V6.12455H35.156ZM82.1174 5.81047C83.7816 5.81047 85.1337 6.75271 85.1337 8.63718C85.1337 9.99819 84.5097 11.3592 82.6374 11.3592C81.0773 11.3592 80.7652 9.8935 79.4131 9.8935C78.269 9.8935 77.3328 11.0451 77.3328 12.7202V20.1534C77.3328 21.8285 77.7489 22.352 79.6211 22.352H80.6612V24.3412H69.4279V22.4043H70.156C72.0282 22.4043 72.2363 21.8809 72.2363 20.2058V9.47473C72.2363 8.4278 71.7162 8.00903 70.5721 8.00903H69.532V6.12455H76.7088L77.0208 9.8935H77.2288C77.9569 7.17148 80.1412 5.81047 82.1174 5.81047ZM12.7415 2.04152C7.95691 2.04152 5.87667 5.65343 5.87667 12.6679C5.87667 19.6823 7.95691 23.2942 12.7415 23.2942C13.6256 23.2942 14.4056 23.0848 15.0297 22.8755C14.0936 20.6769 12.8455 18.583 10.4532 18.583C10.0371 18.583 9.6211 18.6877 9.20505 18.8971L8.47697 17.4314C9.51709 16.5415 10.9212 15.861 12.8455 15.861C15.8618 15.861 17.422 17.3267 18.6701 19.2112C19.3982 17.6408 19.7103 15.4422 19.7103 12.6679C19.7103 5.65343 17.63 2.04152 12.7415 2.04152ZM59.3388 7.48556C56.8425 7.48556 55.3863 9.99819 55.3863 15.0235C55.3863 20.1534 56.8425 22.7708 59.3388 22.7708C62.0431 22.7708 63.0832 20.1534 63.1872 15.0235C63.2912 10.0505 62.0431 7.48556 59.3388 7.48556ZM96.6791 13.9765C95.0149 15.8087 91.1664 16.0704 91.1664 19.4206C91.1664 21.0957 92.2065 22.0379 93.5587 22.0379C95.847 22.0379 96.6791 20.0487 96.6791 17.8502V13.9765Z" fill="white"/>
</g>
<defs>
<clipPath id="clip0_1783_1046">
<rect width="105" height="29" fill="white"/>
</clipPath>
</defs>
</svg>
