<svg width="120" height="48" viewBox="0 0 120 48" fill="none" xmlns="http://www.w3.org/2000/svg">
<g clip-path="url(#clip0_1820_2090)">
<path d="M118.688 45.0201L114.807 40.502H112.183V40.8326C113.003 40.8326 113.057 40.9428 113.057 41.6039V45.4058C113.057 46.7833 112.784 46.8935 112.128 46.8935V47.2241H114.533V46.8935C113.768 46.8935 113.495 46.7282 113.495 45.9568V41.5488L118.743 47.4996H119.126V41.8243C119.126 40.9979 119.563 40.8877 120 40.8877V40.5571H117.595V40.8877C118.196 40.8877 118.688 40.9979 118.688 41.7692V45.0201Z" fill="white"/>
<path d="M107.153 40.3369C105.349 40.3369 103.49 41.494 103.49 43.8633C103.49 46.2326 105.349 47.3897 107.153 47.3897C108.957 47.3897 110.816 46.2326 110.816 43.8633C110.816 41.494 108.957 40.3369 107.153 40.3369ZM107.153 47.1693C105.896 47.1693 105.349 46.0122 105.349 43.9184C105.349 41.8246 105.95 40.6675 107.153 40.6675C108.411 40.6675 108.957 41.8246 108.957 43.9184C108.957 46.0122 108.411 47.1693 107.153 47.1693Z" fill="white"/>
<path d="M98.2959 46.3432C98.2959 46.8391 98.1319 46.8942 97.4212 46.8942V47.2248H100.756V46.8942C100.045 46.8942 99.8813 46.8391 99.8813 46.3432V41.1638C99.8813 40.8883 99.9907 40.8332 100.209 40.8332C100.811 40.8332 101.74 41.3842 102.287 42.376L102.56 42.2658L102.177 40.2822H101.904C101.74 40.3924 101.467 40.4475 101.248 40.4475H96.8198C96.7105 40.4475 96.6012 40.4475 96.4918 40.3924C96.3825 40.3373 96.2731 40.3373 96.2185 40.2822H95.9451L95.5624 42.2658L95.8358 42.376C96.3825 41.3291 97.3665 40.8332 97.9132 40.8332C98.1319 40.8332 98.2413 40.9434 98.2413 41.1638L98.2959 46.3432ZM90.2595 46.3432C90.2595 46.8391 90.0955 46.8942 89.3848 46.8942V47.2248H95.7265L96.2185 45.2412H95.9451C95.0157 46.6187 94.4144 46.8391 92.829 46.8391C92.0636 46.8391 91.9542 46.7289 91.9542 46.3432V41.3291C91.9542 40.8332 92.1183 40.7781 92.829 40.7781V40.4475H89.4941V40.7781C90.2048 40.7781 90.3688 40.8332 90.3688 41.3291L90.2595 46.3432Z" fill="white"/>
<path d="M87.3621 46.2333L86.2688 44.4701C85.9954 44.0293 85.7221 43.864 85.394 43.864C86.4874 43.8089 87.1435 43.2579 87.1435 42.3763C87.1435 41.4947 86.3781 40.5029 84.1913 40.5029H80.8564V40.8335C81.5672 40.8335 81.7312 40.8886 81.7312 41.3845V46.3435C81.7312 46.8394 81.5672 46.8945 80.8564 46.8945V47.2251H84.1913V46.8945C83.4806 46.8945 83.3166 46.8394 83.3166 46.3435V44.0293C84.0273 44.0293 84.246 44.1395 84.4646 44.4701L85.9954 47.2802H88.2915V46.9496C87.9635 46.8945 87.7448 46.8945 87.3621 46.2333ZM83.918 43.6987H83.3166V40.8886H83.6993C85.066 40.8886 85.4487 41.7151 85.4487 42.3212C85.4487 43.3681 84.738 43.6987 83.918 43.6987Z" fill="white"/>
<path d="M78.998 46.178L76.1552 40.7232C76.0459 40.5028 75.9912 40.4477 75.9365 40.4477C75.8272 40.4477 75.6632 40.9987 74.7885 41.5497C74.8978 41.6048 75.0071 41.715 75.0071 41.8252C75.0071 41.8803 75.0071 41.9905 74.8978 42.1558L73.203 45.6821C72.7657 46.5637 72.4923 46.8943 71.891 46.8943V47.2249H74.2964V46.8943C73.6404 46.8943 73.4217 46.729 73.4217 46.4535C73.4217 46.2882 73.4764 46.0127 73.8044 45.5168H76.8659C77.3033 46.1229 77.3579 46.5086 77.3579 46.6188C77.3579 46.8392 77.1393 46.8943 76.4832 46.8943V47.2249H80.0914V46.8943C79.4901 46.8943 79.3261 46.7841 78.998 46.178ZM73.9684 45.1311L75.2805 42.3211L76.6472 45.1311H73.9684ZM70.5242 44.9658C69.9229 46.178 69.0482 47.1147 67.9548 47.1147C66.916 47.1147 65.8226 46.3433 65.8226 43.919C65.8226 41.715 66.6974 40.7232 68.0094 40.7232C69.2122 40.7232 69.9775 41.5497 70.5242 42.5415H70.7976V40.4477H70.5242C70.4149 40.613 70.1962 40.7232 70.0322 40.7232C69.6495 40.7232 68.8295 40.3926 67.8454 40.3926C65.4946 40.3926 63.9639 41.9905 63.9639 44.0843C63.9639 45.9576 65.4946 47.5004 67.6267 47.5004C68.8295 47.5004 69.7042 47.0596 70.0322 47.0596C70.2509 47.0596 70.4149 47.2249 70.5242 47.5004H70.7429V45.0209L70.5242 44.9658Z" fill="white"/>
<path d="M49.8584 47.2795H55.708L56.4187 45.2408H56.1454C55.1613 46.5632 54.56 46.9489 53.6306 46.9489H51.9905L56.2001 40.7226V40.5573H50.4597L49.8584 42.4307H50.0771C50.8424 41.3838 51.6625 40.8879 52.5372 40.8879H54.0679L49.8584 47.0591V47.2795ZM44.7194 46.3428C44.7194 46.8387 44.5554 46.8938 43.8447 46.8938V47.2244H47.1796V46.8938C46.4689 46.8938 46.3048 46.8387 46.3048 46.3428V41.1634C46.3048 40.8879 46.4142 40.8328 46.6329 40.8328C47.2342 40.8328 48.1636 41.3838 48.7103 42.3756L48.9837 42.2654L48.6556 40.3369H48.3823C48.2183 40.4471 47.9449 40.5022 47.7263 40.5022H43.298C43.1887 40.5022 43.0793 40.5022 42.97 40.4471C42.8606 40.392 42.7513 40.392 42.6966 40.3369H42.4233L42.0406 42.3205L42.314 42.4307C42.8607 41.3838 43.8447 40.8879 44.3914 40.8879C44.6101 40.8879 44.7194 40.9981 44.7194 41.2185V46.3428ZM38.6511 46.3428C38.6511 46.8387 38.4871 46.8938 37.7764 46.8938V47.2244H41.1112V46.8938C40.4005 46.8938 40.2365 46.8387 40.2365 46.3428V41.3838C40.2365 40.8879 40.4005 40.8328 41.1112 40.8328V40.5022H37.7764V40.8328C38.4871 40.8328 38.6511 40.8879 38.6511 41.3838V46.3428Z" fill="white"/>
<path d="M35.918 46.233L34.8246 44.4698C34.5513 44.029 34.2779 43.8637 33.9499 43.8637C35.0433 43.8086 35.6993 43.2576 35.6993 42.376C35.6993 41.4944 34.9339 40.5026 32.7472 40.5026H29.4123V40.8332C30.123 40.8332 30.287 40.8883 30.287 41.3842V46.3432C30.287 46.8391 30.123 46.8942 29.4123 46.8942V47.2248H32.7472V46.8942C32.0364 46.8942 31.8724 46.8391 31.8724 46.3432V44.029C32.5831 44.029 32.8018 44.1392 33.0205 44.4698L34.5513 47.2799H36.8474V46.9493C36.5194 46.8942 36.3554 46.8942 35.918 46.233ZM32.5285 43.6984H31.9271V40.8883H32.3098C33.6765 40.8883 34.0592 41.7148 34.0592 42.3209C34.0046 43.3678 33.2938 43.6984 32.5285 43.6984ZM18.7517 46.3432C18.7517 46.8391 18.5877 46.8942 17.877 46.8942V47.2248H24.0547L24.6014 45.2412H24.328C23.5626 46.5085 22.8519 46.8391 21.4852 46.8391C20.6105 46.8391 20.4465 46.7289 20.4465 46.4534V43.9188H20.8838C22.0866 43.9188 22.6333 44.2494 22.8519 45.1861H23.1253V42.2107H22.8519C22.5786 43.2025 22.1412 43.5882 20.8838 43.5882H20.4465V41.274C20.4465 40.8883 20.5558 40.8332 21.0478 40.8332C22.5239 40.8332 23.2893 41.274 24.2187 42.3209H24.492L23.836 40.5026H17.9317V40.8332C18.6424 40.8332 18.8064 40.8883 18.8064 41.3842V46.3432M14.0501 46.3432C14.0501 46.8391 13.8861 46.8942 13.1754 46.8942V47.2248H16.5103V46.8942C15.7995 46.8942 15.6355 46.8391 15.6355 46.3432V41.3842C15.6355 40.8883 15.7995 40.8332 16.5103 40.8332V40.5026H13.1754V40.8332C13.8861 40.8332 14.0501 40.8883 14.0501 41.3842V43.478H10.6059V41.3842C10.6059 40.8883 10.7699 40.8332 11.4806 40.8332V40.5026H8.14579V40.8332C8.85649 40.8332 9.0205 40.8883 9.0205 41.3842V46.3432C9.0205 46.8391 8.85649 46.8942 8.14579 46.8942V47.2248H11.4806V46.8942C10.7699 46.8942 10.6059 46.8391 10.6059 46.3432V43.9188H13.9954L14.0501 46.3432ZM2.73349 46.3432C2.73349 46.8391 2.56948 46.8942 1.85877 46.8942V47.2248H5.19362V46.8942C4.48292 46.8942 4.31891 46.8391 4.31891 46.3432V41.1638C4.31891 40.8883 4.42825 40.8332 4.64692 40.8332C5.24829 40.8332 6.17768 41.3842 6.72437 42.376L6.99772 42.2658L6.61503 40.2822H6.34169C6.17768 40.3924 5.90433 40.4475 5.68565 40.4475H1.31207C1.20273 40.4475 1.09339 40.4475 0.984055 40.3924C0.874715 40.3373 0.765376 40.3373 0.710706 40.2822H0.382688L0 42.3209L0.273349 42.4311C0.820046 41.3842 1.8041 40.8883 2.3508 40.8883C2.56948 40.8883 2.67882 40.9985 2.67882 41.2189L2.73349 46.3432ZM58.5513 44.3596H60.7927L61.7221 42.9821H59.4806L58.5513 44.3596Z" fill="white"/>
<path d="M56.0363 27.5543C56.0363 27.389 56.4189 27.0033 56.5283 27.0033C56.583 27.0033 56.9656 27.389 56.9656 27.5543C56.9656 27.6094 56.583 28.0502 56.5283 28.0502C56.4189 27.9951 56.0363 27.6094 56.0363 27.5543ZM63.362 27.5543C63.362 27.389 63.7447 27.0033 63.854 27.0033C63.9087 27.0033 64.2914 27.389 64.2914 27.5543C64.2914 27.6094 63.9087 28.0502 63.854 28.0502C63.7447 27.9951 63.362 27.6094 63.362 27.5543ZM59.6991 27.5543C59.6991 27.389 60.0818 27.0033 60.1912 27.0033C60.2458 27.0033 60.6285 27.389 60.6285 27.5543C60.6285 27.6094 60.2458 28.0502 60.1912 28.0502C60.0818 27.9951 59.6991 27.6094 59.6991 27.5543ZM55.5989 28.2706H57.4577C57.6217 28.2706 57.6763 28.1604 57.6763 28.0502V27.0033C57.6763 26.838 57.567 26.7829 57.4577 26.7829C57.075 26.7829 56.2003 26.838 55.5989 26.8931C55.4896 26.8931 55.3802 26.9482 55.3802 27.1135V28.1604C55.3802 28.2706 55.4896 28.2706 55.5989 28.2706ZM54.3415 27.6645C54.3415 27.5543 54.6148 27.2788 54.6695 27.2788C54.7242 27.2788 54.9975 27.5543 54.9975 27.6645C54.9975 27.7196 54.7242 28.0502 54.6695 28.0502C54.6148 27.9951 54.3415 27.7196 54.3415 27.6645ZM58.0044 27.5543C58.0044 27.4441 58.2777 27.1686 58.3324 27.1686C58.3871 27.1686 58.6604 27.4441 58.6604 27.5543C58.6604 27.6094 58.3871 27.94 58.3324 27.94C58.2777 27.94 58.0044 27.6094 58.0044 27.5543ZM61.0659 28.3257C61.2299 28.3257 61.2845 28.2155 61.2845 28.1053V26.9482C61.2845 26.7829 61.1752 26.7278 61.0659 26.7278H59.2618C59.0978 26.7278 59.0431 26.838 59.0431 26.9482V28.1053C59.0431 28.2706 59.1524 28.3257 59.2618 28.3257H61.0659ZM64.7834 28.2706C64.8927 28.2706 65.0021 28.2155 65.0021 28.0502V27.0033C65.0021 26.838 64.8927 26.7829 64.7834 26.7829C64.182 26.7278 63.3073 26.6727 62.9246 26.6727C62.7606 26.6727 62.706 26.7829 62.706 26.8931V27.94C62.706 28.1053 62.8153 28.1604 62.9246 28.1604L64.7834 28.2706ZM65.9861 27.6645C65.9861 27.7196 65.7128 28.0502 65.6581 28.0502C65.6035 28.0502 65.3301 27.7196 65.3301 27.6645C65.3301 27.5543 65.6035 27.2788 65.6581 27.2788C65.7128 27.2788 65.9861 27.5543 65.9861 27.6645ZM62.3233 27.5543C62.3233 27.6094 62.0499 27.94 61.9953 27.94C61.9406 27.94 61.6672 27.6094 61.6672 27.5543C61.6672 27.4441 61.9406 27.1686 61.9953 27.1686C62.0499 27.1686 62.3233 27.4441 62.3233 27.5543ZM57.5123 5.40428C57.7857 6.28588 58.8244 6.39607 59.0978 7.44297L59.0431 7.49807C58.4964 6.72667 57.8404 6.61647 57.5123 6.28588C57.403 6.12058 57.403 5.84508 57.5123 5.40428ZM59.2618 17.6364C59.2618 19.1241 58.059 19.7853 56.747 19.7853C58.3871 17.967 57.1297 15.3773 58.7151 13.6141C58.6057 15.1569 59.2618 16.5895 59.2618 17.6364ZM67.1342 21.6587C68.8836 21.6587 69.7584 20.7771 69.7584 19.3445C69.7584 18.8486 69.5943 18.518 69.5943 18.518C69.1023 18.9037 68.5556 19.0139 68.2276 19.0139C67.5169 19.0139 66.5875 18.5731 66.5875 17.4711C66.5875 15.9834 68.1183 15.212 68.1183 13.559C68.1183 13.0631 67.8996 12.8978 67.8996 12.8978C68.6103 11.9611 68.829 11.0244 68.829 10.3081C68.829 8.98576 68.1183 8.10416 68.1183 8.10416L68.8836 8.48986C68.5556 7.22257 67.8449 6.34098 67.8449 6.34098C67.8449 6.34098 68.2276 6.56137 68.4463 6.45117C68.0636 6.23078 67.5169 5.56958 67.5169 4.24719C67.5169 2.9248 67.2435 2.2636 64.7834 1.8228C64.5101 1.21671 63.854 0.665711 63.526 0.445312C62.9246 0.720811 62.1046 1.05141 61.8312 1.32691C61.8312 1.32691 61.1205 1.38201 60.8472 1.38201C60.4098 1.38201 60.0818 1.21671 59.9178 1.21671C59.3164 1.21671 58.9884 1.8228 58.9884 1.8228C58.9884 1.8228 57.7857 1.8228 56.8563 2.0432C56.3643 2.1534 56.0909 2.5391 55.7629 3.31049L53.4121 4.57779C52.9747 4.79818 52.7014 4.96348 52.7014 5.34918C52.7014 5.56958 52.8654 5.90018 53.1388 6.28588C53.3574 7.71847 53.6308 7.93886 53.9588 7.93886C54.0681 7.93886 54.2322 7.88377 54.2322 7.88377C54.3415 7.99396 54.5602 8.37966 54.6148 8.48986C54.2322 8.71026 53.7401 8.26946 53.1934 8.26946C52.8654 8.26946 52.3187 8.48986 52.3187 9.04086C52.3187 9.26126 52.4281 9.26126 52.5374 9.26126C52.7014 9.26126 52.8107 9.20616 53.1388 9.20616C53.5761 9.20616 53.9041 9.59185 54.5602 9.59185C54.7789 9.59185 54.9429 9.53675 55.0522 9.59185C54.7242 9.81225 54.5055 9.97755 54.6148 10.3081C54.7789 10.9142 55.3255 11.6305 55.5989 11.6305C55.8176 11.6305 56.2549 11.4652 56.2549 11.4652L55.9816 11.6856C54.0681 13.2835 54.5055 15.1018 54.5055 16.9201C54.5055 18.2976 54.1228 19.1792 53.0294 19.1792C52.3187 19.1792 51.3347 18.7384 50.5693 17.8017C50.4599 18.0772 50.4053 18.518 50.4053 18.9037C50.4053 20.5567 51.936 21.6587 53.4121 21.6587C54.7242 21.6587 55.7082 21.273 56.6376 20.5016C59.3164 20.4465 60.1912 18.6282 60.1912 18.6282C61.4486 20.5016 63.854 20.3363 64.2367 20.3363C65.0021 21.3281 66.2048 21.6587 67.1342 21.6587ZM67.2982 11.5754C67.2982 13.559 64.7287 13.8345 64.7287 15.763C64.7287 16.5344 64.9474 17.0303 64.8381 17.5262C64.8381 17.5262 65.3848 16.9201 65.4394 16.5344C65.4394 18.0221 66.2048 19.7302 68.1183 19.7302C68.3916 19.7302 68.829 19.6751 69.2117 19.4547C69.2117 19.4547 69.1023 20.8322 67.5716 20.8322C65.6035 20.8322 63.7994 19.1792 63.7994 16.0936C63.7994 15.4875 63.9087 14.8814 64.2367 14.3855C64.2367 14.3855 63.3073 14.9365 63.198 16.5895C63.198 16.5895 62.8153 15.9834 62.8153 15.3222C62.7606 12.8427 65.6581 13.7243 67.2982 11.5754ZM65.1114 2.5942C66.8609 2.9799 66.6422 4.13699 66.9702 4.96348C66.2048 4.02679 65.2208 3.42069 65.2208 3.42069C65.2754 2.8697 65.1114 2.5942 65.1114 2.5942ZM54.5055 7.33277C54.6148 7.27767 54.9429 7.22257 54.9429 7.22257C55.0522 7.44297 55.0522 7.77357 54.9975 8.04906C54.5602 8.04906 54.3962 7.60827 54.5055 7.33277ZM55.4896 8.76536C55.2709 9.04086 55.1615 9.42656 54.6148 9.42656C54.0681 9.42656 53.5761 8.98576 53.1934 8.98576C52.9748 8.98576 52.9201 9.04086 52.8107 9.04086C52.7014 9.04086 52.6467 8.98576 52.6467 8.93066C52.6467 8.76536 52.8654 8.65516 53.1388 8.65516C53.4121 8.65516 53.6855 8.82046 54.0681 8.87556C54.6695 9.09596 55.0522 8.54496 55.2709 8.32456C55.5442 8.10416 55.8176 8.04906 56.0363 8.04906C56.5283 8.04906 56.8563 8.26946 56.8563 8.26946C56.6376 8.26946 56.0909 8.48986 55.7082 8.76536C55.5989 8.76536 55.5442 8.71026 55.4896 8.76536ZM56.0363 9.37146C55.8176 9.59185 55.6536 9.59185 55.5442 9.59185C55.4349 9.37146 55.5442 8.98576 55.5442 8.98576C55.7629 8.98576 56.0363 9.15106 56.0363 9.37146ZM52.9748 19.8955C55.2162 19.8955 55.1615 17.3058 55.1615 16.4793C55.1615 12.6223 56.3096 11.6856 58.9338 10.4183C60.9019 9.48166 62.706 9.09596 62.706 7.16747C62.706 6.50627 62.4873 5.78998 61.7766 5.78998C61.7766 5.78998 62.0499 6.06548 62.0499 6.56137C62.0499 6.78177 61.9953 6.94707 61.8859 7.16747C61.8859 6.94707 61.8312 6.72667 61.6672 6.56137C61.4486 6.94707 61.4486 7.49807 61.3392 7.71847C61.3392 7.71847 61.2299 7.93886 60.5738 8.32456C60.5738 8.32456 60.4645 8.43476 60.7925 8.43476C60.7925 8.43476 61.6126 8.43476 61.8859 8.10416C61.6672 8.76536 61.3392 8.98576 60.9565 8.98576C60.7379 8.98576 60.3552 8.93066 60.0271 8.93066C59.4258 8.93066 58.1137 9.20616 57.6217 10.0878C57.239 10.6938 56.1456 11.2448 55.7629 11.2448C55.4349 11.2448 54.9429 10.4734 54.9429 10.1429C54.9429 9.75715 55.5989 9.97755 56.0909 9.48165C56.9656 8.60006 57.239 8.43476 58.1684 8.43476C58.1684 8.43476 58.7151 8.43476 58.223 7.93886L56.747 6.56137C56.5283 6.34098 56.4189 6.28588 56.2003 6.28588C56.0909 6.28588 55.9269 6.34098 55.4896 6.72667C54.6148 6.83687 54.3415 6.94707 54.0681 7.11237C53.9041 7.22257 53.8495 7.33277 53.7401 7.33277C53.5761 7.33277 53.4121 6.56137 53.4121 6.45117C53.4121 6.06548 53.8495 5.84508 53.8495 5.56958C53.8495 5.40428 53.6855 5.34918 53.6855 5.34918L53.0841 5.62468C53.0841 5.62468 52.7561 5.23898 53.1388 5.01858C53.1388 5.01858 54.0681 4.46759 55.8722 3.64109C55.9816 4.19209 56.0909 4.24719 56.5283 4.24719L56.3096 4.30229V4.46759C56.4736 4.52269 56.747 4.46759 57.0203 4.35739C57.239 4.24719 57.567 4.24719 57.6217 4.19209C57.6763 4.13699 57.8404 3.97169 57.8404 3.97169C57.731 3.97169 57.4577 4.02679 57.239 4.08189C57.5123 3.86149 57.6763 3.75129 57.6763 3.64109C57.6763 3.58599 57.6217 3.53089 57.6217 3.53089C57.4577 3.53089 57.403 3.64109 57.239 3.58599C57.1296 3.53089 57.0203 3.42069 57.0203 3.31049C57.0203 3.20029 57.1296 3.0901 57.4577 3.0901H57.6763C57.6763 2.8697 57.1843 2.8146 57.0203 2.8146C56.8016 2.8146 56.4189 2.9248 56.1456 3.035C56.1456 3.035 56.2003 2.6493 56.6376 2.4289C56.8563 2.3187 58.1137 2.2085 59.2618 2.2085C60.9565 2.2085 62.2139 3.69619 62.4873 3.69619C62.5966 3.69619 62.706 3.58599 62.542 3.47579C61.9406 3.035 61.5579 2.7044 61.5579 2.3187C61.5579 2.1534 61.5579 1.27181 63.526 0.941209C64.4007 1.6575 64.6741 2.1534 64.6741 2.6493C64.6741 3.47579 63.7994 3.53089 63.69 3.86149C65.9315 4.02679 67.5716 6.94707 67.5716 8.43476C67.5716 11.0795 65.0568 12.1815 63.4713 12.5672C65.7675 10.8591 66.5875 9.15106 66.5875 7.93886C66.5875 5.95528 64.8381 4.85328 64.4007 4.63289C65.3848 5.73488 65.6035 6.89197 65.6035 7.71847C65.6035 9.37146 64.5647 10.198 64.5647 10.198C64.7834 9.81225 64.7834 9.48166 64.7834 9.20616C64.7834 8.98576 64.7287 8.76536 64.7287 8.76536C63.854 10.9142 61.7766 12.4019 61.6126 14.2202C61.4486 13.7794 61.3939 13.3386 61.3939 13.008C61.3939 11.4652 62.3233 10.5285 62.3233 10.5285C60.4645 11.7958 60.0271 13.2835 60.0271 14.4406C60.0271 15.5977 60.5192 16.4242 60.5192 16.4242C60.4098 15.9834 60.4645 15.2671 60.5738 14.7161C60.7925 16.314 61.5579 18.3527 63.7994 19.62C59.9178 19.62 58.3324 14.9365 59.9178 11.9611C57.239 12.6774 56.911 15.4875 56.8563 17.0854C56.6376 16.2038 56.6376 15.5426 56.6376 15.0467C56.6376 12.1264 59.0431 11.355 60.8472 10.5836C63.4713 9.42655 64.5647 8.43476 64.5647 6.72667C64.5647 4.90838 62.4326 3.75129 60.8472 4.08189L61.4486 4.68799C61.5579 4.79818 61.6672 4.90838 61.6672 4.90838C63.3073 5.78998 63.5807 6.72667 63.5807 7.27767C63.5807 8.82046 61.8859 9.64695 60.6285 10.1429C56.6376 11.8509 55.9269 12.6223 55.9269 15.1018C55.9269 16.9201 56.4736 19.7853 54.5602 20.0057C54.7242 20.2261 55.3802 20.3363 55.3802 20.3363C54.7789 20.8322 54.2322 20.9424 53.4668 20.9424C52.8107 20.9424 51.4987 20.722 51.116 19.3445C51.6627 19.5649 52.2094 19.8955 52.9748 19.8955ZM63.362 3.42069L63.526 3.53089C63.526 3.53089 64.4007 3.1452 64.4007 2.5391C64.4007 2.5391 64.4007 2.2085 64.182 1.9881C64.0727 1.9881 64.0727 2.2085 64.0727 2.2636C64.0727 2.484 63.9087 2.5942 63.69 2.5942C63.4713 2.5942 63.1433 2.3738 63.1433 2.0432C63.1433 1.7126 63.3073 1.54731 63.3073 1.43711C63.3073 1.43711 63.3073 1.38201 63.2527 1.38201C62.4873 1.6575 62.4326 1.9881 62.4326 2.2636C62.4326 2.6493 62.5966 2.9799 63.362 3.42069ZM54.2322 5.34918C54.2868 5.45938 54.4508 5.56958 54.5055 5.56958C54.7242 5.34918 54.8882 5.12878 54.8882 4.90838C54.6148 4.90838 54.2322 5.01858 54.2322 5.34918ZM69.5943 21.2179L69.4303 21.1628C69.2117 21.4383 68.5556 22.0444 67.5716 22.0444L67.5169 22.1546C67.9543 22.5954 67.8449 23.5321 67.2982 23.5321C66.9702 23.5321 66.8062 23.2566 66.7515 22.9811L66.6422 22.926C66.4782 23.0362 66.0955 23.3117 66.0408 23.4219C66.0408 23.6974 66.0955 24.0831 66.1502 24.3035H66.2595C66.3688 24.0831 66.5328 24.0831 66.6422 24.0831C66.8609 24.0831 67.0795 24.3035 67.0795 24.579C67.0795 25.0749 66.7515 25.4606 66.0955 25.4606C65.3848 25.4606 64.7834 25.13 64.7834 24.3586C64.7834 23.9729 65.0021 23.5321 65.4941 23.3117V23.2015C65.1114 22.926 64.7834 22.4301 64.6741 22.2097H64.5647C64.4007 22.4301 63.9634 22.8158 63.526 22.926V23.0913C63.9087 23.477 63.9634 23.8627 63.9634 24.0831C63.9634 24.6892 63.4167 25.0749 62.3779 25.0749C61.5579 25.0749 60.7925 24.8545 60.7925 24.028C60.7925 23.5872 61.0659 23.3668 61.3939 23.3668C61.6126 23.3668 61.9406 23.477 62.1046 23.7525H62.2139C62.4326 23.5321 62.4873 23.3668 62.8153 23.0913V22.9811C62.6513 22.8709 62.4326 22.5954 62.2139 22.2648H62.1046C61.7766 22.6505 61.5032 22.7056 61.2299 22.7056C61.0112 22.7056 60.7378 22.5954 60.7378 22.2648C60.7378 21.824 61.2845 21.6587 61.6672 21.4934V21.4383C60.9565 21.1628 60.3005 20.3914 60.1365 19.8955H60.0271C59.8631 20.3914 59.2071 21.1077 58.4964 21.4383V21.5485C58.9337 21.7138 59.4258 21.8791 59.4258 22.3199C59.4258 22.6505 59.1524 22.7607 58.9338 22.7607C58.6604 22.7607 58.3871 22.7056 58.059 22.3199H57.9497C57.731 22.6505 57.4577 22.926 57.3483 23.0362V23.0913C57.6763 23.3668 57.7857 23.5321 57.9497 23.7525H58.059C58.2777 23.477 58.5511 23.3668 58.7697 23.3668C59.0978 23.3668 59.3711 23.5872 59.3711 24.028C59.3711 24.8545 58.5511 25.0749 57.7857 25.0749C56.6923 25.0749 56.2003 24.6892 56.2003 24.0831C56.2003 23.8627 56.2549 23.477 56.6376 23.0913V23.0362C56.2003 22.926 55.7629 22.4852 55.5989 22.3199H55.4896C55.3802 22.5403 55.0522 23.0362 54.6695 23.3117V23.4219C55.2162 23.6423 55.3802 24.0831 55.3802 24.4688C55.3802 25.2402 54.7789 25.5708 54.0681 25.5708C53.4121 25.5708 53.0841 25.13 53.0841 24.6892C53.0841 24.4137 53.3028 24.1933 53.5214 24.1933C53.6308 24.1933 53.7948 24.2484 53.9041 24.4137H54.0135C54.0681 24.1933 54.1228 23.8076 54.1228 23.5321C54.0135 23.4219 53.6308 23.1464 53.5214 23.0362L53.4121 23.0913C53.3574 23.3117 53.1934 23.6423 52.8654 23.6423C52.3187 23.6423 52.264 22.7056 52.6467 22.2648L52.5921 22.1546C51.608 22.1546 50.952 21.5485 50.7333 21.273L52.7014 25.8462C52.7014 25.8462 52.264 26.0666 52.3734 26.3972C52.5921 27.0584 53.1388 27.94 53.1388 28.9869C53.1388 29.4277 53.0841 29.4828 53.0841 29.6481C53.0841 29.8685 53.2481 29.9236 53.4121 29.9236H66.8609C67.0795 29.9236 67.1889 29.8134 67.1889 29.6481C67.1889 29.4277 67.1342 29.4277 67.1342 28.9869C67.1342 27.94 67.7356 27.0584 67.8996 26.3972C68.0089 26.0666 67.5716 25.8462 67.5716 25.8462L69.5943 21.2179ZM60.1365 28.7665C56.4189 28.7665 53.9588 28.7114 53.9588 28.7114L53.4121 26.7278C53.4121 26.7278 56.747 26.2319 60.0818 26.2319C63.362 26.2319 66.7515 26.7278 66.7515 26.7278L66.2048 28.7114C66.3142 28.7114 63.854 28.7665 60.1365 28.7665Z" fill="white"/>
</g>
<defs>
<clipPath id="clip0_1820_2090">
<rect width="120" height="47" fill="white" transform="translate(0 0.5)"/>
</clipPath>
</defs>
</svg>
