<svg width="67" height="28" viewBox="0 0 67 28" fill="none" xmlns="http://www.w3.org/2000/svg">
<path d="M7.76953 27.88C6.32553 27.88 5.03353 27.5507 3.89353 26.892C2.77886 26.2333 1.90486 25.2707 1.27153 24.004C0.638198 22.712 0.321531 21.1413 0.321531 19.292V8.69C0.321531 8.41133 0.410198 8.18333 0.587531 8.006C0.764865 7.82867 0.992865 7.74 1.27153 7.74H6.02153C6.3002 7.74 6.5282 7.82867 6.70553 8.006C6.88287 8.18333 6.97153 8.41133 6.97153 8.69V19.064C6.97153 21.5467 8.0862 22.788 10.3155 22.788C11.3542 22.788 12.1775 22.4713 12.7855 21.838C13.4189 21.1793 13.7355 20.2547 13.7355 19.064V8.69C13.7355 8.41133 13.8242 8.18333 14.0015 8.006C14.1789 7.82867 14.4069 7.74 14.6855 7.74H19.4355C19.7142 7.74 19.9422 7.82867 20.1195 8.006C20.2969 8.18333 20.3855 8.41133 20.3855 8.69V26.55C20.3855 26.8287 20.2969 27.0567 20.1195 27.234C19.9422 27.4113 19.7142 27.5 19.4355 27.5H15.0275C14.7742 27.5 14.5462 27.4113 14.3435 27.234C14.1662 27.0567 14.0775 26.8287 14.0775 26.55V25.106C13.4189 26.018 12.5575 26.7147 11.4935 27.196C10.4549 27.652 9.21353 27.88 7.76953 27.88ZM36.9393 27.88C35.5206 27.88 34.3299 27.6393 33.3673 27.158C32.4299 26.6767 31.6573 26.0687 31.0493 25.334V26.55C31.0493 26.8287 30.9479 27.0567 30.7453 27.234C30.5679 27.4113 30.3526 27.5 30.0993 27.5H25.8053C25.5266 27.5 25.2986 27.4113 25.1213 27.234C24.9439 27.0567 24.8553 26.8287 24.8553 26.55V1.47C24.8553 1.19133 24.9439 0.963332 25.1213 0.786C25.2986 0.608666 25.5266 0.519999 25.8053 0.519999H30.4413C30.7199 0.519999 30.9479 0.608666 31.1253 0.786C31.3026 0.963332 31.3913 1.19133 31.3913 1.47V9.602C31.9993 8.94333 32.7593 8.41133 33.6713 8.006C34.6086 7.57533 35.6979 7.36 36.9393 7.36C38.2059 7.36 39.3206 7.57533 40.2833 8.006C41.2713 8.41133 42.1073 9.00667 42.7913 9.792C43.4753 10.5773 44.0073 11.5147 44.3873 12.604C44.7673 13.6933 44.9826 14.922 45.0333 16.29C45.0586 16.7713 45.0713 17.2147 45.0713 17.62C45.0713 18 45.0586 18.4433 45.0333 18.95C44.9826 20.3687 44.7546 21.6353 44.3493 22.75C43.9693 23.8393 43.4373 24.7767 42.7533 25.562C42.0693 26.322 41.2459 26.9047 40.2833 27.31C39.3206 27.69 38.2059 27.88 36.9393 27.88ZM34.8873 22.788C35.7486 22.788 36.4199 22.6107 36.9013 22.256C37.3826 21.9013 37.7246 21.42 37.9273 20.812C38.1553 20.204 38.2946 19.5327 38.3453 18.798C38.3959 18.0127 38.3959 17.2273 38.3453 16.442C38.2946 15.7073 38.1553 15.036 37.9273 14.428C37.7246 13.82 37.3826 13.3387 36.9013 12.984C36.4199 12.6293 35.7486 12.452 34.8873 12.452C34.1019 12.452 33.4559 12.6293 32.9493 12.984C32.4426 13.3133 32.0626 13.7567 31.8093 14.314C31.5559 14.846 31.4166 15.4287 31.3913 16.062C31.3659 16.5433 31.3533 17.012 31.3533 17.468C31.3533 17.924 31.3659 18.4053 31.3913 18.912C31.4166 19.596 31.5433 20.2293 31.7713 20.812C31.9993 21.3947 32.3666 21.876 32.8733 22.256C33.3799 22.6107 34.0513 22.788 34.8873 22.788ZM54.7559 27.88C53.3879 27.88 52.1593 27.6267 51.0699 27.12C50.0059 26.588 49.1573 25.8787 48.5239 24.992C47.8906 24.1053 47.5739 23.1047 47.5739 21.99C47.5739 20.1913 48.3086 18.7727 49.7779 17.734C51.2473 16.67 53.1979 15.948 55.6299 15.568L60.3799 14.846V14.314C60.3799 13.402 60.1899 12.7053 59.8099 12.224C59.4299 11.7427 58.7333 11.502 57.7199 11.502C57.0106 11.502 56.4279 11.6413 55.9719 11.92C55.5413 12.1987 55.1993 12.5787 54.9459 13.06C54.7179 13.3893 54.4013 13.554 53.9959 13.554H49.7399C49.4613 13.554 49.2459 13.478 49.0939 13.326C48.9419 13.1487 48.8786 12.946 48.9039 12.718C48.9039 12.262 49.0686 11.7427 49.3979 11.16C49.7526 10.552 50.2846 9.95667 50.9939 9.374C51.7033 8.79133 52.6153 8.31 53.7299 7.93C54.8446 7.55 56.1873 7.36 57.7579 7.36C59.4046 7.36 60.8106 7.55 61.9759 7.93C63.1413 8.31 64.0786 8.842 64.7879 9.526C65.5226 10.21 66.0673 11.0207 66.4219 11.958C66.7766 12.87 66.9539 13.8833 66.9539 14.998V26.55C66.9539 26.8287 66.8526 27.0567 66.6499 27.234C66.4726 27.4113 66.2573 27.5 66.0039 27.5H61.5959C61.3173 27.5 61.0893 27.4113 60.9119 27.234C60.7346 27.0567 60.6459 26.8287 60.6459 26.55V25.22C60.3166 25.7013 59.8733 26.1447 59.3159 26.55C58.7586 26.9553 58.0999 27.272 57.3399 27.5C56.6053 27.7533 55.7439 27.88 54.7559 27.88ZM56.5419 23.548C57.2766 23.548 57.9353 23.396 58.5179 23.092C59.1259 22.7627 59.5946 22.2687 59.9239 21.61C60.2786 20.926 60.4559 20.0773 60.4559 19.064V18.532L57.2259 19.102C56.0353 19.3047 55.1613 19.6213 54.6039 20.052C54.0719 20.4573 53.8059 20.9387 53.8059 21.496C53.8059 21.9267 53.9326 22.294 54.1859 22.598C54.4393 22.902 54.7686 23.1427 55.1739 23.32C55.5793 23.472 56.0353 23.548 56.5419 23.548Z" fill="white"/>
</svg>
