<svg width="150" height="14" viewBox="0 0 150 14" fill="none" xmlns="http://www.w3.org/2000/svg">
<path d="M4.14789 12.6574C4.14789 13.2386 4.31609 13.3509 4.68985 13.4451L5.26897 13.5765V13.8389H1.41992V13.5765L1.90575 13.4642C2.2795 13.3705 2.4477 13.1825 2.4477 12.658V1.29298H2.03659C0.878161 1.29298 0.411111 3.18705 0.280268 5.1936H0V0.918047H6.59559V5.19379H6.31533C6.18448 3.18724 5.71743 1.29317 4.559 1.29317H4.14789V12.6574ZM7.0067 13.5763L7.41782 13.4636C7.79157 13.37 7.95977 13.1823 7.95977 12.6574V2.08072C7.95977 1.55562 7.79157 1.38681 7.41782 1.29298L7.0067 1.1805V0.917855H10.6502V1.1805L10.2205 1.29298C9.86552 1.38681 9.65996 1.53678 9.65996 2.06187V6.99384H12.4814V2.06187C12.4814 1.53678 12.2759 1.38681 11.9209 1.29298L11.4912 1.1805V0.917855H15.1347V1.1805L14.7236 1.29298C14.35 1.38681 14.1818 1.55562 14.1818 2.08072V12.6388C14.1818 13.1638 14.35 13.3705 14.7236 13.4642L15.1347 13.5765V13.8389H11.491V13.5765L11.9207 13.483C12.2757 13.3894 12.4812 13.1827 12.4812 12.658V7.4253H9.65996V12.6574C9.65996 13.1823 9.86552 13.3888 10.2205 13.4824L10.6502 13.5763V13.8383H7.0067V13.5763ZM18.1989 13.464H19.4881C21.1697 13.464 21.4874 11.5511 21.7115 9.56336H21.9918V13.8385H15.5456V13.5763L15.9567 13.464C16.3305 13.3702 16.4987 13.1823 16.4987 12.6576V2.09937C16.4987 1.57446 16.3305 1.38681 15.9567 1.29298L15.5456 1.1805V0.917855H21.805V5.1936H21.5247C21.3192 3.18705 20.9268 1.29298 19.4881 1.29298H18.1989V6.9377L18.7967 6.91885C19.6002 6.86252 19.899 6.1688 20.1046 4.53699H20.3849V9.75025H20.1046C19.9366 7.70621 19.6188 7.38742 18.778 7.33108L18.1989 7.31224V13.464ZM25.9868 2.6433C25.7439 1.53697 25.5944 1.36816 25.2395 1.27433L24.8845 1.1805V0.917855H28.3785V1.1805L28.0983 1.23664C27.5004 1.36796 27.5563 1.96804 27.7245 2.77443L29.2006 10.1256L30.2843 4.27454L29.892 2.2678C29.7425 1.55524 29.6864 1.33028 29.3128 1.23645L29.0699 1.18031V0.917663H32.4893V1.18031L32.0782 1.25529C31.4615 1.36777 31.555 2.04284 31.7044 2.77424L33.1245 10.1258L34.5259 3.16821C34.7874 1.72424 34.6567 1.36796 34.0962 1.25548L33.7038 1.1805V0.917855H36.2636V1.1805L35.9086 1.27433C35.4602 1.38681 35.3481 1.74309 35.0864 2.99958L32.8069 13.9139H32.3211L30.5648 5.4001L28.9764 13.9139H28.3598L25.9868 2.6433ZM44.2605 13.464H45.0079C46.596 13.464 47.0632 11.5693 47.25 9.56336H47.5303V13.8385H37.9824V13.5763L38.3747 13.5009C39.1782 13.3513 39.1782 13.1264 38.9726 12.0006L38.6176 10.3128H36.3193L36.0764 11.5886C35.7962 13.0325 35.9456 13.3884 36.5063 13.5009L36.8987 13.5763V13.8385H34.3015V13.5763L34.6192 13.4826C35.1236 13.3327 35.2544 13.0325 35.5161 11.7572L37.7956 0.842677H38.3561L40.7477 12.1133C40.9906 13.2761 41.1027 13.5194 41.7753 13.5194C42.3544 13.5194 42.56 13.2192 42.56 12.6572V2.08052C42.56 1.55543 42.392 1.38661 42.0182 1.29279L41.6071 1.18031V0.917855H45.3067V1.19915L44.8021 1.31163C44.4285 1.38661 44.2603 1.55543 44.2603 2.08052L44.2605 13.464ZM36.3943 9.88176H38.5243L37.4406 4.55622L36.3943 9.88176ZM50.5946 13.464H51.342C52.9303 13.464 53.3973 11.5693 53.5841 9.56336H53.8644V13.8385H47.9414V13.5763L48.3525 13.464C48.7262 13.3702 48.8944 13.1823 48.8944 12.6576V2.08072C48.8944 1.55562 48.7262 1.38681 48.3525 1.29298L47.9414 1.1805V0.917855H51.641V1.19915L51.1366 1.31163C50.7628 1.38661 50.5946 1.55543 50.5946 2.08052V13.464ZM59.9571 13.9135C58.8736 13.9135 58.5 13.1638 58.145 13.1638C57.9395 13.1638 57.6965 13.22 57.5098 13.8389H57.2856V9.56298H57.5659C57.7902 11.9821 58.6872 13.5007 59.9389 13.5007C60.7797 13.5007 61.359 12.7318 61.359 11.3442C61.359 8.41858 57.1923 7.16227 57.1923 3.91787C57.1923 2.17397 58.0893 0.842292 59.6774 0.842292C60.705 0.842292 60.9293 1.51736 61.359 1.51736C61.6019 1.51736 61.7701 1.32989 61.8634 0.917278H62.0875V5.19302H61.8073C61.5831 3.0365 61.004 1.25491 59.6584 1.25491C58.7243 1.25491 58.5374 2.19243 58.5374 2.83019C58.5374 5.62448 62.704 6.58084 62.704 10.4813C62.7034 12.4699 61.6199 13.9135 59.9571 13.9135ZM66.833 12.6574C66.833 13.1823 67.0011 13.37 67.3749 13.4636L67.8607 13.5763V13.8383H64.1052V13.5763L64.591 13.4636C64.9648 13.37 65.1329 13.1823 65.1329 12.6574V1.29298H64.7218C63.5634 1.29298 63.0964 3.18705 62.9655 5.1936H62.6852V0.918047H69.2812V5.19379H69.0008C68.8699 3.18724 68.4031 1.29317 67.2444 1.29317H66.8333V12.6574H66.833ZM69.6918 13.5763L70.1029 13.4636C70.4766 13.37 70.6448 13.1823 70.6448 12.6574V2.08072C70.6448 1.55562 70.4766 1.38681 70.1029 1.29298L69.6918 1.1805V0.917855H73.2605C74.8489 0.917855 76.3249 1.93055 76.3249 4.04958C76.3249 5.6812 75.5588 6.82522 74.0079 7.23783C75.7082 7.55643 75.7082 8.3632 75.8764 10.5193L75.9885 12.1696C76.0446 13.0885 76.082 13.2952 76.3437 13.2952C76.6239 13.2952 76.7362 12.6578 76.7362 12.0387V11.7199H77.0536V12.151C77.0536 13.1825 76.8293 13.9137 75.7646 13.9137C74.718 13.9137 74.2324 13.3136 74.1573 11.1573L74.0642 8.75697C74.0268 7.61296 73.7466 7.44414 73.2046 7.44414H72.3264V12.6576C72.3264 13.1825 72.4946 13.389 72.8684 13.4826L73.2795 13.5765V13.8385H69.6919L69.6918 13.5763ZM72.3262 7.06902H72.9429C73.9893 7.06902 74.5125 6.78772 74.5125 4.29357C74.5125 1.79942 73.8211 1.29317 73.0738 1.29317H72.3264L72.3262 7.06902ZM79.8188 13.464H81.1078C82.7893 13.464 83.1075 11.5511 83.3312 9.56336H83.6115V13.8385H77.1653V13.5763L77.5764 13.464C77.95 13.3702 78.1182 13.1823 78.1182 12.6576V2.09937C78.1182 1.57446 77.95 1.38681 77.5764 1.29298L77.1653 1.1805V0.917855H83.4249V5.1936H83.1444C82.9395 3.18705 82.5467 1.29298 81.1078 1.29298H79.8188V6.9377L80.4167 6.91885C81.2197 6.86252 81.5192 6.1688 81.7245 4.53699H82.005V9.75025H81.7245C81.5561 7.70621 81.2389 7.38742 80.3975 7.33108L79.8188 7.31224V13.464ZM86.751 13.464H88.0402C89.7213 13.464 90.0395 11.5511 90.2632 9.56336H90.5435V13.8385H84.0977V13.5763L84.5088 13.464C84.8824 13.3702 85.0508 13.1823 85.0508 12.6576V2.09937C85.0508 1.57446 84.8824 1.38681 84.5088 1.29298L84.0977 1.1805V0.917855H90.3571V5.1936H90.0768C89.8713 3.18705 89.4789 1.29298 88.0402 1.29298H86.751V6.9377L87.3488 6.91885C88.1521 6.86252 88.4511 6.1688 88.6567 4.53699H88.9372V9.75025H88.6567C88.4885 7.70621 88.1709 7.38742 87.3301 7.33108L86.751 7.31224V13.464ZM95.1031 12.6574C95.1031 13.2386 95.2716 13.3509 95.6448 13.4451L96.2239 13.5765V13.8389H92.3749V13.5765L92.8607 13.4642C93.2339 13.3705 93.4027 13.1825 93.4027 12.658V1.29298H92.9916C91.8331 1.29298 91.3661 3.18705 91.2352 5.1936H90.955V0.918047H97.5508V5.19379H97.2705C97.1395 3.18724 96.6726 1.29317 95.5142 1.29317H95.1031V12.6574ZM105.362 10.8572C105.362 12.8641 104.353 13.9135 102.802 13.9135C101.402 13.9135 100.579 12.7699 100.598 11.5134C100.616 10.5384 101.326 10.051 101.906 10.1258C102.317 10.1819 102.728 10.482 102.672 11.1385C102.616 12.0762 101.606 12.0387 101.569 12.6199C101.532 12.9764 101.999 13.5013 102.596 13.5013C103.643 13.5013 103.643 12.1698 103.643 11.1573V2.06187C103.643 1.53678 103.475 1.38681 103.064 1.29298L102.597 1.1805V0.917855H106.278V1.1805L105.867 1.29298C105.493 1.38681 105.363 1.55562 105.363 2.08072L105.362 10.8572ZM109.716 13.9325C107.53 13.9325 106.465 10.9696 106.465 7.36877C106.465 3.78713 107.492 0.824219 109.716 0.824219C111.921 0.824219 112.986 3.78713 112.986 7.36877C112.986 10.9696 111.977 13.9325 109.716 13.9325ZM109.716 1.25548C108.782 1.25548 108.315 2.00554 108.315 7.29417C108.315 12.751 108.744 13.5201 109.716 13.5201C110.687 13.5201 111.136 12.751 111.136 7.25629C111.136 2.00573 110.687 1.25548 109.716 1.25548ZM120.385 13.5763L120.796 13.4636C121.17 13.37 121.338 13.1823 121.338 12.6574V2.08072C121.338 1.46179 121.057 1.23683 120.403 1.23683C119.581 1.23683 119.376 1.61196 119.376 2.6808V10.8197C119.376 12.8451 118.666 13.9325 116.929 13.9325C115.135 13.9325 114.089 12.8451 114.089 10.876V2.08072C114.089 1.55562 113.958 1.38681 113.584 1.29298L113.173 1.1805V0.917855H116.891V1.1805L116.387 1.29298C115.975 1.38681 115.807 1.53678 115.807 2.06187V11.0071C115.807 12.8262 116.33 13.295 117.284 13.295C118.405 13.295 118.872 12.6574 118.872 10.8195V3.35586C118.872 1.78058 118.853 1.40546 118.181 1.25548L117.826 1.1805V0.917855H123.954C125.543 0.917855 127.019 1.93055 127.019 4.04958C127.019 5.6812 126.252 6.82522 124.702 7.23783C126.402 7.55643 126.402 8.3632 126.57 10.5193L126.682 12.1696C126.738 13.0885 126.775 13.2952 127.037 13.2952C127.318 13.2952 127.43 12.6578 127.43 12.0387V11.7199H127.747V12.151C127.747 13.1825 127.523 13.9137 126.458 13.9137C125.412 13.9137 124.926 13.3136 124.851 11.1573L124.758 8.75697C124.72 7.61296 124.44 7.44414 123.898 7.44414H123.02V12.6576C123.02 13.1825 123.188 13.389 123.562 13.4826L123.973 13.5765V13.8385H120.385V13.5765L120.385 13.5763ZM123.019 7.06902H123.636C124.682 7.06902 125.205 6.78772 125.205 4.29357C125.205 1.79942 124.514 1.29317 123.767 1.29317H123.019V7.06902ZM128.083 1.25548L127.822 1.1805V0.917855H130.269L133.614 9.43165V3.29953C133.614 1.9119 133.651 1.4243 132.661 1.25548L132.343 1.1805V0.917855H135.108V1.1805L134.847 1.25548C134.044 1.44295 134.1 2.09937 134.1 3.41201V13.8387H133.502L129.316 3.50603V11.4572C129.316 12.9762 129.316 13.4078 130.512 13.5763V13.8383H127.821V13.5763L128.158 13.5199C128.849 13.3882 128.831 12.7135 128.831 11.3448V2.38066C128.513 1.72444 128.382 1.36796 128.083 1.25548ZM144.525 13.464H145.273C146.861 13.464 147.328 11.5693 147.515 9.56336H147.795V13.8385H138.266V13.5763L138.658 13.5009C139.462 13.3513 139.481 13.1264 139.256 12.0006L138.901 10.3128H136.603L136.36 11.5886C136.079 13.0325 136.229 13.3884 136.79 13.5009L137.182 13.5763V13.8385H134.585V13.5763L134.902 13.4826C135.407 13.3327 135.537 13.0325 135.799 11.7572L138.079 0.842869H138.639L141.031 12.1135C141.274 13.2763 141.367 13.5195 142.04 13.5195C142.619 13.5195 142.825 13.2194 142.825 12.6574V2.08052C142.825 1.55543 142.657 1.38661 142.283 1.29279L141.872 1.18031V0.917855H145.572V1.19915L145.067 1.31163C144.693 1.38661 144.525 1.55543 144.525 2.08052L144.525 13.464ZM136.678 9.88176H138.808L137.724 4.55602L136.678 9.88176ZM150 13.0135C150 13.5199 149.626 13.8951 149.178 13.8951C148.729 13.8951 148.356 13.5199 148.356 13.0135C148.356 12.5072 148.729 12.1321 149.178 12.1321C149.626 12.1321 150 12.5074 150 13.0135Z" fill="white"/>
</svg>
