<svg width="105" height="19" viewBox="0 0 105 19" fill="none" xmlns="http://www.w3.org/2000/svg">
<g clip-path="url(#clip0_1783_1020)">
<path d="M28.3404 5.45309C28.6217 5.45309 28.8629 5.67755 28.8629 5.96803V15.8047C28.8629 16.082 28.6083 16.3065 28.3404 16.3065H26.987C26.7324 16.3065 26.4778 16.1084 26.4778 15.8311V14.9201C25.7944 15.9104 24.6152 16.5969 22.9001 16.5969C20.0325 16.5969 18.2638 14.722 18.2638 11.9361V5.94163C18.2638 5.66435 18.5184 5.43989 18.7864 5.43989H20.1397C20.4211 5.43989 20.6489 5.66435 20.6489 5.94163V11.5532C20.6489 13.3621 21.6137 14.5636 23.5165 14.5636C25.379 14.5636 26.4778 13.3224 26.4778 11.5796V5.94163C26.4778 5.66435 26.7324 5.43989 26.987 5.43989L28.3404 5.45309ZM8.37481 0C3.73852 0 0 3.55177 0 8.29187C0 13.0452 3.73852 16.5837 8.37481 16.5837C9.16539 16.5837 9.92917 16.4781 10.6528 16.2801L11.5639 18.5907C11.6577 18.8416 11.8453 19 12.1803 19H13.6275C13.9759 19 14.2305 18.7755 14.0697 18.3398L12.8905 15.3162C15.2087 13.877 16.7496 11.3287 16.7496 8.27867C16.7496 3.55177 13.0111 0 8.37481 0ZM12.0195 13.1112L10.961 10.4044C10.8672 10.18 10.6796 9.96873 10.2776 9.96873H8.8974C8.54901 9.96873 8.28101 10.1932 8.44181 10.6289L9.83538 14.1807C9.37979 14.2995 8.884 14.3523 8.37481 14.3523C4.98469 14.3523 2.57274 11.7248 2.57274 8.29187C2.57274 4.85893 4.98469 2.23141 8.37481 2.23141C11.7649 2.23141 14.1769 4.85893 14.1769 8.29187C14.1769 10.2988 13.3595 12.0153 12.0195 13.1112ZM104.96 15.7519C105.08 16.0292 104.933 16.2933 104.598 16.2933H103.084C102.802 16.2933 102.575 16.1612 102.481 15.8839L99.6803 8.46352L96.8396 15.8839C96.719 16.1744 96.518 16.2933 96.2366 16.2933H94.8832C94.6018 16.2933 94.4008 16.1744 94.2803 15.8839L91.4127 8.42391L88.5854 15.8839C88.4648 16.1612 88.2638 16.2933 87.9824 16.2933H86.562C86.2806 16.2933 86.0796 16.1612 85.959 15.8839L83.1585 8.42391L80.2642 15.8839C80.1436 16.1744 79.9426 16.2933 79.6612 16.2933H78.3078C78.0264 16.2933 77.8254 16.1744 77.7048 15.8839L74.8775 8.42391L72.0502 15.8839C71.9564 16.1612 71.7286 16.2933 71.4472 16.2933H69.9732C69.6248 16.2933 69.4908 16.016 69.6114 15.7519L73.4437 5.87561C73.5643 5.58513 73.7653 5.43989 74.0467 5.43989H75.6949C75.9763 5.43989 76.1773 5.57192 76.2979 5.87561L79.0582 13.0848L81.7917 5.87561C81.9123 5.58513 82.1133 5.43989 82.3947 5.43989H84.0161C84.2975 5.43989 84.4985 5.57192 84.6191 5.87561L87.3258 13.0848L90.0326 5.87561C90.1532 5.58513 90.3541 5.43989 90.6355 5.43989H92.2703C92.5517 5.43989 92.7527 5.57192 92.8733 5.87561L95.6202 13.0848L98.3002 5.87561C98.4208 5.58513 98.6217 5.43989 98.9031 5.43989H100.551C100.833 5.43989 101.034 5.57192 101.154 5.87561L104.96 15.7519ZM41.4587 5.45309H40.1053C39.8239 5.45309 39.5827 5.67755 39.5827 5.96803V6.86588C38.8993 5.8492 37.5593 5.123 35.9782 5.123C32.99 5.123 30.4307 7.44684 30.4307 10.8402C30.4307 14.2731 33.0034 16.5837 35.9648 16.5837C37.5727 16.5837 38.8725 15.8575 39.5961 14.8409V15.7915C39.5961 16.0688 39.8507 16.2933 40.1187 16.2933H41.4721C41.7534 16.2933 41.9812 16.0688 41.9812 15.7915V5.96803C41.9678 5.67755 41.74 5.45309 41.4587 5.45309ZM36.2328 14.4183C34.263 14.4183 32.8561 12.8339 32.8561 10.8666C32.8561 8.87283 34.2496 7.34121 36.2328 7.34121C38.1891 7.34121 39.6095 8.87283 39.6095 10.8666C39.5961 12.8471 38.1757 14.4183 36.2328 14.4183ZM57.6053 14.7616C57.9001 15.1181 57.6455 15.3954 57.4847 15.5142C56.5467 16.214 55.3005 16.5969 53.9472 16.5969C50.5303 16.5969 48.2523 14.1279 48.2523 10.8798C48.2523 7.63169 50.5303 5.13621 53.9472 5.13621C55.3005 5.13621 56.5333 5.51911 57.4847 6.2189C57.6455 6.33773 57.8733 6.5754 57.6053 6.97151L56.9621 7.85615C56.7075 8.19944 56.4127 8.10702 56.1581 7.94858C55.5551 7.59208 54.845 7.28839 54.0276 7.28839C52.031 7.28839 50.7044 8.87283 50.7044 10.8798C50.7044 12.8867 52.031 14.458 54.0276 14.458C54.8584 14.458 55.5149 14.1411 56.1179 13.7978C56.3725 13.6657 56.6405 13.5469 56.9219 13.9166L57.6053 14.7616ZM63.9835 5.14941C60.7676 5.14941 58.2083 7.63169 58.2083 10.8666C58.2083 14.1279 60.781 16.5837 63.9835 16.5837C67.1995 16.5837 69.7588 14.1147 69.7588 10.8666C69.7722 7.64489 67.1995 5.14941 63.9835 5.14941ZM63.9835 14.4051C62.0138 14.4051 60.6068 12.8471 60.6068 10.8798C60.6068 8.88603 62.0004 7.35441 63.9835 7.35441C65.9533 7.35441 67.3603 8.88603 67.3603 10.8798C67.3603 12.8471 65.9667 14.4051 63.9835 14.4051ZM46.2021 0.29048C46.4969 0.29048 46.7113 0.541348 46.7113 0.80542V15.7783C46.7113 16.0556 46.5103 16.2933 46.2021 16.2933H44.8488C44.5674 16.2933 44.3262 16.0424 44.3262 15.7783V0.818624C44.3262 0.541348 44.5808 0.303683 44.8488 0.303683L46.2021 0.29048Z" fill="white"/>
</g>
<defs>
<clipPath id="clip0_1783_1020">
<rect width="105" height="19" fill="white"/>
</clipPath>
</defs>
</svg>
