<svg width="150" height="20" viewBox="0 0 150 20" fill="none" xmlns="http://www.w3.org/2000/svg">
<g clip-path="url(#clip0_1783_1026)">
<path d="M11.2301 2.05042C11.2301 0.403361 9.67315 0 8.44744 0V0.235294C9.17624 0.235294 9.7394 0.470588 9.7394 1.07563C9.7394 1.41176 9.50751 1.91597 8.74558 1.91597C8.18242 1.91597 6.95671 1.57983 6.06228 1.2437C5.00221 0.840336 4.04152 0.504202 3.21334 0.504202C1.59011 0.504202 0.430654 1.7479 0.430654 3.15966C0.430654 4.40336 1.32509 4.80672 1.65636 4.97479L1.72261 4.80672C1.55698 4.63866 1.32509 4.47059 1.32509 3.96639C1.32509 3.63025 1.65636 3.05882 2.45141 3.05882C3.18021 3.05882 4.17403 3.39496 5.46599 3.79832C6.59231 4.13445 7.81802 4.36975 8.48057 4.47059V7.02521L7.25486 8.10084V8.16807L8.48057 9.2437V12.8067C7.81802 13.2101 7.08922 13.3109 6.45981 13.3109C5.2341 13.3109 4.17403 12.9748 3.27959 12L6.62544 10.3529V4.63866L2.61705 6.45378C2.94832 5.37815 3.84276 4.63866 4.73719 4.13445L4.63781 3.89916C2.1864 4.57143 0 6.89076 0 9.68067C0 12.9748 2.6833 15.4622 5.69788 15.4622C8.94435 15.4622 11.0645 12.8067 11.0645 10.084H10.932C10.4351 11.1597 9.70627 12.1345 8.81184 12.6387V9.2437L10.1038 8.16807V8.10084L8.81184 7.02521V4.47059C10.0375 4.47059 11.2301 3.63025 11.2301 2.05042ZM4.1409 11.1597L3.14708 11.6639C2.58392 10.9244 2.25265 9.91597 2.25265 8.53782C2.25265 7.96639 2.25265 7.29412 2.41829 6.78992L4.1409 6.05042V11.1597ZM12.7871 13.0756L11.727 13.916L11.8927 14.084L12.3896 13.6807L14.1784 15.3277L16.6299 13.6807L16.5636 13.5126L15.9011 13.916L15.0729 13.0756V7.42857L15.7354 6.92437L17.1268 8.06723V13.1092C17.1268 16.2353 16.4642 16.7395 15.106 17.2437V17.479C17.3918 17.5462 19.5119 16.8067 19.5119 12.7731V7.36134L20.2407 6.78992L20.0751 6.62185L19.4125 7.12605L17.3587 5.37815L15.0729 7.12605V0.336134H14.9072L12.0583 2.31933V2.4874C12.3896 2.65546 12.8865 2.82353 12.8865 3.73109L12.7871 13.0756ZM27.6943 12.1681L25.6736 13.7479L23.6528 12.1008V11.0924L27.4956 8.43698V8.36975L25.508 5.37815L21.2677 7.69748V13.1429L20.4395 13.8151L20.6051 13.9832L21.3339 13.4118L24.1166 15.4622L27.7937 12.4706L27.6943 12.1681ZM23.6197 10.7563V6.68908L23.7853 6.62185L25.5742 9.5126L23.6197 10.7563ZM43.2641 1.31092C43.2641 1.07563 43.1979 0.806723 43.0985 0.571429H42.9329C42.701 1.2437 42.3697 1.57983 41.5415 1.57983C40.8127 1.57983 40.3158 1.17647 39.9845 0.840336L37.6325 3.56303L37.7981 3.73109L38.6263 2.9916C39.1232 3.39496 39.5208 3.73109 40.6471 3.83193V10.6891L35.8436 2.31933C35.4461 1.64706 34.8498 0.739496 33.7235 0.739496C32.4315 0.739496 31.2721 1.88235 31.4377 3.73109H31.6696C31.7359 3.22689 32.0009 2.65546 32.564 2.65546C32.9616 2.65546 33.3922 3.05882 33.6241 3.4958V6.21849C32.1665 6.21849 31.1727 6.89076 31.1727 8.13445C31.1727 8.80672 31.504 9.78151 32.4647 10.0504V9.88235C32.299 9.71429 32.2328 9.54622 32.2328 9.31092C32.2328 8.90756 32.564 8.57143 33.1272 8.57143H33.5247V12.0336C31.8021 12.0336 30.4439 13.042 30.4439 14.6891C30.4439 16.2689 31.7359 17.0084 33.2266 16.9076V16.7395C32.3322 16.6723 31.9346 16.2353 31.9346 15.6639C31.9346 14.9244 32.4315 14.5882 33.061 14.5882C33.7235 14.5882 34.2867 14.9916 34.6842 15.4958L37.0362 12.8403L36.8706 12.6723L36.3074 13.3445C35.413 12.5042 34.9161 12.2689 33.856 12.1008V3.79832L40.4152 15.3613H40.9121V3.79832C42.1047 3.73109 43.2641 2.72269 43.2641 1.31092ZM49.1939 12.1681L47.1731 13.7479L45.1524 12.1008V11.0924L48.9951 8.43698V8.36975L47.0406 5.37815L42.8004 7.69748V13.1429L41.9722 13.8151L42.1378 13.9832L42.8666 13.4118L45.6493 15.4622L49.3264 12.4706C49.2933 12.4706 49.1939 12.1681 49.1939 12.1681ZM45.1193 10.7563V6.68908L45.2849 6.62185L47.0738 9.5126C47.1069 9.5126 45.1193 10.7563 45.1193 10.7563ZM62.4779 6.28571L61.9148 6.68908L60.3578 5.37815L58.5689 7.02521L59.2977 7.76471V13.9496L57.3432 12.7059V7.59664L58.0057 7.19328L56.1175 5.37815L54.3286 7.02521L55.0574 7.76471V13.7143L54.8255 13.8824L53.1029 12.6387V7.69748C53.1029 6.55462 52.5398 6.21849 51.8772 5.78151C51.314 5.37815 50.9828 5.10924 50.9828 4.53782C50.9828 4.03361 51.4797 3.79832 51.7116 3.63025V3.46219C51.049 3.46219 49.3595 4.13445 49.3595 5.68067C49.3595 6.52101 49.7571 6.82353 50.1877 7.2605C50.5853 7.66387 51.0159 8 51.0159 8.7395V13.5462L50.1215 14.2185L50.2871 14.3866L51.1153 13.7143L53.0035 15.3613L55.0243 13.9496L57.3101 15.3613L61.6166 12.8067V7.2605L62.6767 6.42017L62.4779 6.28571ZM77.6502 1.7479L76.822 2.4874L75.0331 0.840336L72.3498 2.82353V1.0084H72.1179L72.1842 14.3866C71.9523 14.3866 71.1904 14.2185 70.6272 14.0504L70.4616 2.89076C70.4616 2.05042 69.8984 0.907563 68.4408 0.907563C66.9832 0.907563 65.9894 2.05042 65.9894 3.22689H66.2213C66.2875 2.72269 66.5526 2.31933 67.0495 2.31933C67.5464 2.31933 67.9439 2.65546 67.9439 3.73109V6.95798C66.4863 7.02521 65.5919 7.86555 65.5919 8.94118C65.5919 9.61345 65.9231 10.5882 66.8838 10.5882V10.4202C66.5526 10.2521 66.4863 10.0168 66.4863 9.84874C66.4863 9.34454 66.8838 9.17647 67.5464 9.17647H67.8776V14.2857C66.6519 14.6891 66.155 15.5966 66.155 16.605C66.155 18.0168 67.2151 18.9916 68.8383 18.9916C69.9647 18.9916 70.9585 18.8235 71.9192 18.5882C72.7474 18.4202 73.8074 18.1849 74.2712 18.1849C74.9337 18.1849 75.1656 18.521 75.1656 18.9244C75.1656 19.4958 74.9337 19.7647 74.6025 19.8319V20C75.8944 19.7647 76.7226 18.9244 76.7226 17.6807C76.7226 16.437 75.4969 15.6975 74.2049 15.6975C73.5424 15.6975 72.1842 15.9328 71.1904 16.1008C70.064 16.3361 68.9046 16.5042 68.5733 16.5042C68.0102 16.5042 67.3476 16.2689 67.3476 15.4286C67.3476 14.7563 67.9108 14.1849 69.3021 14.1849C70.0309 14.1849 70.9254 14.2521 71.8198 14.521C72.8136 14.7563 73.708 15.0252 74.5031 15.0252C75.7288 15.0252 76.7889 14.6218 76.7889 12.874V2.72269L77.7827 1.88235L77.6502 1.7479ZM74.3043 6.78992C74.0724 7.02521 73.7412 7.29412 73.3105 7.29412C72.8799 7.29412 72.4823 7.05882 72.3167 6.78992V3.12605L73.1449 2.55462L74.2712 3.63025C74.3043 3.63025 74.3043 6.78992 74.3043 6.78992ZM74.3043 9.2437C74.1387 9.07563 73.7412 8.84034 73.3105 8.84034C72.8799 8.84034 72.4823 9.07563 72.3167 9.2437V7.09244C72.4823 7.2605 72.8799 7.4958 73.3105 7.4958C73.7412 7.4958 74.1387 7.2605 74.3043 7.09244V9.2437ZM74.3043 13.1429C74.3043 13.8151 73.9068 14.4538 73.0124 14.4538H72.3498V9.57983C72.5155 9.41177 72.913 9.17647 73.3436 9.17647C73.7743 9.17647 74.0724 9.41177 74.3375 9.57983C74.3043 9.57983 74.3043 13.1429 74.3043 13.1429ZM85.4682 7.2605L82.8512 5.34454L78.8428 7.66387V13.042L78.0146 13.7143L78.0808 13.8824L78.7434 13.3782L81.3604 15.3613L85.4351 12.874C85.4682 12.9076 85.4682 7.2605 85.4682 7.2605ZM81.0623 12.4706V6.52101L83.083 8V13.8824C83.1162 13.8824 81.0623 12.4706 81.0623 12.4706ZM93.22 5.54622H93.0543C92.8224 5.71429 92.5574 5.88235 92.3255 5.88235C91.9943 5.88235 91.5967 5.71429 91.4311 5.47899H91.2655L89.8741 7.05882L88.4828 5.47899L86.0314 7.12605L86.0976 7.29412L86.7602 6.89076L87.5883 7.79832V13.0084L86.5283 13.8487L86.6939 14.0168L87.1908 13.6134L89.1453 15.2605L91.663 13.5126L91.5967 13.3445L90.8679 13.7479L89.8741 12.9076V7.12605C90.2716 7.52941 90.7686 7.96639 91.3317 7.96639C92.458 8.03361 93.1206 6.85714 93.22 5.54622ZM102.992 13.479L100.21 15.395L96.4664 9.61345L99.1497 5.41177H99.3154C99.6466 5.7479 100.144 6.08403 100.707 6.08403C101.27 6.08403 101.701 5.7479 101.932 5.41177H102.098C102.032 7.05882 100.872 8.06723 100.077 8.06723C99.2491 8.06723 98.8516 7.66387 98.3547 7.39496L98.1228 7.79832L102.197 13.916L103.026 13.4118V13.479H102.992ZM94.015 13.0756L92.9549 13.916L93.1206 14.084L93.6175 13.6807L95.4064 15.3277L97.8578 13.6807L97.6921 13.5126L97.0296 13.916L96.2014 13.0756V0.336134H96.1352L93.1868 2.31933V2.4874C93.5181 2.65546 94.015 2.72269 94.015 3.73109V13.0756ZM116.508 2.05042C116.508 0.403361 114.951 0 113.726 0V0.235294C114.455 0.235294 115.018 0.470588 115.018 1.07563C115.018 1.41176 114.786 1.91597 114.024 1.91597C113.461 1.91597 112.235 1.57983 111.341 1.2437C110.28 0.907563 109.32 0.571429 108.492 0.571429C106.868 0.571429 105.709 1.81513 105.709 3.22689C105.709 4.47059 106.603 4.87395 106.935 5.04202L107.001 4.87395C106.769 4.70588 106.504 4.53782 106.504 4.03361C106.504 3.69748 106.835 3.12605 107.63 3.12605C108.359 3.12605 109.353 3.46218 110.645 3.86555C111.771 4.20168 112.997 4.43698 113.659 4.53782V7.09244L112.434 8.16807V8.23529L113.659 9.31092V12.874C112.997 13.2773 112.268 13.3782 111.639 13.3782C110.413 13.3782 109.353 13.042 108.458 12.0672L111.804 10.4202V4.63866L107.73 6.45378C108.127 5.37815 109.022 4.63866 109.85 4.06723L109.784 3.89916C107.332 4.57143 105.146 6.78992 105.146 9.61345C105.146 12.9076 107.829 15.395 110.844 15.395C114.09 15.395 116.21 12.7395 116.21 10.0168H116.045C115.548 11.0924 114.819 12.0672 113.924 12.5714V9.17647L115.216 8.10084V8.03361L113.991 6.95798V4.47059C115.283 4.47059 116.508 3.63025 116.508 2.05042ZM109.419 11.1597L108.425 11.6639C107.862 10.9244 107.531 9.91597 107.531 8.53782C107.531 7.96639 107.597 7.29412 107.763 6.78992L109.485 6.05042L109.419 11.1597ZM119.357 1.2437H119.258L117.635 2.65546V2.72269L119.026 4.30252H119.192L120.815 2.89076V2.82353L119.357 1.2437ZM121.809 13.479L121.146 13.8824L120.318 13.042V7.32773L121.146 6.7563L120.981 6.58824L120.417 7.09244L118.96 5.34454L116.608 6.9916L116.773 7.22689L117.337 6.82353L118.065 7.73109V13.1092L117.005 13.9496L117.072 14.1176L117.635 13.7143L119.424 15.3613L121.875 13.7143L121.809 13.479ZM135.391 13.3782L134.828 13.7815L133.933 12.9412V7.36134L134.761 6.68908L134.596 6.52101L133.933 7.09244L132.045 5.34454L129.594 7.09244L127.705 5.34454L125.42 7.09244L123.962 5.34454L121.61 6.9916L121.676 7.22689L122.239 6.82353L123.068 7.73109V13.1092L122.405 13.7815L124.293 15.3613L126.082 13.7143L125.353 12.9748V7.36134L126.082 6.85714L127.308 8V12.9748L126.645 13.6471L128.534 15.2269L130.322 13.5798L129.594 12.8403V7.36134L130.256 6.95798L131.548 8.10084V13.0756L130.985 13.6471L132.873 15.395L135.391 13.6471V13.3782ZM142.48 12.1681L140.459 13.7479L138.439 12.1008V11.0924L142.281 8.43698V8.36975L140.327 5.37815L136.087 7.69748V13.3109L138.936 15.3613L142.613 12.3697C142.58 12.4034 142.48 12.1681 142.48 12.1681ZM138.405 10.7563V6.68908L138.571 6.62185L140.36 9.5126L138.405 10.7563ZM149.901 10.0168L148.344 8.77311C149.404 7.86555 149.801 6.62185 149.801 5.78151V5.27731H149.636C149.47 5.68067 149.139 6.11765 148.509 6.11765C147.847 6.11765 147.449 5.78151 147.052 5.27731L143.375 7.32773V10.3193L144.766 11.395C143.375 12.6387 143.143 13.4454 143.143 14.1176C143.143 14.958 143.54 15.5294 144.203 15.7647L144.269 15.5966C144.103 15.4286 143.938 15.3613 143.938 14.9244C143.938 14.6891 144.269 14.2521 144.932 14.2521C145.76 14.2521 146.224 14.8235 146.489 15.0924L150 12.9412V9.94958C150 10.0168 149.901 10.0168 149.901 10.0168ZM149.006 7.52941C148.443 8.53782 147.217 9.5126 146.489 10.0168L145.594 9.27731V6.38655C145.925 7.22689 146.82 7.86555 147.714 7.86555C148.277 7.86555 148.609 7.76471 149.006 7.52941ZM147.615 14.1513C147.217 13.2437 146.223 12.5714 145.263 12.5714C145.031 12.5714 144.368 12.5714 143.706 12.9748C144.103 12.3025 145.163 11.1597 146.555 10.3193L147.549 11.1597L147.615 14.1513Z" fill="white"/>
</g>
<defs>
<clipPath id="clip0_1783_1026">
<rect width="150" height="20" fill="white"/>
</clipPath>
</defs>
</svg>
