<svg width="40" height="14" viewBox="0 0 40 14" fill="none" xmlns="http://www.w3.org/2000/svg">
<g clip-path="url(#clip0_1801_1282)">
<path d="M26.0618 0.533203C23.2253 0.533203 20.6786 2.00912 20.6786 4.71752C20.6786 7.83673 25.1773 8.04975 25.1773 9.60175C25.1773 10.256 24.4148 10.8494 23.1338 10.8494C21.3039 10.8494 19.9314 10.0278 19.9314 10.0278L19.3519 12.7666C19.3519 12.7666 20.9226 13.4665 23.0271 13.4665C26.138 13.4665 28.578 11.9298 28.578 9.1605C28.578 5.87391 24.064 5.66089 24.064 4.2154C24.064 3.69807 24.6893 3.13509 25.9703 3.13509C27.419 3.13509 28.6085 3.7285 28.6085 3.7285L29.188 1.08097C29.1727 1.08097 27.8765 0.533203 26.0618 0.533203ZM0.0762486 0.731007L0 1.12661C0 1.12661 1.18948 1.33963 2.27221 1.78089C3.65993 2.28301 3.75143 2.5721 3.99543 3.46983L6.54213 13.2535H9.95806L15.1887 0.731007H11.788L8.41784 9.25179L7.04537 2.02434C6.92337 1.20269 6.28288 0.731007 5.4899 0.731007H0.0762486ZM16.5612 0.731007L13.8925 13.2535H17.1407L19.7941 0.731007H16.5612ZM34.6474 0.731007C33.8696 0.731007 33.4579 1.14183 33.1529 1.87218L28.395 13.2535H31.7957L32.4514 11.3516H36.5993L36.9958 13.2535H40L37.3923 0.731007H34.6474ZM35.0896 4.1241L36.0961 8.82575H33.3969L35.0896 4.1241Z" fill="white"/>
</g>
<defs>
<clipPath id="clip0_1801_1282">
<rect width="40" height="12.9333" fill="white" transform="translate(0 0.533203)"/>
</clipPath>
</defs>
</svg>
