<svg width="150" height="18" viewBox="0 0 150 18" fill="none" xmlns="http://www.w3.org/2000/svg">
<path d="M0 0.956962H12.084V3.91899H3.32028V7.86076H10.4126V10.7772H3.32028V14.8785H12.084V17.7949H0V0.956962ZM13.4618 17.7494H16.4885V0L13.4618 0.956962V17.7494ZM30.1536 12.3038C30.1536 12.4405 30.131 12.6 30.131 12.7595H20.9833C21.3899 14.2633 22.7225 15.2886 24.3262 15.2886C25.2522 15.2886 26.1105 14.9241 26.6074 14.1949H29.9503C29.0468 16.4962 26.9011 18 24.2584 18C20.6897 18 17.7759 15.357 17.7759 11.757C17.7759 8.15696 20.5315 5.51392 23.9422 5.51392C26.9011 5.51392 30.1536 7.70127 30.1536 12.3038ZM26.8785 10.5949C26.6074 9.18228 25.3877 8.20253 23.9648 8.20253C22.5418 8.20253 21.4124 9.11392 21.0059 10.5949H26.8785ZM37.3814 8.38481C38.7141 8.38481 39.8434 9.20506 40.3177 10.5038H43.367C42.8023 7.58734 40.3177 5.55949 37.3814 5.55949C33.9482 5.55949 31.17 8.17975 31.17 11.8025C31.17 15.4253 33.9482 18 37.3814 18C40.3403 18 42.8023 16.0633 43.367 13.1468H40.2951C39.8208 14.4456 38.6915 15.2658 37.3588 15.2658C35.5745 15.2658 34.1515 13.8532 34.1515 11.8481C34.1515 9.84304 35.597 8.38481 37.3814 8.38481ZM47.3197 2.27848L44.3382 3.23544V14.6506C44.3382 16.4962 45.6257 17.7494 47.8166 17.7494H50.7755V15.038H48.6749C47.7488 15.038 47.3197 14.6051 47.3197 13.8076V8.36203H50.7755V5.78734H47.3197V2.27848ZM135.657 2.27848L132.676 3.23544V14.6506C132.676 16.4962 133.963 17.7494 136.154 17.7494H139.113V15.038H137.012C136.086 15.038 135.657 14.6051 135.657 13.8076V8.36203H139.113V5.78734H135.657V2.27848ZM54.9315 7.92911V5.76456H51.9048V17.7266H54.9315V11.4152C54.9315 9.77468 56.3545 8.08861 58.7939 8.45316V5.55949C56.9643 5.33165 55.6543 6.37975 54.9315 7.92911ZM71.4651 11.7797C71.4651 15.3797 68.6644 18 65.186 18C61.7076 18 58.9068 15.3797 58.9068 11.7797C58.9068 8.17975 61.7076 5.53671 65.186 5.53671C68.6644 5.53671 71.4651 8.15696 71.4651 11.7797ZM68.4611 11.8025C68.4611 9.72911 67.0155 8.33924 65.186 8.33924C63.3564 8.33924 61.9109 9.72911 61.9109 11.8025C61.9109 13.8759 63.3564 15.2203 65.186 15.2203C67.0155 15.2203 68.4611 13.8076 68.4611 11.8025ZM79.3706 5.51392C77.8573 5.51392 76.5472 6.19747 75.8244 7.26835V5.78734H72.7978V17.7494H75.8244V10.5038C75.8244 9.11392 76.886 7.99747 78.309 7.99747C79.7094 7.99747 80.7936 9.04557 80.7936 10.6177V17.7494H83.7976V10.3899C83.7976 7.58734 82.2165 5.51392 79.3706 5.51392ZM86.9824 0.364557C85.9434 0.364557 85.0625 1.25316 85.0625 2.32405C85.0625 3.39494 85.9434 4.28354 86.9824 4.28354C88.0214 4.28354 88.9249 3.39494 88.9249 2.32405C88.9249 1.25316 88.044 0.364557 86.9824 0.364557ZM85.4691 17.7494H88.4957V5.78734H85.4691V17.7494ZM96.0398 8.38481C97.3724 8.38481 98.5017 9.20506 98.9761 10.5038H102.048C101.483 7.58734 98.9986 5.55949 96.0623 5.55949C92.6291 5.55949 89.8509 8.17975 89.8509 11.8025C89.8509 15.4253 92.6065 18 96.0398 18C98.9986 18 101.461 16.0633 102.025 13.1468H98.9535C98.705 13.8076 98.321 14.3089 97.8241 14.6962C97.3272 15.0608 96.7174 15.2658 96.0398 15.2658C94.2554 15.2658 92.8324 13.8532 92.8324 11.8481C92.8324 9.84304 94.2554 8.38481 96.0398 8.38481ZM115.487 0.250633L124.048 17.7722H120.569L118.875 14.1949H111.941L110.292 17.7722H106.927L115.487 0.250633ZM117.678 11.6203L115.374 6.72152L113.138 11.6203H117.678ZM127.797 7.9519V5.78734H124.77V17.7494H127.797V11.4152C127.797 9.77468 129.22 8.08861 131.659 8.45316V5.55949C129.83 5.33165 128.52 6.37975 127.797 7.9519ZM145.573 10.5266C144.105 10.1392 142.84 9.79747 142.84 8.93165C142.84 8.20253 143.608 7.83798 144.421 7.83798C145.821 7.83798 146.883 8.65823 147.064 9.91139H149.819C149.548 7.33671 147.402 5.53671 144.466 5.53671C141.869 5.53671 139.881 6.9038 139.881 9.20506C139.881 11.7797 142.298 12.4405 144.331 12.9646C145.776 13.3519 147.019 13.6709 147.019 14.5139C147.019 15.2203 146.228 15.676 145.144 15.676C143.676 15.676 142.546 14.8329 142.388 13.5797H139.633C139.881 16.1772 142.117 18 145.144 18C147.877 18 150.023 16.5418 150.023 14.2405C150 11.7342 147.583 11.0506 145.573 10.5266Z" fill="white"/>
</svg>
